<svg xmlns="http://www.w3.org/2000/svg" enable-background="new 0 0 68 68" viewBox="0 0 68 68"><rect width="37.28" height="3.26" x="15.36" y="11.275" fill="#444"/><rect width="37.28" height="3.26" x="15.36" y="26.113" fill="#444"/><rect width="37.28" height="3.26" x="15.36" y="40.951" fill="#444"/><path fill="#e2e2e2" d="M66,59.00558v4.15643c0,0.99966-0.81039,1.81006-1.81006,1.81006H3.81006C2.81039,64.97207,2,64.16167,2,63.16201v-4.15643c0-0.99966,0.81039-1.81005,1.81006-1.81005h60.37989C65.18961,57.19553,66,58.00592,66,59.00558z"/><path fill="#d3d3d3" d="M66,59.01001v2.84998c0-1-0.81-1.81-1.81-1.81H3.81c-1,0-1.81,0.81-1.81,1.81v-2.84998c0-1,0.81-1.81,1.81-1.81h60.38C65.19,57.20001,66,58.01001,66,59.01001z"/><path fill="#fff" d="M2,63.16207V60.3121c0,1,0.81,1.81,1.81,1.81h60.38c1,0,1.81-0.81,1.81-1.81v2.84998c0,1-0.81,1.81-1.81,1.81H3.81C2.81,64.97207,2,64.16207,2,63.16207z" opacity=".5"/><path fill="#e2e2e2" d="M61.21788,57.19553h-8.58101V4.83799c0-0.99967,0.81039-1.81006,1.81005-1.81006h4.9609c0.99966,0,1.81005,0.81039,1.81005,1.81006V57.19553z"/><path fill="#fff" d="M61.21997,4.83997v52.36005H58V4.83997c0-1-0.81-1.81-1.81-1.81h3.21997C60.40997,3.02997,61.21997,3.83997,61.21997,4.83997z" opacity=".5"/><path fill="#d3d3d3" d="M52.63687,4.83997v52.36005h3.21997V4.83997c0-1,0.81-1.81,1.81-1.81h-3.21997C53.44687,3.02997,52.63687,3.83997,52.63687,4.83997z"/><path fill="#a7d08c" d="M21.53073 7.58659h2.68156c.88859 0 1.60894.72035 1.60894 1.60894v7.41899c0 .88859-.72035 1.60894-1.60894 1.60894h-2.68156c-.88859 0-1.60894-.72035-1.60894-1.60894V9.19553C19.92179 8.30694 20.64213 7.58659 21.53073 7.58659zM41.95531 22.42458h2.68156c.88859 0 1.60894.72035 1.60894 1.60894v7.41899c0 .88859-.72035 1.60894-1.60894 1.60894h-2.68156c-.88859 0-1.60894-.72034-1.60894-1.60894v-7.41899C40.34637 23.14493 41.06672 22.42458 41.95531 22.42458z"/><path fill="#fe9967" d="M42.9162,47.89944h-2.68156c-0.88859,0-1.60894-0.72034-1.60894-1.60894v-7.41899c0-0.88859,0.72035-1.60894,1.60894-1.60894h2.68156c0.88859,0,1.60894,0.72035,1.60894,1.60894v7.41899C44.52514,47.1791,43.80479,47.89944,42.9162,47.89944z"/><path fill="#a7d08c" d="M33.66481,47.89944h-2.68157c-0.88859,0-1.60894-0.72034-1.60894-1.60894v-7.41899c0-0.88859,0.72035-1.60894,1.60894-1.60894h2.68157c0.88859,0,1.60894,0.72035,1.60894,1.60894v7.41899C35.27374,47.1791,34.5534,47.89944,33.66481,47.89944z"/><path fill="#badda4" d="M24.21228 7.58655h-1.37897v10.6369h1.37897c.88861 0 1.60895-.72034 1.60895-1.60895V9.1955C25.82123 8.30695 25.10089 7.58655 24.21228 7.58655zM44.6369 22.42456h-1.47021v10.6369h1.47021c.88855 0 1.60889-.7204 1.60889-1.60895v-7.41901C46.24579 23.1449 45.52545 22.42456 44.6369 22.42456zM33.66479 37.26257h-1.49811v10.63684h1.49811c.88861 0 1.60895-.72034 1.60895-1.60895v-7.41895C35.27374 37.98291 34.55341 37.26257 33.66479 37.26257z"/><path fill="#e2e2e2" d="M15.36208,57.19553H6.78108V4.83799c0-0.99967,0.81039-1.81006,1.81006-1.81006h4.96089c0.99967,0,1.81006,0.81039,1.81006,1.81006V57.19553z"/><path fill="#ededed" d="M15.36417,4.83997v52.36005H12.1442V4.83997c0-1-0.81-1.81-1.81-1.81h3.21997C14.55418,3.02997,15.36417,3.83997,15.36417,4.83997z"/><path fill="#d3d3d3" d="M6.78108,4.83997v52.36005h3.21997V4.83997c0-1,0.81-1.81,1.81-1.81H8.59107C7.59107,3.02997,6.78108,3.83997,6.78108,4.83997z"/><path fill="#ffac88" d="M42.91623,37.26254h-1.47021v10.6369h1.47021c0.88855,0,1.60889-0.7204,1.60889-1.60895v-7.41901C44.52512,37.98288,43.80478,37.26254,42.91623,37.26254z"/><path fill="#fe9967" d="M32.65922,7.58657h2.68156c0.88859,0,1.60894,0.72035,1.60894,1.60894v7.41899c0,0.88859-0.72035,1.60894-1.60894,1.60894h-2.68156c-0.88859,0-1.60894-0.72035-1.60894-1.60894V9.19551C31.05028,8.30691,31.77063,7.58657,32.65922,7.58657z"/><path fill="#ffac88" d="M35.34081,7.58655H33.8706v10.6369h1.47021c0.88855,0,1.60889-0.7204,1.60889-1.60895V9.1955C36.9497,8.30688,36.22936,7.58655,35.34081,7.58655z"/></svg>