<svg xmlns="http://www.w3.org/2000/svg" enable-background="new 0 0 68 68" viewBox="0 0 68 68"><path fill="#333" d="M17.21691 15.32216c-.16992.13-.38.19-.57996.19-.30994 0-.60999-.14996-.80994-.41998L6.92687 2.66219c-.30994-.45001-.19995-1.07001.25-1.38C7.62694.96217 8.24693 1.06221 8.567 1.51216l8.87988 12.42004C17.77696 14.37221 17.66686 15.00221 17.21691 15.32216zM61.05699 2.68221l-8.88013 12.40997c-.19995.27002-.5.41998-.80994.41998-.21008 0-.41003-.06-.58997-.19-.44006-.31995-.55005-.94995-.22998-1.38995l8.88989-12.42004c.32007-.44.94006-.54999 1.39014-.22998C61.27696 1.6122 61.37694 2.23219 61.05699 2.68221zM15.04845 66.90474c-.16797 0-.33887-.04199-.49512-.13184-.47949-.27344-.64648-.88477-.37207-1.36426l3.70606-6.48828c.27344-.47949.88379-.64844 1.36426-.37207.47949.27344.64648.88477.37207 1.36426l-3.70606 6.48828C15.73302 66.72408 15.3961 66.90474 15.04845 66.90474zM52.9547 66.90474c-.34766 0-.68457-.18066-.86914-.50391l-3.70605-6.48828c-.27441-.47949-.10742-1.09082.37207-1.36426.47852-.27637 1.08984-.10742 1.36426.37207l3.70605 6.48828c.27441.47949.10742 1.09082-.37207 1.36426C53.29356 66.86275 53.12267 66.90474 52.9547 66.90474z"/><circle cx="34" cy="36.37" r="27.634" fill="#fe9967"/><path fill="#ef8759" d="M36.60317,63.88493c-0.85999,0.08002-1.71997,0.12006-2.59998,0.12006c-15.27002,0-27.64001-12.37006-27.64001-27.64001c0-15.26001,12.37-27.63,27.64001-27.63c0.88,0,1.73999,0.03998,2.59998,0.12c-14.05005,1.31-25.04004,13.13-25.04004,27.51001C11.56313,50.75499,22.55312,62.57494,36.60317,63.88493z"/><path fill="#ffac88" d="M61.63437,36.36497c0,15.26996-12.36987,27.64001-27.62988,27.64001c-0.88013,0-1.73999-0.04004-2.6001-0.12006c14.04004-1.31,25.03003-13.12994,25.03003-27.51996c0-14.38-10.98999-26.20001-25.03003-27.51001c0.86011-0.08002,1.71997-0.12,2.6001-0.12C49.26449,8.73497,61.63437,21.10497,61.63437,36.36497z"/><circle cx="34" cy="36.37" r="21.504" fill="#e2e2e2"/><path fill="#333" d="M43.48692 37.36568h-6.9043c-.55273 0-1-.44727-1-1s.44727-1 1-1h6.9043c.55273 0 1 .44727 1 1S44.03966 37.36568 43.48692 37.36568zM32.37755 35.90183c-.29199 0-.58008-.12695-.77832-.37109L22.84728 24.7241c-.34766-.42871-.28125-1.05859.14844-1.40625.42969-.34668 1.05859-.28027 1.40625.14844l8.75195 10.80664c.34766.42871.28125 1.05859-.14844 1.40625C32.82091 35.82859 32.59825 35.90183 32.37755 35.90183z"/><path fill="#d3d3d3" d="M36.52321,57.72496c-0.82996,0.09998-1.67004,0.15002-2.52002,0.15002c-11.88,0-21.51001-9.63-21.51001-21.51001c0-11.87,9.63001-21.5,21.51001-21.5c0.84998,0,1.69006,0.04999,2.52002,0.14996c-10.68005,1.25-18.9801,10.33002-18.9801,21.35004C17.54311,47.39494,25.84316,56.47496,36.52321,57.72496z"/><path fill="#ededed" d="M55.50446,36.36497c0,11.88-9.62988,21.51001-21.51001,21.51001c-0.84985,0-1.68994-0.05005-2.5199-0.15002c10.68005-1.25,18.97998-10.33002,18.97998-21.35999c0-11.02002-8.29993-20.10004-18.97998-21.35004c0.82995-0.09998,1.67004-0.14996,2.5199-0.14996C45.87458,14.86498,55.50446,24.49498,55.50446,36.36497z"/><path fill="#e2e2e2" d="M7.5768,16.1108c-0.49241,0.35263-1.18325,0.18861-1.47421-0.34257c-2.245-4.09847-1.12579-9.32151,2.76906-12.11077c3.89865-2.79199,9.21046-2.16582,12.36663,1.2882c0.40492,0.44313,0.32898,1.146-0.15905,1.49549L7.5768,16.1108z"/><path fill="#ededed" d="M14.16092,11.39495L7.5785,16.11314c-0.49217,0.35278-1.18306,0.18922-1.47423-0.34173c-2.24249-4.0892-1.13209-9.2921,2.73658-12.09644L14.16092,11.39495z"/><path fill="#e2e2e2" d="M60.4232,16.1108c0.49241,0.35263,1.18325,0.18861,1.47421-0.34257c2.245-4.09847,1.12579-9.32151-2.76906-12.11077c-3.89865-2.79199-9.21046-2.16582-12.36663,1.2882c-0.40491,0.44313-0.32898,1.146,0.15905,1.49549L60.4232,16.1108z"/><circle cx="34" cy="36.37" r="2.581" fill="#666"/><path fill="#ededed" d="M53.83908,11.39495l6.58242,4.71819c0.49216,0.35278,1.18306,0.18922,1.47423-0.34173c2.24249-4.0892,1.13209-9.2921-2.73658-12.09644L53.83908,11.39495z"/><path fill="#666" d="M34.00039 22.22826c.55273 0 1-.44727 1-1v-2.63379c0-.55273-.44727-1-1-1s-1 .44727-1 1v2.63379C33.00039 21.78099 33.44765 22.22826 34.00039 22.22826zM18.85879 35.36986H16.225c-.55274 0-1 .44727-1 1s.44727 1 1 1h2.63379c.55273 0 1-.44727 1-1S19.41152 35.36986 18.85879 35.36986zM34.00039 50.51146c-.55273 0-1 .44727-1 1v2.63379c0 .55273.44727 1 1 1s1-.44727 1-1v-2.63379C35.00039 50.95872 34.55312 50.51146 34.00039 50.51146zM48.14199 36.36986c0 .55273.44727 1 1 1h2.63379c.55273 0 1-.44727 1-1s-.44727-1-1-1h-2.63379C48.58925 35.36986 48.14199 35.81712 48.14199 36.36986z"/><path fill="#fff" d="M50.36074 40.23412c-.52246-.17773-1.09082.10254-1.26855.62598-.97949 2.88477-2.78711 5.40625-5.22559 7.29199-.4375.33789-.51758.96582-.17969 1.40234.19727.25488.49219.38867.79199.38867.21289 0 .42871-.06836.61035-.20898 2.75098-2.12598 4.79004-4.97266 5.89746-8.23145C51.16347 40.98021 50.88417 40.41185 50.36074 40.23412zM40.87636 50.00755c-.19824.10156-.40137.19434-.60645.28418-.50488.22266-.73438.8125-.51172 1.31836.16504.37402.53125.59668.91602.59668.13379 0 .27148-.02734.40234-.08496.23828-.10547.47656-.21387.70801-.33105.49219-.25098.6875-.85352.4375-1.3457C41.97109 49.95287 41.36953 49.75853 40.87636 50.00755z"/></svg>