<svg xmlns="http://www.w3.org/2000/svg" enable-background="new 0 0 68 68" viewBox="0 0 68 68"><path fill="#fe9967" d="M31.23,66.00099H4.77c-1.52983,0-2.77-1.24017-2.77-2.77v-26.46c0-1.52983,1.24017-2.77,2.77-2.77h26.46c1.52983,0,2.77,1.24017,2.77,2.77v26.46C34,64.76082,32.75983,66.00099,31.23,66.00099z"/><path fill="#feeb75" d="M63.23,66.00099H36.77c-1.52983,0-2.77-1.24017-2.77-2.77v-26.46c0-1.52983,1.24017-2.77,2.77-2.77h26.46c1.52983,0,2.77,1.24017,2.77,2.77v26.46C66,64.76082,64.75983,66.00099,63.23,66.00099z"/><path fill="#a7d08c" d="M49.98631,34.00099h-26.46c-1.52983,0-2.77-1.24017-2.77-2.77v-26.46c0-1.52983,1.24017-2.77,2.77-2.77h26.46c1.52983,0,2.77,1.24017,2.77,2.77v26.46C52.75631,32.76082,51.51614,34.00099,49.98631,34.00099z"/><path fill="#fff3ab" d="M66.00185,36.77099v26.46999c0,1.51996-1.23999,2.76001-2.77002,2.76001h-4.78998c1.53003,0,2.77002-1.24005,2.77002-2.76001V36.77095c0-1.52997-1.23999-2.76996-2.77002-2.76996h4.79C64.76167,34.00099,66.00185,35.24116,66.00185,36.77099z"/><path fill="#efd96a" d="M33.99815,36.77095v26.47003c0,1.51996,1.23999,2.76001,2.77002,2.76001h4.78998c-1.53003,0-2.77002-1.24005-2.77002-2.76001V36.77095c0-1.52997,1.23999-2.76996,2.77002-2.76996h-4.78998C35.23814,34.00099,33.99815,35.24098,33.99815,36.77095z"/><path fill="#fff3ab" d="M46.69185,66.00099h-2.34003c-1.52997,0-2.76996-1.24005-2.76996-2.76001V36.77095c0-1.52997,1.23999-2.76996,2.76996-2.76996h2.34003c-1.53003,0-2.77002,1.23999-2.77002,2.76996v26.47003C43.92183,64.76094,45.16182,66.00099,46.69185,66.00099z"/><path fill="#ffac88" d="M34.00185,36.77095v26.47003c0,1.51996-1.23999,2.76001-2.77002,2.76001h-4.78998c1.53003,0,2.77002-1.24005,2.77002-2.76001V36.77095c0-1.52997-1.23999-2.76996-2.77002-2.76996h4.78998C32.76186,34.00099,34.00185,35.24098,34.00185,36.77095z"/><path fill="#ef8759" d="M1.99815,36.77095v26.47003c0,1.51996,1.23999,2.76001,2.77002,2.76001h4.78998c-1.53003,0-2.77002-1.24005-2.77002-2.76001V36.77095c0-1.52997,1.23999-2.76996,2.77002-2.76996H4.76817C3.23814,34.00099,1.99815,35.24098,1.99815,36.77095z"/><path fill="#ffac88" d="M14.69185,66.00099h-2.34003c-1.52997,0-2.76996-1.24005-2.76996-2.76001V36.77095c0-1.52997,1.23999-2.76996,2.76996-2.76996h2.34003c-1.53003,0-2.77002,1.23999-2.77002,2.76996v26.47003C11.92183,64.76094,13.16182,66.00099,14.69185,66.00099z"/><path fill="#badda4" d="M52.76001,4.76897V31.239c0,1.51996-1.23999,2.76001-2.77002,2.76001h-4.78998c1.53003,0,2.77002-1.24005,2.77002-2.76001V4.76897c0-1.52997-1.23999-2.76996-2.77002-2.76996h4.78998C51.52002,1.99901,52.76001,3.239,52.76001,4.76897z"/><path fill="#9ac181" d="M20.75632,4.76897V31.239c0,1.51996,1.23999,2.76001,2.77002,2.76001h4.78998c-1.53003,0-2.77002-1.24005-2.77002-2.76001V4.76897c0-1.52997,1.23999-2.76996,2.77002-2.76996h-4.78998C21.99631,1.99901,20.75632,3.239,20.75632,4.76897z"/><path fill="#badda4" d="M33.45001,33.99901h-2.34003c-1.52997,0-2.76996-1.24005-2.76996-2.76001V4.76897c0-1.52997,1.23999-2.76996,2.76996-2.76996h2.34003c-1.53003,0-2.77002,1.23999-2.77002,2.76996V31.239C30.67999,32.75896,31.91998,33.99901,33.45001,33.99901z"/><path fill="#fff" d="M37.48131 30.54398h8.70801c.55273 0 1-.44727 1-1s-.44727-1-1-1h-8.70801c-.55273 0-1 .44727-1 1S36.92858 30.54398 37.48131 30.54398zM33.63561 30.54398h.3623c.55273 0 1-.44727 1-1s-.44727-1-1-1h-.3623c-.55273 0-1 .44727-1 1S33.08287 30.54398 33.63561 30.54398zM31.87839 25.55191c-.21582-.21484-.32324-.48438-.32324-.80664s.10742-.5957.32324-.81934c.21484-.22363.4834-.33594.80566-.33594h3.19824V9.96402l-2.74121 1.34375c-.25098.10742-.45703.16113-.61816.16113-.34082 0-.61816-.10742-.83301-.32227-.21484-.21582-.32227-.49316-.32227-.83398 0-.50098.23242-.86816.69824-1.10156l3.65527-1.9082c.25098-.125.50098-.18848.75293-.18848h.56445c.35742 0 .66211.12598.91309.37695s.37695.55566.37695.91309V23.59h2.66016c.32227 0 .5957.1123.82031.33594.22363.22363.33594.49707.33594.81934s-.1123.5918-.33594.80664c-.22461.21484-.49805.32227-.82031.32227h-8.30469C32.36178 25.87418 32.09323 25.76676 31.87839 25.55191zM11.8457 59.1255c-.26953-.25977-.40332-.5957-.40332-1.00781 0-.93164.27246-1.79199.81934-2.58008s1.20996-1.48242 1.98926-2.08301c.7793-.59961 1.80469-1.3125 3.07715-2.13672 1.09277-.69824 1.96191-1.29004 2.60645-1.77344.64551-.48438 1.18262-1.0127 1.61328-1.58594.42969-.57324.64453-1.18262.64453-1.82715 0-1.02148-.33594-1.83203-1.00781-2.43262-.67188-.59961-1.75098-.90039-3.23828-.90039-1.6123 0-3.14453.32227-4.5957.96777-.17969.08984-.34961.13379-.51074.13379-.28711 0-.52832-.09766-.72559-.29492s-.2959-.44824-.2959-.75293c0-.44727.19727-.7793.5918-.99414 1.82715-.91406 3.81641-1.37109 5.96582-1.37109 1.14648 0 2.19043.22852 3.13086.68555.94141.45703 1.68457 1.09766 2.23145 1.92188.5459.82422.81934 1.77344.81934 2.84863 0 1.05762-.30859 2.03809-.92676 2.94336-.61816.9043-1.35742 1.69727-2.21777 2.37793-.86035.68164-1.97949 1.46973-3.35938 2.36523-1.25391.84277-2.19922 1.51855-2.83496 2.0293-.63672.51074-1.08008 1.03418-1.33105 1.57227h9.35254c.32324 0 .5957.1123.82031.33594.22363.22363.33594.49707.33594.81934s-.1123.5918-.33594.80664c-.22461.21484-.49707.32227-.82031.32227H12.86621C12.4541 59.51515 12.11426 59.38527 11.8457 59.1255z"/><path fill="#444" d="M44.06006,59.01957c-0.21484-0.08887-0.38477-0.21875-0.51074-0.38965c-0.125-0.16992-0.1875-0.37988-0.1875-0.63086c0-0.30469,0.10254-0.56934,0.30859-0.79297s0.46094-0.33594,0.7666-0.33594c0.16113,0,0.33105,0.03613,0.50977,0.10742c1.29004,0.51953,2.71484,0.7793,4.27344,0.7793c1.39746,0,2.57617-0.22852,3.53418-0.68555c0.95898-0.45703,1.43848-1.22266,1.43848-2.29785c0-2.25781-1.98047-3.38672-5.93945-3.38672h-0.43066c-0.30469,0-0.56836-0.11133-0.79297-0.33594c-0.22363-0.22363-0.33594-0.4873-0.33594-0.79199s0.1123-0.56934,0.33594-0.79297c0.22461-0.22363,0.48828-0.33594,0.79297-0.33594h0.16113c1.79199,0,3.16211-0.27344,4.1123-0.82031c0.94922-0.5459,1.4248-1.35645,1.4248-2.43164c0-0.86035-0.35938-1.54102-1.0752-2.04297c-0.7168-0.50098-1.77441-0.75195-3.17188-0.75195c-1.50488,0-2.89355,0.29492-4.16504,0.88672c-0.17969,0.07129-0.34082,0.10742-0.48438,0.10742c-0.26855,0-0.50195-0.09473-0.69824-0.28223c-0.19727-0.18848-0.2959-0.42578-0.2959-0.71191c0-0.41211,0.17871-0.7168,0.53711-0.91406c1.7207-0.91406,3.49414-1.37109,5.32129-1.37109c2.06055,0,3.65527,0.42188,4.78418,1.26367s1.69336,2.0332,1.69336,3.57422c0,1.23633-0.30859,2.20801-0.92676,2.91602s-1.39355,1.23242-2.3252,1.57227c1.02148,0.2334,1.93066,0.72168,2.72754,1.46484c0.79785,0.74316,1.19629,1.85059,1.19629,3.31934c0,1.64844-0.64941,2.9248-1.94824,3.8291c-1.2998,0.90527-2.96973,1.35742-5.0127,1.35742C47.68896,60.09476,45.81592,59.73637,44.06006,59.01957z"/></svg>