<svg xmlns="http://www.w3.org/2000/svg" enable-background="new 0 0 68 68" viewBox="0 0 68 68"><path fill="#fe9967" d="M63.22949,66.00297H36.76682c-1.52909,0-2.76866-1.23957-2.76866-2.76866V36.77163c0-1.52909,1.23957-2.76866,2.76866-2.76866h26.46267c1.52909,0,2.76867,1.23957,2.76867,2.76866v26.46267C65.99815,64.7634,64.75858,66.00297,63.22949,66.00297z"/><path fill="#ffac88" d="M66.00185,36.76897V63.239c0,1.51996-1.23999,2.76001-2.77002,2.76001h-4.78998c1.53003,0,2.77002-1.24005,2.77002-2.76001V36.76897c0-1.52997-1.23999-2.76996-2.77002-2.76996h4.78998C64.76186,33.99901,66.00185,35.239,66.00185,36.76897z"/><path fill="#ef9d65" d="M33.99815,36.76897V63.239c0,1.51996,1.23999,2.76001,2.77002,2.76001h4.78998c-1.53003,0-2.77002-1.24005-2.77002-2.76001V36.76897c0-1.52997,1.23999-2.76996,2.77002-2.76996h-4.78998C35.23814,33.99901,33.99815,35.239,33.99815,36.76897z"/><path fill="#ffac88" d="M46.69185,65.99901h-2.34003c-1.52997,0-2.76996-1.24005-2.76996-2.76001V36.76897c0-1.52997,1.23999-2.76996,2.76996-2.76996h2.34003c-1.53003,0-2.77002,1.23999-2.77002,2.76996V63.239C43.92183,64.75896,45.16182,65.99901,46.69185,65.99901z"/><path fill="#a7d08c" d="M31.22949,66.00297H4.76682c-1.52909,0-2.76866-1.23957-2.76866-2.76866V36.77163c0-1.52909,1.23957-2.76866,2.76866-2.76866h26.46267c1.52909,0,2.76867,1.23957,2.76867,2.76866v26.46267C33.99815,64.7634,32.75858,66.00297,31.22949,66.00297z"/><path fill="#badda4" d="M34.00185,36.76897V63.239c0,1.51996-1.23999,2.76001-2.77002,2.76001h-4.78998c1.53003,0,2.77002-1.24005,2.77002-2.76001V36.76897c0-1.52997-1.23999-2.76996-2.77002-2.76996h4.78998C32.76186,33.99901,34.00185,35.239,34.00185,36.76897z"/><path fill="#9ac181" d="M1.99815,36.76897V63.239c0,1.51996,1.23999,2.76001,2.77002,2.76001h4.78998c-1.53003,0-2.77002-1.24005-2.77002-2.76001V36.76897c0-1.52997,1.23999-2.76996,2.77002-2.76996H4.76817C3.23814,33.99901,1.99815,35.239,1.99815,36.76897z"/><path fill="#badda4" d="M14.69185,65.99901h-2.34003c-1.52997,0-2.76996-1.24005-2.76996-2.76001V36.76897c0-1.52997,1.23999-2.76996,2.76996-2.76996h2.34003c-1.53003,0-2.77002,1.23999-2.77002,2.76996V63.239C11.92183,64.75896,13.16182,65.99901,14.69185,65.99901z"/><path fill="#feeb75" d="M49.98765,34.00099H23.52498c-1.52909,0-2.76866-1.23957-2.76866-2.76867V4.76965c0-1.52909,1.23957-2.76866,2.76866-2.76866h26.46267c1.52909,0,2.76866,1.23957,2.76866,2.76866v26.46267C52.75631,32.76142,51.51674,34.00099,49.98765,34.00099z"/><path fill="#fff3ab" d="M52.76001,4.76699v26.47003c0,1.51996-1.23999,2.76001-2.77002,2.76001h-4.78998c1.53003,0,2.77002-1.24005,2.77002-2.76001V4.76699c0-1.52997-1.23999-2.76996-2.77002-2.76996h4.78998C51.52002,1.99703,52.76001,3.23702,52.76001,4.76699z"/><path fill="#efd96a" d="M20.75632,4.76699v26.47003c0,1.51996,1.23999,2.76001,2.77002,2.76001h4.78998c-1.53003,0-2.77002-1.24005-2.77002-2.76001V4.76699c0-1.52997,1.23999-2.76996,2.77002-2.76996h-4.78998C21.99631,1.99703,20.75632,3.23702,20.75632,4.76699z"/><path fill="#fff3ab" d="M33.45001,33.99703h-2.34003c-1.52997,0-2.76996-1.24005-2.76996-2.76001V4.76699c0-1.52997,1.23999-2.76996,2.76996-2.76996h2.34003c-1.53003,0-2.77002,1.23999-2.77002,2.76996v26.47003C30.67999,32.75698,31.91998,33.99703,33.45001,33.99703z"/><path fill="#444" d="M39.53372,17.51421c0.79004-0.76001,1.29004-1.82001,1.29004-3c0-2.29999-1.87-4.17999-4.17004-4.17999h-3.58997c-0.54999,0-1,0.45001-1,1v13.33002c0,0.54999,0.45001,1,1,1h3.89996c2.47003,0,4.48004-2.01001,4.48004-4.48999C41.44375,19.66423,40.68374,18.33422,39.53372,17.51421z M34.06375,12.33422h2.58997c1.20001,0,2.17004,0.97998,2.17004,2.17999s-0.97003,2.17999-2.17004,2.17999h-2.58997V12.33422z M36.96371,23.66423h-2.89996V18.6942h2.89996c1.37006,0,2.48004,1.11005,2.48004,2.48004S38.33377,23.66423,36.96371,23.66423z"/><path fill="#fff" d="M50.48322 57.66365c-3.40527 0-6.1748-3.4375-6.1748-7.66309s2.76953-7.66309 6.1748-7.66309c2.03027 0 3.93066 1.24219 5.08398 3.32422.26758.4834.09277 1.0918-.39063 1.35938-.48145.26758-1.0918.09375-1.35938-.39063-.79492-1.43555-2.04199-2.29297-3.33398-2.29297-2.30176 0-4.1748 2.54004-4.1748 5.66309s1.87305 5.66309 4.1748 5.66309c1.29297 0 2.53906-.85645 3.33398-2.29199.26758-.48438.87793-.6582 1.35938-.39063.4834.26758.6582.87598.39063 1.35938C54.41486 56.42147 52.51349 57.66365 50.48322 57.66365zM24.31625 56.4898l-5.38574-13.70898c-.15039-.38281-.51953-.63477-.93066-.63477s-.78027.25195-.93066.63477L11.68344 56.4898c-.20215.51367.05078 1.09375.56543 1.2959.5127.2002 1.09473-.0498 1.2959-.56543l1.80591-4.59668h5.29834l1.80591 4.59668c.1543.39453.53223.63477.93066.63477.12207 0 .24609-.02246.36523-.06934C24.26547 57.58355 24.5184 57.00347 24.31625 56.4898zM16.13638 50.62358l1.86346-4.74316 1.86346 4.74316H16.13638zM43.70001 8.00057h2.84961c.11426 0 .20703.09277.20703.20605v4.25586c0 .55273.44727 1 1 1s1-.44727 1-1V8.20662c0-1.2168-.99023-2.20606-2.20703-2.20606h-2.84961c-.55273 0-1 .44727-1 1S43.14728 8.00057 43.70001 8.00057zM47.75665 14.88143c-.55273 0-1 .44727-1 1v.52148c0 .55273.44727 1 1 1s1-.44727 1-1v-.52148C48.75665 15.3287 48.30939 14.88143 47.75665 14.88143z"/></svg>