<svg xmlns="http://www.w3.org/2000/svg" enable-background="new 0 0 68 68" viewBox="0 0 68 68"><path fill="#e2e2e2" d="M6.46657,64.25957h55.02747c2.15957,0,3.24736-2.60536,1.72894-4.14099L8.19551,4.46718C6.66781,2.92215,4.03514,4.00395,4.03514,6.17674v55.65141C4.03514,63.17099,5.12373,64.25957,6.46657,64.25957z M15.80005,51.60137V28.19453l23.58259,23.40684H15.80005z"/><path fill="#d3d3d3" d="M62.02006,64.20568c-0.08997,0.00995-0.16998,0.02997-0.25995,0.03998c-0.08002,0.01001-0.15002,0.01001-0.23004,0.01001h-55.06c-0.69,0-1.31-0.28003-1.75-0.73999l11.08002-11.91003H39.3801l-11.44-11.17999l0.08997-0.09003l8-8l27.23999,27.79004C64.65006,61.54565,63.84007,63.84563,62.02006,64.20568z"/><path fill="#fff" d="M28.85389 36.00832c.19531.19531.45117.29297.70703.29297s.51172-.09766.70703-.29297c.39063-.39063.39063-1.02344 0-1.41406l-7.10645-7.10644c-.39063-.39063-1.02344-.39063-1.41406 0s-.39063 1.02344 0 1.41406L28.85389 36.00832zM32.48085 39.63528c.19531.19434.45117.29199.70703.29199s.5127-.09766.70801-.29297c.38965-.3916.38965-1.02441-.00098-1.41504l-.72559-.72461c-.39063-.38867-1.02441-.38965-1.41504.00098-.38965.3916-.38965 1.02441.00098 1.41504L32.48085 39.63528z"/><path fill="#444" d="M9.0151 52.2229c0 .58281-.47682 1.05956-1.05956 1.05956H4.03514v-2.11912h3.92039C8.53828 51.16334 9.0151 51.64015 9.0151 52.2229zM9.0151 11.843c0 .58275-.47682 1.05956-1.05956 1.05956H4.03514v-2.11912h3.92039C8.53828 10.78344 9.0151 11.26026 9.0151 11.843zM33.64991 60.33918v3.92039h-2.11912v-3.92039c0-.58274.46621-1.05956 1.05956-1.05956C33.1731 59.27962 33.64991 59.75644 33.64991 60.33918zM6.3874 43.18487H4.03514v-2.11913H6.3874c.58275 0 1.05956.47682 1.05956 1.05956C7.44697 42.71866 6.97015 43.18487 6.3874 43.18487zM53.83456 60.33918v3.92039h-2.11913v-3.92039c0-.58274.47682-1.05956 1.05956-1.05956C53.36835 59.27962 53.83456 59.75644 53.83456 60.33918zM9.0151 32.02765c0 .59335-.47682 1.05956-1.05956 1.05956H4.03514v-2.11913h3.92039C8.53828 30.96809 9.0151 31.4449 9.0151 32.02765zM13.45467 60.33918v3.92039h-2.11912v-3.92039c0-.58274.47682-1.05956 1.05956-1.05956C12.97785 59.27962 13.45467 59.75644 13.45467 60.33918zM43.73697 61.90731v2.35226h-2.11913v-2.35226c0-.58274.47675-1.05956 1.05956-1.05956C43.27076 60.84775 43.73697 61.32457 43.73697 61.90731zM6.3874 23.00022H4.03514V20.8811H6.3874c.58275 0 1.05956.46621 1.05956 1.05956C7.44697 22.52341 6.97015 23.00022 6.3874 23.00022zM23.55226 61.90731v2.35226h-2.11912v-2.35226c0-.58274.47682-1.05956 1.05956-1.05956C23.07551 60.84775 23.55226 61.32457 23.55226 61.90731z"/></svg>