<svg xmlns="http://www.w3.org/2000/svg" enable-background="new 0 0 68 68" viewBox="0 0 68 68"><circle cx="34" cy="33.998" r="31.997" fill="#fe9967"/><path fill="#ef8759" d="M37.66998,65.78998C36.46997,65.92999,35.23999,66,34,66C16.32996,66,2,51.66998,2,34C2,16.32996,16.32996,2,34,2c1.23999,0,2.46997,0.07001,3.66998,0.20996C21.71997,4.02997,9.33997,17.57001,9.33997,34S21.71997,63.96997,37.66998,65.78998z"/><path fill="#ffac88" d="M44.27783,64.31757C31.63074,60.04279,22.51996,48.0899,22.51996,34c0-14.02271,9.02332-25.93054,21.57635-30.25775c-0.44653-0.17474-0.85687-0.39191-1.23096-0.64703C29.22125,6.75421,19.16998,19.20306,19.16998,34c0,14.8288,10.09406,27.30084,23.78302,30.92969C43.35663,64.68274,43.79688,64.47473,44.27783,64.31757z"/><path fill="#ffac88" d="M66,34c0,17.66998-14.32001,32-32,32c-0.31,0-0.62,0-0.93005-0.01001C46.5,65.82996,58.66998,49.38995,58.66998,34c0-13.19-8.35004-28.22003-19.60999-31.60004C54.33997,4.82001,66,18.04999,66,34z"/><path fill="#fff" d="M43.92462 34.25656c-.11133-.24414-.21582-.48926-.31934-.73633-.21484-.50879-.80371-.74316-1.31055-.5332-.50879.21484-.74707.80176-.5332 1.31055.11133.2627.22363.52539.34082.78516.16797.36914.53125.58691.91211.58691.1377 0 .27832-.02832.41211-.08887C43.9295 35.35226 44.15216 34.75949 43.92462 34.25656zM52.82697 44.20187c-2.92773-2.23633-5.22949-4.49414-7.03711-6.9043-.33105-.44141-.95605-.5293-1.40039-.19922-.44141.33105-.53027.95801-.19922 1.40039 1.91895 2.55762 4.34668 4.94336 7.42188 7.29297.18164.1377.39453.20508.60645.20508.30078 0 .59863-.13574.7959-.39258C53.34943 45.16476 53.26544 44.53781 52.82697 44.20187z"/><path fill="#666" d="M53.43374,50.88659c1.87,1.20001,3.77002,2.29004,5.45001,3.22003c-0.45001,0.57001-0.92999,1.12-1.42004,1.65002c-1.60999-0.89001-3.39996-1.93005-5.17999-3.08002c-6.38995-4.06-10.82001-8.42999-13.53998-13.32001c-2.03003-3.65002-3.06-7.72003-3-11.60999c-1.62,0.13-3.34998,0.28998-5.26001,0.52997c-2.29999,0.28003-4.58002,0.62-6.83002,1.02002c-0.17999,2.20001-0.21997,4.42999-0.10999,6.64996c0.45001,10.55005,3.97003,21.14001,9.97003,30.04004c-0.89001-0.01001-1.77002-0.06-2.64001-0.15002c-5.69-8.94-9.03003-19.38-9.47003-29.79998c-0.08997-2.09998-0.06-4.23999,0.08002-6.34003c-1.84998,0.34003-3.64001,0.70001-5.35999,1.12006c-0.35004,1.94995-0.73999,3.90997-1.13,5.81c-1.08002,5.23999-2.19,10.65997-2.04999,16.00995c0.04999,2.04004,0.29999,4.07001,0.70996,6.06c-0.88995-0.72998-1.73999-1.51996-2.53998-2.33997c-0.17999-1.22003-0.27997-2.44-0.31-3.66998c-0.15002-5.59003,1-11.13,2.09003-16.49005c0.33997-1.58997,0.65997-3.20996,0.94995-4.83997c-4.01996,0.96997-7.98999,2.13-11.82996,3.48999c-0.01001-0.27997-0.01001-0.57001-0.01001-0.84998c0-0.47003,0.01001-0.94,0.02997-1.41003c3.97003-1.37,8.06-2.56,12.21002-3.51996c0.39001-2.58002,0.62-4.76001,0.67999-6.80005c0.09998-3.23999-0.29999-5.65997-1.23999-7.63c-0.59003-1.23999-1.47998-2.31-2.52002-3.06c0.5-0.50995,1.02002-1,1.56-1.47998c1.19,0.91998,2.19,2.16998,2.89001,3.62c1.09998,2.28003,1.56,5.01001,1.45001,8.60999c-0.04999,1.90002-0.25,3.92004-0.58002,6.21002c1.67999-0.38,3.41003-0.72998,5.19-1.04999c0.91003-8.96002,3.78998-17.60004,8.40002-25.25c0.88-0.10999,1.76996-0.17999,2.65997-0.21002c-4.82001,7.54004-7.83997,16.14001-8.84998,25.06c2.07996-0.34998,4.20996-0.67999,6.34998-0.94c2.06-0.23999,3.91998-0.41998,5.66998-0.54999c0.24005-1.81,0.72003-3.54999,1.48004-5.17999c2.06-4.42999,6.26001-8.20001,11.82001-10.59003c1.23999-0.52997,2.56-1,4-1.42999c0.69,0.52002,1.37,1.07001,2.00995,1.65002c-1.92999,0.51001-3.60999,1.07001-5.14996,1.73999c-5.09003,2.19-8.91003,5.58002-10.75,9.53998c-0.60999,1.30005-1.02002,2.69-1.23999,4.13c9.13995-0.58997,18.20996-0.28998,27.01001,0.92999c0.17999,0.73004,0.32996,1.47003,0.44995,2.22003c-8.98999-1.29999-18.26996-1.63-27.64997-0.98999c-0.10004,3.56,0.84998,7.32001,2.71997,10.69C43.16372,42.88659,47.36374,47.00665,53.43374,50.88659z"/></svg>