<svg xmlns="http://www.w3.org/2000/svg" enable-background="new 0 0 68 68" viewBox="0 0 68 68"><path fill="#444" d="M34.00497,2.09885c-2.95001,0-5.35999,2.39996-5.35999,5.35999c0,1.5,0.63,2.84998,1.63,3.83002c2.48328,1.73978,4.96661,1.73981,7.45001,0c1.01001-0.97003,1.63-2.33002,1.63-3.83002C39.35501,4.49882,36.95499,2.09885,34.00497,2.09885z M34.00442,10.43678c-1.64483,0-2.9874-1.33367-2.9874-2.9785s1.34257-2.9874,2.9874-2.9874c1.64489,0,2.97856,1.34257,2.97856,2.9874S35.64931,10.43678,34.00442,10.43678z"/><path fill="#feeb75" d="M59.58279,53.83213c0,2.3898-1.9436,4.3333-4.33339,4.3333H12.7506c-2.3898,0-4.33339-1.9435-4.33339-4.3333c0-1.81399,1.16612-3.38326,2.85059-4.05985c2.77853-1.13739,4.73645-3.85828,4.73645-7.03996V29.49963c0-9.97683,8.06206-18.67244,17.99575-18.88833c9.93369,0.2159,17.99575,8.9115,17.99575,18.88833v13.23269c0,3.18168,1.95792,5.90257,4.73645,7.03996C58.41666,50.44888,59.58279,52.01814,59.58279,53.83213z"/><path fill="#efd96a" d="M37.21002,10.98995C36.76001,11.08998,36.31,11.19997,35.87,11.32997c-8.56,1.64001-15.12,9.58997-15.12,18.57996v13.23004c0,3.17999-1.95001,5.89996-4.72998,7.03998c-1.69,0.67999-2.85004,2.25-2.85004,4.06c0,1.73999,1.03003,3.25,2.51001,3.92999H12.75c-2.39001,0-4.33002-1.94995-4.33002-4.33997c0-1.81,1.16003-3.38,2.85004-4.06C14.04999,48.62996,16,45.90993,16,42.72993V29.49996c0-9.97998,8.07001-18.66998,18-18.89001C35.10004,10.62996,36.16998,10.75997,37.21002,10.98995z"/><path fill="#fff3ab" d="M38.89001 11.28761c-7.82538 2.22247-13.65332 9.74231-13.65332 18.21234v13.22998c0 3.17999-1.95001 5.90002-4.71997 7.04004-1.69.67999-2.86005 2.25-2.86005 4.06 0 2.39001 1.94 4.33997 4.33002 4.33997h2.69c-2.39001 0-4.33002-1.94995-4.33002-4.33997 0-1.81 1.16003-3.38 2.85004-4.06 2.77997-1.14001 4.72998-3.86005 4.72998-7.04004V29.49996c0-7.47003 4.52795-14.19885 10.96332-17.20691V11.28761zM59.58002 53.82997c0 2.39001-1.94 4.33997-4.33002 4.33997h-6.41998c2.39001 0 4.33002-1.94995 4.33002-4.33997 0-1.81-1.16003-3.38-2.85004-4.06-2.77997-1.14001-4.72998-3.86005-4.72998-7.04004V29.49996c0-6.27002-1.67999-14.95001-6.69-18.07001 7.56 2.40002 13.09998 9.79004 13.09998 18.07001v13.22998c0 3.17999 1.96002 5.90002 4.74005 7.04004C58.41003 50.44997 59.58002 52.01997 59.58002 53.82997z"/><path fill="#444" d="M41.73571,58.16543c0,4.27232-3.4634,7.73571-7.73571,7.73571s-7.73571-3.4634-7.73571-7.73571H41.73571z"/><path fill="#333" d="M33.95001,58.16542v7.73322c-0.01685,0.00012-0.03314,0.0025-0.04999,0.0025c-4.27234,0-7.73572-3.46338-7.73572-7.73572H33.95001z"/><path fill="#fff" d="M45.48474 23.20497c-.34277 0-.67676-.17676-.86328-.49414-1.62402-2.7666-4.10449-4.86133-6.98535-5.89746-.51953-.1875-.78906-.75977-.60254-1.28027.1875-.51855.75684-.78809 1.28027-.60254 3.31934 1.19434 6.17188 3.59863 8.03223 6.76855.2793.47656.12012 1.08887-.35645 1.36816C45.83044 23.16103 45.65662 23.20497 45.48474 23.20497zM46.99158 26.82997c-.44043 0-.84473-.29395-.96484-.74023l-.0459-.17676c-.02441-.09668-.04883-.19238-.07813-.28711-.16309-.52734.13184-1.08789.65918-1.25098.53027-.16211 1.08789.13281 1.25098.65918.03906.12598.07227.25391.10547.38184l.04004.1543c.14355.5332-.17285 1.08203-.70605 1.22559C47.16541 26.81923 47.07751 26.82997 46.99158 26.82997z"/></svg>