<svg xmlns="http://www.w3.org/2000/svg" enable-background="new 0 0 68 68" viewBox="0 0 68 68"><path fill="#e2e2e2" d="M44.2305,54.46384v7.39911c0,2.56109-2.07618,4.63727-4.63727,4.63727H28.40698c-2.56109,0-4.63727-2.07618-4.63727-4.63727v-7.39911H44.2305z"/><path fill="#d3d3d3" d="M33.84668,66.49625h-5.44006c-2.55994,0-4.64001-2.07001-4.64001-4.63v-7.40002h5.43994v7.40002C29.20654,64.42624,31.28662,66.49625,33.84668,66.49625z"/><path fill="#ededed" d="M38.79663,66.49625h-1.69995c-2.56006,0-4.64014-2.07001-4.64014-4.63v-7.40002h1.70007v7.40002C34.15662,64.42624,36.23657,66.49625,38.79663,66.49625z"/><path fill="#ededed" d="M44.2305,54.46622v7.40002c0,2.55999-2.06995,4.63-4.64001,4.63h-5.42993c2.55994,0,4.62988-2.07001,4.62988-4.63v-7.40002H44.2305z"/><path fill="#feeb75" d="M44.14037,54.45927c0.69428-3.89161,2.52132-7.50917,5.15228-10.57861c3.69064-4.3301,5.5725-10.23147,4.51281-16.55305c-1.47991-8.67848-8.75156-15.4751-17.48485-16.4617c-12.1316-1.35202-22.41788,8.09382-22.41788,19.96964c0,5.09746,1.90013,9.75644,5.04265,13.30091c2.59441,2.94155,4.31183,6.50429,4.9513,10.32282H44.14037z"/><path fill="#efd96a" d="M20.87659,30.83622c0-8.72375,5.64746-17.08319,13.42676-20.09161c-11.2323-0.16083-20.39673,8.87537-20.39673,20.09161c0,5.09998,1.90002,9.76001,5.03992,13.29999c2.59009,2.94,4.31006,6.5,4.95007,10.32001h5.30994c0.43506-3.47498-0.69995-7.38-3.28992-10.32001C22.77661,40.59623,20.87659,35.93619,20.87659,30.83622z"/><path fill="#fff3ab" d="M33.99658,52.93619c0.03003,0.5,0.07007,1.01001,0.16003,1.52002l-1.70007,0.01001c-0.63989-3.82001-0.85986-7.39001-3.44995-10.33002c-3.14001-3.53998-5.04004-8.20001-5.04004-13.29999c0-9.46002,6.52002-17.33997,15.30005-19.48999c0.19995,0.12,0.40991,0.22998,0.63,0.33002c-8.19006,2.51996-14.14001,10.12-14.14001,19.15997c0,5.09998,1.90002,9.76001,5.04004,13.29999C33.03662,46.67624,33.50659,49.6962,33.99658,52.93619z"/><path fill="#fff3ab" d="M53.80518,27.32621c-1.43286-8.40302-8.29736-15.0155-16.66357-16.32825v0.08246c5.08203,1.88037,8.71558,10.50305,9.6936,16.24579c1.05981,6.32001-0.82007,12.22003-4.51001,16.54999c-2.63013,3.07001-3.87109,6.85504-3.53479,10.58002h5.34485c0.69995-3.89001,2.52979-7.51001,5.15991-10.58002C52.98511,39.54624,54.86523,33.64621,53.80518,27.32621z"/><path fill="#ededed" d="M34 5.93631c.55273 0 1-.44727 1-1V2.49979c0-.55273-.44727-1-1-1s-1 .44727-1 1v2.43652C33 5.48905 33.44727 5.93631 34 5.93631zM18.18359 10.40018c.19531.26953.5.41211.80957.41211.20313 0 .40918-.0625.58691-.19141.44629-.32422.5459-.94922.2207-1.39648l-1.43164-1.9707c-.32324-.44629-.94824-.5459-1.39648-.2207-.44629.32422-.5459.94922-.2207 1.39648L18.18359 10.40018zM10.02637 21.62772l-2.31641-.75293c-.53027-.16895-1.08984.11719-1.26074.6416-.1709.52539.11719 1.08984.6416 1.26074l2.31641.75293c.10352.0332.20703.04883.30957.04883.42188 0 .81348-.26855.95117-.69043C10.83887 22.36307 10.55078 21.79862 10.02637 21.62772zM9.40723 37.40799l-2.31641.75293c-.52441.1709-.8125.73535-.6416 1.26074.1377.42188.5293.69043.95117.69043.10254 0 .20605-.01563.30957-.04883l2.31641-.75293c.52441-.1709.8125-.73535.6416-1.26074C10.49707 37.52518 9.93652 37.23709 9.40723 37.40799zM49.00684 10.81229c.30957 0 .61426-.14258.80957-.41211l1.43164-1.9707c.3252-.44727.22559-1.07227-.2207-1.39648-.44727-.3252-1.07324-.22656-1.39648.2207l-1.43164 1.9707c-.3252.44727-.22559 1.07227.2207 1.39648C48.59766 10.74979 48.80273 10.81229 49.00684 10.81229zM58.2832 23.57889c.10254 0 .20605-.01563.30957-.04883l2.31641-.75293c.52441-.1709.8125-.73535.6416-1.26074-.17188-.52441-.73145-.81055-1.26074-.6416l-2.31641.75293c-.52441.1709-.8125.73535-.6416 1.26074C57.46973 23.31034 57.86133 23.57889 58.2832 23.57889zM60.90918 38.16092l-2.31641-.75293c-.5293-.16992-1.08984.11719-1.26074.6416-.1709.52539.11719 1.08984.6416 1.26074l2.31641.75293c.10352.0332.20703.04883.30957.04883.42188 0 .81348-.26855.95117-.69043C61.72168 38.89627 61.43359 38.33182 60.90918 38.16092z"/><path fill="#fff" d="M36.80957 14.48221c-.54004-.09082-1.06055.27344-1.15332.81738-.09277.54492.27246 1.06055.81738 1.15332 3.00781.5127 5.87598 2.05664 8.07617 4.3457.19629.20508.45801.30762.7207.30762.24902 0 .49902-.09277.69238-.2793.39844-.38184.41113-1.01563.02832-1.41309C43.49707 16.81717 40.23633 15.0662 36.80957 14.48221zM48.92383 23.57401c-.08008-.16895-.16016-.33789-.24805-.50293-.26172-.48633-.86816-.66797-1.35449-.40918-.48633.26172-.66992.86719-.40918 1.35449.07324.13477.13867.27441.2041.41309l.08203.17285c.17285.3584.53027.56641.90234.56641.14551 0 .29297-.03125.43262-.09863.49805-.24023.70703-.83789.46777-1.33496L48.92383 23.57401z"/><path fill="#1a1a1a" d="M21.88034 59.20343h1.89001v2h-1.89001c-.56006 0-1-.45001-1-1C20.88034 59.64344 21.32028 59.20343 21.88034 59.20343zM47.13034 60.20343c0 .54999-.44995 1-1 1h-1.90002v-2h1.90002C46.68039 59.20343 47.13034 59.64344 47.13034 60.20343z"/><path fill="#fe9967" d="M39.57028,32.54346h-0.10986c-2.37012,0-4.31006,1.92999-4.31006,4.31v2.31h-2.29004v-2.31c0-2.38-1.93994-4.31-4.32007-4.31H28.4404c-2.38013,0-4.31006,1.92999-4.31006,4.31s1.92993,4.31,4.31006,4.31h2.41992v13.28998h2V41.16346h2.29004v13.28998h2V41.16346h2.41992c2.37012,0,4.31006-1.92999,4.31006-4.31S41.9404,32.54346,39.57028,32.54346z M30.86032,39.16346H28.4404c-1.27002,0-2.31006-1.03003-2.31006-2.31c0-1.28003,1.04004-2.31,2.31006-2.31h0.09985c1.28003,0,2.32007,1.02997,2.32007,2.31V39.16346z M39.57028,39.16346h-2.41992v-2.31c0-1.28003,1.04004-2.31,2.31006-2.31h0.10986c1.27002,0,2.31006,1.02997,2.31006,2.31C41.88034,38.13343,40.8403,39.16346,39.57028,39.16346z"/></svg>