<svg xmlns="http://www.w3.org/2000/svg" enable-background="new 0 0 68 68" viewBox="0 0 68 68"><path fill="#e2e2e2" d="M13.71297 23.31586c-.29004 0-.57617-.125-.77441-.36621-.34961-.42676-.28809-1.05664.13965-1.40723L29.48934 8.08539c.42578-.35156 1.05664-.28711 1.40723.13965.34961.42676.28809 1.05664-.13965 1.40723L14.34578 23.0893C14.16023 23.24164 13.93562 23.31586 13.71297 23.31586zM54.29012 23.31586c-.22266 0-.44727-.07422-.63379-.22656L37.25398 9.63227c-.42676-.35059-.48828-.98047-.13867-1.4082.35059-.42578.97949-.48926 1.4082-.13867l16.40234 13.45703c.42676.35059.48828.98047.13867 1.4082C54.86629 23.19086 54.57918 23.31586 54.29012 23.31586z"/><path fill="#fe9967" d="M62.39355,65.33118H5.60645C3.61466,65.33118,2,63.71652,2,61.72473V24.45214c0-1.99179,1.61466-3.60645,3.60645-3.60645h56.7871c1.99179,0,3.60645,1.61466,3.60645,3.60645v37.27259C66,63.71652,64.38534,65.33118,62.39355,65.33118z"/><ellipse cx="34.004" cy="7.734" fill="#444" rx="5.098" ry="5.069"/><path fill="#ef8759" d="M12.19323,65.33548H5.60326c-1.98999,0-3.59998-1.62005-3.59998-3.61004V24.45548c0-2,1.60999-3.61005,3.59998-3.61005h6.58997c-1.98999,0-3.59998,1.61005-3.59998,3.61005v37.26996C8.59325,63.71543,10.20324,65.33548,12.19323,65.33548z"/><path fill="#ffac88" d="M25.24315,65.33548H21.6831c-1.98999,0-3.59985-1.62005-3.59985-3.61004V24.45548c0-2,1.60986-3.61005,3.59985-3.61005h3.56006c-1.98999,0-3.59998,1.61005-3.59998,3.61005v37.26996C21.64318,63.71543,23.25316,65.33548,25.24315,65.33548z"/><path fill="#666" d="M34.00355,12.80313c-2.81555,0-5.09801-2.26961-5.09801-5.06931s2.28246-5.06931,5.09801-5.06931"/><path fill="#ffac88" d="M66,24.45548v37.26996c0,1.98999-1.62,3.61004-3.60999,3.61004h-6.59009c1.99011,0,3.61011-1.62005,3.61011-3.61004V24.45548c0-2-1.62-3.61005-3.61011-3.61005h6.59009C64.38,20.84543,66,22.45548,66,24.45548z"/><rect width="32.056" height="50.783" x="17.972" y="17.697" fill="#feeb75" transform="rotate(90 34 43.088)"/><rect width="5.1" height="32.05" x="8.613" y="27.065" fill="#efd96a"/><rect width="3.56" height="32.05" x="18.083" y="27.065" fill="#fff3ab"/><rect width="5.1" height="32.05" x="54.291" y="27.065" fill="#fff3ab"/><path fill="#fff" d="M51.16295 55.88547h-9.77637c-.55273 0-1-.44727-1-1s.44727-1 1-1h9.77637c.55273 0 1 .44727 1 1S51.71569 55.88547 51.16295 55.88547zM37.90319 55.88547h-.36328c-.55273 0-1-.44727-1-1s.44727-1 1-1h.36328c.55273 0 1 .44727 1 1S38.45592 55.88547 37.90319 55.88547z"/><path fill="#666" d="M17.22401 49.97108c-.16286-.16453-.2443-.36894-.2443-.61324 0-.24596.08143-.45203.2443-.62321.16453-.16951.36894-.25426.61323-.25426h2.42967V38.12685l-2.08234 1.02039c-.19112.08143-.34733.12298-.47031.12298-.25759 0-.46865-.0831-.63318-.24596-.16286-.16286-.2443-.37392-.2443-.63317 0-.38057.17616-.65977.53014-.83759l2.77866-1.44916c.18946-.09473.38057-.14292.57169-.14292h.42877c.27089 0 .50355.09473.693.28584.19112.19112.28584.42212.28584.69467v11.53844h2.02251c.2443 0 .45203.08475.62321.25426.16951.17118.25427.37725.25427.62321 0 .2443-.08476.44871-.25427.61324-.17117.16286-.37891.2443-.62321.2443h-6.31016C17.59295 50.21538 17.38854 50.13395 17.22401 49.97108zM28.68102 49.91956c-.20441-.19776-.30579-.45203-.30579-.76612 0-.70796.20774-1.36108.62321-1.96102.41381-.59827.91736-1.12509 1.51065-1.58211.59163-.45535 1.37105-.99713 2.33827-1.62366.82928-.53014 1.49071-.98051 1.98096-1.34779.49025-.36728.89742-.76945 1.22481-1.20486.32739-.43541.49025-.89908.49025-1.38767 0-.7761-.25593-1.39265-.76613-1.84801-.5102-.45702-1.33117-.6847-2.46125-.6847-1.2248 0-2.38812.2443-3.49161.73455-.13627.06814-.2659.10304-.38722.10304-.21771 0-.40218-.07478-.55174-.22435-.14957-.15123-.22435-.34069-.22435-.57335 0-.33902.14957-.59163.44871-.75449 1.38933-.69467 2.89998-1.042 4.53361-1.042.87083 0 1.66354.1745 2.37981.52017.71461.34733 1.27798.83426 1.69345 1.46079s.62321 1.34779.62321 2.16543c0 .80269-.23433 1.54887-.70464 2.23523-.46865.68802-1.03036 1.28962-1.68348 1.80813-.65478.51684-1.50566 1.11512-2.55265 1.79649-.95392.63982-1.67185 1.15334-2.15546 1.54222-.48361.38722-.81931.78607-1.01043 1.19489h7.1062c.24596 0 .45203.08475.62321.25426.16951.17118.25593.37725.25593.62321 0 .2443-.08642.44871-.25593.61324-.17117.16286-.37725.2443-.62321.2443h-7.8823C29.14302 50.21538 28.88543 50.11732 28.68102 49.91956zM41.60546 49.60214c-.16286-.06814-.29249-.16619-.38722-.29581-.09473-.12963-.14292-.28917-.14292-.48029 0-.231.07811-.43209.23433-.6016.15622-.16951.35066-.25593.58332-.25593.12132 0 .25095.02825.38722.08143.98051.39553 2.06239.59329 3.24731.59329 1.06194 0 1.95604-.1745 2.6856-.52183.72791-.34567 1.09186-.92899 1.09186-1.74498 0-1.71506-1.504-2.57259-4.51367-2.57259h-.32573c-.23267 0-.43209-.08642-.60326-.25593-.16951-.16951-.25427-.3706-.25427-.60326 0-.231.08475-.43042.25427-.6016.17117-.16951.3706-.25593.60326-.25593h.12298c1.36108 0 2.40142-.20607 3.12434-.62154.72126-.41547 1.08189-1.03203 1.08189-1.84801 0-.65478-.27255-1.17163-.81765-1.5522-.54344-.38223-1.34779-.57169-2.40973-.57169-1.14338 0-2.19867.22435-3.16422.67306-.13627.05484-.25925.08143-.36728.08143-.20441 0-.38223-.07146-.5318-.21438-.14957-.14292-.22435-.3224-.22435-.54011 0-.31409.13627-.5451.40882-.69466 1.30624-.69467 2.65402-1.042 4.04336-1.042 1.56549 0 2.777.32074 3.63453.96057.85753.63982 1.2863 1.54389 1.2863 2.71551 0 .93896-.23433 1.6785-.70464 2.21529-.46865.53845-1.05862.9373-1.76658 1.19489.7761.17782 1.46744.54842 2.07236 1.11346.60659.56504.90905 1.40595.90905 2.52107 0 1.25306-.49358 2.22359-1.48074 2.90995-.98716.68802-2.25517 1.03203-3.80737 1.03203C44.36253 50.41979 42.93996 50.14724 41.60546 49.60214z"/></svg>