<svg xmlns="http://www.w3.org/2000/svg" enable-background="new 0 0 68 68" viewBox="0 0 68 68"><path fill="#a7d08c" d="M66,56.57635c0,1.90039-1.31631,3.57267-3.17674,3.96037C53.08843,62.56538,42.89966,61.34116,34,59.75023l0,0c-8.89965,1.59093-19.08843,2.81515-28.82326,0.78648C3.31631,60.14901,2,58.47674,2,56.57635l0-45.15269c0-1.9004,1.31631-3.57267,3.17674-3.96037C14.91157,5.43462,25.10034,6.65884,34,8.24977l0,0c8.89965-1.59093,19.08843-2.81515,28.82326-0.78648C64.68369,7.85099,66,9.52326,66,11.42365V56.57635z"/><path fill="#9ac181" d="M8.23999,11.42236v45.1499c0,1.90015,1.32007,3.58008,3.17993,3.96008c2.61011,0.53992,5.26001,0.84998,7.90015,0.97998c-1.03003,0.05994-2.07007,0.07996-3.11011,0.07996c-3.67993,0-7.38989-0.29993-11.03003-1.05994C3.32007,60.15234,2,58.47241,2,56.57227v-45.1499C2,9.52234,3.32007,7.85229,5.17993,7.4624C9.84998,6.49243,14.63,6.26233,19.32007,6.48242c-2.64014,0.11987-5.28003,0.42993-7.90015,0.97998C9.56006,7.85229,8.23999,9.52234,8.23999,11.42236z"/><path fill="#badda4" d="M25.80518 61.2511c-1.52344-.1676-3.04053-.40271-4.54517-.71875-1.85999-.38-3.17993-2.05994-3.17993-3.96008v-45.1499c0-1.90002 1.31995-3.57007 3.17993-3.95996.90015-.18677 1.80371-.33777 2.7085-.47192-.21802-.11487-.42676-.24292-.63879-.3667-1.94495.16846-3.88574.43738-5.80969.83862-1.86011.38989-3.17993 2.05994-3.17993 3.95996v45.1499c0 1.90015 1.31982 3.58008 3.17993 3.96008 2.24536.46887 4.51758.74573 6.79285.90198C24.8103 61.37305 25.30762 61.30981 25.80518 61.2511zM66 11.42236v45.1499c0 1.90015-1.31006 3.58008-3.16992 3.96008-4.68005.96997-9.46008 1.20007-14.15015.97998 2.65015-.13 5.29004-.44006 7.90015-.97998 1.85986-.38 3.17993-2.05994 3.17993-3.96008v-45.1499c0-1.90002-1.32007-3.57007-3.17993-3.95996-2.61011-.55005-5.26001-.86011-7.90015-.97998 1.04004-.06006 2.09009-.08008 3.14014-.08008 3.66992 0 7.36987.30005 11.01001 1.06006C64.68994 7.85229 66 9.52234 66 11.42236z"/><path fill="#e2e2e2" d="M59.7562,53.50668c-5.55016,2.6013-17.43096,1.76006-25.7562,0c-8.32524,1.76006-20.20604,2.6013-25.7562,0l0-39.01337c5.55016-2.6013,17.43096-1.76006,25.7562,0c8.32524-1.76006,20.20604-2.6013,25.7562,0V53.50668z"/><path fill="#d3d3d3" d="M13.27002,53.50232c2.01001,0.95007,4.85999,1.44006,8.07007,1.58997c-5.18018,0.22998-10.08008-0.16992-13.1001-1.58997V14.49243c3.02002-1.42017,7.92993-1.81006,13.10999-1.59009c-3.20996,0.15002-6.06995,0.64001-8.07996,1.59009V53.50232z"/><rect width="2.09" height="42.287" x="15.86" y="12.87" fill="#ededed"/><path fill="#ededed" d="M59.7562,14.49243v39.00989c-3.02002,1.42004-7.92004,1.81995-13.1001,1.58997c3.21008-0.1499,6.06006-0.63989,8.07007-1.58997V14.49243c-2.01001-0.95007-4.87-1.44006-8.08008-1.59009C51.82615,12.68237,56.73618,13.07227,59.7562,14.49243z"/><path fill="#fe9967" d="M19.90882,23.50958l-2.68938-2.8945l-2.68938,2.8945l-0.00004-10.4821c1.71825-0.15638,3.51691-0.21075,5.37883-0.18458L19.90882,23.50958z"/><path fill="#666" d="M24.50391 24.00537h4.46582c.55273 0 1-.44727 1-1s-.44727-1-1-1h-4.46582c-.55273 0-1 .44727-1 1S23.95117 24.00537 24.50391 24.00537zM28.96973 29.33545H12.66699c-.55273 0-1 .44727-1 1s.44727 1 1 1h16.30273c.55273 0 1-.44727 1-1S29.52246 29.33545 28.96973 29.33545zM28.96973 36.66553H12.66699c-.55273 0-1 .44727-1 1s.44727 1 1 1h16.30273c.55273 0 1-.44727 1-1S29.52246 36.66553 28.96973 36.66553zM28.96973 43.99463H12.66699c-.55273 0-1 .44727-1 1s.44727 1 1 1h16.30273c.55273 0 1-.44727 1-1S29.52246 43.99463 28.96973 43.99463zM38.03027 23.00537c0 .55273.44727 1 1 1h16.30273c.55273 0 1-.44727 1-1s-.44727-1-1-1H39.03027C38.47754 22.00537 38.03027 22.45264 38.03027 23.00537zM55.33301 29.33545H39.03027c-.55273 0-1 .44727-1 1s.44727 1 1 1h16.30273c.55273 0 1-.44727 1-1S55.88574 29.33545 55.33301 29.33545zM55.33301 36.66553H39.03027c-.55273 0-1 .44727-1 1s.44727 1 1 1h16.30273c.55273 0 1-.44727 1-1S55.88574 36.66553 55.33301 36.66553zM55.33301 43.99463H39.03027c-.55273 0-1 .44727-1 1s.44727 1 1 1h16.30273c.55273 0 1-.44727 1-1S55.88574 43.99463 55.33301 43.99463zM40.89355 49.02783l-.64551-.0791c-.55762-.07813-1.04883.31445-1.12012.8623s.31445 1.0498.8623 1.12012l.66504.08301c.04004.00488.08105.00684.12012.00684.49902 0 .93066-.37305.99219-.88086C41.83301 49.59131 41.44238 49.09424 40.89355 49.02783zM54.59375 49.24268c-2.65039.35352-5.97461.41309-9.6123.16992-.54395-.01855-1.02637.38086-1.06445.93164-.03613.55078.37988 1.02734.93164 1.06445 1.51172.10059 2.97363.15137 4.36328.15137 2.07227 0 3.98145-.1123 5.64746-.33496.54688-.07324.93164-.57617.8584-1.12402C55.64453 49.5542 55.14453 49.16455 54.59375 49.24268z"/></svg>