<svg xmlns="http://www.w3.org/2000/svg" enable-background="new 0 0 68 68" viewBox="0 0 68 68"><path fill="#e2e2e2" d="M61.58154,15.11097c-6.23961-2.60004-12.36224-2.60777-18.36693,0v-4.98036c6.18628-2.0988,12.3076-2.0679,18.36693,0V15.11097z"/><path fill="#fe9967" d="M43.2146,4.56041v48.04584c0,1.40441,1.1385,2.54291,2.54291,2.54291h13.32097c1.40442,0,2.54292-1.1385,2.54292-2.54291V4.56041c0-1.40441-1.1385-2.54291-2.54292-2.54291H45.75751C44.3531,2.0175,43.2146,3.156,43.2146,4.56041z"/><path fill="#e2e2e2" d="M64.64999,65.9825H3.35001C2.60442,65.9825,2,65.37808,2,64.63249V56.52C2,55.77442,2.60442,55.17,3.35001,55.17h61.29999C65.39558,55.17,66,55.77442,66,56.52v8.11249C66,65.37808,65.39558,65.9825,64.64999,65.9825z"/><path fill="#d3d3d3" d="M66,59.25021v-2.73027c0-0.74548-0.60443-1.34998-1.34998-1.34998H3.35004C2.60443,55.16996,2,55.77445,2,56.51994v2.73027H66z"/><path fill="#ededed" d="M2,61.86058v2.73027c0,0.74548,0.60443,1.34998,1.34998,1.34998h61.29999c0.74561,0,1.35004-0.60449,1.35004-1.34998v-2.73027H2z"/><path fill="#a7d08c" d="M24.81082,13.64225v38.964c0,1.40441,1.1385,2.54291,2.54291,2.54291h13.32097c1.40441,0,2.54291-1.1385,2.54291-2.54291v-38.964c0-1.40441-1.1385-2.54291-2.54291-2.54291H27.35373C25.94932,11.09934,24.81082,12.23784,24.81082,13.64225z"/><path fill="#feeb75" d="M6.3786,7.49004v45.11621c0,1.40441,1.1385,2.54291,2.54291,2.54291h13.32097c1.40441,0,2.54291-1.1385,2.54291-2.54291V7.49004c0-1.40441-1.1385-2.54291-2.54291-2.54291H8.92151C7.5171,4.94712,6.3786,6.08563,6.3786,7.49004z"/><path fill="#fff3ab" d="M24.79004,7.49082v45.11993c0,1.40015-1.14001,2.54004-2.55005,2.54004h-5.19995c1.40997,0,2.54999-1.13989,2.54999-2.54004V7.49082c0-1.40997-1.14001-2.53998-2.54999-2.53998h5.19995C23.65002,4.95084,24.79004,6.08085,24.79004,7.49082z"/><path fill="#efd96a" d="M6.3786,7.49082v45.11993c0,1.40015,1.14001,2.54004,2.55005,2.54004h5.19995c-1.40997,0-2.54999-1.13989-2.54999-2.54004V7.49082c0-1.40997,1.14001-2.53998,2.54999-2.53998H8.92865C7.51861,4.95084,6.3786,6.08085,6.3786,7.49082z"/><path fill="#badda4" d="M43.21994,13.63931v38.97144c0,1.40015-1.14001,2.54004-2.55005,2.54004h-5.19995c1.40997,0,2.54999-1.13989,2.54999-2.54004V13.63931c0-1.40997-1.14001-2.53998-2.54999-2.53998h5.19995C42.07992,11.09934,43.21994,12.22934,43.21994,13.63931z"/><path fill="#9ac181" d="M24.8085,13.63931v38.97144c0,1.40015,1.14001,2.54004,2.55005,2.54004h5.19995c-1.40997,0-2.54999-1.13989-2.54999-2.54004V13.63931c0-1.40997,1.14001-2.53998,2.54999-2.53998h-5.19995C25.94851,11.09934,24.8085,12.22934,24.8085,13.63931z"/><path fill="#e2e2e2" d="M24.74553,18.04059c-6.23961-2.60004-12.36224-2.60777-18.36693,0v-4.98036c6.18628-2.0988,12.3076-2.0679,18.36693,0V18.04059z"/><path fill="#d3d3d3" d="M6.37374,13.05799c1.73999-0.58997,3.46997-1.01001,5.20001-1.26001v4.65015c-1.73999,0.30994-3.48004,0.83984-5.20001,1.58984V13.05799z"/><path fill="#ededed" d="M24.74374,13.05799v4.97998c-1.72003-0.71997-3.44-1.23999-5.15002-1.54993v-4.69006C21.31375,12.04798,23.03372,12.46802,24.74374,13.05799z"/><path fill="#e2e2e2" d="M43.17775,24.1928c-6.23961-2.60004-12.36224-2.60777-18.36693,0v-4.98036c6.18628-2.0988,12.3076-2.0679,18.36693,0V24.1928z"/><path fill="#d3d3d3" d="M24.81375,19.20801c1.73999-0.58997,3.46997-1.00989,5.19-1.25989v4.6499c-1.73999,0.31006-3.47003,0.84009-5.19,1.59009V19.20801z"/><path fill="#ededed" d="M43.17373,19.20801v4.9801c-1.72998-0.72009-3.44-1.23999-5.15002-1.55005v-4.68994C39.74374,18.20801,41.46371,18.62806,43.17373,19.20801z"/><path fill="#ffac88" d="M61.62372,4.80361v47.80714c0,1.40015-1.14001,2.54004-2.55005,2.54004h-5.19995c1.40997,0,2.54999-1.13989,2.54999-2.54004V4.80361c0-1.40997-1.14001-2.53998-2.54999-2.53998h5.19995C60.48371,2.26363,61.62372,3.39364,61.62372,4.80361z"/><path fill="#ef8759" d="M43.21228,4.80361v47.80714c0,1.40015,1.14001,2.54004,2.55005,2.54004h5.19995c-1.40997,0-2.54999-1.13989-2.54999-2.54004V4.80361c0-1.40997,1.14001-2.53998,2.54999-2.53998h-5.19995C44.35229,2.26363,43.21228,3.39364,43.21228,4.80361z"/><path fill="#e2e2e2" d="M61.58154,15.11097c-6.23961-2.60004-12.36224-2.60777-18.36693,0v-4.98036c6.18628-2.0988,12.3076-2.0679,18.36693,0V15.11097z"/><path fill="#d3d3d3" d="M43.21371,10.12806c1.74005-0.59003,3.47003-1.01001,5.20001-1.26001v4.65002c-1.75,0.30994-3.47998,0.83997-5.20001,1.58997V10.12806z"/><path fill="#ededed" d="M61.58377,10.12806v4.97998c-1.73004-0.71997-3.45001-1.23999-5.16003-1.56006V8.86805C58.14376,9.11805,59.87374,9.53803,61.58377,10.12806z"/><path fill="#666" d="M11.57794 50.09415h8.00781c.55273 0 1-.44727 1-1s-.44727-1-1-1h-8.00781c-.55273 0-1 .44727-1 1S11.02521 50.09415 11.57794 50.09415zM30.01056 50.09415h8.00781c.55273 0 1-.44727 1-1s-.44727-1-1-1h-8.00781c-.55273 0-1 .44727-1 1S29.45782 50.09415 30.01056 50.09415zM48.41388 50.09415h8.00781c.55273 0 1-.44727 1-1s-.44727-1-1-1h-8.00781c-.55273 0-1 .44727-1 1S47.86115 50.09415 48.41388 50.09415z"/></svg>