<svg xmlns="http://www.w3.org/2000/svg" enable-background="new 0 0 68 68" viewBox="0 0 68 68"><path fill="#a7d08c" d="M9.23644,45.66346v0.00001c0,3.82842,3.10355,6.93196,6.93196,6.93196h46.47222c1.30305,0,2.35938,1.05633,2.35938,2.35938v0c0,1.30305-1.05633,2.35938-2.35938,2.35938l-47.63574,0c-6.18014,0-11.55117-4.66356-11.9765-10.82904c-0.24417-3.53939,1.10439-6.78667,3.38035-9.07644C8.52015,35.2973,11.43282,34,14.65081,34h47.98981C63.94367,34,65,35.05633,65,36.35938v0.01274c0,1.30305-1.05633,2.35938-2.35938,2.35938H16.1684C12.33998,38.7315,9.23644,41.83504,9.23644,45.66346z"/><path fill="#badda4" d="M64.99761,36.35857v0.01772c0,0.72588-0.32752,1.37207-0.84097,1.80582c-0.40722-0.34519-0.92947-0.55769-1.51374-0.55769H14.64649c-3.21334,0-6.12568,1.3013-8.24136,3.40812c-1.6996,1.70846-2.87695,3.95689-3.25759,6.44435c-0.05311-0.32753-0.08855-0.65505-0.11508-0.99144c-0.24789-3.54087,1.09766-6.7896,3.37267-9.07347c2.11568-2.11563,5.02802-3.40806,8.24136-3.40806h47.99641C63.9442,34.00391,64.99761,35.05732,64.99761,36.35857z"/><path fill="#9ac181" d="M64.99761,54.95069c0,0.65505-0.26556,1.23927-0.69049,1.67302c-0.42489,0.42494-1.00911,0.69049-1.66422,0.69049H15.0006c-6.17885,0-11.54326-4.66511-11.96815-10.83504c-0.06197-0.90294-0.02658-1.77929,0.11508-2.62912c0.89408,5.66541,6.0106,9.8348,11.85306,9.8348h47.64231c0.57541,0,1.09771-0.20364,1.50488-0.54002C64.67009,53.56976,64.99761,54.22481,64.99761,54.95069z"/><path fill="#ededed" d="M61.72066,38.73151c-1.67293,4.2116-1.41742,8.89547,0,13.86393l-45.55226,0c-3.82842,0-6.93196-3.10355-6.93196-6.93196v-0.00001c0-3.82842,3.10355-6.93196,6.93196-6.93196L61.72066,38.73151z"/><path fill="#fe9967" d="M55.79694,34H11.74888c-1.30305,0-2.35938-1.05633-2.35938-2.35938v-0.01274c0-1.30305,1.05633-2.35938,2.35938-2.35938h41.48818c0.87424,0,1.58295-0.70871,1.58295-1.58295V16.98751c0-0.87424-0.70871-1.58295-1.58295-1.58295l-41.48818,0c-1.30305,0-2.35938-1.05633-2.35938-2.35938v0c0-1.30305,1.05633-2.35938,2.35938-2.35938l44.04807,0c2.13012,0,3.85692,1.7268,3.85692,3.85692v15.60037C59.65386,32.2732,57.92706,34,55.79694,34z"/><path fill="#ffac88" d="M59.65092,14.54687v3.09826c0-2.1334-1.72618-3.85959-3.85072-3.85959H11.75008c-0.64625,0-1.23932,0.26561-1.67307,0.69049c-0.03539,0.03539-0.07969,0.07964-0.10622,0.12394c-0.36292-0.41608-0.58422-0.95605-0.58422-1.55799c0-0.65505,0.26555-1.23932,0.69044-1.66421c0.43375-0.42489,1.02683-0.69049,1.67307-0.69049H55.8002C57.92474,10.68729,59.65092,12.41347,59.65092,14.54687z"/><path fill="#ef8759" d="M59.65092,27.04221v3.09826C59.65092,32.26496,57.92474,34,55.8002,34H11.75008c-1.3013,0-2.36351-1.06227-2.36351-2.36351v-0.00886c0-0.59313,0.21244-1.1331,0.57536-1.54027c0.44261,0.49572,1.07999,0.81438,1.78815,0.81438H55.8002C57.92474,30.90174,59.65092,29.1667,59.65092,27.04221z"/><path fill="#ededed" d="M12.66886,29.26851c1.0411-4.62132,1.0411-9.24261,0-13.86394l40.5682-0.00001c0.87424,0,1.58295,0.70871,1.58295,1.58295v10.69804c0,0.87424-0.70871,1.58295-1.58295,1.58295L12.66886,29.26851z"/><path fill="#e2e2e2" d="M9.24096 45.5737c-.00038.0302-.00454.05943-.00454.08974 0 3.82841 3.10355 6.93196 6.93196 6.93196h45.55229c-.68914-2.4156-1.09674-4.7622-1.14845-7.02171H9.24096zM52.98522 21.7466v.31353H13.42979c.02242 2.40279-.21968 4.80558-.76095 7.20838h40.5682c.87425 0 1.58295-.70876 1.58295-1.58295V21.7466H52.98522z"/><path fill="#d3d3d3" d="M17.33239 42.31164h43.38l-.16998 2H17.33239c-.54999 0-1-.45001-1-1C16.33239 42.75164 16.7824 42.31164 17.33239 42.31164zM60.8424 48.93164H17.33239c-.54999 0-1-.44-1-1 0-.54999.45001-1 1-1H60.5924L60.8424 48.93164zM50.01339 25.69165H13.31337l.14996-2h36.55005c.56 0 1 .44 1 1C51.01339 25.24163 50.57338 25.69165 50.01339 25.69165zM13.46334 21.06164l-.13995-2h36.69c.56 0 1 .45001 1 1s-.44 1-1 1H13.46334z"/></svg>