<svg xmlns="http://www.w3.org/2000/svg" enable-background="new 0 0 68 68" viewBox="0 0 68 68"><path fill="#fe9967" d="M66,18.08469v33.71002c0,1.38624-1.12377,2.51001-2.51001,2.51001H41.78745c-1.10182,0-2.14271,0.64091-2.52488,1.67434c-0.24445,0.661-0.63029,1.25339-1.12255,1.74565c-0.88,0.88-2.08997,1.41998-3.42993,1.41998h-1.42004c-2.08911,0-3.86825-1.31853-4.55127-3.16463c-0.38246-1.03373-1.42303-1.67534-2.52524-1.67534H4.51001C3.12,54.30473,2,53.17472,2,51.79472V18.08469c0-1.02002,0.62-1.94,1.56995-2.32001L7.37,14.2147h53.27002l3.80005,1.54999C65.38,16.14469,66,17.06467,66,18.08469z"/><path fill="#ef8759" d="M12.05005,54.30473H4.51001C3.12,54.30473,2,53.17472,2,51.79472V18.08469c0-1.02002,0.62-1.94,1.56995-2.32001L7.37,14.2147h7.54004l-3.81006,1.54999c-0.93994,0.38-1.55994,1.29999-1.55994,2.32001v33.71002C9.54004,53.17472,10.66003,54.30473,12.05005,54.30473z"/><path fill="#ffac88" d="M19.85345 54.30473h-3.17004c-1.38989 0-2.51001-1.13-2.51001-2.51001V18.08469c0-1.02002.62012-1.94 1.57007-2.32001l3.80005-1.54999h3.15991l-3.79993 1.54999c-.95007.38-1.55994 1.29999-1.55994 2.32001v33.71002C17.34357 53.17472 18.45343 54.30473 19.85345 54.30473zM66 18.08469v33.71002c0 1.38-1.13 2.51001-2.50989 2.51001H56.37c1.39001 0 2.51001-1.13 2.51001-2.51001V18.08469c0-1.02002-.62-1.94-1.56006-2.32001l-3.79993-1.54999h7.12l3.79004 1.54999C65.38 16.14469 66 17.06467 66 18.08469z"/><path fill="#e2e2e2" d="M7.36704,11.19124v37.87883c9.31354-5.27242,24.19777,0,26.63497,1.36357V12.55481C31.56481,11.19124,18.68462,5.82835,7.36704,11.19124z"/><path fill="#d3d3d3" d="M20.68452,8.86216C15.09546,8.80973,11.1449,9.40104,7.36707,11.1912v37.87885c3.35986-1.90204,7.44409-2.42786,13.31746-2.26379V8.86216z"/><path fill="#e2e2e2" d="M34.00201,12.55481v37.87884c2.43715-1.36357,17.32138-6.63599,26.63492-1.36357V11.19124C49.31934,5.82835,36.43915,11.19124,34.00201,12.55481z"/><path fill="#ededed" d="M47.31947,8.86216c5.58909-0.05243,9.53965,0.53888,13.31748,2.32904v37.87885c-3.35986-1.90204-7.44409-2.42786-13.31748-2.26379V8.86216z"/><path fill="#666" d="M38.15002 17.62272c.15723 0 .31738-.03711.46582-.11621.08984-.0459 9.25586-4.5332 17.46582-.85742.50684.22363 1.0957-.00098 1.32129-.50488s-.00098-1.0957-.50488-1.32129c-7.72852-3.45801-16.68848-.4209-19.21582.91602-.48828.25781-.67578.8623-.41699 1.35059C37.44397 17.42936 37.79065 17.62272 38.15002 17.62272zM38.15002 23.97916c.15723 0 .31738-.03711.46582-.11621.08984-.04688 9.25586-4.5332 17.46582-.85742.50684.22363 1.0957-.00098 1.32129-.50488s-.00098-1.0957-.50488-1.32129c-7.72852-3.45801-16.68848-.4209-19.21582.91602-.48828.25781-.67578.8623-.41699 1.35059C37.44397 23.7858 37.79065 23.97916 38.15002 23.97916zM57.40295 41.56998c.22559-.50391-.00098-1.0957-.50488-1.32129-7.72852-3.45898-16.68848-.4209-19.21582.91602-.48828.25781-.67578.8623-.41699 1.35059.17871.33984.52539.5332.88477.5332.15723 0 .31738-.03711.46582-.11621.08984-.0459 9.25586-4.5332 17.46582-.85742C56.5885 42.2985 57.17737 42.07389 57.40295 41.56998zM38.15002 36.69205c.15723 0 .31738-.03711.46582-.11621.08984-.04688 9.25586-4.5332 17.46582-.85742.50684.22363 1.0957 0 1.32129-.50488.22559-.50391-.00098-1.0957-.50488-1.32129-7.72852-3.45898-16.68848-.4209-19.21582.91602-.48828.25781-.67578.8623-.41699 1.35059C37.44397 36.4987 37.79065 36.69205 38.15002 36.69205zM38.15002 30.33561c.15723 0 .31738-.03711.46582-.11621.08984-.0459 9.25586-4.5332 17.46582-.85742.50684.22461 1.0957-.00098 1.32129-.50488s-.00098-1.0957-.50488-1.32129c-7.72852-3.45801-16.68848-.4209-19.21582.91602-.48828.25781-.67578.8623-.41699 1.35059C37.44397 30.14225 37.79065 30.33561 38.15002 30.33561zM11.92151 16.64909c8.21387-3.67676 17.37793.81055 17.4668.85742.14844.0791.30859.11621.46582.11621.35938 0 .70605-.19336.88477-.5332.25879-.48828.07129-1.09277-.41699-1.35059-2.52832-1.33691-11.48633-4.37109-19.2168-.91602-.50391.22559-.73047.81738-.50488 1.32129S11.41467 16.87272 11.92151 16.64909zM11.92151 23.00553c8.21387-3.67578 17.37793.81055 17.4668.85742.14844.0791.30859.11621.46582.11621.35938 0 .70605-.19336.88477-.5332.25879-.48828.07129-1.09277-.41699-1.35059-2.52832-1.33691-11.48633-4.37109-19.2168-.91602-.50391.22559-.73047.81738-.50488 1.32129S11.41467 23.22916 11.92151 23.00553zM29.38831 42.93229c.14844.0791.30859.11621.46582.11621.35938 0 .70605-.19336.88477-.5332.25879-.48828.07129-1.09277-.41699-1.35059-2.52832-1.33691-11.48633-4.37207-19.2168-.91602-.50391.22559-.73047.81738-.50488 1.32129s.81445.72852 1.32129.50488C20.13538 38.39811 29.29944 42.88541 29.38831 42.93229zM11.92151 35.71842c8.21387-3.67578 17.37793.81055 17.4668.85742.14844.0791.30859.11621.46582.11621.35938 0 .70605-.19336.88477-.5332.25879-.48828.07129-1.09277-.41699-1.35059-2.52832-1.33691-11.48633-4.37207-19.2168-.91602-.50391.22559-.73047.81738-.50488 1.32129C10.82581 35.71842 11.41467 35.94205 11.92151 35.71842zM11.92151 29.36198c8.21387-3.67676 17.37793.81055 17.4668.85742.14844.0791.30859.11621.46582.11621.35938 0 .70605-.19336.88477-.5332.25879-.48828.07129-1.09277-.41699-1.35059-2.52832-1.33691-11.48633-4.37109-19.2168-.91602-.50391.22559-.73047.81738-.50488 1.32129S11.41467 29.58659 11.92151 29.36198z"/></svg>