<svg xmlns="http://www.w3.org/2000/svg" enable-background="new 0 0 68 68" viewBox="0 0 68 68"><path fill="#fe9967" d="M37.08809,48.66199c-1.52002,1.73999-3.75,2.83002-6.23999,2.83002c-4.08997,0-7.47998-2.94-8.16992-6.82001c-1.28003,1.22998-3.02002,1.97998-4.94006,1.97998c-3.94006,0-7.13-3.20001-7.13-7.13c0-0.26996,0.01001-0.56,0.06006-0.82001h-0.28003c-4.65002,0-8.39001-3.38995-8.39001-7.57996c0-3.13,2.54993-6.35004,5.63-7.16003c0.48999-4.02997,3.97998-7.15997,8.20996-7.15997c0.5,0,0.97998,0.03998,1.45996,0.12c0.02002,0,0.04004,0.01001,0.06006,0.01001l-0.06006-0.02002c0.21008-4.52002,4.32007-8.13,9.36011-8.13c2.12988,0,4.08997,0.65002,5.65991,1.72998c1.58008-2.33997,4.44006-3.90997,7.69006-3.90997c3.10999,0,5.84998,1.45001,7.45007,3.64001c1.33984-0.72003,2.91992-1.10004,4.58984-1.10004c5.14014,0,9.30005,3.77002,9.30005,8.43005c0,1.32996-0.33997,2.60999-0.95996,3.73999c3.33997,1.51001,5.60999,4.60999,5.60999,8.21997c0,3.67999-2.40002,6.85004-5.88,8.28003h-0.08008c0.27002,0.76001,0.42017,1.54999,0.42017,2.38c0,4.67999-4.58008,8.52997-10.41016,8.90997l-5.84985,10.94c-0.59009,1.09998-1.89014,1.62-3.08008,1.22998l-2.48999-0.81c-1.41992-0.45996-2.07007-2.03998-1.5-3.41998c1.82007-4.44,0.21997-8.35999-1.1001-10.53998"/><path fill="#ef8759" d="M60.93181 20.06924c-1.16992-3.43005-4.69995-5.92004-8.87988-5.92004-1.67017 0-3.25.38-4.59009 1.10004-1.59998-2.19-4.33997-3.64001-7.44995-3.64001-3.25 0-6.11011 1.57001-7.69006 3.90997-1.56995-1.07996-3.52991-1.72998-5.66004-1.72998-5.03992 0-9.1499 3.60999-9.35986 8.13001l.05994.02002c-.02002 0-.04004-.01001-.05994-.01001-.4801-.08002-.96008-.12-1.46008-.12-4.22998 0-7.71997 3.13-8.21008 7.15997-2.2699.60004-4.25 2.51001-5.12988 4.72003-.33008-.80005-.5-1.67004-.5-2.57001 0-3.13 2.55005-6.35004 5.62988-7.16003.49011-4.02997 3.9801-7.15997 8.21008-7.15997.5 0 .97998.03998 1.46008.12.0199 0 .03992.01001.05994.01001l-.05994-.02002c.20996-4.52002 4.31995-8.13001 9.35986-8.13001 2.13013 0 4.09009.65002 5.66004 1.73004 1.57996-2.34003 4.44006-3.91003 7.69006-3.91003 3.10999 0 5.84998 1.45001 7.44995 3.64001 1.34009-.72003 2.91992-1.10004 4.59009-1.10004 5.13989 0 9.29993 3.77002 9.29993 8.43005C61.35185 18.42923 61.21184 19.27921 60.93181 20.06924zM66.00188 29.52921c0 .87-.13 1.71002-.39001 2.5-.77002-2.51001-2.69006-4.57001-5.22009-5.70996.62012-1.13.96008-2.41003.96008-3.74005 0-.26996-.01001-.52997-.03992-.78998C64.14177 23.41922 66.00188 26.25925 66.00188 29.52921z"/><path fill="#ffac88" d="M37.08809 48.66199c-1.52002 1.73999-3.75 2.83002-6.23999 2.83002-4.08997 0-7.47998-2.94-8.16992-6.82001-1.28003 1.22998-3.02002 1.97998-4.94006 1.97998-3.94006 0-7.13-3.20001-7.13-7.13 0-.26996.01001-.56.06006-.82001h-.28003c-4.65002 0-8.39001-3.38995-8.39001-7.57996 0-1.15002.34998-2.31.94006-3.37.59835 3.0787 3.53444 5.01108 7.01045 5.46989.89738.11845 1.53004.9215 1.52368 1.82665-.00002.00293-.00003.00575-.00003.00845 0 3.92999 3.13582 6.89496 7.07576 6.89496 1.16609 0 2.26581-.27663 3.23639-.76941.89157-.45267 1.93652-.04459 2.3634.85961 1.32616 2.80897 4.18712 4.74983 7.51032 4.74983 2.48999 0 4.71997-1.09003 6.23999-2.83002L36.83809 41.802c1.32207 2.1833 2.9249 6.11188 1.09176 10.5602-.00203-.00032.00037.00006-.00165-.00026-.13016-2.43998-1.0801-4.48994-1.90017-5.85993L37.08809 48.66199zM60.35811 39.01196c.06006.39001.1001.78003.1001 1.18005 0 4.67999-4.58008 8.52997-10.41016 8.90997l-5.84985 10.94c-.59009 1.09998-1.89014 1.62-3.08008 1.22998l-2.48999-.81c-1.41992-.45996-2.07007-2.03998-1.5-3.41998.3999-.97998.64001-1.92999.73999-2.84003.23999.71002.79004 1.30005 1.57007 1.56l2.48999.81006c1.18994.38995 2.48999-.13 3.07996-1.23004l5.84998-10.94C55.12813 44.12201 58.7281 41.98199 60.35811 39.01196zM65.99812 29.53198c0 3.35999-2 6.29004-4.98999 7.85999.17004-.60999.26001-1.25.26001-1.89996 0-.83002-.15002-1.62-.42004-2.38h.08008c2.22998-.91003 4.01001-2.53998 5.01001-4.56C65.9781 28.87201 65.99812 29.20197 65.99812 29.53198z"/><path fill="#fff5a5" d="M37.92818 52.362c.03003.58997.02002 1.21002-.06006 1.83997C37.67818 53.63202 37.67818 52.97198 37.92818 52.362zM60.11812 37.81201c.31006-.13.59998-.26001.89001-.42004-.15002.56-.37 1.11005-.65002 1.62-.07007-.40997-.17993-.81-.32007-1.19995H60.11812z"/><path fill="#ef8759" d="M48.13765 18.8158c.28125 0 .56152-.11914.75977-.34961.35938-.41992.31055-1.05078-.10938-1.41016-3.96191-3.39258-8.08008-1.42871-8.25391-1.34473-.49609.24316-.7002.84277-.45703 1.33789s.84082.7002 1.33789.45703c.03027-.01465 3.09961-1.47559 6.07227 1.06934C47.67574 18.73669 47.90718 18.8158 48.13765 18.8158zM17.07613 25.13806c-4.17188 1.99902-4.05762 6.05273-4.05078 6.22461.02148.53809.46484.95996.99805.95996.01367 0 .02734 0 .04102-.00098.55176-.02246.98145-.4873.95898-1.03906-.00098-.0293-.08105-2.9043 2.91797-4.3418.49805-.23828.70801-.83594.46875-1.33398S17.57613 24.8949 17.07613 25.13806zM40.90425 40.28064c-4.19336-2.14844-7.40918.44238-7.54297.55469-.42578.35156-.48633.98242-.13379 1.40723.19727.23926.4834.36328.77148.36328.22363 0 .4502-.0752.63574-.22949.02344-.01855 2.32324-1.87207 5.35742-.31641.49121.25488 1.09473.05859 1.3457-.43359C41.5898 41.13513 41.39546 40.53259 40.90425 40.28064zM29.13082 31.6488c-4.19336-2.14844-7.40918.44238-7.54297.55469-.42578.35156-.48633.98242-.13379 1.40723.19727.23926.4834.36328.77148.36328.22363 0 .4502-.0752.63574-.22949.02246-.01855 2.32324-1.87207 5.35742-.31641.49121.25391 1.09473.05859 1.3457-.43359C29.81636 32.5033 29.62203 31.90076 29.13082 31.6488zM47.47749 34.88708c-.51758.19238-.78027.76855-.58691 1.28613.19238.51758.76953.7793 1.28613.58691.02832-.00781 2.7793-.99805 5.11816 1.44141.19629.20508.45898.30859.72168.30859.24902 0 .49805-.0918.69141-.27832.39941-.38184.41309-1.01465.03027-1.41309C51.50191 33.43689 47.64058 34.82556 47.47749 34.88708zM35.7773 25.4574c-.51758.19336-.78027.76953-.58691 1.28613.19336.51758.76855.7793 1.28613.58691.0293-.00781 2.78125-.99902 5.11816 1.44043.19629.20508.45898.30859.72168.30859.24902 0 .49805-.0918.69141-.27832.39941-.38184.41309-1.01465.03027-1.41309C39.80171 24.0072 35.94038 25.39587 35.7773 25.4574zM32.65425 19.72205c-4.23633-1.98828-7.34082.68848-7.47168.80371-.41113.36426-.44922.99023-.08789 1.4043.19727.22559.47461.34082.75293.34082.23242 0 .4668-.08008.65527-.24316.0918-.07813 2.28125-1.91504 5.2998-.49512.50097.23535 1.09472.02051 1.33105-.47949C33.36812 20.5531 33.15425 19.9574 32.65425 19.72205zM52.82515 22.63025c-.5498.00488-.98926.45215-.9873 1.00195.00098.5498.44922.99512.99805.99805.12109.00098 2.97852.04883 4.32617 3.10156.16504.37305.53125.5957.91602.5957.13477 0 .27148-.02734.40332-.08496.50488-.22363.7334-.81348.51074-1.31934C57.10738 22.65466 53.0146 22.60193 52.82515 22.63025z"/></svg>