<svg xmlns="http://www.w3.org/2000/svg" enable-background="new 0 0 68 68" viewBox="0 0 68 68"><path fill="#444" d="M49.16191,12.96364c0,0.54993-0.44995,1-1,1s-1-0.45007-1-1c0-3.72003-3.03003-6.74005-6.75-6.74005H27.59184c-3.71997,0-6.75,3.02002-6.75,6.74005c0,0.54993-0.43994,1-1,1c-0.55005,0-1-0.45007-1-1c0-4.82007,3.93005-8.74005,8.75-8.74005h12.82007C45.24187,4.22359,49.16191,8.14357,49.16191,12.96364z"/><path fill="#fe9967" d="M65.99812,18.47636v11.85999c0,2.82996-2.29004,5.13-5.13,5.13H7.13814c-2.83997,0-5.14001-2.30005-5.14001-5.13V18.47636c0-3.04004,2.46997-5.51001,5.51001-5.51001h52.97998C63.53816,12.96635,65.99812,15.43633,65.99812,18.47636z"/><path fill="#fe9967" d="M65.99812,30.33635V58.2664c0,3.04004-2.45996,5.51001-5.51001,5.51001H7.50813c-3.04004,0-5.51001-2.46997-5.51001-5.51001V30.33635c0,2.82996,2.30005,5.13,5.14001,5.13h53.72998C63.70808,35.46635,65.99812,33.16631,65.99812,30.33635z"/><path fill="#ef8759" d="M13.50813,12.96635c-3.04004,0-5.51001,2.46997-5.51001,5.51001v16.98999H7.13814c-2.83997,0-5.14001-2.30005-5.14001-5.13V18.47636c0-3.04004,2.46997-5.51001,5.51001-5.51001H13.50813z"/><path fill="#ef8759" d="M13.50813,63.77641h-6c-3.04004,0-5.51001-2.46997-5.51001-5.51001V30.33635c0,2.82996,2.30005,5.13,5.14001,5.13h0.85999V58.2664C7.99813,61.30644,10.4681,63.77641,13.50813,63.77641z"/><path fill="#ffac88" d="M19.01814 63.77641h-2.67993c-3.04004 0-5.51001-2.46997-5.51001-5.51001V18.47636c0-3.04004 2.46997-5.51001 5.51001-5.51001h2.67993c-3.04004 0-5.51001 2.46997-5.51001 5.51001V58.2664C13.50813 61.30644 15.97811 63.77641 19.01814 63.77641zM65.99812 18.47636v11.85999c0 2.82996-2.29004 5.13-5.13 5.13h-.87V18.47636c0-3.04004-2.45996-5.51001-5.51001-5.51001h6C63.53816 12.96635 65.99812 15.43633 65.99812 18.47636z"/><path fill="#ffac88" d="M65.99812,30.33635V58.2664c0,3.04004-2.45996,5.51001-5.51001,5.51001h-6c3.05005,0,5.51001-2.46997,5.51001-5.51001V35.46635h0.87C63.70808,35.46635,65.99812,33.16631,65.99812,30.33635z"/><path fill="#666" d="M60.68806 56.63188h-11c-.55273 0-1 .44727-1 1s.44727 1 1 1h11c.55273 0 1-.44727 1-1S61.2408 56.63188 60.68806 56.63188zM53.52205 51.29887c-.55273 0-1 .44727-1 1s.44727 1 1 1h7.16602c.55273 0 1-.44727 1-1s-.44727-1-1-1H53.52205z"/><path fill="#fff" d="M6.99861 25.21684c.55273 0 1-.44727 1-1v-.5625c0-.55273-.44727-1-1-1s-1 .44727-1 1v.5625C5.99861 24.76958 6.44588 25.21684 6.99861 25.21684zM6.99861 21.11137c.55273 0 1-.44727 1-1v-1.14453h6.9248c.55273 0 1-.44727 1-1s-.44727-1-1-1H7.50838c-.83203 0-1.50977.67773-1.50977 1.50977v1.63477C5.99861 20.66411 6.44588 21.11137 6.99861 21.11137z"/><path fill="#444" d="M66.00188,30.33351v4.51001c-1.08997,1.01001-2.53992,1.62012-4.13,1.62012H6.13188c-1.59009,0-3.04004-0.61011-4.13-1.62012v-4.51001c0,2.28003,1.84998,4.13013,4.13,4.13013h55.73999C64.1519,34.46364,66.00188,32.61354,66.00188,30.33351z"/><path fill="#ededed" d="M31.09963,29.46543h5.80399c0.75554,0,1.36803,0.61249,1.36803,1.36803v9.26395c0,0.75554-0.61249,1.36803-1.36803,1.36803h-5.80399c-0.75554,0-1.36802-0.61249-1.36802-1.36803v-9.26395C29.73161,30.07791,30.34409,29.46543,31.09963,29.46543z"/><path fill="#e2e2e2" d="M34.01814,29.46538h-2.91846c-0.75562,0-1.36816,0.61255-1.36816,1.36804v9.26404c0,0.75549,0.61255,1.36792,1.36816,1.36792h2.91846V29.46538z"/></svg>