<svg xmlns="http://www.w3.org/2000/svg" enable-background="new 0 0 68 68" viewBox="0 0 68 68"><path fill="#fe9967" d="M46.19406,31.98145l-7.66021-5.06153L53.78925,4.17476c1.39771-2.11531,4.24556-2.69704,6.36087-1.29934l0.00001,0.00001c2.11531,1.3977,2.69704,4.24556,1.29934,6.36087L46.19406,31.98145z"/><path fill="#ef8759" d="M60.05013,2.82287c-2.10448-1.31737-4.88437-0.73132-6.26086,1.35188l-15.2554,22.74513l3.89392,2.57293L60.05013,2.82287z"/><path fill="#fe9967" d="M53.92024,45.99394L22.61386,25.30805l0.97792-1.48c1.72256-2.60696,5.23233-3.3239,7.83929-1.60134l21.86576,14.44793c2.60696,1.72256,3.3239,5.23233,1.60133,7.83929L53.92024,45.99394z"/><path fill="#ef8759" d="M22.81782,25.48142c1.86955-1.54322,4.57459-1.76848,6.70522-0.36066L51.3816,39.56394c2.13074,1.4079,2.98438,3.98458,2.29798,6.30957l0.22591,0.14927l0.99392-1.50422c1.72661-2.61308,1.0035-6.11617-1.60948-7.84272L31.43137,22.23267c-2.61308-1.72661-6.11902-1.01789-7.84563,1.59519l-0.99393,1.50422L22.81782,25.48142z"/><path fill="#444" d="M35.65245,65.71801l-3.74481-2.47441c-0.46078-0.30447-0.5875-0.92482-0.28304-1.3856l6.59791-9.98539l-10.61644,7.74833c-0.3374,0.24625-0.79231,0.25684-1.14081,0.02657l-0.68107-0.45002c-0.44086-0.2913-0.579-0.87531-0.31536-1.33325l3.80785-6.61427L21.721,55.82708c-0.33057,0.20025-0.74695,0.19209-1.06941-0.02098L6.24014,46.28364c-0.60281-0.39831-0.59813-1.27761,0.00768-1.67133c5.79174-3.76406,13.92809-11.02771,16.36504-19.30819L53.922,45.99183c-3.11613,7.82639-11.73047,15.47198-17.10645,19.68356C36.47772,65.94005,36.01051,65.9546,35.65245,65.71801z"/><path fill="#666" d="M35.64708,65.7184l-3.91347-2.58584c5.31783-4.10514,14.44628-12.01474,17.67625-20.11736l4.51267,2.98177c-3.11847,7.82291-11.73521,15.4659-17.1123,19.67876C36.47239,65.94044,36.00516,65.955,35.64708,65.7184z"/><path fill="#333" d="M27.12098,28.28768c-2.62363,8.92307-11.86701,16.67036-17.66776,20.12298l-3.2144-2.12393c-0.60291-0.39838-0.59809-1.27787,0.00794-1.67149c5.79451-3.76358,13.9273-11.03037,16.36154-19.30933L27.12098,28.28768z"/><path fill="#666" d="M13.94074,51.3758l-1.83946-1.21544c5.80064-3.45269,15.04402-11.19997,17.66776-20.12298l1.83936,1.21537C28.98487,40.1759,19.74138,47.92312,13.94074,51.3758z"/><path fill="#fff" d="M13.9036 43.22372c-.18262.15723-.24805.21094-.34668.29199l-.23926.19824c-.42383.35352-.48145.9834-.12695 1.4082.19727.2373.48145.35938.76855.35938.22559 0 .45215-.07617.63965-.23242l.22754-.1875c.10938-.08984.18164-.14941.38379-.32422.41797-.36035.46484-.99219.10352-1.41016C14.95341 42.90732 14.32157 42.86337 13.9036 43.22372zM21.66923 34.81943c-1.44629 2.04004-3.19141 4.06934-5.18555 6.03223-.39355.3877-.39941 1.02051-.01172 1.41406.19629.19922.4541.29883.71289.29883.25293 0 .50684-.0957.70117-.28711 2.07813-2.0459 3.90039-4.16602 5.41406-6.30176.31934-.4502.21387-1.07422-.2373-1.39355C22.61161 34.26083 21.98759 34.36728 21.66923 34.81943z"/></svg>