<svg xmlns="http://www.w3.org/2000/svg" enable-background="new 0 0 68 68" viewBox="0 0 68 68"><path fill="#444" d="M58.7431,44.57527l-5.09998,11.13c-0.60999,1.32001-1.95001,2.17999-3.40997,2.17999H39.51312v2h10.72003c2.23999,0,4.28998-1.31,5.22998-3.34998l5.15997-11.26001L58.7431,44.57527z"/><path fill="#e2e2e2" d="M39.8913,54.58196v7.02882c0,1.23284-1.00798,2.24082-2.24082,2.24082H21.15061c-1.24059,0-2.24082-1.00798-2.24082-2.24082v-7.02882H39.8913z"/><path fill="#d3d3d3" d="M25.85132,63.85425h-4.69668c-1.24691,0-2.24446-1.01418-2.24446-2.24446v-7.02603h4.69668v7.02603C23.60687,62.84007,24.61273,63.85425,25.85132,63.85425z"/><path fill="#ededed" d="M39.8913,54.58376v7.02603c0,1.23027-1.00586,2.24446-2.23613,2.24446h-4.70505c1.23859,0,2.24445-1.01418,2.24445-2.24446v-7.02603H39.8913z"/><path fill="#fe9967" d="M55.75093,30.48578c0,14.56-11.79999,26.34997-26.34998,26.34997S3.05098,45.04578,3.05098,30.48578c0-14.54999,11.79999-26.34003,26.34998-26.34003S55.75093,15.93579,55.75093,30.48578z"/><path fill="#ffac88" d="M55.75093,30.48578c0,1.21997-0.07996,2.41998-0.25,3.58996c-1.75-12.84997-12.76996-22.76001-26.09998-22.76001S5.05098,21.22577,3.30098,34.07574c-0.17004-1.16998-0.25-2.36999-0.25-3.58996c0-14.54999,11.79999-26.34003,26.34998-26.34003S55.75093,15.93579,55.75093,30.48578z"/><path fill="#ef8759" d="M55.75093,30.49704c0,14.54999-11.79999,26.33996-26.34998,26.33996S3.05098,45.04702,3.05098,30.49704c0-1.22003,0.07996-2.41998,0.25-3.59003c1.75,12.86004,12.76996,22.76001,26.09998,22.76001s24.34998-9.89996,26.09998-22.76001C55.67098,28.07705,55.75093,29.27701,55.75093,30.49704z"/><path fill="#e2e2e2" d="M36.57094,30.48578c0,3.96997-3.20996,7.17999-7.16998,7.17999s-7.16998-3.21002-7.16998-7.17999c0-3.96002,3.20996-7.17004,7.16998-7.17004S36.57094,26.52576,36.57094,30.48578z"/><path fill="#444" d="M32.53096,30.48578c0,1.72998-1.40002,3.13-3.13,3.13s-3.13-1.40002-3.13-3.13c0-1.72003,1.40002-3.12,3.13-3.12S32.53096,28.76575,32.53096,30.48578z"/><path fill="#fff" d="M16.09908 45.81683c-.12793-.10352-.25586-.20703-.37598-.31738-.40625-.37305-1.03809-.3457-1.41309.05957-.37402.40723-.34668 1.04004.05957 1.41309.15137.13867.30957.26855.46875.39746l.2334.19238c.18848.1582.41797.23633.64551.23633.28418 0 .56641-.12012.76465-.35352.35645-.42188.30371-1.05273-.11719-1.41016L16.09908 45.81683zM9.35201 33.82269c-.08984-.54492-.60645-.91895-1.14941-.82324-.54492.08984-.91406.60449-.82324 1.14941.54395 3.28516 1.79199 6.34473 3.70801 9.0957.19434.2793.50488.42871.82129.42871.19727 0 .39648-.05859.57031-.17969.45313-.31543.56445-.93848.24902-1.3916C10.98287 39.59711 9.84713 36.81097 9.35201 33.82269z"/><path fill="#e2e2e2" d="M64.73756,40.04953l-1.53003,3.94c-0.62,1.59003-2.40997,2.37-4,1.76001c-1.21997-0.47998-1.96997-1.65002-1.96997-2.89001c0-0.37,0.07001-0.73999,0.21002-1.10999l1.52997-3.94c0.62-1.59003,2.40997-2.38,4-1.76001S65.35755,38.45956,64.73756,40.04953z"/></svg>