<svg xmlns="http://www.w3.org/2000/svg" enable-background="new 0 0 68 68" viewBox="0 0 68 68"><path fill="#e2e2e2" d="M53.94667,66H14.05333c-2.6274,0-4.75733-2.12993-4.75733-4.75733V6.75733C9.296,4.12993,11.42593,2,14.05333,2h39.89333c2.6274,0,4.75733,2.12993,4.75733,4.75733v54.48534C58.704,63.87007,56.57407,66,53.94667,66z"/><path fill="#d3d3d3" d="M58.70001,6.76001v54.47998c0,2.63-2.13,4.76001-4.75,4.76001h-7.29999c2.63,0,4.75995-2.13,4.75995-4.76001V6.76001C51.40997,4.13,49.28003,2,46.65002,2h7.29999C56.57001,2,58.70001,4.13,58.70001,6.76001z"/><path fill="#ededed" d="M9.296,6.76001v54.47998C9.296,63.87,11.426,66,14.046,66h7.29999c-2.63,0-4.75995-2.13-4.75995-4.76001V6.76001C16.58604,4.13,18.71598,2,21.34599,2H14.046C11.426,2,9.296,4.13,9.296,6.76001z"/><path fill="#fe9967" d="M15.44,24.4425v-13.653c0-1.46107,1.18443-2.6455,2.6455-2.6455h31.829c1.46107,0,2.6455,1.18443,2.6455,2.6455v13.653c0,1.46107-1.18443,2.6455-2.6455,2.6455h-31.829C16.62443,27.088,15.44,25.90357,15.44,24.4425z"/><path fill="#ef8759" d="M52.56,11.21533V17.25c0-1.69437-1.17999-3.06377-2.65002-3.06377H18.09003C16.62,14.18623,15.44,15.55563,15.44,17.25v-6.03467c0-1.69437,1.17999-3.07531,2.65002-3.07531h31.81995C51.38,8.14001,52.56,9.52096,52.56,11.21533z"/><path fill="#ffac88" d="M15.44,24.02858V18.0251c0,1.68561,1.17999,3.04793,2.65003,3.04793h31.81994c1.47003,0,2.65002-1.36232,2.65002-3.04793v6.00348c0,1.68561-1.17999,3.05942-2.65002,3.05942H18.09003C16.62,27.088,15.44,25.7142,15.44,24.02858z"/><rect width="6.357" height="16.415" x="43.899" y="43.387" fill="#444"/><rect width="3.559" height="16.411" x="46.701" y="43.39" fill="#666"/><rect width="6.357" height="5.324" x="43.899" y="32.293" fill="#444"/><rect width="3.559" height="5.32" x="46.701" y="32.297" fill="#666"/><rect width="6.357" height="5.324" x="30.819" y="32.293" fill="#444"/><rect width="3.559" height="5.32" x="33.622" y="32.297" fill="#666"/><rect width="6.357" height="5.324" x="17.74" y="32.293" fill="#444"/><rect width="3.559" height="5.32" x="20.543" y="32.297" fill="#666"/><rect width="6.357" height="5.324" x="30.819" y="43.387" fill="#444"/><rect width="3.559" height="5.32" x="33.622" y="43.39" fill="#666"/><rect width="6.357" height="5.324" x="17.74" y="43.387" fill="#444"/><rect width="3.559" height="5.32" x="20.543" y="43.39" fill="#666"/><rect width="6.357" height="5.324" x="30.819" y="54.478" fill="#444"/><rect width="3.559" height="5.32" x="33.622" y="54.482" fill="#666"/><rect width="6.357" height="5.324" x="17.74" y="54.478" fill="#444"/><rect width="3.559" height="5.32" x="20.543" y="54.482" fill="#666"/><path fill="#fff" d="M19.97247 16.34064c-.55273 0-1-.44775-1-1 0-2.01025 1.63574-3.64551 3.64551-3.64551h5.625c.55273 0 1 .44775 1 1s-.44727 1-1 1h-5.625c-.90723 0-1.64551.73828-1.64551 1.64551C20.97247 15.89288 20.52521 16.34064 19.97247 16.34064zM33.86798 13.69513h-1.375c-.55273 0-1-.44775-1-1s.44727-1 1-1h1.375c.55273 0 1 .44775 1 1S34.42072 13.69513 33.86798 13.69513z"/></svg>