<svg xmlns="http://www.w3.org/2000/svg" enable-background="new 0 0 68 68" viewBox="0 0 68 68"><path fill="#a7d08c" d="M16.48768,37.02919h-0.00009c-7.99984,0-14.48499,6.48515-14.48499,14.48499v0.00003c0,7.99981,6.48513,14.48493,14.48493,14.48493h0.00015c7.99981,0,14.48493-6.48512,14.48493-14.48493v-0.00009C30.97261,43.51432,24.48749,37.02919,16.48768,37.02919z"/><path fill="#9ac181" d="M11.90919,61.76074c1.98999,1.98999,4.55994,3.40003,7.41992,3.96003c-0.91992,0.17999-1.86987,0.27997-2.83997,0.27997c-4,0-7.62-1.62-10.23999-4.23999c-2.63001-2.63-4.25-6.25-4.25-10.25c0-8,6.48999-14.47998,14.48999-14.47998c0.97009,0,1.92004,0.09998,2.83997,0.27997c-6.6499,1.31-11.65991,7.17004-11.65991,14.20001C7.6692,55.51074,9.28907,59.13073,11.90919,61.76074z"/><path fill="#badda4" d="M21.06258,61.76074c-1.98999,1.98999-4.55994,3.40003-7.41992,3.96003c0.91992,0.17999,1.86987,0.27997,2.83997,0.27997c4,0,7.62-1.62,10.23999-4.23999c2.63-2.63,4.25-6.25,4.25-10.25c0-8-6.48999-14.47998-14.48999-14.47998c-0.97009,0-1.92004,0.09998-2.83997,0.27997c6.6499,1.31,11.65991,7.17004,11.65991,14.20001C25.30257,55.51074,23.6827,59.13073,21.06258,61.76074z"/><path fill="#e2e2e2" d="M51.51763,37.02919h-0.00009c-7.99984,0-14.48499,6.48515-14.48499,14.48499v0.00003c0,7.99981,6.48513,14.48493,14.48493,14.48493h0.00015c7.99981,0,14.48494-6.48512,14.48494-14.48493v-0.00009C66.00256,43.51432,59.51744,37.02919,51.51763,37.02919z"/><path fill="#d3d3d3" d="M46.93914,61.76074c1.98999,1.98999,4.55994,3.40003,7.41992,3.96003c-0.91992,0.17999-1.86987,0.27997-2.83997,0.27997c-4,0-7.62-1.62-10.23999-4.23999c-2.63-2.63-4.25-6.25-4.25-10.25c0-8,6.48999-14.47998,14.48999-14.47998c0.97009,0,1.92004,0.09998,2.83997,0.27997c-6.6499,1.31-11.65991,7.17004-11.65991,14.20001C42.69915,55.51074,44.31902,59.13073,46.93914,61.76074z"/><path fill="#ededed" d="M56.09253,61.76074c-1.98999,1.98999-4.55994,3.40003-7.41992,3.96003c0.91992,0.17999,1.86987,0.27997,2.83997,0.27997c4,0,7.62-1.62,10.23999-4.23999c2.63001-2.63,4.25-6.25,4.25-10.25c0-8-6.48999-14.47998-14.48999-14.47998c-0.97009,0-1.92004,0.09998-2.83997,0.27997c6.6499,1.31,11.65991,7.17004,11.65991,14.20001C60.33252,55.51074,58.71264,59.13073,56.09253,61.76074z"/><path fill="#feeb75" d="M51.51763,1.99927h-0.00009c-7.99984,0-14.48499,6.48515-14.48499,14.48499v0.00003c0,7.99981,6.48513,14.48493,14.48493,14.48493h0.00015c7.99981,0,14.48494-6.48512,14.48494-14.48493V16.4842C66.00256,8.4844,59.51744,1.99927,51.51763,1.99927z"/><path fill="#efd96a" d="M46.93914,26.73082c1.98999,1.98999,4.55994,3.40002,7.41992,3.96002c-0.91992,0.17999-1.86987,0.27997-2.83997,0.27997c-4,0-7.62-1.62-10.23999-4.23999c-2.63-2.63-4.25-6.25-4.25-10.25c0-8,6.48999-14.47998,14.48999-14.47998c0.97009,0,1.92004,0.09998,2.83997,0.27997c-6.6499,1.31-11.65991,7.17004-11.65991,14.20001C42.69915,20.48082,44.31902,24.10081,46.93914,26.73082z"/><path fill="#fff3ab" d="M56.09253,26.73082c-1.98999,1.98999-4.55994,3.40002-7.41992,3.96002c0.91992,0.17999,1.86987,0.27997,2.83997,0.27997c4,0,7.62-1.62,10.23999-4.23999c2.63001-2.63,4.25-6.25,4.25-10.25c0-8-6.48999-14.47998-14.48999-14.47998c-0.97009,0-1.92004,0.09998-2.83997,0.27997c6.6499,1.31,11.65991,7.17004,11.65991,14.20001C60.33252,20.48082,58.71264,24.10081,56.09253,26.73082z"/><path fill="#fe9967" d="M16.48596,2.00006h-0.00009c-7.99984,0-14.48499,6.48515-14.48499,14.48499v0.00003c0,7.99981,6.48513,14.48493,14.48493,14.48493h0.00015c7.99981,0,14.48493-6.48512,14.48493-14.48493v-0.00009C30.97089,8.48519,24.48577,2.00006,16.48596,2.00006z"/><path fill="#ef8759" d="M11.90747,26.73161c1.98999,1.98999,4.55994,3.40002,7.41992,3.96002c-0.91992,0.17999-1.86987,0.27997-2.83997,0.27997c-4,0-7.61999-1.62-10.23999-4.23999c-2.63-2.63-4.25-6.25-4.25-10.25c0-8,6.48999-14.47998,14.48999-14.47998c0.97009,0,1.92004,0.09998,2.83997,0.27997c-6.6499,1.31-11.65991,7.17004-11.65991,14.20001C7.66748,20.48161,9.28736,24.1016,11.90747,26.73161z"/><path fill="#ffac88" d="M21.06086,26.73161c-1.98999,1.98999-4.55994,3.40002-7.41992,3.96002c0.91992,0.17999,1.86987,0.27997,2.83996,0.27997c4,0,7.62-1.62,10.23999-4.23999c2.63-2.63,4.25-6.25,4.25-10.25c0-8-6.48999-14.47998-14.48999-14.47998c-0.97009,0-1.92004,0.09998-2.83996,0.27997c6.6499,1.31,11.65991,7.17004,11.65991,14.20001C25.30085,20.48161,23.68098,24.1016,21.06086,26.73161z"/><path fill="#fff" d="M10.4856,17.48503h5v5c0,0.55273,0.44727,1,1,1c0.55273,0,1-0.44727,1-1v-5h5c0.55273,0,1-0.44727,1-1c0-0.55273-0.44727-1-1-1h-5v-5c0-0.55273-0.44727-1-1-1c-0.55273,0-1,0.44727-1,1v5h-5c-0.55273,0-1,0.44727-1,1C9.4856,17.03776,9.93286,17.48503,10.4856,17.48503z"/><path fill="#444" d="M45.51587,17.48503h12c0.55273,0,1-0.44727,1-1c0-0.55273-0.44727-1-1-1h-12c-0.55273,0-1,0.44727-1,1C44.51587,17.03776,44.96314,17.48503,45.51587,17.48503z"/><path fill="#fff" d="M21.69263,46.30827c-0.39063-0.39063-1.02344-0.39063-1.41406,0l-3.79297,3.79297l-3.79297-3.79297c-0.39063-0.39063-1.02344-0.39063-1.41406,0s-0.39063,1.02344,0,1.41406l3.79297,3.79297l-3.79297,3.79297c-0.39063,0.39063-0.39063,1.02344,0,1.41406c0.19531,0.19531,0.45117,0.29297,0.70703,0.29297s0.51172-0.09766,0.70703-0.29297l3.79297-3.79297l3.79297,3.79297c0.19531,0.19531,0.45117,0.29297,0.70703,0.29297s0.51172-0.09766,0.70703-0.29297c0.39063-0.39063,0.39063-1.02344,0-1.41406l-3.79297-3.79297l3.79297-3.79297C22.08325,47.33171,22.08325,46.69889,21.69263,46.30827z"/><path fill="#444" d="M57.51587 47.50944h-12c-.55273 0-1 .44727-1 1s.44727 1 1 1h12c.55273 0 1-.44727 1-1S58.06861 47.50944 57.51587 47.50944zM57.51587 53.52018h-12c-.55273 0-1 .44727-1 1s.44727 1 1 1h12c.55273 0 1-.44727 1-1S58.06861 53.52018 57.51587 53.52018z"/></svg>