<svg xmlns="http://www.w3.org/2000/svg" enable-background="new 0 0 68 68" viewBox="0 0 68 68"><path fill="#e2e2e2" d="M61.40205,65.99772H6.60287c-2.00422,0-3.62895-1.62474-3.62895-3.62896V11.70954c0-2.00422,1.62474-3.62895,3.62895-3.62895h54.79919c2.00422,0,3.62895,1.62474,3.62895,3.62895v50.65922C65.03101,64.37298,63.40627,65.99772,61.40205,65.99772z"/><path fill="#fe9967" d="M65.03101,24.43221H2.97391V11.70954c0-2.00422,1.62474-3.62895,3.62895-3.62895h54.79919c2.00422,0,3.62895,1.62474,3.62895,3.62895V24.43221z"/><path fill="#d0d2c7" d="M9.349,62.37228V24.23563H2.96899v38.13666c0,2,1.63,3.63,3.63,3.63H12.979C10.96899,66.00229,9.349,64.37228,9.349,62.37228z"/><path fill="#ef9d65" d="M12.979,8.08231c-2.01001,0-3.63,1.62-3.63,3.63v12.71997H2.96899V11.71231c0-2.01001,1.63-3.63,3.63-3.63H12.979z"/><path fill="#d3d3d3" d="M9.349,62.37228V24.23563H2.96899v38.13666c0,2,1.63,3.63,3.63,3.63H12.979C10.96899,66.00229,9.349,64.37228,9.349,62.37228z"/><path fill="#ef8759" d="M12.979,8.08231c-2.01001,0-3.63,1.62-3.63,3.63v12.71997H2.96899V11.71231c0-2.01001,1.63-3.63,3.63-3.63H12.979z"/><path fill="#ededed" d="M24.17908,66.00229H20.599c-2,0-3.63-1.63-3.63-3.63V24.23227h3.57996v38.14001C20.54895,64.37228,22.17908,66.00229,24.17908,66.00229z"/><path fill="#ffac88" d="M24.17908,8.08231c-2,0-3.63013,1.62-3.63013,3.63v12.71997h-3.57996V11.71231c0-2.01001,1.63-3.63,3.63-3.63H24.17908z"/><path fill="#ededed" d="M58.65088,24.23563v38.13666c0,2-1.61987,3.63-3.62988,3.63h6.37988c2,0,3.63013-1.63,3.63013-3.63V24.23563H58.65088z"/><path fill="#ffac88" d="M65.03101,11.71231v12.71997h-6.38013V11.71231c0-2.01001-1.61987-3.63-3.62988-3.63h6.37988C63.40088,8.08231,65.03101,9.7023,65.03101,11.71231z"/><path fill="#444" d="M13.15046,1.99772h5.02414c0.65466,0,1.18538,0.53071,1.18538,1.18538v9.79499c0,0.65466-0.53071,1.18538-1.18538,1.18538h-5.02414c-0.65466,0-1.18538-0.53071-1.18538-1.18538V3.18309C11.96509,2.52843,12.4958,1.99772,13.15046,1.99772z"/><path fill="#333" d="M15.70227,1.99771h-2.55176c-0.65479,0-1.18542,0.5307-1.18542,1.18536v9.79498c0,0.65466,0.53064,1.18536,1.18542,1.18536h2.55176V1.99771z"/><path fill="#444" d="M54.85446,1.99772h-5.02414c-0.65466,0-1.18538,0.53071-1.18538,1.18538v9.79499c0,0.65466,0.53071,1.18538,1.18538,1.18538h5.02414c0.65467,0,1.18538-0.53071,1.18538-1.18538V3.18309C56.03983,2.52843,55.50912,1.99772,54.85446,1.99772z"/><path fill="#666" d="M52.30265 1.99771h2.55176c.65479 0 1.18542.5307 1.18542 1.18536v9.79498c0 .65466-.53064 1.18536-1.18542 1.18536h-2.55176V1.99771zM19.60587 40.92081h-7.09245c-.52216 0-.94545-.42329-.94545-.94545v-7.09245c0-.52216.42329-.94545.94545-.94545h7.09245c.52216 0 .94545.42329.94545.94545v7.09245C20.55132 40.49752 20.12803 40.92081 19.60587 40.92081z"/><path fill="#444" d="M15.61902,31.93747h-3.10559c-0.52209,0-0.94543,0.42328-0.94543,0.94543v7.09247c0,0.52216,0.42334,0.94543,0.94543,0.94543h3.10559V31.93747z"/><path fill="#666" d="M37.54868,40.92081h-7.09245c-0.52216,0-0.94545-0.42329-0.94545-0.94545v-7.09245c0-0.52216,0.42329-0.94545,0.94545-0.94545h7.09245c0.52216,0,0.94545,0.42329,0.94545,0.94545v7.09245C38.49413,40.49752,38.07084,40.92081,37.54868,40.92081z"/><path fill="#444" d="M33.56183,31.93747h-3.10559c-0.52209,0-0.94543,0.42328-0.94543,0.94543v7.09247c0,0.52216,0.42334,0.94543,0.94543,0.94543h3.10559V31.93747z"/><path fill="#666" d="M55.4915,40.92081h-7.09245c-0.52216,0-0.94545-0.42329-0.94545-0.94545v-7.09245c0-0.52216,0.42329-0.94545,0.94545-0.94545h7.09245c0.52216,0,0.94545,0.42329,0.94545,0.94545v7.09245C56.43695,40.49752,56.01366,40.92081,55.4915,40.92081z"/><path fill="#444" d="M51.50465,31.93747h-3.10559c-0.52209,0-0.94543,0.42328-0.94543,0.94543v7.09247c0,0.52216,0.42334,0.94543,0.94543,0.94543h3.10559V31.93747z"/><path fill="#666" d="M19.60587,57.7092h-7.09245c-0.52216,0-0.94545-0.42329-0.94545-0.94545V49.6713c0-0.52216,0.42329-0.94545,0.94545-0.94545h7.09245c0.52216,0,0.94545,0.42329,0.94545,0.94545v7.09245C20.55132,57.28591,20.12803,57.7092,19.60587,57.7092z"/><path fill="#444" d="M15.61902,48.72586h-3.10559c-0.52209,0-0.94543,0.42328-0.94543,0.94543v7.09247c0,0.52216,0.42334,0.94543,0.94543,0.94543h3.10559V48.72586z"/><path fill="#666" d="M37.54868,57.7092h-7.09245c-0.52216,0-0.94545-0.42329-0.94545-0.94545V49.6713c0-0.52216,0.42329-0.94545,0.94545-0.94545h7.09245c0.52216,0,0.94545,0.42329,0.94545,0.94545v7.09245C38.49413,57.28591,38.07084,57.7092,37.54868,57.7092z"/><path fill="#444" d="M33.56183,48.72586h-3.10559c-0.52209,0-0.94543,0.42328-0.94543,0.94543v7.09247c0,0.52216,0.42334,0.94543,0.94543,0.94543h3.10559V48.72586z"/><path fill="#666" d="M55.4915,57.7092h-7.09245c-0.52216,0-0.94545-0.42329-0.94545-0.94545V49.6713c0-0.52216,0.42329-0.94545,0.94545-0.94545h7.09245c0.52216,0,0.94545,0.42329,0.94545,0.94545v7.09245C56.43695,57.28591,56.01366,57.7092,55.4915,57.7092z"/><path fill="#444" d="M51.50465,48.72586h-3.10559c-0.52209,0-0.94543,0.42328-0.94543,0.94543v7.09247c0,0.52216,0.42334,0.94543,0.94543,0.94543h3.10559V48.72586z"/><path fill="#fff" d="M38.72839 18.73532h-9.77637c-.55273 0-1 .44727-1 1s.44727 1 1 1h9.77637c.55273 0 1-.44727 1-1S39.28113 18.73532 38.72839 18.73532zM42.57507 18.73532h-.36328c-.55273 0-1 .44727-1 1s.44727 1 1 1h.36328c.55273 0 1-.44727 1-1S43.12781 18.73532 42.57507 18.73532z"/></svg>