<svg xmlns="http://www.w3.org/2000/svg" enable-background="new 0 0 68 68" viewBox="0 0 68 68"><path fill="#444" d="M16.86691 44.66443h4.64001v20.29992c0 .56006-.44995 1-1 1h-2.64001c-.54993 0-1-.43994-1-1V44.66443zM51.1069 44.66443v20.29992c0 .56006-.44006 1-1 1h-2.64001c-.55005 0-1-.43994-1-1V44.66443H51.1069z"/><rect width="4.645" height="18.375" x="17.805" y="20.322" fill="#e2e2e2"/><rect width="4.645" height="18.375" x="31.678" y="20.322" fill="#e2e2e2"/><rect width="4.645" height="18.375" x="45.55" y="20.322" fill="#e2e2e2"/><path fill="#fe9967" d="M49.6558 22.18312c-10.4371-1.40472-20.87435-1.40472-31.31161.00001-1.29828.17473-2.45792-.81672-2.45792-2.12671V6.08329c0-.98448.66623-1.85649 1.62282-2.08913 10.869-2.64327 21.85834-2.58328 32.96053.01233.96644.22595 1.6441 1.10165 1.6441 2.09415v13.95579C52.11372 21.3664 50.95408 22.35785 49.6558 22.18312zM48.71783 38.24926H19.2575c-2.64212 0-4.78399 2.14186-4.78399 4.78399v1.88733c0 .99622.80759 1.80381 1.8038 1.80381h35.4207c.99622 0 1.8038-.80759 1.8038-1.80381v-1.88733C53.50181 40.39112 51.35995 38.24926 48.71783 38.24926z"/><path fill="#ef8759" d="M21.7557,46.72195h-5.50584c-0.98265,0-1.77924-0.81603-1.77924-1.83376v-1.76963c0-2.6865,2.10664-4.86856,4.70029-4.86856h5.5147c-2.59365,0-4.70029,2.18206-4.70029,4.86856v1.76963C19.98533,45.90592,20.78191,46.72195,21.7557,46.72195z"/><path fill="#ffac88" d="M28.53616 46.72195H25.6593c-.99141 0-1.77924-.81603-1.77924-1.83376v-1.76963c0-2.6865 2.098-4.86856 4.7004-4.86856h2.87686c-2.59354 0-4.7004 2.18206-4.7004 4.86856v1.76963C26.75693 45.90592 27.55362 46.72195 28.53616 46.72195zM53.52937 43.11857v1.76963c0 1.01772-.79659 1.83376-1.77924 1.83376H46.2443c.97379 0 1.77037-.81603 1.77037-1.83376v-1.76963c0-2.6865-2.10664-4.86856-4.7004-4.86856h5.51481C51.42273 38.25 53.52937 40.43207 53.52937 43.11857z"/><path fill="#ef8759" d="M21.63423,3.12433c-0.02753,0.22922-0.0366,0.45844-0.0366,0.69684v17.97997c-1.08208,0.11002-2.17311,0.2384-3.25496,0.38513c-1.29283,0.17415-2.45728-0.81604-2.45728-2.12722V6.08583c0-0.99019,0.66942-1.86129,1.62289-2.09051C18.88359,3.66537,20.25891,3.37191,21.63423,3.12433z"/><path fill="#ffac88" d="M28.76746 2.22581c-.10073.50433-.1558 1.03608-.1558 1.59536v17.43905c-.99937.04589-1.98956.10084-2.98903.17415V3.82117c0-.44926.03671-.88935.11002-1.31107C26.74119 2.39078 27.75903 2.29005 28.76746 2.22581zM52.11126 6.10419v13.95486c0 1.31119-1.15528 2.30137-2.45729 2.12722-1.08185-.14673-2.17289-.27511-3.25485-.38513V3.82117c0-.22004-.00918-.44008-.02753-.66013 1.36614.24758 2.73239.52257 4.09853.84346C51.43278 4.23372 52.11126 5.10482 52.11126 6.10419z"/><path fill="#fff" d="M47.61755 18.00186c.01074 0 .02051 0 .03125 0 .53809 0 .98242-.42773.99902-.96973l.00977-.3252c.0166-.55273-.41797-1.01367-.96973-1.03027-.55078-.00586-1.0127.41699-1.03027.96973l-.00977.3252C46.63123 17.52432 47.0658 17.98526 47.61755 18.00186zM47.65759 14.78604c.55273 0 1-.44727 1-1V6.62003c0-.55273-.44727-1-1-1s-1 .44727-1 1v7.16602C46.65759 14.33878 47.10486 14.78604 47.65759 14.78604z"/></svg>