<svg xmlns="http://www.w3.org/2000/svg" enable-background="new 0 0 68 68" viewBox="0 0 68 68"><path fill="#a7d08c" d="M21.22987,1.99998V27.58H4.71486c-1.40559,0-2.54504-1.13946-2.54504-2.54504V4.54503c0-1.40559,1.13946-2.54504,2.54504-2.54504H21.22987z"/><path fill="#e2e2e2" d="M65.78993,4.54503v20.48993c0,1.40559-1.13946,2.54504-2.54504,2.54504h-8.82507l-6.65403,7.98311c-0.35966,0.43149-1.00407,0.48218-1.42677,0.11222L37.08986,27.58H21.22987V1.99998h42.01501C64.65047,1.99998,65.78993,3.13944,65.78993,4.54503z"/><path fill="#9ac181" d="M10.33986,1.99998V27.58h-5.625c-1.40559,0-2.54504-1.13946-2.54504-2.54504V4.54503c0-1.40559,1.13946-2.54504,2.54504-2.54504H10.33986z"/><path fill="#ededed" d="M65.83018,4.54503v20.48993c0,1.40559-1.13946,2.54504-2.54504,2.54504h-5.62488V1.99998h5.62488C64.69073,1.99998,65.83018,3.13944,65.83018,4.54503z"/><path fill="#e2e2e2" d="M65.78993,42.96507v20.48987c0,1.40559-1.13946,2.54504-2.54504,2.54504H21.22987V40.42003h42.01501C64.65047,40.42003,65.78993,41.55948,65.78993,42.96507z"/><path fill="#fe9967" d="M21.22987,40.42003v25.57996H4.71486c-1.40559,0-2.54504-1.13946-2.54504-2.54504V42.96507c0-1.40559,1.13946-2.54504,2.54504-2.54504H21.22987z"/><path fill="#ef8759" d="M10.33986,40.42v25.58002h-5.625c-1.40559,0-2.54504-1.13946-2.54504-2.54504V42.96504c0-1.40559,1.13946-2.54504,2.54504-2.54504H10.33986z"/><path fill="#ededed" d="M65.83018,42.96504v20.48993c0,1.40559-1.13946,2.54504-2.54504,2.54504h-5.62488V40.42h5.62488C64.69073,40.42,65.83018,41.55945,65.83018,42.96504z"/><path fill="#666" d="M57.66054 9.78587h-28.25c-.55273 0-1 .44727-1 1s.44727 1 1 1h28.25c.55273 0 1-.44727 1-1S58.21327 9.78587 57.66054 9.78587zM57.66054 56.20775h-28.25c-.55273 0-1 .44727-1 1s.44727 1 1 1h28.25c.55273 0 1-.44727 1-1S58.21327 56.20775 57.66054 56.20775zM57.66054 48.20775h-28.25c-.55273 0-1 .44727-1 1s.44727 1 1 1h28.25c.55273 0 1-.44727 1-1S58.21327 48.20775 57.66054 48.20775z"/><path fill="#fff" d="M6.60487 15.40501c-.55273 0-1 .44727-1 1v.52051c0 .55273.44727 1 1 1s1-.44727 1-1v-.52051C7.60487 15.85228 7.15761 15.40501 6.60487 15.40501zM11.20741 5.44701H8.18788c-1.42383 0-2.58301 1.15918-2.58301 2.58301v4.82227c0 .55273.44727 1 1 1s1-.44727 1-1V8.03001c0-.32129.26172-.58301.58301-.58301h3.01953c.55273 0 1-.44727 1-1S11.76015 5.44701 11.20741 5.44701z"/><path fill="#666" d="M57.66054,17.78587h-28.25c-0.55273,0-1,0.44727-1,1s0.44727,1,1,1h28.25c0.55273,0,1-0.44727,1-1S58.21327,17.78587,57.66054,17.78587z"/></svg>