<svg xmlns="http://www.w3.org/2000/svg" enable-background="new 0 0 68 68" viewBox="0 0 68 68"><path fill="#fe9967" d="M60.29085,40.75081H7.70915c-1.92885,0-3.49249-1.56364-3.49249-3.49249V5.49168c0-1.92885,1.56364-3.49249,3.49249-3.49249h52.5817c1.92885,0,3.49249,1.56364,3.49249,3.49249v31.76664C63.78334,39.18717,62.2197,40.75081,60.29085,40.75081z"/><path fill="#ef8759" d="M14.96002,40.75081h-7.25c-1.92999,0-3.48999-1.56-3.48999-3.48999V5.4908c0-1.92999,1.56-3.48999,3.48999-3.48999h7.25c-1.92999,0-3.48999,1.56-3.48999,3.48999v31.77002C11.47003,39.19081,13.03003,40.75081,14.96002,40.75081z"/><path fill="#ffac88" d="M21.72003 40.75081h-2.80005c-1.92999 0-3.48999-1.56-3.48999-3.48999V5.4908c0-1.92999 1.56-3.48999 3.48999-3.48999h2.80005c-1.92999 0-3.48999 1.56-3.48999 3.48999v31.77002C18.23004 39.19081 19.79004 40.75081 21.72003 40.75081zM63.78334 5.4908v31.77002c0 1.92999-1.56 3.48999-3.48999 3.48999h-7.25c1.92999 0 3.48999-1.56 3.48999-3.48999V5.4908c0-1.92999-1.56-3.48999-3.48999-3.48999h7.25C62.22335 2.00081 63.78334 3.56081 63.78334 5.4908z"/><circle cx="49.568" cy="50.749" r="5.167" fill="#444"/><path fill="#444" d="M59.16656,65.99918H39.97016c-0.60936,0-1.10335-0.49399-1.10335-1.10335v-1.36821c0-4.20387,3.40791-7.61177,7.61177-7.61177h6.17956c4.20387,0,7.61177,3.40791,7.61177,7.61177v1.36821C60.26992,65.5052,59.77593,65.99918,59.16656,65.99918z"/><path fill="#333" d="M42.86664,63.53078v1.37c0,0.60004,0.48999,1.10004,1.09998,1.10004h-4c-0.60999,0-1.09998-0.5-1.09998-1.10004v-1.37c0-4.20996,3.40997-7.60999,7.60999-7.60999h4C46.27661,55.9208,42.86664,59.32082,42.86664,63.53078z"/><path fill="#666" d="M54.73503,50.75081c0,2.84998-2.31,5.16998-5.15997,5.16998c-0.38,0-0.76001-0.03998-1.12-0.12c2.32996-0.5,4.07001-2.57001,4.07001-5.04999c0-2.48004-1.74005-4.54999-4.07001-5.04999c0.35999-0.08002,0.73999-0.12006,1.12-0.12006C52.42503,45.58077,54.73503,47.89083,54.73503,50.75081z"/><path fill="#333" d="M44.4017,50.75081c0,2.84998,2.31,5.16998,5.15997,5.16998c0.38,0,0.76001-0.03998,1.12-0.12c-2.32996-0.5-4.07001-2.57001-4.07001-5.04999c0-2.48004,1.74005-4.54999,4.07001-5.04999c-0.35999-0.08002-0.73999-0.12006-1.12-0.12006C46.71169,45.58077,44.4017,47.89083,44.4017,50.75081z"/><path fill="#666" d="M56.26654,63.53078v1.37c0,0.60004-0.48999,1.10004-1.09998,1.10004h4c0.60999,0,1.09998-0.5,1.09998-1.10004v-1.37c0-4.20996-3.40997-7.60999-7.60999-7.60999h-4C52.85657,55.9208,56.26654,59.32082,56.26654,63.53078z"/><circle cx="18.432" cy="50.749" r="5.167" fill="#444"/><path fill="#444" d="M28.03009,65.99918H8.83369c-0.60936,0-1.10335-0.49399-1.10335-1.10335v-1.36821c0-4.20387,3.40791-7.61177,7.61177-7.61177h6.17956c4.20387,0,7.61177,3.40791,7.61177,7.61177v1.36821C29.13345,65.5052,28.63946,65.99918,28.03009,65.99918z"/><path fill="#333" d="M11.73017,63.53078v1.37c0,0.60004,0.48999,1.10004,1.09998,1.10004h-4c-0.60999,0-1.09998-0.5-1.09998-1.10004v-1.37c0-4.20996,3.40997-7.60999,7.60999-7.60999h4C15.14014,55.9208,11.73017,59.32082,11.73017,63.53078z"/><path fill="#666" d="M23.59856,50.75081c0,2.84998-2.31,5.16998-5.15997,5.16998c-0.38,0-0.76001-0.03998-1.12-0.12c2.32996-0.5,4.07001-2.57001,4.07001-5.04999c0-2.48004-1.74005-4.54999-4.07001-5.04999c0.35999-0.08002,0.73999-0.12006,1.12-0.12006C21.28856,45.58077,23.59856,47.89083,23.59856,50.75081z"/><path fill="#333" d="M13.26523,50.75081c0,2.84998,2.31,5.16998,5.15997,5.16998c0.38,0,0.76001-0.03998,1.12-0.12c-2.32996-0.5-4.07001-2.57001-4.07001-5.04999c0-2.48004,1.74005-4.54999,4.07001-5.04999c-0.35999-0.08002-0.73999-0.12006-1.12-0.12006C15.57522,45.58077,13.26523,47.89083,13.26523,50.75081z"/><path fill="#666" d="M25.13007,63.53078v1.37c0,0.60004-0.48999,1.10004-1.09998,1.10004h4c0.60999,0,1.09998-0.5,1.09998-1.10004v-1.37c0-4.20996-3.40997-7.60999-7.60999-7.60999h-4C21.7201,55.9208,25.13007,59.32082,25.13007,63.53078z"/><path fill="#fff" d="M43.77521 7.33773c.00391 0 .00684 0 .01074 0 .54785 0 .99414-.44043 1-.98926.00586-.55273-.4375-1.00488-.98926-1.01074l-1.00293-.01074c-.00391 0-.00684 0-.01074 0-.54785 0-.99414.44043-1 .98926-.00586.55273.4375 1.00488.98926 1.01074L43.77521 7.33773zM38.867 7.33382c.55176 0 1-.44727 1-.99902 0-.55273-.44727-1.00098-.99902-1.00098L28.48615 5.32699c-.00098 0-.00098 0-.00098 0-.55176 0-1 .44727-1 .99902 0 .55273.44727 1.00098.99902 1.00098l10.38184.00684C38.867 7.33382 38.867 7.33382 38.867 7.33382zM21.77612 15.35805c-.10327-.22992-.24719-.41919-.43335-.56622-.1861-.14709-.41296-.22058-.68201-.22058h-.19238c-.26904 0-.49744.07349-.68201.22058-.18616.14703-.33008.3363-.43329.56622l-4.90088 11.57239c-.06409.15332-.09698.28156-.09698.38324 0 .24402.07983.44897.24091.61633.15955.16583.36761.24872.62415.24872.17987 0 .34259-.04694.49121-.14392.14703-.0954.25964-.22681.3363-.39417l1.24829-2.99872h6.53546l1.24982 2.99872c.07666.16736.18927.29877.3363.39417.14709.09698.31134.14392.48962.14392.25653 0 .4646-.08289.62573-.24872.15955-.16736.23932-.37231.23932-.61633 0-.10168-.03131-.22992-.0954-.38324L21.77612 15.35805zM17.97028 23.04793l2.59351-6.24762 2.59509 6.24762H17.97028zM37.42181 21.10512c.5506-.24243 1.00269-.61157 1.35468-1.10437.35352-.49274.52869-1.11218.52869-1.85516 0-1.06372-.37384-1.90839-1.12311-2.53723-.75085-.62726-1.81146-.94171-3.1817-.94171h-4.53638c-.24402 0-.44891.08606-.61475.2597-.16736.17206-.25031.38165-.25031.62408v11.66785c0 .24402.08295.44891.25031.61475.16583.16736.37073.25031.61475.25031h4.6521c1.70349 0 2.95331-.33319 3.74799-.99957.79462-.66638 1.19196-1.58929 1.19196-2.76721 0-.82123-.24713-1.50012-.73987-2.03821C38.82184 21.74026 38.19141 21.3492 37.42181 21.10512zM31.34778 16.29976h3.51807c.85876 0 1.53448.17987 2.02728.53967.49274.35822.73987.83844.73987 1.44067 0 .69141-.22992 1.23108-.69141 1.61432-.46149.38477-1.26233.57721-2.40271.57721h-3.1911V16.29976zM37.58606 25.87301c-.51935.38483-1.40155.57721-2.64362.57721h-3.59467v-4.40179h3.61346c2.26819 0 3.40228.73047 3.40228 2.18994C38.36353 24.94387 38.10382 25.48818 37.58606 25.87301zM46.19574 16.82845c.77588-.45361 1.71442-.68201 2.81567-.68201.70551 0 1.32648.07666 1.86462.23151.53809.15332 1.08868.37701 1.65338.67267.10168.05157.21747.0766.3457.0766.23151 0 .41608-.07349.55688-.22052.14233-.14862.21277-.31757.21277-.50995 0-.33319-.1424-.57721-.42395-.73053-.67889-.38483-1.3609-.67889-2.04602-.88379-.68671-.20496-1.46417-.30817-2.33545-.30817-1.28271 0-2.43243.27844-3.45074.83685-1.01837.55688-1.81927 1.35779-2.40271 2.40271-.5835 1.0434-.87445 2.26508-.87445 3.6604 0 1.39685.29095 2.61853.87445 3.66193.58344 1.04492 1.38434 1.84583 2.40271 2.40271 1.01831.55841 2.16803.83685 3.45074.83685.87128 0 1.64874-.10327 2.33545-.30817.68512-.2049 1.36713-.49902 2.04602-.88379.28156-.15332.42395-.39734.42395-.73053 0-.2049-.07043-.37695-.21277-.51935-.14081-.14075-.32538-.21118-.55688-.21118-.12823 0-.24402.02661-.3457.07666-.5647.29565-1.1153.51935-1.65338.67267-.53815.15485-1.15912.23151-1.86462.23151-1.10126 0-2.03979-.22839-2.81567-.68201-.77588-.4552-1.35779-1.07782-1.74884-1.86462-.39105-.78839-.58661-1.68317-.58661-2.68268 0-.99805.19556-1.89276.58661-2.68115C44.83795 17.90627 45.41986 17.28365 46.19574 16.82845z"/></svg>