<svg xmlns="http://www.w3.org/2000/svg" enable-background="new 0 0 68 68" viewBox="0 0 68 68"><path fill="#a7d08c" d="M59.43112,12.51836V62.6479c0,1.84792-1.50411,3.3521-3.36286,3.3521H11.93222c-1.85875,0-3.36286-1.50418-3.36286-3.3521V12.51836c0-1.84799,1.50411-3.3521,3.36286-3.3521h44.13604C57.92701,9.16625,59.43112,10.67036,59.43112,12.51836z"/><path fill="#9ac181" d="M17.30174,65.99879h-5.36775c-1.85805,0-3.36511-1.50712-3.36511-3.35484V12.51751c0-1.84778,1.50706-3.35484,3.36511-3.35484h5.36775c-1.85805,0-3.36517,1.50706-3.36517,3.35484v50.12645C13.93657,64.49168,15.44369,65.99879,17.30174,65.99879z"/><path fill="#badda4" d="M59.43112,12.51751v50.12645c0,1.84772-1.50712,3.35484-3.36517,3.35484H50.6982c1.85805,0,3.35484-1.50712,3.35484-3.35484V12.51751c0-1.84778-1.49679-3.35484-3.35484-3.35484h5.36776C57.924,9.16267,59.43112,10.66973,59.43112,12.51751z"/><polygon fill="#e2e2e2" points="54.059 14.538 54.059 60.628 13.941 60.628 13.941 14.538 20.033 14.538 20.033 17.045 47.967 17.045 47.967 14.538"/><rect width="2.67" height="46.09" x="26.513" y="14.539" fill="#ededed"/><polygon fill="#ededed" points="54.059 14.541 54.059 60.631 46.575 60.631 46.575 17.049 47.969 17.049 47.969 14.541"/><path fill="#444" d="M47.96736,11.48691v5.55823H20.03313v-5.55823l2.30997-2.32066l1.14954-1.14961h5.50095V7.01747C28.9936,4.24551,31.22829,2,34.00024,2c1.38594,0,2.63228,0.55871,3.54549,1.47198c0.90252,0.91321,1.46116,2.15948,1.46116,3.54549v0.99918h5.50096l1.14954,1.14961L47.96736,11.48691z"/><rect width="27.933" height="4.521" x="20.037" y="12.528" fill="#666"/><circle cx="34" cy="6.696" r="1.261" fill="#333"/><path fill="#666" d="M19.69535 25.07897H48.3053c.59882 0 1.08337-.48456 1.08337-1.08337s-.48456-1.08337-1.08337-1.08337H19.69535c-.59882 0-1.08337.48455-1.08337 1.08337S19.09654 25.07897 19.69535 25.07897zM19.69535 34.95417H48.3053c.59882 0 1.08337-.48456 1.08337-1.08337s-.48456-1.08337-1.08337-1.08337H19.69535c-.59882 0-1.08337.48456-1.08337 1.08337S19.09654 34.95417 19.69535 34.95417zM19.69535 44.83043H48.3053c.59882 0 1.08337-.48455 1.08337-1.08337 0-.59882-.48456-1.08337-1.08337-1.08337H19.69535c-.59882 0-1.08337.48456-1.08337 1.08337C18.61198 44.34588 19.09654 44.83043 19.69535 44.83043zM19.69535 54.70669H48.3053c.59882 0 1.08337-.48455 1.08337-1.08337 0-.59882-.48456-1.08337-1.08337-1.08337H19.69535c-.59882 0-1.08337.48455-1.08337 1.08337C18.61198 54.22214 19.09654 54.70669 19.69535 54.70669z"/></svg>