<svg xmlns="http://www.w3.org/2000/svg" enable-background="new 0 0 68 68" viewBox="0 0 68 68"><circle cx="34" cy="34" r="32" fill="#fe9967"/><path fill="#ef8759" d="M36.69,65.89021c-0.89001,0.07001-1.77997,0.10999-2.69,0.10999c-17.66998,0-32-14.33002-32-32s14.33002-32,32-32c0.91003,0,1.79999,0.03998,2.69,0.10999C20.27002,3.47023,7.37,17.23018,7.37,34.0002S20.27002,64.53023,36.69,65.89021z"/><path fill="#ffac88" d="M66,34.0002c0,17.66998-14.32001,32-32,32c-0.89996,0-1.79999-0.03998-2.67999-0.10999c16.41003-1.37,29.31-15.13,29.31-31.89001s-12.89996-30.52002-29.31-31.89001C32.20001,2.04018,33.10004,2.0002,34,2.0002C51.67999,2.0002,66,16.33022,66,34.0002z"/><circle cx="34" cy="34" r="25.438" fill="#e2e2e2"/><path fill="#d3d3d3" d="M36.66003,59.30019c-0.87,0.09003-1.76001,0.14001-2.66003,0.14001c-14.04999,0-25.44-11.39001-25.44-25.44S19.95001,8.5602,34,8.5602c0.90002,0,1.79004,0.04999,2.66003,0.14001C23.85999,10.03023,13.89001,20.85024,13.89001,34.0002C13.89001,47.15022,23.85999,57.97023,36.66003,59.30019z"/><path fill="#ededed" d="M36.33075,59.06148c-7.83459-4.68866-13.15076-13.69714-13.15076-24.06128c0-11.61358,6.67218-21.52551,16.08936-25.55835c-0.46039-0.1701-0.88306-0.38513-1.26849-0.63947C27.71967,12.33217,20.25,22.71364,20.25,35.0002c0,10.70648,5.67377,19.96759,13.93365,24.51288C34.82532,59.26491,35.54083,59.10841,36.33075,59.06148z"/><path fill="#ededed" d="M59.43781,34.0002c0,14.04999-11.39001,25.44-25.44,25.44c-0.90002,0-1.78998-0.04999-2.65998-0.14001C44.13782,57.97023,54.1178,47.15022,54.1178,34.0002c0-13.14996-9.97998-23.96997-22.77997-25.29999c0.87-0.09003,1.75995-0.14001,2.65998-0.14001C48.04779,8.5602,59.43781,19.95021,59.43781,34.0002z"/><path fill="#333" d="M24.30862 45.01073c-.25488 0-.51074-.09668-.70605-.29102-.39063-.39063-.39258-1.02344-.00293-1.41504l7.77832-7.81055c.38965-.38867 1.02344-.39258 1.41504-.00293.39063.39063.39258 1.02344.00293 1.41504l-7.77832 7.81055C24.82229 44.91209 24.56546 45.01073 24.30862 45.01073zM34.001 32.08006c-.55273 0-1-.44726-1-1V18.19139c0-.55273.44727-1 1-1s1 .44727 1 1v12.88867C35.001 31.6328 34.55374 32.08006 34.001 32.08006z"/><circle cx="34" cy="34" r="2.92" fill="#666"/><path fill="#666" d="M33.99982 15.63014c.55273 0 1-.44727 1-1v-1.49023c0-.55273-.44727-1-1-1s-1 .44727-1 1v1.49023C32.99982 15.18288 33.44708 15.63014 33.99982 15.63014zM14.63068 33.00026h-1.49023c-.55273 0-1 .44727-1 1s.44727 1 1 1h1.49023c.55273 0 1-.44727 1-1S15.18341 33.00026 14.63068 33.00026zM33.99982 52.3694c-.55273 0-1 .44727-1 1v1.49023c0 .55273.44727 1 1 1s1-.44727 1-1V53.3694C34.99982 52.81667 34.55255 52.3694 33.99982 52.3694zM54.86017 33.00026h-1.49023c-.55273 0-1 .44727-1 1s.44727 1 1 1h1.49023c.55273 0 1-.44727 1-1S55.4129 33.00026 54.86017 33.00026z"/><path fill="#fff" d="M17.492 21.86843c-.46582-.2998-1.08398-.16113-1.38086.30273-.08691.13574-.16992.27441-.25.41406-.27539.47949-.10938 1.09082.36914 1.36523.15723.08984.32813.13281.49707.13281.34668 0 .68359-.18066.86816-.50195.06445-.1123.12988-.22363.19922-.33203C18.09259 22.78444 17.95685 22.1653 17.492 21.86843zM28.77814 14.21803c-.16797-.52637-.72656-.82031-1.25586-.65039-3.30371 1.0498-6.35156 2.93164-8.81445 5.44238-.38672.39453-.38086 1.02734.01367 1.41406.19434.19141.44727.28613.7002.28613.25879 0 .51855-.10059.71387-.2998 2.23535-2.27832 4.99902-3.98535 7.99219-4.93652C28.65411 15.3069 28.94513 14.7444 28.77814 14.21803z"/></svg>