<svg xmlns="http://www.w3.org/2000/svg" enable-background="new 0 0 68 68" viewBox="0 0 68 68"><path fill="#e2e2e2" d="M14.63971,47.88467c-6.97633,0-12.63824-5.66197-12.63824-12.63824c0-6.97633,5.66191-12.63824,12.63824-12.63824c1.13458,0,2.22431,0.14605,3.26906,0.4269c0.01125-9.20064,7.48181-16.64878,16.68244-16.64878c7.47063,0,13.78413,4.898,15.89612,11.66088c0.19096-0.02249,0.38199-0.02249,0.58419-0.02249c8.24571,0,14.92995,6.68424,14.92995,14.92994c0,8.24578-6.68424,14.93002-14.92995,14.93002H14.63971z"/><path fill="#ededed" d="M66.00185,32.958c0,8.24005-6.67999,14.93005-14.92999,14.93005H14.64186c-6.97998,0-12.64001-5.67004-12.64001-12.64001c0-1.04004,0.13-2.06,0.37-3.03003c1.35999,5.51001,6.34003,9.60004,12.27002,9.60004h36.42999c7.21002,0,13.21997-5.10004,14.62-11.90002C65.89186,30.898,66.00185,31.91802,66.00185,32.958z"/><path fill="#d3d3d3" d="M65.99815,32.95589c0,0.79004-0.06006,1.56006-0.18005,2.31006c-1.10999-7.15002-7.28998-12.62006-14.75-12.62006c-0.19995,0-0.38995,0-0.57996,0.03003c-2.11005-6.77002-8.42999-11.65997-15.90002-11.65997c-9.20001,0-16.66998,7.43994-16.67999,16.63995c-1.03998-0.27997-2.13-0.41998-3.27002-0.41998c-6.17999,0-11.33997,4.45001-12.41998,10.33002c-0.15002-0.75-0.21997-1.53003-0.21997-2.32001c0-6.97998,5.66998-12.64001,12.63995-12.64001c1.14001,0,2.23004,0.15002,3.27002,0.42999c0.01001-9.20001,7.47998-16.64996,16.67999-16.64996c7.47003,0,13.78998,4.89996,15.90002,11.65997c0.19-0.02002,0.38-0.02002,0.57996-0.02002C59.3181,18.0259,65.99815,24.70589,65.99815,32.95589z"/><path fill="#fe9967" d="M47.52078,29.66948v23.37271H29.54505V27.92673h16.23298C46.7478,27.92673,47.52078,28.71379,47.52078,29.66948z"/><path fill="#ffac88" d="M45.30071,27.92673h-5.42103v25.11546h7.64216V30.14786C47.52184,28.92117,46.5274,27.92673,45.30071,27.92673z"/><path fill="#444" d="M29.54505,27.92673v25.11546h-3.82279c-2.37522,0-4.2867,1.92546-4.2867,4.28662V32.49714c0-2.51372,2.05668-4.57041,4.5704-4.57041H29.54505z"/><path fill="#feeb75" d="M47.52184,53.0457c-2.0915,2.35765-2.45651,4.7153-1.09505,7.07295c0.38378,0.66459-0.09166,1.49539-0.8591,1.49539H25.71824c-1.18812,0-2.25058-0.47988-3.02744-1.25673c-0.96521-0.96521-1.47197-2.38896-1.16949-3.89867c0.40544-2.02359,2.29328-3.41295,4.35709-3.41294L47.52184,53.0457z"/><path fill="#efd96a" d="M45.62302,57.31705l-24.18764,0.00001c-0.00048,0.00048-0.00076,0.00077-0.00124,0.00125c-0.00317,1.18119,0.47728,2.25957,1.25666,3.03894c0.77684,0.77684,1.83934,1.25679,3.02742,1.25679h19.84988c0.76696,0,1.24301-0.8302,0.85961-1.49446C45.88852,59.18541,45.62056,58.25121,45.62302,57.31705z"/><path fill="#fff" d="M61.73766 30.59554c-.12012-.53906-.6543-.87695-1.19336-.75781-.53906.12012-.87891.6543-.75781 1.19336.14258.63965.21484 1.28613.21484 1.92383 0 2.47754-1.05664 4.87012-2.89746 6.56348-.40625.37402-.43359 1.00684-.05957 1.41309.19727.21484.4668.32324.73633.32324.24219 0 .48535-.08691.67676-.26367 2.25195-2.07227 3.54395-5.00098 3.54395-8.03613C62.00133 32.17073 61.91246 31.37679 61.73766 30.59554zM54.19078 41.47445c-.27441.13281-.55859.24902-.85059.35059-.52148.18164-.79688.75195-.61523 1.27344.14355.41211.53027.6709.94434.6709.10938 0 .21973-.01758.3291-.05566.36426-.12695.7168-.27246 1.05957-.43652.49805-.23926.70703-.83691.46777-1.33496C55.28551 41.44515 54.68883 41.23421 54.19078 41.47445z"/></svg>