<svg xmlns="http://www.w3.org/2000/svg" enable-background="new 0 0 68 68" viewBox="0 0 68 68"><path fill="#e2e2e2" d="M64.72662,36.65971c-1.39265,1.64093-3.66316,1.87068-5.69144,1.87068c-3.48134,0.0655-7.05378-0.16405-10.4444,0.72191c-3.39062,0.91901-6.72063,3.15065-7.99206,6.66225c-0.96878,2.65829-0.66611,5.67754-1.33204,8.43439c-0.22709,0.95993-0.56958,1.87679-1.00714,2.73878c-1.99382,3.92783-6.05141,6.15402-10.18698,6.17059C8.98278,63.33483,2,50.63329,2,38.92419c0-13.98072,15.28808-25.33601,34.17872-25.33601c9.28496,0,17.69081,2.73501,23.83541,7.16784c3.31084,2.3885,5.65794,6.21651,5.94912,10.51621c0.0016,0.02362,0.00316,0.04725,0.00468,0.07088C66.08896,33.2138,65.90733,35.28138,64.72662,36.65971z"/><path fill="#ededed" d="M64.72335,36.65739c-1.39002,1.63995-3.66004,1.87-5.69001,1.87c-3.48004,0.07001-7.04999-0.16003-10.44,0.71997c-3.39001,0.92004-6.72003,3.16003-7.98999,6.67004c-0.97003,2.65997-0.67004,5.66998-1.34003,8.42999c-0.21997,0.95996-0.57001,1.88-1,2.73999c-2,3.92999-6.06,6.14996-10.19,6.16998c-19.08997,0.08002-26.07001-12.62-26.07001-24.33002c0-1.00995,0.08002-2,0.23999-2.97998c1.33002,10.54999,8.71002,20.76001,25.83002,20.70001c4.13-0.02002,8.19-2.25,10.19-6.16998c0.42999-0.87,0.78003-1.78003,1-2.74005c0.66998-2.75995,0.37-5.77997,1.34003-8.44c1.26996-3.50995,4.59998-5.73999,7.98999-6.65997c3.39001-0.88,6.95996-0.65997,10.44-0.71997c2.02997,0,4.29999-0.23004,5.69001-1.87006c0.33997-0.39996,0.59998-0.85999,0.79999-1.35999c0.22998,0.84003,0.38,1.70001,0.44,2.58002v0.08002C66.09335,33.21739,65.90334,35.27739,64.72335,36.65739z"/><path fill="#d3d3d3" d="M65.71084,29.48521c-0.72955-3.55652-2.8545-6.67499-5.69751-8.72784c-6.14001-4.42999-14.54999-7.16998-23.83002-7.16998c-18.89996,0-34.17999,11.35999-34.17999,25.33997c0,1.27002,0.08002,2.56,0.26001,3.84003c2.12-12.47998,16.47998-22.15002,33.91998-22.15002c9.28003,0,17.69,2.73004,23.83002,7.17004c1.40265,1.00818,2.35225,1.89473,3.32447,3.34963C64.02377,30.70775,64.83016,29.99925,65.71084,29.48521z"/><circle cx="21.731" cy="50.645" r="5.193" fill="#fe9967"/><circle cx="13.174" cy="36.81" r="4.596" fill="#feeb75"/><circle cx="21.988" cy="25.673" r="3.695" fill="#a7d08c"/><circle cx="34.358" cy="21.042" r="2.981" fill="#666"/><path fill="#ef8759" d="M26.41335,52.86735c-0.82001,1.76001-2.61005,2.97003-4.67999,2.97003c-2.87,0-5.20001-2.32001-5.20001-5.19c0-2.09003,1.22998-3.89001,3.01001-4.71002c-0.33002,0.67004-0.51001,1.42999-0.51001,2.23004c0,2.87,2.33002,5.19,5.20001,5.19C25.01333,53.3574,25.75332,53.18736,26.41335,52.86735z"/><path fill="#efd96a" d="M17.41335,38.58738c-0.69,1.65997-2.33002,2.82001-4.23999,2.82001c-2.54004,0-4.60004-2.06-4.60004-4.60004c0-1.91998,1.17999-3.57001,2.85999-4.25c-0.22998,0.55005-0.35999,1.15002-0.35999,1.78003c0,2.52997,2.06,4.58997,4.60004,4.58997C16.29336,38.92735,16.87331,38.80735,17.41335,38.58738z"/><path fill="#9ac181" d="M25.52334,26.73735c-0.45001,1.52002-1.85999,2.63-3.53998,2.63c-2.04004,0-3.69-1.64996-3.69-3.69c0-1.69,1.12-3.10999,2.65997-3.54999c-0.10999,0.34003-0.15997,0.70001-0.15997,1.07001c0,2.03998,1.64996,3.69,3.69,3.69C24.84334,26.88737,25.19332,26.83738,25.52334,26.73735z"/><path fill="#444" d="M37.3033,21.50737c-0.21997,1.42999-1.45996,2.52002-2.94995,2.52002c-1.64001,0-2.98004-1.34003-2.98004-2.98999c0-1.49005,1.11004-2.73004,2.54004-2.94c-0.03003,0.14996-0.04004,0.31-0.04004,0.46997c0,1.64001,1.34003,2.97998,2.98004,2.97998C37.00331,21.54734,37.16335,21.5374,37.3033,21.50737z"/><path fill="#ffac88" d="M50.34334,17.44737l-5.96002,1.77002l-0.01001-0.02002c-1.20996-0.38-2.20996-1.29999-2.59998-2.58997c-0.01001-0.02002-0.01001-0.03003-0.01001-0.03003c-0.35999-1.21002-0.08997-4.01001,0.29999-6.66998c0.25801-1.78262,0.57449-3.49644,0.79215-4.60921c0.10683-0.54614,0.77941-0.74602,1.16718-0.34687c0.79058,0.8138,1.99409,2.07691,3.1907,3.42605c1.77002,2.01001,3.53998,4.22003,3.89001,5.41998c0,0,0.01001,0.02002,0.01001,0.03003C51.48336,15.12736,51.14333,16.46739,50.34334,17.44737z"/><path fill="#fe9967" d="M47.21334,8.37736c-1.07001,1.01001-2.51001,1.63-4.09998,1.63c-0.36005,0-0.71002-0.02997-1.05005-0.09998c0.25801-1.78262,0.57449-3.49644,0.79215-4.60921c0.10683-0.54614,0.77941-0.74602,1.16718-0.34687C44.81322,5.76511,46.01672,7.02823,47.21334,8.37736z"/><path fill="#444" d="M54.33485,23.68335l5.48993,24.91945c0.37696,1.7111-0.63202,3.42273-2.31166,3.92148h-0.00001c-1.67965,0.49875-3.45925-0.38484-4.07721-2.02437l-8.99969-23.87727L54.33485,23.68335z"/><path fill="#666" d="M57.51312,52.52428L57.51312,52.52428c-1.67965,0.49875-3.45926-0.38484-4.07722-2.02437l-8.99969-23.87727l5.24997-1.55892L57.51312,52.52428z"/><polygon fill="#333" points="50.335 17.426 54.335 23.683 44.436 26.623 44.373 19.197"/><path fill="#fff" d="M41.01302 37.22227c-2.60059 1.85547-4.49512 4.27246-5.47852 6.98828-.16016.43848-.28125.87695-.39648 1.31445-.14063.53418.17773 1.08105.71191 1.22168.08594.02246.17088.0332.25586.0332.44336 0 .84766-.29688.96582-.74512.09961-.37891.20313-.75879.34277-1.14063.84473-2.33496 2.49121-4.4248 4.76074-6.04297.44922-.32129.55371-.94531.2334-1.39551C42.08724 37.00645 41.46419 36.90294 41.01302 37.22227zM35.68782 47.72325c-.56152-.05371-1.04395.33691-1.10449.88379-.02637.23828-.04688.4668-.06836.69629l-.01855.19629c-.05078.5498.35254 1.03711.90332 1.08887.03125.00293.0625.00391.09375.00391.51074 0 .94629-.38867.99512-.90723l.01758-.19824c.02051-.21777.04004-.43359.06543-.65918C36.63216 48.27891 36.23665 47.78379 35.68782 47.72325z"/></svg>