<svg xmlns="http://www.w3.org/2000/svg" enable-background="new 0 0 68 68" viewBox="0 0 68 68"><path fill="#666" d="M61.96503,14.57576v9.42999c0,0.21002-0.02002,0.41003-0.05005,0.60999c-0.29004,1.91003-1.94995,3.37-3.92993,3.37H10.01501c-1.98004,0-3.64001-1.45996-3.92999-3.37c-0.03003-0.19995-0.05005-0.39996-0.05005-0.60999v-9.42999c0-2.19,1.79004-3.97998,3.98004-3.97998h47.97003C60.17499,10.59578,61.96503,12.38576,61.96503,14.57576z"/><path fill="#fe9967" d="M12.50467,56.25693c-0.06284,0-0.11935,0-0.1759,0.00686V12.97857c4.81581,1.82575,9.63164,1.82575,14.44745,0v43.28522c-0.05655-0.00686-0.11306-0.00686-0.1759-0.00686H12.50467z"/><path fill="#ef8759" d="M12.32979,56.26078V12.97542c1.52188,0.57802,3.05001,0.97585,4.57189,1.18606v42.09179h-4.39723C12.44205,56.25327,12.38594,56.25327,12.32979,56.26078z"/><path fill="#ffac88" d="M26.77622,56.26078V12.97542c-1.52188,0.57802-3.05001,0.97585-4.57189,1.18606v42.09179h4.39723C26.66395,56.25327,26.72006,56.25327,26.77622,56.26078z"/><path fill="#e2e2e2" d="M12.32877,12.97857l6.37875-10.07819c0.39258-0.62026,1.29737-0.62026,1.68995,0l6.37875,10.07819C21.9604,14.80432,17.14458,14.80432,12.32877,12.97857z"/><path fill="#d3d3d3" d="M12.32979,12.97542l6.37824-10.07603c0.39247-0.62,1.29683-0.62023,1.68961-0.00043l0.83891,1.32376l-6.08753,9.61598C14.2072,13.62098,13.27161,13.33572,12.32979,12.97542z"/><path fill="#feeb75" d="M26.95212,56.25693c-0.06284,0-0.11935,0-0.1759,0.00686V12.97857c4.81581,1.82575,9.63164,1.82575,14.44745,0v43.28522c-0.05655-0.00686-0.11306-0.00686-0.1759-0.00686H26.95212z"/><path fill="#efd96a" d="M26.77724,56.26078V12.97542c1.52188,0.57802,3.05,0.97585,4.57189,1.18606v42.09179H26.9519C26.8895,56.25327,26.83339,56.25327,26.77724,56.26078z"/><path fill="#fff3ab" d="M41.22367,56.26078V12.97542c-1.52188,0.57802-3.05001,0.97585-4.57189,1.18606v42.09179h4.39723C41.1114,56.25327,41.16751,56.25327,41.22367,56.26078z"/><path fill="#e2e2e2" d="M26.77622,12.97857l6.37875-10.07819c0.39257-0.62026,1.29737-0.62026,1.68995,0l6.37875,10.07819C36.40785,14.80432,31.59203,14.80432,26.77622,12.97857z"/><path fill="#d3d3d3" d="M26.77724,12.97542l6.37824-10.07603c0.39247-0.62,1.29682-0.62023,1.68961-0.00043L35.684,4.22272l-6.08753,9.61598C28.65465,13.62098,27.71906,13.33572,26.77724,12.97542z"/><path fill="#a7d08c" d="M41.39957,56.25693c-0.06284,0-0.11935,0-0.1759,0.00686V12.97857c4.81581,1.82575,9.63163,1.82575,14.44745,0v43.28522c-0.05655-0.00686-0.11306-0.00686-0.1759-0.00686H41.39957z"/><path fill="#9ac181" d="M41.22469,56.26078V12.97542c1.52188,0.57802,3.05001,0.97585,4.57189,1.18606v42.09179h-4.39723C41.33695,56.25327,41.28084,56.25327,41.22469,56.26078z"/><path fill="#badda4" d="M55.67112,56.26078V12.97542c-1.52188,0.57802-3.05001,0.97585-4.57189,1.18606v42.09179h4.39723C55.55885,56.25327,55.61496,56.25327,55.67112,56.26078z"/><path fill="#e2e2e2" d="M41.22367,12.97857l6.37875-10.07819c0.39258-0.62026,1.29737-0.62026,1.68995,0l6.37875,10.07819C50.8553,14.80432,46.03948,14.80432,41.22367,12.97857z"/><path fill="#d3d3d3" d="M41.22469,12.97542l6.37824-10.07603c0.39247-0.62,1.29683-0.62023,1.68961-0.00043l0.83891,1.32376l-6.08752,9.61598C43.1021,13.62098,42.16652,13.33572,41.22469,12.97542z"/><path fill="#444" d="M45.61387 6.05212l1.98801-3.14794c.39242-.62138 1.2986-.62138 1.69102 0l1.98801 3.14794c-.80298.61364-1.78132.96572-2.83352.96572C47.3952 7.01784 46.41685 6.66576 45.61387 6.05212zM31.16642 6.05212l1.98801-3.14794c.39242-.62138 1.2986-.62138 1.69102 0l1.98801 3.14794c-.80298.61364-1.78132.96572-2.83352.96572C32.94774 7.01784 31.9694 6.66576 31.16642 6.05212zM16.71897 6.05212l1.98801-3.14794c.39242-.62138 1.29859-.62138 1.69102 0l1.98801 3.14794c-.80298.61364-1.78132.96572-2.83352.96572C18.50029 7.01784 17.52195 6.66576 16.71897 6.05212z"/><path fill="#e2e2e2" d="M61.91498,24.61574c-0.29004,1.91003-1.94995,3.37-3.92993,3.37H10.01501c-1.98004,0-3.64001-1.45996-3.92999-3.37H6.03497v36.97003c0,2.20001,1.79004,3.97998,3.98004,3.97998h47.97003c2.18994,0,3.97998-1.77997,3.97998-3.97998V24.61574H61.91498z M47.86555,47.99121c-0.97682,0.97689-2.32148,1.57445-3.81541,1.57445H23.95c-2.98813,0-5.39-2.41337-5.39-5.38993c0-1.48249,0.59763-2.83858,1.57445-3.81548c0.97682-0.97683,2.32148-1.57445,3.81555-1.57445h20.10015c2.98785,0,5.38986,2.41344,5.38986,5.38993C49.44,45.6583,48.84238,47.01439,47.86555,47.99121z"/><path fill="#d3d3d3" d="M12.32501,61.58577V27.98573h-2.31c-1.98004,0-3.64001-1.45996-3.92999-3.37H6.03497v36.97003c0,2.20001,1.79004,3.97998,3.98004,3.97998h6.28998C14.11493,65.56575,12.32501,63.78578,12.32501,61.58577z"/><path fill="#ededed" d="M18.565 61.58577V27.9424h-2.46008v33.64337c0 2.20001 1.79004 3.97998 3.9801 3.97998h2.45996C20.35492 65.56575 18.565 63.78578 18.565 61.58577zM61.91498 24.61574c-.29004 1.91003-1.94995 3.37-3.92993 3.37h-2.31006v33.60004c0 2.20001-1.79004 3.97998-3.97998 3.97998h6.29004c2.18994 0 3.97998-1.77997 3.97998-3.97998V24.61574H61.91498z"/><path fill="#fff" d="M56.3139 56.94276v1.60156c0 .77148-.62695 1.39844-1.39746 1.39844h-5.06445c-.55273 0-1 .44727-1 1s.44727 1 1 1h5.06445c1.87305 0 3.39746-1.52441 3.39746-3.39844v-1.60156c0-.55273-.44727-1-1-1S56.3139 56.39003 56.3139 56.94276zM45.79633 59.94276h-1.03613c-.55273 0-1 .44727-1 1s.44727 1 1 1h1.03613c.55273 0 1-.44727 1-1S46.34906 59.94276 45.79633 59.94276z"/></svg>