<svg xmlns="http://www.w3.org/2000/svg" enable-background="new 0 0 68 68" viewBox="0 0 68 68"><path fill="#444" d="M15.42042 66.50009c-.125 0-.25293-.02344-.37598-.07324-.51172-.20703-.75781-.79004-.55078-1.30176l1.89551-4.67871c.20703-.5127.79395-.76074 1.30176-.55176.5127.20703.75879.79004.55176 1.30273l-1.89551 4.67871C16.18995 66.26474 15.81495 66.50009 15.42042 66.50009zM52.5796 66.50009c-.39453 0-.76953-.23535-.92676-.62402l-1.89551-4.67871c-.20703-.5127.03906-1.0957.55078-1.30273.50977-.20898 1.0957.03809 1.30273.55176l1.89551 4.67871c.20703.51172-.03906 1.09473-.55176 1.30176C52.83253 66.47665 52.7046 66.50009 52.5796 66.50009zM42.53077 49.56064H25.46922c-.55271 0-1-.44727-1-1s.44729-1 1-1h17.06155c.55273 0 1 .44727 1 1S43.0835 49.56064 42.53077 49.56064z"/><path fill="#a7d08c" d="M30.44539,34.16104l-8.53624,24.696c-0.52404,1.30681-1.74981,2.13602-3.07952,2.21564c-0.50599,0.0303-1.01833-0.04531-1.51488-0.25177c-1.81442-0.71802-2.70542-2.77858-1.97563-4.5937l9.68461-27.52787"/><path fill="#9ac181" d="M19.23135,61.01509c-0.12884,0.03223-0.26828,0.0429-0.39712,0.05364c-0.51508,0.03223-1.01941-0.0429-1.52382-0.2468c-1.81358-0.71897-2.70422-2.77942-1.97451-4.59299l9.6854-27.52494l3.01547,3.03689l-9.14884,26.01193C18.43719,58.86885,18.60892,60.08149,19.23135,61.01509z"/><path fill="#d3d3d3" d="M37.12278,14.22157h-6.24792V4.62386c0-1.72531,1.39864-3.12396,3.12395-3.12396h0.00001c1.72531,0,3.12395,1.39864,3.12395,3.12396V14.22157z"/><path fill="#a7d08c" d="M42.97394,28.69934l9.68461,27.52787c0.72979,1.81513-0.16121,3.87568-1.97564,4.5937c-0.49655,0.20646-1.00889,0.28207-1.51488,0.25177c-1.32971-0.07962-2.55549-0.90883-3.07952-2.21564l-8.53624-24.696"/><path fill="#badda4" d="M48.7663,61.01509c0.12883,0.03223,0.26828,0.0429,0.39711,0.05364c0.51508,0.03223,1.01941-0.0429,1.52382-0.2468c1.81358-0.71897,2.70422-2.77942,1.97451-4.59299l-9.6854-27.52494l-3.01547,3.03689l9.14884,26.01193C49.56046,58.86885,49.38873,60.08149,48.7663,61.01509z"/><path fill="#e2e2e2" d="M33.99884,34.8513h-0.00002c-5.23256,0-9.47438-4.24183-9.47438-9.47438v-8.6874c0-1.36301,1.10493-2.46794,2.46794-2.46794h14.0129c1.36301,0,2.46794,1.10493,2.46794,2.46794v8.6874C43.47322,30.60947,39.23139,34.8513,33.99884,34.8513z"/><path fill="#d3d3d3" d="M36.27835,34.57396c-0.72971,0.18241-1.49165,0.27902-2.27501,0.27902c-5.23684,0-9.47568-4.23885-9.47568-9.47569v-8.69226c0-1.36289,1.10535-2.46817,2.46817-2.46817h4.56077c-1.36282,0-2.46817,1.10528-2.46817,2.46817v8.69226C29.08842,29.83078,32.14679,33.55448,36.27835,34.57396z"/><path fill="#ededed" d="M43.47322,16.68504v8.69226c0,5.23684-4.23884,9.47569-9.47568,9.47569c-0.78336,0-1.5453-0.09661-2.27501-0.27902c4.13149-1.01948,7.18993-4.74318,7.18993-9.19666v-8.69226c0-1.36289-1.10535-2.46817-2.46823-2.46817h4.56077C42.36787,14.21687,43.47322,15.32215,43.47322,16.68504z"/><circle cx="33.999" cy="23.8" r="2.505" fill="#666"/><path fill="#fdb682" d="M33.42802,44.36658L33.42802,44.36658c1.24265,0,2.25,1.00735,2.25,2.25v3.88807c0,1.24264-1.00736,2.25-2.25,2.25h0c-1.24264,0-2.25-1.00736-2.25-2.25v-3.88807C31.17802,45.37394,32.18538,44.36658,33.42802,44.36658z"/><path fill="#fe9967" d="M33.42802,44.36658L33.42802,44.36658c1.24265,0,2.25,1.00735,2.25,2.25v3.88807c0,1.24264-1.00736,2.25-2.25,2.25h0c-1.24264,0-2.25-1.00736-2.25-2.25v-3.88807C31.17802,45.37394,32.18538,44.36658,33.42802,44.36658z"/><path fill="#ef8759" d="M33.38633,44.37095c-1.2229,0.02371-2.20831,1.05677-2.20831,2.3327v3.71392c0,1.27587,0.98541,2.30898,2.20831,2.3327V44.37095z"/><rect width="6.248" height="2" x="30.875" y="4.822" fill="#666"/><rect width="6.248" height="2" x="30.875" y="8.9" fill="#666"/></svg>