<svg xmlns="http://www.w3.org/2000/svg" enable-background="new 0 0 68 68" viewBox="0 0 68 68"><path fill="#efd96a" d="M38.94446 39.32072c-.31055 0-.61621-.14355-.81152-.41504-.32324-.44824-.22266-1.07324.22559-1.39551 2.04004-1.47168 4.56055-2.71973 7.23047-4.04102 7.13867-3.53223 15.22949-7.53613 16.10449-17.2373.24121-3.16309-.49805-5.49219-2.19824-6.91113-1.95996-1.63477-4.76172-1.66602-6.72852-1.15039-.53418.14258-1.08105-.17871-1.2207-.71289-.14063-.53418.17871-1.08105.71289-1.2207 2.45117-.64355 5.97461-.57324 8.51758 1.54883 1.53027 1.27637 3.27734 3.80566 2.91016 8.6123-.97656 10.83008-9.97852 15.28516-17.21094 18.86426-2.59277 1.2832-5.04199 2.49512-6.94727 3.86914C39.35168 39.2592 39.14661 39.32072 38.94446 39.32072zM29.05481 39.32072c-.18652 0-.37402-.05176-.54199-.16016-1.44238-.93359-3.40625-1.87695-5.48535-2.87695C15.56262 32.69572 5.33899 27.78166 4.3136 16.41154 3.94543 11.59123 5.6925 9.06096 7.22278 7.78459c2.54297-2.12109 6.06445-2.19141 8.5166-1.54785.53418.13965.85352.68652.71289 1.2207-.13965.53418-.68652.85547-1.2207.71289-1.96777-.51563-4.7666-.4834-6.72754 1.15039-1.7002 1.41797-2.43945 3.74805-2.19727 6.9248.92285 10.22559 10.16211 14.66699 17.58691 18.23535 2.1377 1.02832 4.15625 1.99805 5.70508 3 .46387.2998.59668.91895.29688 1.38281C29.70422 39.15959 29.38293 39.32072 29.05481 39.32072z"/><path fill="#444" d="M47.44201,65.41975H20.55419V54.85389c0-1.48238,1.2017-2.68408,2.68408-2.68408h21.51966c1.48238,0,2.68408,1.2017,2.68408,2.68408V65.41975z"/><path fill="#333" d="M28.47548,52.17392c-1.49069,0-2.69127,1.20058-2.69127,2.68126v10.56497h-5.23244V54.85518c0-1.48068,1.20058-2.68126,2.69127-2.68126H28.47548z"/><path fill="#666" d="M33.16769 52.17392c-1.49069 0-2.69127 1.20058-2.69127 2.68126v10.56497h-2.00094V54.85518c0-1.48068 1.20058-2.68126 2.69127-2.68126H33.16769zM47.44201 54.85518v10.56497h-5.23244V54.85518c0-1.48068-1.20058-2.68126-2.69127-2.68126h5.24245C46.24143 52.17392 47.44201 53.3745 47.44201 54.85518z"/><path fill="#feeb75" d="M52.74161,2.61507c-0.61947,21.38142-7.01517,34.10239-15.57203,35.99472V47.073h-6.34295v-8.46321c-8.55686-1.89232-14.95257-14.6133-15.57203-35.99472c-0.01632-0.56335,0.44036-1.0354,1.00395-1.0354h35.47911C52.30125,1.57967,52.75793,2.05172,52.74161,2.61507z"/><path fill="#efd96a" d="M30.37341,38.49505L30.37341,38.49505c-4.58547-2.27391-10.50696-19.00244-9.82164-36.91538h-4.29339c-0.56353,0-1.02012,0.47166-1.0038,1.03495C15.863,23.61866,22.04544,36.35412,30.37341,38.49505z"/><path fill="#fff3ab" d="M29.70922,38.32015c-2.46545-7.49529-3.60515-21.3301-2.84448-36.74048h-2.77132c0.22563,15.36897,2.05413,29.2063,4.96083,36.74048H29.70922z"/><rect width="3.612" height="9.829" x="30.827" y="42.344" fill="#efd96a"/><path fill="#fff3ab" d="M33.55789,38.60979v13.56002h3.61169V38.60979c8.55686-1.89232,14.95256-14.6133,15.57203-35.99472c0.01632-0.56335-0.44036-1.0354-1.00395-1.0354h-4.29323C47.00422,23.58568,40.75128,35.95667,33.55789,38.60979z"/><path fill="#ffac88" d="M34.66752,11.64823l1.7414,3.52846c0.10874,0.22033,0.31893,0.37304,0.56208,0.40837l3.89388,0.56582c0.6123,0.08897,0.85679,0.84143,0.41373,1.27332l-2.81764,2.74652c-0.17594,0.1715-0.25623,0.4186-0.21469,0.66076l0.66515,3.87815c0.1046,0.60983-0.53549,1.07487-1.08315,0.78695l-3.4828-1.83101c-0.21748-0.11433-0.47729-0.11433-0.69476,0l-3.48279,1.83101c-0.54766,0.28792-1.18774-0.17713-1.08315-0.78695l0.66516-3.87815c0.04153-0.24216-0.03875-0.48926-0.21469-0.66076l-2.81764-2.74652c-0.44307-0.43188-0.19858-1.18434,0.41373-1.27332l3.89388-0.56582c0.24314-0.03533,0.45334-0.18804,0.56207-0.40837l1.7414-3.52846C33.60251,11.09339,34.39369,11.09339,34.66752,11.64823z"/><path fill="#feeb75" d="M38.6541,42.54558h-9.31199c-1.11852,0-2.02526-0.90674-2.02526-2.02526v0c0-1.11852,0.90674-2.02526,2.02526-2.02526h9.31199c1.11852,0,2.02526,0.90674,2.02526,2.02526v0C40.67936,41.63884,39.77262,42.54558,38.6541,42.54558z"/><path fill="#fff" d="M37.12296 6.84443h.58301c.55273 0 1-.44727 1-1s-.44727-1-1-1h-.58301c-.55273 0-1 .44727-1 1S36.57022 6.84443 37.12296 6.84443zM41.37491 6.84443h5.20508c-.02539 1.04688-.06152 2.06738-.10449 3.07129-.02344.55176.4043 1.01855.95605 1.04199.01465.00098.0293.00098.04395.00098.53223 0 .97461-.41992.99805-.95703.05762-1.34277.10352-2.7168.12695-4.14062.00391-.26855-.09863-.52637-.28711-.71777-.1875-.19141-.44434-.29883-.71289-.29883h-6.22559c-.55273 0-1 .44727-1 1S40.82218 6.84443 41.37491 6.84443z"/><path fill="#666" d="M54.02161,66.42033H13.97766c-0.55273,0-1-0.44727-1-1s0.44727-1,1-1h40.04395c0.55273,0,1,0.44727,1,1S54.57434,66.42033,54.02161,66.42033z"/></svg>