<svg xmlns="http://www.w3.org/2000/svg" enable-background="new 0 0 68 68" viewBox="0 0 68 68"><path fill="#fe9967" d="M32.36615 44.44111l3.7819 10.86283c.29126.83661 1.44611.90936 1.84007.11592l1.80868-3.6427 5.52874 1.35423c.86201.21114 1.55144-.72172 1.09659-1.4838l-7.68668-12.87865L32.36615 44.44111zM46.19232 32.12825l11.0827 5.65703c.81482.41592.68961 1.61705-.19347 1.85597l-3.71928 1.00626.25478 5.84246c.03764.86323-.96338 1.36467-1.63218.81761l-11.90392-9.73686L46.19232 32.12825z"/><path fill="#e2e2e2" d="M41.05164,38.91089L21.22867,63.54316c-1.45639,1.80973-4.16103,1.9556-5.80362,0.31301L4.14382,52.57495c-1.64258-1.64259-1.49671-4.34723,0.31301-5.80362l24.63228-19.82297L41.05164,38.91089z"/><path fill="#e2e2e2" d="M38.91089,41.05164l24.63227-19.82296c1.80973-1.45639,1.9556-4.16103,0.31301-5.80362L52.57495,4.14382c-1.64259-1.64258-4.34723-1.49671-5.80362,0.31301L26.94836,29.08911L38.91089,41.05164z"/><path fill="#d3d3d3" d="M24.29841 30.80531L4.45826 46.77016c-1.8106 1.45612-1.95696 4.16148-.31401 5.80442l1.11001 1.11001 23.23931-18.68412L24.29841 30.80531zM31.34816 23.63465l4.19542 4.19542L53.68454 5.25431 52.57453 4.1443c-1.64294-1.64294-4.3483-1.49659-5.80442.31401L31.34816 23.63465z"/><polygon fill="#fff" points="32.341 32.341 31.364 33.505 31.178 33.319"/><polygon fill="#fff" points="33.319 31.178 33.505 31.364 32.341 32.341"/><path fill="#ededed" d="M34.50282 37.64041l-20.18744 25.1053 1.11001 1.11001c1.64295 1.64295 4.34831 1.49659 5.80442-.31401l17.46817-21.70615L34.50282 37.64041zM40.16991 32.45639l4.19542 4.19542 19.17634-15.42195c1.8106-1.45611 1.95695-4.16147.31401-5.80442l-1.11001-1.11001L40.16991 32.45639z"/><polygon fill="#fff" points="35.659 35.659 34.495 36.636 34.681 36.822"/><polygon fill="#fff" points="36.822 34.681 36.636 34.495 35.659 35.659"/><path fill="#fe9967" d="M23.55729,30.62156l7.06428-7.06428c0.39052-0.39052,1.02369-0.39052,1.41421,0L44.4429,35.96441c0.39053,0.39053,0.39053,1.02369,0,1.41422l-7.06428,7.06428c-0.39053,0.39053-1.02369,0.39053-1.41422,0L23.55729,32.03578C23.16676,31.64525,23.16676,31.01209,23.55729,30.62156z"/><path fill="#ef8759" d="M32.03723,23.54909l5.3587,5.3587c-0.94534-0.94534-2.48147-0.94528-3.42681,0.00006l-5.06133,5.06133c-0.94534,0.94534-0.94534,2.48141,0,3.42675l-5.3587-5.3587c-0.39052-0.39052-0.39052-1.02369,0-1.41421l7.07393-7.07393C31.01354,23.15857,31.6467,23.15857,32.03723,23.54909z"/><path fill="#ffac88" d="M39.09888,30.61074l5.34884,5.34884c0.39053,0.39052,0.39053,1.02369,0,1.41421l-7.07393,7.07393c-0.39052,0.39053-1.02369,0.39053-1.41421,0l-5.34884-5.34884c0.94534,0.94534,2.48147,0.9454,3.42681,0.00006l5.06133-5.06133C40.04422,33.09227,40.04422,31.55608,39.09888,30.61074z"/><path fill="#fff" d="M41.89978 19.6719c-.21875 0-.43945-.07129-.62305-.21875-.43164-.34473-.50195-.97363-.15723-1.40527l5.78906-7.24414c.34473-.43066.97559-.50293 1.40527-.15723.43164.34473.50195.97363.15723 1.40527l-5.78906 7.24414C42.48474 19.54299 42.19373 19.6719 41.89978 19.6719zM38.87927 23.18557c-.23242 0-.46582-.08008-.65527-.24414-.41699-.3623-.46191-.99414-.10059-1.41113l.39551-.45605c.36328-.41699.99414-.46094 1.41113-.10059.41699.3623.46191.99414.10059 1.41113l-.39551.45605C39.43689 23.06838 39.15857 23.18557 38.87927 23.18557z"/></svg>