<svg xmlns="http://www.w3.org/2000/svg" enable-background="new 0 0 68 68" viewBox="0 0 68 68"><path fill="#444" d="M21.22843,1.36359v48.79004h-5.65691c-3.49011,0-6.30005,2.82001-6.30005,6.28998V7.51193c0-3.39563,2.7527-6.14834,6.14834-6.14834H21.22843z"/><path fill="#fe9967" d="M58.73143,50.15568h-37.5V1.36696h35.29166c1.21964,0,2.20834,0.98871,2.20834,2.20834V50.15568z"/><path fill="#ffac88" d="M58.73143,3.57362v46.58002H52.7014V3.57362c0-1.21997-0.98999-2.21002-2.20996-2.21002h6.03003C57.74144,1.36359,58.73143,2.35364,58.73143,3.57362z"/><path fill="#ef8759" d="M21.23143,3.57362v46.58002h6.03003V3.57362c0-1.21997,0.98999-2.21002,2.20996-2.21002h-6.03003C22.22142,1.36359,21.23143,2.35364,21.23143,3.57362z"/><path fill="#ffac88" d="M33.9514,1.36359c-1.21997,0-2.20996,0.99005-2.20996,2.21002v46.58002h-1.85999V3.57362c0-1.21997,0.98999-2.21002,2.20996-2.21002H33.9514z"/><path fill="#e2e2e2" d="M57.69398,65.25754c0.40683,0.57877,0.00301,1.37887-0.70444,1.37887H15.57102c-3.48646,0-6.30245-2.816-6.30245-6.29025v-3.90022c0-3.47425,2.816-6.29025,6.30245-6.29025h43.16041C54.22803,55.84121,53.87977,59.83126,57.69398,65.25754z"/><path fill="#ededed" d="M58.73143,50.15363c-1.39014,1.75-2.38013,3.5-2.97998,5.26001H15.57152c-3.49011,0-6.30005,2.82001-6.30005,6.29999v-5.27002c0-3.46997,2.80994-6.28998,6.30005-6.28998H58.73143z"/><path fill="#d3d3d3" d="M53.19672 56.41872H17.42816c-.55273 0-1-.44727-1-1s.44727-1 1-1h35.76855c.55273 0 1 .44727 1 1S53.74945 56.41872 53.19672 56.41872zM53.19672 62.37379H17.42816c-.55273 0-1-.44727-1-1s.44727-1 1-1h35.76855c.55273 0 1 .44727 1 1S53.74945 62.37379 53.19672 62.37379z"/><rect width="25.375" height="15.875" x="27.294" y="9.886" fill="#e2e2e2"/><rect width="5.22" height="15.88" x="27.291" y="9.884" fill="#d0d2c7" opacity=".5"/><rect width="5.21" height="15.88" x="47.459" y="9.884" fill="#fff" opacity=".5"/><path fill="#fff" d="M13.97385 9.87294v8.02051c0 .55273-.44727 1-1 1s-1-.44727-1-1V9.87294c0-.55273.44727-1 1-1S13.97385 9.3202 13.97385 9.87294zM13.97385 21.56044v.54102c0 .55273-.44727 1-1 1s-1-.44727-1-1v-.54102c0-.55273.44727-1 1-1S13.97385 21.0077 13.97385 21.56044z"/></svg>