<svg xmlns="http://www.w3.org/2000/svg" enable-background="new 0 0 68 68" viewBox="0 0 68 68"><path fill="#a7d08c" d="M61.80669,53.38258H6.19349c-2.31595,0-4.1934-1.87745-4.1934-4.19341V9.19601c0-2.31595,1.87745-4.1934,4.1934-4.1934h55.6132c2.31595,0,4.1934,1.87745,4.1934,4.1934v39.99316C66.00009,51.50513,64.12264,53.38258,61.80669,53.38258z"/><path fill="#9ac181" d="M12.35989,53.37903H6.18997c-2.31006,0-4.19006-1.86987-4.19006-4.18994V9.1991c0-2.32007,1.88-4.19995,4.19006-4.19995h6.16992c-2.31995,0-4.18994,1.87988-4.18994,4.19995v39.98999C8.16995,51.50916,10.03995,53.37903,12.35989,53.37903z"/><path fill="#badda4" d="M21.49002 53.37903h-3.06006c-2.31006 0-4.18994-1.86987-4.18994-4.18994V9.1991c0-2.32007 1.87988-4.19995 4.18994-4.19995h3.06006c-2.31006 0-4.19006 1.87988-4.19006 4.19995v39.98999C17.29996 51.50916 19.17996 53.37903 21.49002 53.37903zM66.00009 9.1991v39.98999c0 2.32007-1.88 4.18994-4.19995 4.18994h-6.16016c2.31006 0 4.19006-1.86987 4.19006-4.18994V9.1991c0-2.32007-1.88-4.19995-4.19006-4.19995h6.16016C64.12009 4.99915 66.00009 6.87903 66.00009 9.1991z"/><rect width="34.38" height="50" x="16.811" y="4.192" fill="#ededed" transform="rotate(90 34 29.192)"/><rect width="23.733" height="34.38" x="9.001" y="12.002" fill="#e2e2e2"/><path fill="#666" d="M43.52575 53.46475l5.13591 9.27817c.21202.38301.77903.32792.91334-.08875l1.40363-4.35438 4.43523 1.1223c.4244.10739.77212-.34386.5601-.72687l-5.13591-9.27818L43.52575 53.46475zM42.81142 53.46475l-5.13591 9.27817c-.21202.38301-.77903.32792-.91334-.08875l-1.40363-4.35438-4.43522 1.1223c-.4244.10739-.77212-.34386-.56011-.72687l5.13591-9.27818L42.81142 53.46475z"/><path fill="#fe9967" d="M55.82655,42.96233c0,1.24965-2.24789,2.12858-2.61405,3.25617c-0.37945,1.16856,0.90922,3.19843,0.20132,4.17109c-0.71495,0.98234-3.04836,0.38015-4.03071,1.09508c-0.97265,0.70786-1.11699,3.11685-2.28553,3.49628c-1.12754,0.36612-2.6554-1.48602-3.90499-1.48602c-1.24965,0-2.77758,1.85212-3.90517,1.48597c-1.16855-0.37946-1.31287-2.78846-2.28553-3.49636c-0.98234-0.71494-3.31576-0.11281-4.03069-1.09517c-0.70786-0.97265,0.58085-3.00248,0.20142-4.17101c-0.36612-1.12754-2.614-2.00643-2.614-3.25602c0-1.24965,2.24789-2.12858,2.61405-3.25617c0.37945-1.16855-0.90922-3.19843-0.20131-4.17109c0.71494-0.98234,3.04835-0.38015,4.03071-1.09508c0.97265-0.70786,1.11699-3.11685,2.28553-3.49628c1.12754-0.36612,2.6554,1.48602,3.90499,1.48602c1.24965,0,2.77758-1.85212,3.90517-1.48596c1.16855,0.37945,1.31287,2.78845,2.28553,3.49636c0.98234,0.71495,3.31576,0.11281,4.03069,1.09517c0.70787,0.97265-0.58085,3.00248-0.20142,4.17101C53.57867,40.83384,55.82655,41.71273,55.82655,42.96233z"/><path fill="#ef8759" d="M42.81668,32.36805c-1.17065-0.29175-2.51196-1.75464-3.52905-1.42432c-1.16858,0.37939-1.31299,2.78833-2.28564,3.49634c-0.9823,0.71484-3.31567,0.11267-4.03064,1.09497c-0.70789,0.97266,0.58081,3.00256,0.20129,4.17114c-0.36609,1.12756-2.61401,2.00647-2.61401,3.2561s2.2478,2.12854,2.61401,3.2561c0.37939,1.16846-0.9093,3.19824-0.20142,4.1709c0.71484,0.98242,3.04834,0.38037,4.03064,1.09521c0.97266,0.70789,1.11707,3.11694,2.28552,3.49634c1.01733,0.33032,2.35864-1.13245,3.5293-1.42432V32.36805z"/><path fill="#666" d="M50.9761 17.61487H17.02493c-.55273 0-1 .44727-1 1s.44727 1 1 1H50.9761c.55273 0 1-.44727 1-1S51.52884 17.61487 50.9761 17.61487zM47.1636 24.11487H20.83743c-.55273 0-1 .44727-1 1s.44727 1 1 1H47.1636c.55273 0 1-.44727 1-1S47.71634 24.11487 47.1636 24.11487z"/><path fill="#fff3ab" d="M43.1929,35.40393c-4.16797,0-7.55859,3.39063-7.55859,7.55859s3.39063,7.55859,7.55859,7.55859c4.16699,0,7.55762-3.39063,7.55762-7.55859S47.35989,35.40393,43.1929,35.40393z M43.1929,48.52112c-3.06543,0-5.55859-2.49316-5.55859-5.55859s2.49316-5.55859,5.55859-5.55859c3.06445,0,5.55762,2.49316,5.55762,5.55859S46.25735,48.52112,43.1929,48.52112z"/><path fill="#fff" d="M13.42923 34.24378c.01172.00098.02246.00098.03418.00098.53613 0 .98047-.42578.99805-.9668l.0166-.5c.01855-.55176-.41406-1.01465-.96582-1.03223-.53027-.05273-1.01367.41309-1.03223.96582l-.0166.5C12.44485 33.76331 12.87747 34.2262 13.42923 34.24378zM19.60892 40.79749h-5.17578l.01953-3.92285c.00293-.55176-.44238-1.00195-.99512-1.00488-.00195 0-.00293 0-.00488 0-.5498 0-.99707.44434-1 .99512l-.02441 4.92773c-.00098.26563.10352.52148.29102.70996s.44336.29492.70898.29492h6.18066c.55273 0 1-.44727 1-1S20.16165 40.79749 19.60892 40.79749z"/></svg>