<svg xmlns="http://www.w3.org/2000/svg" enable-background="new 0 0 68 68" viewBox="0 0 68 68"><path fill="#e2e2e2" d="M57.81178,16.99499V62.2383c0,2.07753-1.68417,3.7617-3.7617,3.7617h-40.0966c-2.07753,0-3.7617-1.68417-3.7617-3.7617V5.7617c0-2.07753,1.68417-3.7617,3.7617-3.7617h28.86331L57.81178,16.99499z"/><path fill="#ededed" d="M21.11828 66h-7.16004c-2.07996 0-3.77002-1.67999-3.77002-3.76001V5.76001C10.18822 3.67999 11.87829 2 13.95824 2h7.16004c-2.07996 0-3.75989 1.67999-3.75989 3.76001v56.47998C17.35839 64.32001 19.03832 66 21.11828 66zM31.59636 66h-3.67004c-2.07996 0-3.77002-1.67999-3.77002-3.76001V5.76001C24.1563 3.67999 25.84636 2 27.92632 2h3.67004c-2.08008 0-3.77002 1.67999-3.77002 3.76001v56.47998C27.82635 64.32001 29.51629 66 31.59636 66z"/><path fill="#d3d3d3" d="M57.80834,17.07001v45.16998c0,2.08002-1.69006,3.76001-3.77002,3.76001h-5.45996c2.07996,0,3.77002-1.67999,3.77002-3.76001V17.07001H57.80834z"/><path fill="#444" d="M42.81679,13.23329V2l14.99499,14.99499H46.57849C44.50096,16.99499,42.81679,15.31082,42.81679,13.23329z"/><path fill="#d3d3d3" d="M49.73314 28.06702H18.27025c-.55273 0-1-.44727-1-1s.44727-1 1-1h31.46289c.55273 0 1 .44727 1 1S50.28588 28.06702 49.73314 28.06702zM49.73314 37.01135H18.27025c-.55273 0-1-.44727-1-1s.44727-1 1-1h31.46289c.55273 0 1 .44727 1 1S50.28588 37.01135 49.73314 37.01135zM49.73314 45.95569H18.27025c-.55273 0-1-.44727-1-1s.44727-1 1-1h31.46289c.55273 0 1 .44727 1 1S50.28588 45.95569 49.73314 45.95569zM49.73314 54.90002H18.27025c-.55273 0-1-.44727-1-1s.44727-1 1-1h31.46289c.55273 0 1 .44727 1 1S50.28588 54.90002 49.73314 54.90002z"/><path fill="#fff" d="M14.42357 11.07874c-.55273 0-1-.44727-1-1 0-2.62598 2.13574-4.76172 4.76172-4.76172h5.625c.55273 0 1 .44727 1 1s-.44727 1-1 1h-5.625c-1.52246 0-2.76172 1.23926-2.76172 2.76172C15.42357 10.63147 14.97631 11.07874 14.42357 11.07874zM28.43529 7.31702h-1c-.55273 0-1-.44727-1-1s.44727-1 1-1h1c.55273 0 1 .44727 1 1S28.98803 7.31702 28.43529 7.31702z"/></svg>