<svg xmlns="http://www.w3.org/2000/svg" enable-background="new 0 0 68 68" viewBox="0 0 68 68"><path fill="#fe9967" d="M57.65856,65.99918H30.55261c-0.51914,0-0.94113-0.39917-0.99571-0.91543c-0.26206-2.47866-0.88725-4.38653-1.47021-5.65612c-1.48495,0.49495-3.2859,0.84249-5.47625,0.84249c-0.25287,0-0.51615,0-0.78985-0.01054c-5.77128-0.15793-7.16136-3.62278-6.97187-6.60311c0.06325-1.25323,1.13747-8.96312-0.2422-8.96312c-8.71998,0.63186-4.57348-4.8204-1.94456-17.78255c1.45545-7.17623-3.01083-6.09147-2.784-13.91587c0.11254-3.88213,3.886-7.2034,7.51939-8.583c5.40084-2.04357,14.41709-3.34405,23.44747-1.59348c6.66322,1.29169,12.52399,5.52903,15.39358,11.67983c0.85816,1.83943,1.42397,3.75254,1.68352,5.74222c0.37911,2.32745,0.51603,4.81283,0.49507,7.39302c-0.02108,1.28479-0.17921,2.56965-0.41087,3.83342c-1.24263,6.5189-3.63326,14.34368-3.50689,22.03154c0.33224,3.87864,2.63597,8.52367,4.03408,11.01645C58.90626,65.17987,58.42094,65.99918,57.65856,65.99918z"/><path fill="#ef8759" d="M25.70345 60.01082c-.93005.16998-1.96008.25995-3.08997.25995-.26001 0-.52002 0-.79004-.00995-5.77002-.16003-7.15991-3.62-6.96997-6.60004.06006-1.26001 1.13-8.96997-.25-8.96997-8.71997.63-4.57007-4.82001-1.93994-17.78003 1.44995-7.17999-3.01001-6.08997-2.79004-13.91998.11987-3.88 3.88989-7.20001 7.52002-8.58002 4.25-1.60999 10.75-2.75 17.72998-2.31-4.6001.28003-8.70996 1.17999-11.69995 2.31-3.64014 1.38-7.41016 4.70001-7.52002 8.58002-.22998 7.83002 4.23999 6.73999 2.77991 13.91998-2.63 12.96002-6.77991 18.41003 1.94006 17.78003 1.37988 0 .30994 7.70996.25 8.96997C20.71346 56.23079 21.72347 59.16079 25.70345 60.01082zM35.65353 66.00082h-5.10467c-.5181 0-.93946-.39896-.99457-.91412-.21181-1.97987-.65119-3.59832-1.12086-4.81592h.20007c2.18994 0 3.98999-.34998 5.46997-.83997C34.76339 60.85079 35.46347 63.07082 35.65353 66.00082z"/><path fill="#ffac88" d="M57.65733,66.00082h-4.52382c-0.90002-1.42999-4.48999-7.58002-4.91003-12.5c-0.13-7.69,2.26001-15.51001,3.51001-22.03003c0.22998-1.26996,0.39001-2.54999,0.41003-3.83997c0.02002-2.58002-0.12012-5.06-0.5-7.39001c-0.26001-1.98999-0.82007-3.90002-1.68005-5.73999c-3-6.42999-9.25-10.63-16.22998-11.84003c-1.58997-0.26996-3.18006-0.45996-4.75-0.54999c3.46997-0.22998,7.23999-0.09998,11.0199,0.54999c6.98999,1.21002,13.23999,5.41003,16.2301,11.84003c0.85999,1.83996,1.43005,3.75,1.69006,5.73999c0.37988,2.33002,0.50989,4.81,0.48999,7.39001c-0.02002,1.28998-0.18005,2.57001-0.41016,3.83997c-1.23999,6.52002-3.62988,14.34003-3.5,22.03003c0.33133,3.87982,2.63378,8.52456,4.02904,11.01635C58.90475,65.18211,58.41943,66.00082,57.65733,66.00082z"/><circle cx="35.123" cy="26.907" r="14.781" fill="#e2e2e2"/><path fill="#d3d3d3" d="M37.46347,41.50081c-0.76001,0.13-1.53992,0.19-2.33997,0.19c-8.16004,0-14.78003-6.62-14.78003-14.78003c0-8.16998,6.62-14.77997,14.78003-14.77997c0.80005,0,1.57996,0.06,2.33997,0.19c-7.05994,1.10999-12.45008,7.20996-12.45008,14.58996C25.01339,34.28078,30.40353,40.39083,37.46347,41.50081z"/><path fill="#ededed" d="M32.78464,41.50081c0.76001,0.13,1.53992,0.19,2.33997,0.19c8.16003,0,14.78003-6.62,14.78003-14.78003c0-8.16998-6.62-14.77997-14.78003-14.77997c-0.80005,0-1.57996,0.06-2.33997,0.19c7.05994,1.10999,12.45007,7.20996,12.45007,14.58996C45.23471,34.28078,39.84458,40.39083,32.78464,41.50081z"/><path fill="#444" d="M36.12252 18.81234c-1.41602-.29492-2.85742.05078-3.95898.94531-1.10254.89648-1.73535 2.22559-1.73535 3.64551 0 .55273.44727 1 1 1s1-.44727 1-1c0-.81543.36328-1.57813.99707-2.09277.64063-.52246 1.45215-.71094 2.28906-.54102 1.01172.21094 1.83203 1.03223 2.04297 2.04297.25586 1.22852-.30957 2.43066-1.4082 2.99219-1.37305.70215-2.22559 2.04297-2.22559 3.50098v1.53125c0 .55273.44727 1 1 1s1-.44727 1-1V29.3055c0-.70313.43555-1.36133 1.13574-1.71973 1.91113-.97754 2.89844-3.05957 2.45508-5.18164C39.3442 20.62581 37.90084 19.18245 36.12252 18.81234zM35.1235 32.83187c-.55273 0-1 .44727-1 1v.27441c0 .55273.44727 1 1 1s1-.44727 1-1v-.27441C36.1235 33.27913 35.67624 32.83187 35.1235 32.83187z"/><path fill="#fff" d="M52.31393 14.57113c-2.06055-3.45313-5.45801-6.14844-9.56641-7.59082-.52148-.18652-1.0918.08984-1.27441.6123-.18359.52051.09082 1.0918.6123 1.27441 3.66699 1.28809 6.69043 3.67773 8.51172 6.72949.18652.31348.51855.4873.85938.4873.1748 0 .35059-.0459.51172-.1416C52.44186 15.65902 52.59713 15.04574 52.31393 14.57113zM54.22311 19.4803l-.02832-.13184c-.05469-.26074-.11035-.52148-.18164-.78027-.14648-.53223-.70117-.8418-1.22949-.69824-.53223.14648-.8457.69727-.69824 1.22949.06055.21875.10547.43945.15234.66016l.02832.13672c.10059.46973.51563.79199.97754.79199.06836 0 .13867-.00684.20898-.02148C53.99264 20.55159 54.33737 20.02132 54.22311 19.4803z"/></svg>