<svg xmlns="http://www.w3.org/2000/svg" enable-background="new 0 0 68 68" viewBox="0 0 68 68"><path fill="#e2e2e2" d="M13.13338,43.66791c0-10.23147,16.44893-34.50644,20.13687-39.82045c0.35397-0.51004,1.1017-0.51004,1.45567,0c3.68794,5.314,20.13687,29.58898,20.13687,39.82045c0,11.52326-9.34145,20.86471-20.8647,20.86471S13.13338,55.19117,13.13338,43.66791z"/><path fill="#ededed" d="M54.86662,43.66507c0,11.53003-9.34985,20.87-20.86987,20.87l0.01001-1.04999c8.33984-2.72998,14.35986-10.57001,14.35986-19.82001c0-6.90997-7.91992-26.01001-14.27002-40.19c0.23999,0.02002,0.47009,0.15002,0.63013,0.37C38.41666,9.16507,54.86662,33.43509,54.86662,43.66507z"/><path fill="#d3d3d3" d="M34.00675,63.48508l-0.01001,1.04999c-11.52002,0-20.86011-9.33997-20.86011-20.87c0-10.22998,16.44995-34.5,20.13013-39.82001c0.15991-0.21997,0.3999-0.34998,0.63989-0.37c-6.34998,14.17999-14.27002,33.28003-14.27002,40.19C19.63663,52.91507,25.65665,60.76505,34.00675,63.48508z"/><path fill="#666" d="M22.84025 44.9409c-.4912 0-.8894-.3982-.8894-.8894V32.38845c0-.4912.3982-.8894.8894-.8894h0c.4912 0 .8894.3982.8894.8894v4.63037h6.98682v-4.63037c0-.4912.3982-.8894.8894-.8894h0c.4912 0 .8894.3982.8894.8894V44.0515c0 .4912-.3982.8894-.8894.8894h0c-.4912 0-.8894-.3982-.8894-.8894v-5.44642h-6.98682v5.44642C23.72965 44.5427 23.33146 44.9409 22.84025 44.9409L22.84025 44.9409zM37.89302 50.95165c-.01001.27002-.26001.5-.55005.5h-3.64001c-.13 0-.23999-.06-.31995-.16003-.08008-.09998-.11011-.21997-.09009-.34998.02002-.08002.04004-.15002.07007-.22998.11987-.31.30994-.62.55994-.91003.25-.29999.62-.64996 1.07996-1.01996.72009-.60004 1.19006-1.05005 1.44006-1.38.22998-.33002.34998-.63.34998-.90002 0-.28998-.09998-.52997-.31006-.72998-.19995-.20001-.46997-.29999-.80994-.29999-.35999 0-.64001.10999-.84998.31995-.14001.13-.23999.31-.28003.53003-.06995.27997-.30005.47998-.56995.47998-.31995 0-.57996-.26001-.57996-.57996 0-.08002.01001-.16003.03992-.23004.15002-.34998.39001-.67999.67004-.91998.3999-.34998.92993-.52002 1.58997-.52002s1.19006.19 1.58997.56c.39001.37.59009.85004.59009 1.40002 0 .27997-.05005.56-.17004.83002-.10999.26996-.28992.53998-.55994.83997-.25.29004-.68005.69-1.27002 1.17999-.52002.45001-.80005.69-.92004.82001-.06995.08002-.14001.16003-.20007.22998H37.373c.13989 0 .27002.06006.36987.16003C37.84297 50.67162 37.89302 50.81164 37.89302 50.95165zM37.27971 38.31166c0-1.58931.16301-2.86788.49004-3.83776.32703-.96785.81299-1.71563 1.4589-2.24133.64387-.52569 1.45584-.78854 2.43388-.78854.7213 0 1.35397.14569 1.89799.43604.54403.29035.99332.70908 1.34785 1.25514.35454.54811.63267 1.21439.83438 1.99886.20172.7865.30258 1.84502.30258 3.17759 0 1.57708-.16198 2.85056-.48596 3.81942s-.80891 1.71767-1.45279 2.2454c-.64591.52977-1.45992.79363-2.44407.79363-1.29589 0-2.31366-.46457-3.0533-1.3937C37.72288 42.6578 37.27971 40.83621 37.27971 38.31166zM38.97598 38.31166c0 2.20669.25775 3.67577.77428 4.40624.51652.73047 1.15428 1.09519 1.91226 1.09519s1.39471-.36676 1.91226-1.10028c.51551-.73352.77428-2.20058.77428-4.40115 0-2.2128-.25877-3.68291-.77428-4.41032-.51754-.72741-1.1604-1.09112-1.9306-1.09112-.75798 0-1.36314.32092-1.81548.96275C39.26022 34.59208 38.97598 36.10498 38.97598 38.31166z"/><path fill="#fff" d="M49.88057 44.18774c-.55469-.07324-1.03809.35059-1.08984.90039-.2959 3.1123-1.55273 6.00684-3.63281 8.37207-.36426.41406-.32422 1.0459.09082 1.41113.18945.16699.4248.24902.66016.24902.27734 0 .55273-.11523.75098-.33984 2.36035-2.68262 3.78516-5.96875 4.12109-9.50293C50.83369 44.72778 50.43037 44.2395 49.88057 44.18774zM42.61787 55.7522c-.19238.13672-.39063.26465-.58789.39258-.46387.2998-.59668.91895-.29688 1.38281.19141.2959.5127.45703.84082.45703.18555 0 .37402-.05176.54199-.16016.22266-.14355.44629-.28906.66211-.44336.4502-.32031.55469-.94531.23438-1.39453C43.69111 55.5354 43.06611 55.43384 42.61787 55.7522z"/></svg>