<svg xmlns="http://www.w3.org/2000/svg" enable-background="new 0 0 68 68" viewBox="0 0 68 68"><path fill="#feeb75" d="M23.12317,59.95729L7.27131,44.10542c-1.97288-1.97288-1.97288-5.17155,0-7.14443L37.73163,6.50068c1.97288-1.97288,5.17155-1.97288,7.14443,0l15.85186,15.85186c1.97288,1.97288,1.97288,5.17155,0,7.14443L30.2676,59.95729C28.29472,61.93017,25.09605,61.93017,23.12317,59.95729z"/><path fill="#e2e2e2" d="M45.39292,44.83197l15.33632-15.33634c1.97215-1.97215,1.97215-5.16963,0-7.14178L44.87606,6.50068c-1.97288-1.97288-5.17155-1.97288-7.14443,0l-15.335,15.335L45.39292,44.83197z"/><path fill="#efd96a" d="M40.73559,40.17464L24.61163,56.2986c-1.42192,1.42192-3.73112,1.41604-5.15304-0.00588l3.66458,3.66457c1.97288,1.97288,5.17155,1.97288,7.14443,0l15.12533-15.12533L40.73559,40.17464z"/><path fill="#d3d3d3" d="M40.73559,40.17464L57.06923,23.841c1.42192-1.42192,1.41604-3.73112-0.00588-5.15304l3.6659,3.6659c1.97215,1.97215,1.97215,5.16963,0,7.14178L45.39292,44.83197L40.73559,40.17464z"/><path fill="#fff3ab" d="M27.05396,26.49301L10.92999,42.61697c-1.42192,1.42192-1.41604,3.73112,0.00588,5.15304L7.2713,44.10543c-1.97288-1.97288-1.97288-5.17155,0-7.14443l15.12533-15.12533L27.05396,26.49301z"/><path fill="#ededed" d="M27.05396,26.49301L43.3876,10.15937c1.42192-1.42192,3.73112-1.41604,5.15304,0.00588l-3.66458-3.66458c-1.97288-1.97288-5.17155-1.97288-7.14443,0l-15.335,15.335L27.05396,26.49301z"/><path fill="#fff" d="M33.16629 19.30281c-.25586 0-.51172-.09766-.70703-.29297-.39063-.39063-.39063-1.02344 0-1.41406l.5-.5c.39063-.39063 1.02344-.39063 1.41406 0s.39063 1.02344 0 1.41406l-.5.5C33.67801 19.20515 33.42215 19.30281 33.16629 19.30281zM36.22879 16.24031c-.25586 0-.51172-.09766-.70703-.29297-.39063-.39063-.39063-1.02344 0-1.41406l3.7041-3.7041c1.1543-1.1543 3.16797-1.1543 4.32227 0l1.55078 1.55078c.39063.39063.39063 1.02344 0 1.41406s-1.02344.39063-1.41406 0l-1.55078-1.55078c-.39844-.39941-1.0957-.39941-1.49414 0l-3.7041 3.7041C36.74051 16.14265 36.48465 16.24031 36.22879 16.24031z"/><path fill="#fff3ab" d="M15.55584,47.48499l16.24505-16.24505l-2.07182-2.07182L13.60422,45.29298c-1.41421,1.41422-1.41417,3.7335,0.01416,5.14767l1.28694,1.30109C14.20528,50.36292,14.41033,48.6305,15.55584,47.48499z"/><path fill="#d3d3d3" d="M11.41498,60.97898c-0.54999,0-1,0.45001-1,1s0.45001,1,1,1h45.17004c0.54999,0,1-0.45001,1-1s-0.45001-1-1-1H11.41498z"/></svg>