<svg xmlns="http://www.w3.org/2000/svg" enable-background="new 0 0 68 68" viewBox="0 0 68 68"><path fill="#e2e2e2" d="M51.25339,48.2841H16.74028c-2.66889,0-4.24865-2.98478-2.74282-5.18974l13.24325-19.46159V9.53575h13.49879v14.09702l13.25671,19.46159C55.50204,45.29931,53.92228,48.2841,51.25339,48.2841z"/><path fill="#ededed" d="M51.25339,48.2841h-4.85361c2.6688,0,4.24865-2.98478,2.74282-5.18974L35.88589,23.63277V9.53575h4.85361v14.09702l13.25671,19.46159C55.50204,45.29931,53.92228,48.2841,51.25339,48.2841z"/><path fill="#d3d3d3" d="M18.85107,43.09436c-1.50583,2.20495,0.07394,5.18974,2.74282,5.18974H16.7402c-2.66881,0-4.24857-2.98478-2.74274-5.18974l13.24325-19.46159V9.53575h4.85361v14.09702L18.85107,43.09436z"/><path fill="#a7d08c" d="M51.25339,48.2841H16.74028c-2.66889,0-4.24865-2.98478-2.74282-5.18974l6.94437-10.20472c0.02011-0.00673,0.03356-0.00673,0.05367-0.00673c1.25045-0.08067,2.4941,0.21512,3.71082,0.47731c3.34114,0.71927,6.72248,1.28398,10.11064,1.69404c1.35796,0.16806,2.75628,0.30252,4.10078,0.04033c2.63516-0.52433,4.69901-2.49401,7.05861-3.7713l8.01987,11.77107C55.50204,45.29931,53.92228,48.2841,51.25339,48.2841z"/><path fill="#fff" d="M36.27938 42.28379h-1c-.55273 0-1 .44727-1 1s.44727 1 1 1h1c.55273 0 1-.44727 1-1S36.83212 42.28379 36.27938 42.28379zM44.54501 38.63731c-.30957-.45605-.93164-.57715-1.38867-.26367-.45703.31055-.5752.93262-.26367 1.38867l1.71582 2.52148h-4.0791c-.55273 0-1 .44727-1 1s.44727 1 1 1h4.60254c.64063 0 1.22363-.35156 1.52344-.91797.29883-.56543.26172-1.24609-.09961-1.77539L44.54501 38.63731z"/><path fill="#9ac181" d="M21.59389,48.2841h-4.85361c-2.66889,0-4.24865-2.98478-2.74282-5.18974l6.94437-10.20472c0.02011-0.00673,0.03356-0.00673,0.05367-0.00673c1.25045-0.08067,2.4941,0.21512,3.71082,0.47731c0.22189,0.04702,0.44379,0.09408,0.67225,0.14115l-6.5275,9.59299C17.34524,45.29931,18.92509,48.2841,21.59389,48.2841z"/><path fill="#d3d3d3" d="M42.72545,7.39947L42.72545,7.39947c0,1.18045-0.95694,2.13739-2.13738,2.13739h-13.1918c-1.18044,0-2.13738-0.95694-2.13738-2.13738v0c0-1.18044,0.95694-2.13738,2.13738-2.13738h13.1918C41.76851,5.26209,42.72545,6.21903,42.72545,7.39947z"/><path fill="#ededed" d="M42.72466,7.39983c0,0.38992-0.10081,0.75291-0.28233,1.06885c-0.36973-0.6386-1.06216-1.06885-1.85541-1.06885h-13.1895c-0.59158,0-1.12264,0.242-1.51256,0.62519c-0.13446,0.12773-0.24873,0.28233-0.34285,0.44367c-0.18152-0.31594-0.28233-0.67894-0.28233-1.06885c0-0.59158,0.23527-1.12937,0.62519-1.51256c0.38992-0.38319,0.92098-0.62519,1.51256-0.62519h13.1895C41.77008,5.26209,42.72466,6.21667,42.72466,7.39983z"/><path fill="#badda4" d="M51.25339,48.2841h-4.85361c2.6688,0,4.24865-2.98478,2.74282-5.18974l-6.56115-9.6266c1.12933-0.70585,2.22518-1.51256,3.39489-2.14447l8.01987,11.77107C55.50204,45.29931,53.92228,48.2841,51.25339,48.2841z"/><path fill="#444" d="M11.36065,54.18391c-0.55273,0-1-0.44727-1-1V2.50031c0-0.55273,0.44727-1,1-1s1,0.44727,1,1v50.68359C12.36065,53.73664,11.91338,54.18391,11.36065,54.18391z"/><path fill="#444" d="M43.41436,16.24543H11.36065c-0.55273,0-1-0.44726-1-1s0.44727-1,1-1h32.05371c0.55273,0,1,0.44727,1,1S43.96709,16.24543,43.41436,16.24543z"/><path fill="#fe9967" d="M60.94471,53.18396H7.0553c-0.86519,0-1.56656,0.70137-1.56656,1.56656v4.88042c0,0.86518,0.70137,1.56656,1.56656,1.56656h53.88941c0.86518,0,1.56656-0.70137,1.56656-1.56656v-4.88042C62.51127,53.88533,61.80989,53.18396,60.94471,53.18396z"/><path fill="#ef8759" d="M33.40438,53.18393H7.05526c-0.86523,0-1.56653,0.70135-1.56653,1.56659v4.88037c0,0.86523,0.70129,1.56659,1.56653,1.56659h26.34912V53.18393z"/><path fill="#444" d="M15.37589 66.49969h-4.31878c-.68704 0-1.244-.55696-1.244-1.244v-4.0582h6.80678v4.0582C16.61989 65.94273 16.06293 66.49969 15.37589 66.49969zM56.94291 66.49969h-4.31879c-.68704 0-1.244-.55696-1.244-1.244v-4.0582h6.80678v4.0582C58.1869 65.94273 57.62994 66.49969 56.94291 66.49969z"/></svg>