<svg xmlns="http://www.w3.org/2000/svg" enable-background="new 0 0 68 68" viewBox="0 0 68 68"><path fill="#e2e2e2" d="M42.39989,66H25.60343c-1.10457,0-2-0.89543-2-2V46.32165c0-1.10457,0.89543-2,2-2h16.79646c1.10457,0,2,0.89543,2,2V64C44.39989,65.10457,43.50446,66,42.39989,66z"/><path fill="#d3d3d3" d="M21.7459,66H4.00166c-1.10457,0-2-0.89543-2-2V50.36352c0-1.10457,0.89543-2,2-2H21.7459c1.02588,0,1.85753,0.83164,1.85753,1.85753v13.92142C23.60343,65.16836,22.77178,66,21.7459,66z"/><path fill="#f2f1e8" d="M64.00166,66H46.25742c-1.02588,0-1.85753-0.83164-1.85753-1.85753v-9.11634c0-1.02588,0.83165-1.85753,1.85753-1.85753h17.74424c1.10457,0,2,0.89543,2,2V64C66.00166,65.10457,65.10622,66,64.00166,66z"/><path fill="#e2e2e2" d="M8.16832,48.35933v17.64001H3.99834c-1.10457,0-2-0.89543-2-2V50.35933c0-1.10457,0.89543-2,2-2H8.16832z"/><rect width="2.33" height="17.64" x="10.248" y="48.359" fill="#ededed"/><path fill="#d3d3d3" d="M64.00166,66H46.25742c-1.02588,0-1.85753-0.83164-1.85753-1.85753v-9.11634c0-1.02588,0.83165-1.85753,1.85753-1.85753h17.74424c1.10457,0,2,0.89543,2,2V64C66.00166,65.10457,65.10622,66,64.00166,66z"/><path fill="#e2e2e2" d="M66.00166,55.1686v8.83074c0,1.10456-0.89543,2-2,2h-4.16998V53.1686h4.16998C65.10622,53.1686,66.00166,54.06403,66.00166,55.1686z"/><circle cx="34.002" cy="7.188" r="5.188" fill="#a7d08c"/><path fill="#a7d08c" d="M36.39649,15.97555c0.97791-0.12848,1.84159-0.72095,2.31987-1.60606l6.52416-8.64419c0.48542-0.91365,1.59896-1.29913,2.55544-0.87797c0.74949,0.32832,1.19204,1.05642,1.19204,1.8202c0,0.29979-0.07136,0.61386-0.22128,0.8994l-7.98035,13.32676v20.91534c0,0.69242-0.27835,1.32057-0.7352,1.77737c-0.4497,0.4497-1.07785,0.73524-1.77027,0.73524c-1.28484,0-2.35555-0.96367-2.49832-2.23422l-1.77733-11.75834l-1.78452,11.75834c-0.14277,1.27055-1.21348,2.23422-2.49122,2.23422c-0.69952,0-1.32767-0.28554-1.77737-0.73524c-0.45685-0.4568-0.7352-1.08496-0.7352-1.77737V20.89369L19.24369,7.56693c-0.15702-0.28554-0.22838-0.59962-0.22838-0.8994c0-0.76378,0.44966-1.49188,1.19919-1.8202c0.94933-0.42116,2.06287-0.03568,2.5554,0.87797l6.5242,8.64419c0.47114,0.88511,1.33482,1.47758,2.31273,1.60606H36.39649z"/><path fill="#badda4" d="M34.00164 2.00001c-.01141 0-.02191.0033-.03333.00336v10.36914c.01141.00006.02191.00336.03333.00336 2.86523 0 5.18793-2.32269 5.18793-5.18793S36.86687 2.00001 34.00164 2.00001zM47.79595 4.8473c-.95648-.42114-2.07001-.03564-2.55542.87799l-6.52417 8.64417c-.47827.88513-1.34198 1.4776-2.31989 1.60608h-2.42816v14.5968l.03693-.24329 1.77734 11.75836c.14276 1.27057 1.2135 2.23425 2.49829 2.23425.69244 0 1.32062-.28558 1.77032-.73529.45685-.45679.73517-1.08496.73517-1.77734V20.89369l7.98035-13.32678c.1499-.28552.22131-.59961.22131-.89941C48.98803 5.90376 48.54546 5.17567 47.79595 4.8473z"/><path fill="#fff" d="M61.29448 56.06733h-8.70801c-.55273 0-1 .44727-1 1s.44727 1 1 1h8.70801c.55273 0 1-.44727 1-1S61.84722 56.06733 61.29448 56.06733zM49.47026 56.06733h-.36328c-.55273 0-1 .44727-1 1s.44727 1 1 1h.36328c.55273 0 1-.44727 1-1S50.023 56.06733 49.47026 56.06733z"/></svg>