<svg xmlns="http://www.w3.org/2000/svg" enable-background="new 0 0 68 68" viewBox="0 0 68 68"><path fill="#e2e2e2" d="M18.67138 14.36365l2.15144 2.32493c.59723.64539.55819 1.65272-.0872 2.24995l-9.38792 8.68737c-.64539.59723-1.65272.55819-2.24995-.0872l-2.15144-2.32493c-.59723-.64539-.55819-1.65273.0872-2.24995l9.38792-8.68738C17.06682 13.67922 18.07416 13.71826 18.67138 14.36365zM50.90484 3.58779v3.16765c0 .87932-.71283 1.59215-1.59215 1.59215H30.90031c-.87932 0-1.59215-.71283-1.59215-1.59215V3.58779c0-.87932.71283-1.59215 1.59215-1.59215h18.41238C50.19201 1.99564 50.90484 2.70847 50.90484 3.58779z"/><path fill="#d3d3d3" d="M39.45442 1.99565h-8.5542c-.87915 0-1.59204.71289-1.59204 1.59204v3.16772c0 .87939.71289 1.59216 1.59204 1.59216h8.5542V1.99565zM16.07698 23.25237l-4.72998 4.37c-.64014.6001-1.65015.56006-2.25-.07996l-2.15015-2.32996c-.59985-.64014-.55994-1.65015.09009-2.25l4.53003-4.19006L16.07698 23.25237z"/><path fill="#e2e2e2" d="M61.47808,44.61888c0,11.80372-9.56303,21.37676-21.36663,21.37676S18.73481,56.4226,18.73481,44.61888c0-2.84085,0.55022-5.56166,1.56054-8.04254l-8.59276-9.28279l8.67274-8.02251l7.35226,7.93252c1.35052-0.97027,2.82094-1.78058,4.39138-2.41078V8.3476h15.97506v16.44518C55.93631,27.94378,61.47808,35.63611,61.47808,44.61888z"/><path fill="#ededed" d="M61.47688,44.62236c0,9.54004-6.23999,17.61011-14.86987,20.36011c6.22998-3.74011,10.3999-10.55005,10.3999-18.3501c0-8.40843-4.85727-15.68581-11.92004-19.16424c-0.89717-0.44186-1.46997-1.34795-1.46997-2.34802V8.35234h4.4801v16.44006C55.93684,27.94243,61.47688,35.63237,61.47688,44.62236z"/><path fill="#d3d3d3" d="M36.58699 20.31731V8.35234H32.1169V24.7874h0C34.58566 24.7874 36.58699 22.78607 36.58699 20.31731zM43.35701 65.74236c-.062.00995-.12411.01958-.18632.02892-12.36521 1.85495-23.80463-7.59382-24.40802-20.08282-.15567-3.22208.39846-6.32711 1.53428-9.11614l-8.59009-9.27991 3.44006-3.18005 8.47466 9.06384c1.79206 1.91665 2.56463 4.57788 2.04378 7.1496-.2815 1.38992-.42848 2.82855-.42848 4.29656C25.23689 55.3123 33.097 64.18242 43.35701 65.74236z"/><path fill="#a7d08c" d="M61.47688,44.63436c0,11.78813-9.58186,21.37-21.36984,21.37c-0.56157,0-1.12281-0.02598-1.68406-0.06518c-0.44396-0.0392-0.88777-0.09147-1.33157-0.15681c-10.36509-1.46192-18.35452-10.37816-18.35452-21.14801c0-0.33943,0.01307-0.67885,0.0392-1.01828c1.13572-1.1225,2.37598-2.17998,3.7858-3.05468c2.9111-1.81458,6.7361-2.84592,10.16924-1.90589c2.83286,0.77016,5.30015,2.78059,8.26352,2.61087c2.637-0.15665,4.72567-1.99736,7.29734-2.45423c1.94509-0.3525,3.99456,0.13051,5.77009,0.90067c0.54818,0.23505,1.07039,0.50914,1.5926,0.79646c1.16186,0.62659,2.28451,1.33157,3.44637,1.95816c0.74403,0.39154,1.50129,0.77016,2.28452,1.09652c0.01307,0.01291,0.03904,0.01291,0.05211,0.02597c0,0.01307,0,0.01307,0,0.02613C61.46381,43.95551,61.47688,44.29493,61.47688,44.63436z"/><path fill="#9ac181" d="M43.12252,65.78237c-0.97908,0.14374-1.99736,0.22198-3.01548,0.22198c-11.78813,0-21.37015-9.58186-21.37015-21.37c0-0.33943,0.01307-0.67885,0.0392-1.01828c1.13572-1.1225,2.37598-2.17998,3.7858-3.05468c0.57447-0.3654,1.18799-0.69176,1.84071-0.97908c0.0392,0.22198,0.09131,0.46994,0.15649,0.7571c-0.02613,0.3917-0.03904,0.77032-0.03904,1.16202C24.52005,53.94213,32.63983,64.24205,43.12252,65.78237z"/><path fill="#badda4" d="M61.47688,44.63436c0,11.78813-9.58186,21.37-21.36984,21.37c-0.56157,0-1.12281-0.02598-1.68406-0.06518c-0.44396-0.0392-0.88777-0.09147-1.33157-0.15681c10.4827-1.54032,18.60247-11.84024,18.60247-24.28093c0-0.33942-0.01307-0.66578-0.0392-0.99215c1.16186,0.62659,2.28451,1.33157,3.44637,1.95816c0.74403,0.39154,1.50129,0.77016,2.28452,1.09652c0.01307,0.01291,0.03904,0.03904,0.05211,0.05211C61.46381,43.95551,61.47688,44.29493,61.47688,44.63436z"/><circle cx="29.532" cy="46.862" r="2" fill="#666"/><circle cx="37.55" cy="57.087" r="2" fill="#666"/><circle cx="50.188" cy="49.99" r="2" fill="#666"/><path fill="#fff" d="M50.81673 33.7874c.19727.22949.47754.34766.75781.34766.23145 0 .46387-.0791.65234-.24219.41895-.36035.46582-.99121.10547-1.41016-.22656-.2627-.45801-.51953-.69629-.77246-.37695-.40332-1.01172-.42188-1.41309-.04395-.40234.37793-.42285 1.01074-.04395 1.41308C50.39583 33.31084 50.6097 33.54619 50.81673 33.7874zM42.98372 28.17314c1.73438.69727 3.36523 1.63281 4.84863 2.78125.18262.14063.39746.20898.61133.20898.29883 0 .59473-.13379.79199-.3877.33789-.4375.25781-1.06543-.17871-1.40332-1.44922-1.12109-3.02832-2.05859-4.7002-2.79102v-4.50195c0-.55273-.44727-1-1-1s-1 .44727-1 1v5.16602C42.35677 27.65361 42.60481 28.0208 42.98372 28.17314z"/></svg>