<svg xmlns="http://www.w3.org/2000/svg" enable-background="new 0 0 68 68" viewBox="0 0 68 68"><path fill="#e2e2e2" d="M59.66992,65.99861H8.33008c-3.97009,0-6.32007-4.44-4.08008-7.71997l19.69995-28.95001V8.35866h20.08008v20.96997L63.75,58.27864C65.98999,61.55861,63.64001,65.99861,59.66992,65.99861z"/><path fill="#ededed" d="M59.66992,65.99861h-7.21997c3.96997,0,6.32007-4.44,4.08008-7.71997L36.81006,29.32863V8.35866h7.21997v20.96997L63.75,58.27864C65.98999,61.55861,63.64001,65.99861,59.66992,65.99861z"/><path fill="#d3d3d3" d="M11.46997,58.27864c-2.23999,3.27997,0.10999,7.71997,4.08008,7.71997H8.32996c-3.96997,0-6.31995-4.44-4.07996-7.71997l19.69995-28.95001V8.35866h7.21997v20.96997L11.46997,58.27864z"/><path fill="#a7d08c" d="M59.66992,65.99861H8.33008c-3.97009,0-6.32007-4.44-4.08008-7.71997l10.33008-15.17999c0.02991-0.01001,0.04993-0.01001,0.07983-0.01001c1.86011-0.12,3.71008,0.32001,5.52002,0.71002c4.97009,1.06995,10,1.90997,15.04004,2.51996c2.02002,0.25,4.1001,0.45001,6.1001,0.06c3.91992-0.77997,6.98999-3.70996,10.5-5.60999L63.75,58.27864C65.98999,61.55861,63.64001,65.99861,59.66992,65.99861z"/><path fill="#9ac181" d="M15.55005,65.99861H8.33008c-3.97009,0-6.32007-4.44-4.08008-7.71997l10.33008-15.17999c0.02991-0.01001,0.04993-0.01001,0.07983-0.01001c1.86011-0.12,3.71008,0.32001,5.52002,0.71002c0.33008,0.06995,0.66016,0.13995,1,0.20996l-9.70996,14.27002C9.22998,61.55861,11.58008,65.99861,15.55005,65.99861z"/><path fill="#d3d3d3" d="M46.98422,5.18084L46.98422,5.18084c0,1.75597-1.42349,3.17946-3.17945,3.17946H24.18135c-1.75596,0-3.17945-1.42349-3.17945-3.17946V5.18084c0-1.75596,1.42349-3.17946,3.17945-3.17946h19.62341C45.56073,2.00139,46.98422,3.42488,46.98422,5.18084z"/><path fill="#ededed" d="M46.98305,5.18138c0,0.58002-0.14996,1.12-0.41998,1.58997c-0.54999-0.94995-1.58002-1.58997-2.76001-1.58997h-19.62c-0.88,0-1.66998,0.35999-2.25,0.92999c-0.20001,0.19-0.37,0.41998-0.51001,0.65997c-0.27002-0.46997-0.41998-1.00995-0.41998-1.58997c0-0.88,0.34998-1.67999,0.92999-2.25s1.37-0.92999,2.25-0.92999h19.62C45.56306,2.00139,46.98305,3.42137,46.98305,5.18138z"/><path fill="#fff" d="M40.8201 49.23021c-1.79883.35645-3.73633.16406-5.56738-.06152-2.21582-.26855-4.44629-.58594-6.62891-.94434-.55469-.08789-1.05957.28027-1.14941.8252-.08887.5459.28027 1.05957.8252 1.14941 2.21094.36133 4.46973.68359 6.71094.95508 1.16699.14453 2.37695.27441 3.59961.27441.86328 0 1.73242-.06543 2.59668-.23535.54199-.10742.89453-.63281.78809-1.1748C41.88651 49.4763 41.35917 49.12572 40.8201 49.23021zM24.73807 47.53978l-.89355-.17188c-.54102-.10645-1.06641.24805-1.17285.79004-.10547.54199.24805 1.06738.79004 1.17285l.90527.17383c.0625.01172.125.01758.18652.01758.47168 0 .89063-.33398.98145-.81445C25.63749 48.16478 25.28104 47.64232 24.73807 47.53978z"/><path fill="#badda4" d="M59.66992,65.99861h-7.21997c3.96997,0,6.32007-4.44,4.08008-7.71997l-9.76001-14.32001c1.67993-1.04999,3.31006-2.25,5.05005-3.19L63.75,58.27864C65.98999,61.55861,63.64001,65.99861,59.66992,65.99861z"/></svg>