<svg xmlns="http://www.w3.org/2000/svg" enable-background="new 0 0 68 68" viewBox="0 0 68 68"><path fill="#a7d08c" d="M29.7962,66.0014H9.4538c-2.3217,0-4.2038-1.8821-4.2038-4.2038V6.2052c0-2.3217,1.88211-4.2038,4.2038-4.2038H29.7962C32.11789,2.0014,34,3.8835,34,6.2052v55.59239C34,64.11929,32.11789,66.0014,29.7962,66.0014z"/><path fill="#9ac181" d="M13.70327,65.9986h-4.25c-2.32007,0-4.20007-1.88-4.20007-4.20001V6.20862c0-2.33002,1.88-4.21002,4.20007-4.21002h4.25c-2.32007,0-4.20007,1.88001-4.20007,4.21002v55.58997C9.50319,64.1186,11.3832,65.9986,13.70327,65.9986z"/><path fill="#badda4" d="M34,6.20862v55.58997c0,2.32001-1.87988,4.20001-4.19995,4.20001h-6.57007c2.32007,0,4.21008-1.88,4.21008-4.20001V6.20862c0-2.33002-1.89001-4.21002-4.21008-4.21002h6.57007C32.12012,1.9986,34,3.87861,34,6.20862z"/><path fill="#fe9967" d="M58.5462,66.0014H38.2038c-2.3217,0-4.2038-1.8821-4.2038-4.2038V6.2052c0-2.3217,1.88211-4.2038,4.2038-4.2038H58.5462c2.3217,0,4.2038,1.88211,4.2038,4.2038v55.59239C62.75,64.11929,60.86789,66.0014,58.5462,66.0014z"/><path fill="#ef8759" d="M42.45327,65.9986h-4.25c-2.32007,0-4.20007-1.88-4.20007-4.20001V6.20862c0-2.33002,1.88-4.21002,4.20007-4.21002h4.25c-2.32007,0-4.20007,1.88001-4.20007,4.21002v55.58997C38.25319,64.1186,40.1332,65.9986,42.45327,65.9986z"/><path fill="#badda4" d="M18.68713,65.9986H16.3772c-2.32007,0-4.20007-1.88-4.20007-4.20001V6.20862c0-2.33002,1.88-4.21002,4.20007-4.21002h2.30994c-2.31995,0-4.20007,1.88001-4.20007,4.21002v55.58997C14.48706,64.1186,16.36719,65.9986,18.68713,65.9986z"/><path fill="#ffac88" d="M43.23708,61.79859V6.20862c0-2.33002,1.88013-4.21002,4.20007-4.21002h-2.30994c-2.32007,0-4.20007,1.88001-4.20007,4.21002v55.58997c0,2.32001,1.88,4.20001,4.20007,4.20001h2.30994C45.11721,65.9986,43.23708,64.1186,43.23708,61.79859z" opacity=".4"/><path fill="#ffac88" d="M62.7484,6.20862v55.58997c0,2.32001-1.87988,4.20001-4.19995,4.20001h-6.57007c2.32007,0,4.21008-1.88,4.21008-4.20001V6.20862c0-2.33002-1.89001-4.21002-4.21008-4.21002h6.57007C60.86852,1.9986,62.7484,3.87861,62.7484,6.20862z"/><rect width="14.896" height="30.043" x="40.927" y="8.23" fill="#ededed"/><rect width="7.123" height="30.043" x="48.7" y="8.23" fill="#fff" opacity=".5"/><rect width="14.896" height="30.043" x="12.177" y="8.23" fill="#ededed"/><rect width="7.123" height="30.043" x="19.95" y="8.23" fill="#fff" opacity=".5"/><path fill="#fff" d="M38.22792 43.77363c-.55273 0-1 .44727-1 1v9.67578c0 .55273.44727 1 1 1s1-.44727 1-1v-9.67578C39.22792 44.22089 38.78066 43.77363 38.22792 43.77363zM38.22792 39.81562c-.55273 0-1 .44727-1 1v.83301c0 .55273.44727 1 1 1s1-.44727 1-1v-.83301C39.22792 40.26289 38.78066 39.81562 38.22792 39.81562z"/><circle cx="19.625" cy="54.461" r="5.906" fill="#444"/><path fill="#666" d="M25.52847,54.51738c0.00011-0.01895,0.00286-0.03725,0.00286-0.05625c0-3.26199-2.64433-5.90633-5.90633-5.90633s-5.90633,2.64433-5.90633,5.90633c0,0.019,0.00275,0.0373,0.00286,0.05625H25.52847z"/><circle cx="48.375" cy="54.461" r="5.906" fill="#444"/><path fill="#666" d="M54.27849,54.51738c0.00011-0.01895,0.00286-0.03725,0.00286-0.05625c0-3.26199-2.64433-5.90633-5.90633-5.90633s-5.90633,2.64433-5.90633,5.90633c0,0.019,0.00275,0.0373,0.00286,0.05625H54.27849z"/></svg>