<svg xmlns="http://www.w3.org/2000/svg" enable-background="new 0 0 68 68" viewBox="0 0 68 68"><path fill="#444" d="M66,15.73649v47.39115c0,1.58549-1.28529,2.87078-2.87078,2.87078H4.87078C3.28529,65.99842,2,64.71313,2,63.12764V4.8692c0-1.58549,1.28529-2.87078,2.87078-2.87078H49.2853c0.60518,0,1.19276,0.20362,1.66817,0.57808l14.01876,11.04213C65.62122,14.12983,66,14.91036,66,15.73649z"/><path fill="#333" d="M13.02334,66.00162H4.87331c-1.58997,0-2.87-1.28998-2.87-2.87V4.87161c0-1.58997,1.28003-2.87,2.87-2.87h8.15002c-1.58002,0-2.87,1.28003-2.87,2.87v58.26001C10.15334,64.71164,11.44332,66.00162,13.02334,66.00162z"/><path fill="#666" d="M22.62331 66.00162h-4.13c-1.57996 0-2.87-1.28998-2.87-2.87V4.87161c0-1.58997 1.29004-2.87 2.87-2.87h4.13c-1.58997 0-2.87 1.28003-2.87 2.87v58.26001C19.75332 64.71164 21.03335 66.00162 22.62331 66.00162zM66 15.73166v47.39996c0 1.58002-1.28003 2.87-2.87 2.87h-8.15002c1.58002 0 2.87-1.28998 2.87-2.87V15.73166c0-.82001-.38-1.60004-1.02997-2.11005L42.79999 2.57162c-.47998-.37-1.06-.57001-1.66998-.57001h8.15997c.60004 0 1.19.20001 1.67004.57001l14.01996 11.04999C65.62 14.13162 66 14.91165 66 15.73166z"/><path fill="#e2e2e2" d="M46.55546,19.80563H12.03278c-1.03604,0-1.87592-0.83988-1.87592-1.87592V1.99842h38.27451v15.93129C48.43137,18.96575,47.5915,19.80563,46.55546,19.80563z"/><rect width="38.274" height="8.867" x="10.157" y="1.998" fill="#ededed"/><path fill="#e2e2e2" d="M56.58823,65.99842H11.41177V39.7023c0-1.03604,0.83988-1.87592,1.87592-1.87592h41.42464c1.03604,0,1.87592,0.83988,1.87592,1.87592V65.99842z"/><rect width="45.176" height="14.092" x="11.412" y="51.907" fill="#d3d3d3"/><path fill="#666" d="M41.11068 14.68399c.55273 0 1-.44727 1-1V7.3168c0-.55273-.44727-1-1-1s-1 .44727-1 1v6.36719C40.11068 14.23672 40.55794 14.68399 41.11068 14.68399zM49.2679 46.23087H18.73177c-.55273 0-1 .44727-1 1s.44727 1 1 1H49.2679c.55273 0 1-.44727 1-1S49.82064 46.23087 49.2679 46.23087zM49.2679 55.59317H18.73177c-.55273 0-1 .44727-1 1s.44727 1 1 1H49.2679c.55273 0 1-.44727 1-1S49.82064 55.59317 49.2679 55.59317z"/><path fill="#fff" d="M61.08333 23.85098c-.55273 0-1 .44727-1 1v9.15039c0 .55273.44727 1 1 1s1-.44727 1-1v-9.15039C62.08333 24.29825 61.63607 23.85098 61.08333 23.85098zM61.08333 36.90665c-.55273 0-1 .44727-1 1v.36328c0 .55273.44727 1 1 1s1-.44727 1-1v-.36328C62.08333 37.35391 61.63607 36.90665 61.08333 36.90665z"/></svg>