<svg xmlns="http://www.w3.org/2000/svg" enable-background="new 0 0 68 68" viewBox="0 0 68 68"><path fill="#feeb75" d="M63.05339,60.70597H4.94335c-1.62648,0-2.94501-1.31852-2.94501-2.94501V27.30754h64.00006v30.45342C65.99841,59.38745,64.67988,60.70597,63.05339,60.70597z"/><path fill="#feeb75" d="M66.00166,19.46588v7.84497h-64V10.23584c0-1.62648,1.31852-2.94501,2.94501-2.94501h16.1227c1.07989,0,2.07316,0.59103,2.58831,1.54012l3.33799,6.1498c0.51515,0.94909,1.50843,1.54012,2.58831,1.54012h33.47267C64.68314,16.52088,66.00166,17.8394,66.00166,19.46588z"/><path fill="#efd96a" d="M12.90319,60.70999h-7.9599c-1.63001,0-2.94-1.31995-2.94-2.94995V10.24002c0-1.63,1.32001-2.95001,2.94-2.95001h7.96991c-1.63989,0-2.95996,1.32001-2.95996,2.95001v47.52002C9.95324,59.39005,11.2733,60.70999,12.90319,60.70999z"/><path fill="#fff3ab" d="M22.36828 60.70999h-3.25c-1.63 0-2.93994-1.31995-2.93994-2.94995V10.24002c0-1.63 1.31995-2.95001 2.93994-2.95001h3.26001c-1.63 0-2.94995 1.32001-2.94995 2.95001v47.52002C19.42834 59.39005 20.74828 60.70999 22.36828 60.70999zM66.00166 27.31003v30.45001c0 1.63-1.31995 2.94995-2.94995 2.94995h-6.32996c1.62988 0 2.94995-1.31995 2.94995-2.94995V27.31003H66.00166zM66.00166 19.47v7.84003H59.6717V19.47c0-1.63-1.32007-2.95001-2.94995-2.95001h6.33984C64.68171 16.51999 66.00166 17.84 66.00166 19.47z"/><polygon fill="#efd96a" points="65.998 26.307 65.988 28.307 2.005 28.307 2.016 26.307"/><path fill="#fff" d="M60.99791 51.00003c-.55273 0-1 .44727-1 1v1.7627c0 .52051-.42285.94336-.94336.94336h-6.4043c-.55273 0-1 .44727-1 1s.44727 1 1 1h6.4043c1.62305 0 2.94336-1.32031 2.94336-2.94336v-1.7627C61.99791 51.4473 61.55065 51.00003 60.99791 51.00003zM48.48326 54.70609h-.875c-.55273 0-1 .44727-1 1s.44727 1 1 1h.875c.55273 0 1-.44727 1-1S49.036 54.70609 48.48326 54.70609z"/></svg>