<svg xmlns="http://www.w3.org/2000/svg" enable-background="new 0 0 68 68" viewBox="0 0 68 68"><path fill="#fe9967" d="M2,14.6115v38.78038c0,2.34721,1.90279,4.25,4.25,4.25h55.5c2.34721,0,4.25-1.90279,4.25-4.25V14.6115c0-2.34721-1.90279-4.25-4.25-4.25H6.25C3.90279,10.3615,2,12.26429,2,14.6115z"/><path fill="#ef8759" d="M13.61336,57.63815H6.25332c-2.34998,0-4.25-1.90002-4.25-4.25V14.60812c0-2.33997,1.90002-4.25,4.25-4.25h7.36005c-2.34003,0-4.25,1.91003-4.25,4.25v38.78003C9.36336,55.73813,11.27334,57.63815,13.61336,57.63815z"/><path fill="#ffac88" d="M23.03335 57.63815h-3.19c-2.35004 0-4.25-1.90002-4.25-4.25V14.60812c0-2.33997 1.89996-4.25 4.25-4.25h3.19c-2.35004 0-4.25 1.91003-4.25 4.25v38.78003C18.78335 55.73813 20.68331 57.63815 23.03335 57.63815zM66 14.60812v38.78003c0 2.34998-1.90002 4.25-4.25 4.25h-7.36005c2.34003 0 4.25-1.90002 4.25-4.25V14.60812c0-2.33997-1.90997-4.25-4.25-4.25H61.75C64.09998 10.35812 66 12.26816 66 14.60812z"/><rect width="50" height="33.28" x="9" y="17.361" fill="#ededed"/><rect width="24.958" height="33.28" x="9" y="17.361" fill="#e2e2e2"/><path fill="#fff" d="M43.49349 23.02817l.7168.00781c.00391 0 .00684 0 .01074 0 .54785 0 .99414-.44043 1-.98926.00586-.55176-.43652-1.00488-.98926-1.01074l-.7168-.00781c-.5625-.03223-1.00488.43652-1.01074.98926C42.49837 22.56918 42.94075 23.02231 43.49349 23.02817zM28.95736 23.035l10.52929.00684c.00098 0 .00098 0 .00098 0 .55176 0 1-.44727 1-.99902 0-.55273-.44727-1.00098-.99902-1.00098L28.95931 21.035c-.00098 0-.00098 0-.00098 0-.55176 0-1 .44727-1 .99902C27.95833 22.58676 28.4056 23.035 28.95736 23.035z"/><path fill="#666" d="M44.06331 39.60812c.55005.28003 1.15002.43005 1.78003.43005.46997 0 .88-.06 1.22998-.18005.34003-.12.66003-.27997.95001-.45996.21002-.14001.31-.33002.31-.56 0-.16003-.06-.31-.17999-.44-.20001-.22998-.5-.26001-.77002-.10999-.27997.13995-.51996.23999-.71997.31-.17999.06-.42004.08997-.71002.08997-.71002 0-1.27002-.20001-1.65997-.59998-.40002-.41003-.60004-.94-.60004-1.60004 0-.66998.20001-1.19995.60004-1.59998.38995-.40002.94995-.60999 1.65997-.60999.28003 0 .53003.02997.71002.08997.20001.06.44.17004.70996.31.28003.15002.58002.12.78003-.10999.12-.13.17999-.27997.17999-.44 0-.22998-.09998-.41998-.31-.56-.28998-.17999-.60999-.33997-.95001-.46002-.34998-.12-.76001-.17999-1.22998-.17999-.64001 0-1.22998.15002-1.78003.42999-.53998.29004-.97998.71002-1.31 1.24005-.32001.52997-.48999 1.16998-.48999 1.88995 0 .71002.16998 1.35004.48999 1.88C43.08333 38.90817 43.52333 39.31815 44.06331 39.60812zM22.13332 34.67813h6.31c.19 0 .34003-.06.46002-.17999.10999-.13.16998-.27997.16998-.45001 0-.17999-.06-.32996-.16998-.44995-.12-.12-.28003-.17999-.46002-.17999h-6.31c-.16998 0-.32001.06-.44.17999-.13.12-.19.26996-.19.44995 0 .18005.06.32001.19.45001C21.81331 34.61813 21.96334 34.67813 22.13332 34.67813zM52.24331 30.34817c-.16998.13-.39996.27997-.67999.45996-.32996.22003-.59998.41003-.81.57001-.20996.16003-.38995.35004-.53998.57001-.16003.22003-.23999.47003-.23999.73999 0 .14001.04999.26001.14001.35999.09998.09003.21997.13.35999.13h2.70996c.11005 0 .21002-.03998.30005-.12.07996-.07996.12-.17999.12-.29999s-.04004-.21997-.12-.29999c-.08002-.08002-.19-.12-.30005-.12h-2.21997c.06-.07001.12-.13.20001-.19.15997-.13.40997-.31.72998-.52002.35999-.23999.65997-.45001.89001-.63.22998-.17999.42999-.39996.59998-.64996.17999-.25.26001-.53003.26001-.84003 0-.29999-.07001-.57001-.22998-.81-.15002-.22998-.37-.40997-.63-.53998s-.56-.19-.87-.19c-.58002 0-1.12.12-1.62.37-.15002.08002-.22003.20996-.22003.37 0 .10999.04004.21002.10999.27997.12.12.31.15002.46002.07001.37-.15997.75-.23999 1.15002-.23999.35999 0 .62.07001.76996.20001.15002.13.22003.31.22003.53998 0 .14001-.04999.28003-.15002.41003C52.53334 30.10812 52.40334 30.23813 52.24331 30.34817zM22.13332 37.57816h6.31c.17999 0 .34003-.06.46002-.19.10999-.12.16998-.27002.16998-.44 0-.17999-.06-.33002-.16998-.45001-.12-.12-.28003-.17999-.46002-.17999h-6.31c-.16998 0-.32001.06-.44.17999-.13.12-.19.27002-.19.45001 0 .16998.06.32001.19.45001C21.81331 37.51816 21.96334 37.57816 22.13332 37.57816zM39.93331 33.31815c-.33997-.26001-.76996-.39001-1.27997-.39001-1.02002 0-1.81.41003-2.35999 1.20001-.16003-.29999-.39001-.56-.67999-.77997-.37006-.28003-.81006-.42004-1.32001-.42004-.57001 0-1.04004.12-1.39001.36005-.26001.16998-.48999.35999-.67999.58997v-.15997c0-.20001-.08002-.37-.22003-.51001-.27997-.28003-.73999-.28003-1.01001 0-.12994.14001-.19995.31-.19995.51001v5.54999c0 .19.07001.35999.19995.5.27002.27002.73004.27002 1.01001 0 .14001-.13.22003-.29999.22003-.5v-3.84998c.20996-.34003.45001-.62006.71997-.84003.26001-.21002.60004-.31 1.01001-.31.44 0 .75.10999.92999.33997.17999.24005.27002.63.27002 1.16003v3.5c0 .19.07001.35999.20001.5.26996.27002.72998.27002 1.01001 0 .13995-.13.21997-.29999.21997-.5v-3.84998c.21002-.34003.45001-.62006.71997-.83002.26001-.22003.61005-.32001 1.01001-.32001.44 0 .75.10999.92999.33997.18005.24005.27002.63.27002 1.16003v3.5c0 .19.07001.35999.20001.5.14001.14001.31.20001.5.20001.20001 0 .37-.06.51001-.20001.14001-.13.20996-.29999.20996-.5v-3.72998c0-.43005-.07996-.84003-.23999-1.24005C40.53334 33.89816 40.27333 33.56815 39.93331 33.31815zM14.27334 39.90817h5.17999c.19 0 .34998-.06.47998-.19.14001-.13.20001-.29004.20001-.48004s-.06-.34998-.19-.47998c-.14001-.13-.29999-.20001-.48999-.20001h-4.46002v-2.62h4c.18005 0 .35004-.07001.48004-.19.13-.13.20001-.28998.20001-.47998s-.07001-.34998-.20001-.47998c-.13-.14001-.29004-.20001-.48004-.20001h-4v-2.60999h4.46002c.19 0 .34998-.07001.47998-.19.14001-.13.20001-.29004.20001-.48004s-.06-.34998-.19-.47998-.29999-.20001-.48999-.20001h-5.17999c-.20001 0-.37.07001-.51001.21002-.13.14001-.20001.31-.20001.51001v7.84998c0 .20001.07001.37.20001.5C13.90334 39.83817 14.07332 39.90817 14.27334 39.90817z"/></svg>