<svg xmlns="http://www.w3.org/2000/svg" enable-background="new 0 0 68 68" viewBox="0 0 68 68"><path fill="#fe9967" d="M25.70251 60.46305c-.25586 0-.51172-.09766-.70703-.29297L7.83043 43.00505c-.39063-.39063-.39063-1.02344 0-1.41406.39063-.39063 1.02344-.39063 1.41406 0l17.16504 17.16504c.39063.39063.39063 1.02344 0 1.41406C26.21422 60.3654 25.95836 60.46305 25.70251 60.46305zM30.22301 55.94255c-.25586 0-.51172-.09766-.70703-.29297L12.35094 38.48552c-.39063-.39063-.39063-1.02344 0-1.41406s1.02344-.39063 1.41406 0l17.16504 17.16406c.39063.39063.39063 1.02344 0 1.41406C30.73473 55.84489 30.47887 55.94255 30.22301 55.94255zM33.53258 50.21305c-.25586 0-.51172-.09766-.70703-.29297L18.08043 35.17497c-.39063-.39063-.39063-1.02344 0-1.41406s1.02344-.39063 1.41406 0l14.74512 14.74512c.39063.39063.39063 1.02344 0 1.41406C34.0443 50.1154 33.78844 50.21305 33.53258 50.21305z"/><path fill="#a7d08c" d="M59.55504 26.79509c-.25586 0-.51172-.09766-.70703-.29297L41.4984 9.15251c-.39063-.39063-.39063-1.02344 0-1.41406.39063-.39063 1.02344-.39063 1.41406 0l17.34961 17.34961c.39063.39063.39063 1.02344 0 1.41406C60.06676 26.69743 59.8109 26.79509 59.55504 26.79509zM55.03551 31.31462c-.25586 0-.51172-.09766-.70703-.29297L36.97887 13.67204c-.39063-.39063-.39063-1.02344 0-1.41406s1.02344-.39063 1.41406 0l17.34961 17.34961c.39063.39063.39063 1.02344 0 1.41406C55.54723 31.21696 55.29137 31.31462 55.03551 31.31462zM49.29235 34.61149c-.25586 0-.51172-.09766-.70703-.29297L33.682 19.41521c-.39063-.39063-.39063-1.02344 0-1.41406s1.02344-.39063 1.41406 0l14.90332 14.90332c.39063.39063.39063 1.02344 0 1.41406C49.80407 34.51384 49.54821 34.61149 49.29235 34.61149z"/><path fill="#a7d08c" d="M66,22.65357c0-0.9866-0.40287-1.95502-1.10431-2.65742c-0.52918-0.52919-1.19712-0.88421-1.93014-1.02775c-2.02201-0.39904-4.00287,0.92057-4.41339,2.94067c-0.01149,0.05072-1.26986,5.58182-6.18469,8.42201c-4.1799,2.41627-9.96842,2.44689-17.20287,0.09187c-9.4134-3.06412-17.28899-2.79617-23.40765,0.79617C3.8555,35.8574,2.14067,44.25835,2.07177,44.61434C2.02392,44.85548,2,45.10238,2,45.34735c0,1.78947,1.27656,3.33876,3.03541,3.68325c0.98469,0.19426,1.98756-0.0067,2.82201-0.56651c0.83445-0.55981,1.40096-1.41053,1.59522-2.39617c0.01053-0.0488,1.25933-5.55502,6.18086-8.4c4.17895-2.41627,9.96747-2.44689,17.20192-0.09187c9.41339,3.06412,17.28899,2.79617,23.40765-0.79617c7.90144-4.63636,9.61627-13.03924,9.68517-13.39522C65.97607,23.14448,66,22.89759,66,22.65357z"/><path fill="#9ac181" d="M52.56769,30.24205c3.67374-2.12217,5.34602-5.63782,6.00254-7.47613c-0.00034,0.00152-0.00093,0.00279-0.00119,0.0044c-0.02098,0.11774-0.97092,7.24996-6.05684,10.18783c-4.28205,2.48046-10.17862,2.51514-17.52339,0.13161c-9.29862-3.03481-17.06597-2.77852-23.09414,0.75532c-6.34704,3.72771-8.63347,9.97765-9.28492,12.26424c-0.22169-0.56814-0.28403-1.1987-0.15242-1.84304c0.06242-0.35339,1.77377-8.60581,9.49274-13.13738c6.02817-3.53384,13.79552-3.79013,23.09422-0.75523C42.38908,32.75719,48.28564,32.72251,52.56769,30.24205z"/><path fill="#fe9967" d="M22.65357,66c-0.9866,0-1.95502-0.40287-2.65742-1.10431c-0.52919-0.52918-0.88421-1.19712-1.02775-1.93014c-0.39904-2.02201,0.92057-4.00287,2.94067-4.41339c0.05072-0.01149,5.58182-1.26986,8.42201-6.18469c2.41627-4.1799,2.44689-9.96842,0.09187-17.20287c-3.06412-9.4134-2.79617-17.28899,0.79617-23.40765C35.8574,3.8555,44.25835,2.14067,44.61434,2.07177C44.85548,2.02392,45.10238,2,45.34735,2c1.78947,0,3.33876,1.27656,3.68325,3.03541c0.19426,0.98469-0.0067,1.98756-0.56651,2.82201c-0.55981,0.83445-1.41053,1.40096-2.39617,1.59522c-0.0488,0.01053-5.55502,1.25933-8.4,6.18086c-2.41627,4.17895-2.44689,9.96747-0.09187,17.20192c3.06412,9.41339,2.79617,17.28899-0.79617,23.40765c-4.63636,7.90144-13.03924,9.61627-13.39522,9.68517C23.14448,65.97607,22.89759,66,22.65357,66z"/><path fill="#ef8759" d="M30.24205,52.56769c-2.12217,3.67374-5.63782,5.34602-7.47613,6.00254c0.00152-0.00034,0.00279-0.00093,0.0044-0.00119c0.11774-0.02098,7.24996-0.97092,10.18783-6.05684c2.48046-4.28205,2.51514-10.17862,0.13161-17.52339c-3.03481-9.29862-2.77852-17.06597,0.75532-23.09414c3.72771-6.34704,9.97765-8.63347,12.26424-9.28492c-0.56814-0.22169-1.1987-0.28403-1.84304-0.15242c-0.35339,0.06242-8.60581,1.77377-13.13738,9.49274c-3.53384,6.02817-3.79013,13.79552-0.75523,23.09422C32.75719,42.38908,32.72251,48.28564,30.24205,52.56769z"/><path fill="#fff" d="M9.18374 37.97408c-.41309-.36719-1.0459-.33008-1.41211.08398-.16016.18164-.31641.3623-.46777.54395-.35352.4248-.2959 1.05566.12891 1.4082.1875.15527.41406.23145.63867.23145.28711 0 .57227-.12305.76953-.36035.1377-.16602.28027-.33105.42676-.49512C9.63394 38.97212 9.59683 38.34029 9.18374 37.97408zM22.0773 33.15962c.5498-.0498.95508-.53711.90527-1.08691-.05078-.54981-.51953-.94922-1.08691-.90528-3.40137.30957-6.51074 1.28028-9.24219 2.88379-.68848.4043-1.35938.85254-1.99316 1.33496-.43945.33398-.52441.96191-.19043 1.40137.19629.25879.49512.39453.79688.39453.21094 0 .42383-.06641.60449-.2041.57031-.43359 1.17383-.83789 1.79395-1.20215C16.14077 34.32271 18.97085 33.44185 22.0773 33.15962z"/></svg>