<svg xmlns="http://www.w3.org/2000/svg" enable-background="new 0 0 68 68" viewBox="0 0 68 68"><polygon fill="#333" points="56.533 43.827 54.926 45.262 19.921 6.503 21.507 5.047"/><polyline fill="#333" points="41.256 54.637 41.256 60.3 35.051 60.3 35.051 54.648"/><path fill="#444" d="M38.10557 54.80672c-6.4312 0-12.659-2.09324-17.87197-6.06467-6.29137-4.79241-10.33801-11.73951-11.39522-19.5616C7.47078 19.05854 11.35111 9.086 19.2177 2.50438c.91738-.7659 2.2871-.64725 3.05617.27225.76907.91844.64725 2.2871-.27225 3.05617-6.71722 5.61869-10.02975 14.13041-8.86236 22.76714.90043 6.67273 4.35491 12.60074 9.72466 16.69081 5.36763 4.09114 12.0001 5.84751 18.66965 4.94496 5.40471-.72988 10.32-3.12714 14.21304-6.93226.857-.83687 2.22989-.82098 3.06783.03602.83687.85594.82098 2.22989-.03602 3.06782-4.56466 4.46084-10.32742 7.27231-16.66433 8.12931C40.77403 54.71667 39.43503 54.80672 38.10557 54.80672zM45.56948 60.30503H30.74029c-2.81197 0-5.09152 2.27955-5.09152 5.09151v.60345H50.661v-.60345C50.661 62.58458 48.38144 60.30503 45.56948 60.30503z"/><path fill="#a7d08c" d="M45.26284 34.16187c-.29663-.34961-.63568-.68866-1.00647-.98529-1.34546-1.10181-3.37958-.63568-4.08936.94287-.24371.5509-.6145 1.04883-1.01709 1.48322-.88989.93231-1.9917 1.72687-2.5744 2.88165-.5509 1.10181-.52972 2.47906.04236 3.55969.37366.69171 2.08984 2.42145 3.60822 3.63129.22852-.02319.45453-.02643.68384-.05743 4.24847-.57391 8.01569-2.4082 10.98151-5.07208-1.19263-.39844-2.30469-1.00269-3.21722-1.86017C47.29696 37.38251 46.4706 35.61329 45.26284 34.16187zM46.96029 6.63599c-.94537.10773-1.82544.35339-2.37549 1.09308-.95349 1.28192-.20129 3.13593-.61444 4.67212-.23309.84753-.79462 1.54675-1.1972 2.32013-.41315.784-.63562 1.75867-.16949 2.50025.43439.69922 1.34546.94287 2.16125.91113.81573-.0318 1.61035-.27545 2.42609-.31787.97467-.05292 2.00232.16956 2.87103-.26483 1.03827-.52972 1.52557-1.89636 2.638-2.25659 1.17596-.38141 2.33075.54034 3.22064 1.38788.57532.54895 1.15839 1.11639 1.65912 1.73492C55.73726 13.141 51.84047 8.95356 46.96029 6.63599zM24.58278 35.08356c1.3349-1.3667 3.09351-2.29895 4.96869-2.638.57214-.10596 1.16541-.15894 1.64215-.47675.47675-.30725.784-.99585.45557-1.4726-.15894-.24365-.44501-.38141-.6145-.61444-.28601-.42383-.10596-1.03827.25427-1.40906s.86871-.56152 1.3349-.784c1.34546-.64624 2.55322-1.68451 3.1571-3.04053.61444-1.3667.54028-3.07239-.40259-4.23773-.52972-.66748-1.28192-1.11243-2.0235-1.53619-1.13361-.65686-2.26721-1.32428-3.40082-1.98114-.60382-.34961-1.21832-.70978-1.70563-1.21832-.32843-.34961-.59332-.76282-.79462-1.19714-.42377-.92169-.58264-1.95996-.54028-2.97699.0318-.83698.20129-1.73749-.19073-2.48969-.11987-.22943-.28607-.40808-.47003-.5658-6.03436 4.28839-9.55176 11.68817-8.49188 19.53369.43848 3.24591 1.6297 6.19806 3.3468 8.73999.85181-.07837 1.51459-.16364 1.71643-.22632C23.54452 36.27009 24.05306 35.63447 24.58278 35.08356z"/><path fill="#e2e2e2" d="M55.92067,16.68128c-0.88989-0.84754-2.04468-1.76929-3.22064-1.38788c-1.11243,0.36023-1.59973,1.72687-2.638,2.25659c-0.86871,0.43439-1.89636,0.21191-2.87103,0.26483c-0.81573,0.04242-1.61035,0.28607-2.42609,0.31787c-0.8158,0.03174-1.72687-0.21191-2.16125-0.91113c-0.46613-0.74158-0.24365-1.71625,0.16949-2.50025c0.40259-0.77338,0.96411-1.4726,1.1972-2.32013c0.41315-1.53619-0.33905-3.3902,0.61444-4.67212c0.55005-0.73969,1.43011-0.98535,2.37549-1.09308C43.48,4.98328,39.50264,4.27558,35.3998,4.82984c-3.41778,0.46173-6.51825,1.74713-9.14703,3.61536c0.18396,0.15771,0.35016,0.33636,0.47003,0.5658c0.39203,0.7522,0.22253,1.65271,0.19073,2.48969c-0.04236,1.01703,0.11652,2.0553,0.54028,2.97699c0.20129,0.43433,0.46619,0.84753,0.79462,1.19714c0.4873,0.50855,1.10181,0.86871,1.70563,1.21832c1.13361,0.65686,2.26721,1.32428,3.40082,1.98114c0.74158,0.42377,1.49377,0.86871,2.0235,1.53619c0.94287,1.16534,1.01703,2.87103,0.40259,4.23773c-0.60388,1.35602-1.81165,2.39429-3.1571,3.04053c-0.46619,0.22247-0.97467,0.41321-1.3349,0.784s-0.54028,0.98523-0.25427,1.40906c0.16949,0.23303,0.45557,0.37079,0.6145,0.61444c0.32843,0.47675,0.02118,1.16534-0.45557,1.4726c-0.47675,0.31781-1.07001,0.37079-1.64215,0.47675c-1.87518,0.33905-3.63379,1.2713-4.96869,2.638c-0.52972,0.5509-1.03827,1.18652-1.75867,1.409c-0.20184,0.06268-0.86462,0.14795-1.71643,0.22632c4.12,6.09906,11.35791,9.74506,19.11841,8.95642c-1.51837-1.20984-3.23456-2.93958-3.60822-3.63129c-0.57208-1.08063-0.59326-2.45789-0.04236-3.55969c0.5827-1.15479,1.68451-1.94934,2.5744-2.88165c0.40259-0.43439,0.77338-0.93231,1.01709-1.48322c0.70978-1.57855,2.7439-2.04468,4.08936-0.94287c0.37079,0.29663,0.70984,0.63568,1.00647,0.98529c1.20776,1.45142,2.03412,3.22064,3.41138,4.52374c0.91254,0.85748,2.0246,1.46173,3.21722,1.86017c4.89703-4.39838,7.6051-11.06219,6.65747-18.07703c-0.19012-1.40735-0.51837-2.76215-0.96912-4.05255C57.07906,17.79768,56.49599,17.23023,55.92067,16.68128z"/><path fill="#9ac181" d="M23.64333,27.97718c0.29999,2.24005,0.96002,4.33002,1.90997,6.25c-0.33997,0.26001-0.66998,0.55005-0.96997,0.86005c-0.53003,0.54999-1.03998,1.17999-1.76001,1.40997c-0.20001,0.06-0.85999,0.14001-1.71997,0.22003c-1.71002-2.54004-2.90002-5.49005-3.34003-8.74005c-1.06-7.83997,2.46002-15.23999,8.48999-19.52997c0.17999,0.15997,0.35004,0.33002,0.47003,0.56c0.39001,0.76001,0.21997,1.65997,0.19,2.48999c-0.03003,0.67999,0.03998,1.37,0.20996,2.02002C24.29336,17.58723,22.92336,22.6872,23.64333,27.97718z"/><path fill="#d3d3d3" d="M41.06331 4.86719c-3.32996.47003-6.34998 1.75-8.92999 3.58002-1.95996 1.39001-3.65997 3.10999-5.01001 5.07001-.16998-.65002-.23999-1.34003-.20996-2.02002.02997-.83002.20001-1.72998-.19-2.48999-.12-.22998-.29004-.40002-.47003-.56 2.63-1.87 5.73004-3.15997 9.15002-3.62C37.33333 4.56721 39.23336 4.58723 41.06331 4.86719zM40.22335 45.67719c-7.76001.79004-15-2.85999-19.11999-8.95996.85999-.08002 1.51996-.16003 1.71997-.22003.72003-.22998 1.22998-.85999 1.76001-1.40997.29999-.31.63-.60004.96997-.86005.41003.87006.90002 1.70001 1.43005 2.49005 2.97998 4.40997 7.58996 7.53998 12.83996 8.63995C39.96334 45.46723 40.09334 45.57722 40.22335 45.67719z"/><path fill="none" d="M24.58269,35.08356c1.3349-1.3667,3.09351-2.29895,4.96869-2.638c0.57214-0.10596,1.16541-0.15894,1.64215-0.47675c0.47675-0.30725,0.784-0.99585,0.45557-1.4726c-0.15894-0.24365-0.44501-0.38141-0.6145-0.61444c-0.28601-0.42383-0.10596-1.03827,0.25427-1.40906s0.86871-0.56152,1.3349-0.784c1.34546-0.64624,2.55322-1.68451,3.1571-3.04053c0.61444-1.3667,0.54028-3.07239-0.40259-4.23773c-0.52972-0.66748-1.28192-1.11243-2.0235-1.53619c-1.13361-0.65686-2.26721-1.32428-3.40082-1.98114c-0.60382-0.34961-1.21832-0.70978-1.70563-1.21832c-0.32843-0.34961-0.59332-0.76282-0.79462-1.19714c-0.42377-0.92169-0.58264-1.95996-0.54028-2.97699c0.0318-0.83698,0.20129-1.73749-0.19073-2.48969c-0.11987-0.22943-0.28607-0.40808-0.47003-0.5658c-6.03436,4.28839-9.55176,11.68817-8.49188,19.53369c0.43848,3.24591,1.6297,6.19806,3.3468,8.73999c0.85181-0.07837,1.51459-0.16364,1.71643-0.22632C23.54442,36.27009,24.05296,35.63447,24.58269,35.08356z"/><path fill="none" d="M55.92058,16.68128c-0.88989-0.84754-2.04468-1.76929-3.22064-1.38788c-1.11243,0.36023-1.59973,1.72687-2.638,2.25659c-0.86871,0.43439-1.89636,0.21191-2.87103,0.26483c-0.81573,0.04242-1.61035,0.28607-2.42609,0.31787c-0.8158,0.03174-1.72687-0.21191-2.16125-0.91113c-0.46613-0.74158-0.24365-1.71625,0.16949-2.50025c0.40259-0.77338,0.96411-1.4726,1.1972-2.32013c0.41315-1.53619-0.33905-3.3902,0.61444-4.67212c0.55005-0.73969,1.43011-0.98535,2.37549-1.09308C43.4799,4.98328,39.50255,4.27558,35.3997,4.82984c-3.41779,0.46173-6.51825,1.74713-9.14703,3.61536c0.18396,0.15771,0.35016,0.33636,0.47003,0.5658c0.39203,0.7522,0.22253,1.65271,0.19073,2.48969c-0.04236,1.01703,0.11652,2.0553,0.54028,2.97699c0.20129,0.43433,0.46619,0.84753,0.79462,1.19714c0.4873,0.50855,1.10181,0.86871,1.70563,1.21832c1.13361,0.65686,2.26721,1.32428,3.40082,1.98114c0.74158,0.42377,1.49377,0.86871,2.0235,1.53619c0.94287,1.16534,1.01703,2.87103,0.40259,4.23773c-0.60388,1.35602-1.81165,2.39429-3.1571,3.04053c-0.46619,0.22247-0.97467,0.41321-1.3349,0.784s-0.54028,0.98523-0.25427,1.40906c0.16949,0.23303,0.45557,0.37079,0.6145,0.61444c0.32843,0.47675,0.02118,1.16534-0.45557,1.4726c-0.47675,0.31781-1.07001,0.37079-1.64215,0.47675c-1.87518,0.33905-3.63379,1.2713-4.96869,2.638c-0.52972,0.5509-1.03827,1.18652-1.75867,1.409c-0.20184,0.06268-0.86462,0.14795-1.71643,0.22632c4.12,6.09906,11.35791,9.74506,19.11841,8.95642c-1.51837-1.20984-3.23456-2.93958-3.60822-3.63129c-0.57208-1.08063-0.59326-2.45789-0.04236-3.55969c0.5827-1.15479,1.68451-1.94934,2.5744-2.88165c0.40259-0.43439,0.77338-0.93231,1.01709-1.48322c0.70978-1.57855,2.7439-2.04468,4.08936-0.94287c0.37079,0.29663,0.70984,0.63568,1.00647,0.98529c1.20776,1.45142,2.03412,3.22064,3.41138,4.52374c0.91254,0.85748,2.0246,1.46173,3.21722,1.86017c4.89703-4.39838,7.6051-11.06219,6.65747-18.07703c-0.19012-1.40735-0.51837-2.76215-0.96912-4.05255C57.07896,17.79768,56.4959,17.23023,55.92058,16.68128z"/><path fill="none" d="M24.58269,35.08356c1.3349-1.3667,3.09351-2.29895,4.96869-2.638c0.57214-0.10596,1.16541-0.15894,1.64215-0.47675c0.47675-0.30725,0.784-0.99585,0.45557-1.4726c-0.15894-0.24365-0.44501-0.38141-0.6145-0.61444c-0.28601-0.42383-0.10596-1.03827,0.25427-1.40906s0.86871-0.56152,1.3349-0.784c1.34546-0.64624,2.55322-1.68451,3.1571-3.04053c0.61444-1.3667,0.54028-3.07239-0.40259-4.23773c-0.52972-0.66748-1.28192-1.11243-2.0235-1.53619c-1.13361-0.65686-2.26721-1.32428-3.40082-1.98114c-0.60382-0.34961-1.21832-0.70978-1.70563-1.21832c-0.32843-0.34961-0.59332-0.76282-0.79462-1.19714c-0.42377-0.92169-0.58264-1.95996-0.54028-2.97699c0.0318-0.83698,0.20129-1.73749-0.19073-2.48969c-0.11987-0.22943-0.28607-0.40808-0.47003-0.5658c-6.03436,4.28839-9.55176,11.68817-8.49188,19.53369c0.43848,3.24591,1.6297,6.19806,3.3468,8.73999c0.85181-0.07837,1.51459-0.16364,1.71643-0.22632C23.54442,36.27009,24.05296,35.63447,24.58269,35.08356z"/><path fill="none" d="M55.92058,16.68128c-0.88989-0.84754-2.04468-1.76929-3.22064-1.38788c-1.11243,0.36023-1.59973,1.72687-2.638,2.25659c-0.86871,0.43439-1.89636,0.21191-2.87103,0.26483c-0.81573,0.04242-1.61035,0.28607-2.42609,0.31787c-0.8158,0.03174-1.72687-0.21191-2.16125-0.91113c-0.46613-0.74158-0.24365-1.71625,0.16949-2.50025c0.40259-0.77338,0.96411-1.4726,1.1972-2.32013c0.41315-1.53619-0.33905-3.3902,0.61444-4.67212c0.55005-0.73969,1.43011-0.98535,2.37549-1.09308C43.4799,4.98328,39.50255,4.27558,35.3997,4.82984c-3.41779,0.46173-6.51825,1.74713-9.14703,3.61536c0.18396,0.15771,0.35016,0.33636,0.47003,0.5658c0.39203,0.7522,0.22253,1.65271,0.19073,2.48969c-0.04236,1.01703,0.11652,2.0553,0.54028,2.97699c0.20129,0.43433,0.46619,0.84753,0.79462,1.19714c0.4873,0.50855,1.10181,0.86871,1.70563,1.21832c1.13361,0.65686,2.26721,1.32428,3.40082,1.98114c0.74158,0.42377,1.49377,0.86871,2.0235,1.53619c0.94287,1.16534,1.01703,2.87103,0.40259,4.23773c-0.60388,1.35602-1.81165,2.39429-3.1571,3.04053c-0.46619,0.22247-0.97467,0.41321-1.3349,0.784s-0.54028,0.98523-0.25427,1.40906c0.16949,0.23303,0.45557,0.37079,0.6145,0.61444c0.32843,0.47675,0.02118,1.16534-0.45557,1.4726c-0.47675,0.31781-1.07001,0.37079-1.64215,0.47675c-1.87518,0.33905-3.63379,1.2713-4.96869,2.638c-0.52972,0.5509-1.03827,1.18652-1.75867,1.409c-0.20184,0.06268-0.86462,0.14795-1.71643,0.22632c4.12,6.09906,11.35791,9.74506,19.11841,8.95642c-1.51837-1.20984-3.23456-2.93958-3.60822-3.63129c-0.57208-1.08063-0.59326-2.45789-0.04236-3.55969c0.5827-1.15479,1.68451-1.94934,2.5744-2.88165c0.40259-0.43439,0.77338-0.93231,1.01709-1.48322c0.70978-1.57855,2.7439-2.04468,4.08936-0.94287c0.37079,0.29663,0.70984,0.63568,1.00647,0.98529c1.20776,1.45142,2.03412,3.22064,3.41138,4.52374c0.91254,0.85748,2.0246,1.46173,3.21722,1.86017c4.89703-4.39838,7.6051-11.06219,6.65747-18.07703c-0.19012-1.40735-0.51837-2.76215-0.96912-4.05255C57.07896,17.79768,56.4959,17.23023,55.92058,16.68128z"/><path fill="#ededed" d="M46.96334 6.63721c-.95001.10999-1.83002.34998-2.38 1.08997-.22998.30005-.35999.63-.42999.99005-1.08002-.80005-2.23999-1.5-3.46002-2.08002-1.77997-.84998-3.69-1.44-5.69-1.73999.13-.03003.27002-.04999.40002-.07001C39.50331 4.27723 43.48336 4.98719 46.96334 6.63721zM51.89333 40.54719c-1.19-.39996-2.31-1-3.21997-1.85999-.23004-.21997-.45001-.45001-.65002-.70001 3.34998-4.22998 5.03998-9.75 4.26001-15.51996-.19-1.41003-.52002-2.76001-.97003-4.05005-.16998-.47998-.34998-.94-.56-1.39996.63-.62 1.11005-1.45001 1.95001-1.72003 1.16998-.38995 2.33002.54004 3.22003 1.38001.56995.54999 1.15997 1.12 1.65997 1.73999.45001 1.29004.78003 2.64001.96997 4.05005C59.49331 29.48719 56.79335 36.14722 51.89333 40.54719z"/><path fill="#badda4" d="M57.58333 18.41718c-.5-.62-1.09003-1.19-1.65997-1.73999-.89001-.83997-2.05005-1.76996-3.22003-1.38001-.83997.27002-1.32001 1.10004-1.95001 1.72003-1.44-3.35004-3.75-6.19-6.59998-8.29999.07001-.36005.20001-.69.42999-.99005.54999-.73999 1.42999-.97998 2.38-1.08997C51.84334 8.95722 55.73336 13.13721 57.58333 18.41718zM51.89333 40.54719c-2.96997 2.66003-6.73999 4.5-10.97998 5.07001-.23004.03003-.46002.03003-.69.06-.42999-.33997-.87-.71997-1.29004-1.10999 2.51001-.91998 4.77002-2.29999 6.69-4.02002.87-.77997 1.67999-1.63995 2.40002-2.56.20001.25.41998.48004.65002.70001C49.58333 39.54719 50.70333 40.14722 51.89333 40.54719z"/><path fill="#666" d="M45.56948,60.305h-7.11115v5.69501h12.20264v-0.60345C50.66097,62.58454,48.38143,60.305,45.56948,60.305z"/></svg>