<svg xmlns="http://www.w3.org/2000/svg" enable-background="new 0 0 68 68" viewBox="0 0 68 68"><path fill="#444" d="M41.45227 24.74258l-.00002.01272c-3.49638 2.5352-3.76446 6.4901-3.76446 10.93939 0 .13942 0 .27883.01277.41825-.03832-.26615-.6096-4.90501-3.70059-4.90561-3.1938-.00062-3.70044 4.91829-3.70044 4.91829l-.01277-.03806c.01277-.12673.01277-.26615.01277-.39288 0-4.44929-.2553-8.40419-3.73891-10.9267l-.01277-.02541C31.516 25.67009 36.48413 25.67009 41.45227 24.74258zM57.20315 24.74258l7.63483 1.37883c.68993.1246 1.18419.73618 1.16125 1.43689l-.14224 4.34528c-.02331.71202-.57297 1.29535-1.28234 1.36092l-2.83953.26245L57.20315 24.74258zM10.79685 24.74258l-7.63484 1.37883c-.68992.1246-1.18419.73618-1.16125 1.43689l.14224 4.34528c.02331.71202.57296 1.29535 1.28234 1.36092l2.83953.26245L10.79685 24.74258z"/><path fill="#e2e2e2" d="M31.30036,34.00223c0,5.95996-5.7301,10.77991-12.79004,10.77991c-7.07007,0-12.80005-4.04993-12.80005-10.77991c0-5.96008,0.56006-10.78003,12.80005-10.78003C30.7403,23.2222,31.30036,28.04214,31.30036,34.00223z"/><ellipse cx="49.49" cy="34.002" fill="#e2e2e2" rx="12.8" ry="10.78"/><path fill="#ededed" d="M62.29035,34.00223c0,6.72998-5.72998,10.77991-12.80005,10.77991c-0.87,0-1.70996-0.06995-2.53003-0.20996c5.77002-0.8999,10.09009-4.72998,10.09009-10.56995c0-5.5-0.4801-10.03003-10.18005-10.69006c0.80994-0.05994,1.68005-0.08997,2.62-0.08997C61.73029,23.2222,62.29035,28.04214,62.29035,34.00223z"/><path fill="#d3d3d3" d="M21.12657,44.55499c-0.84009,0.15002-1.71997,0.22998-2.62,0.22998c-7.06995,0-12.79993-4.05994-12.79993-10.78003c0-5.95996,0.55994-10.78992,12.79993-10.78992c0.97998,0,1.88,0.03003,2.71997,0.08997c-9.60998,0.69006-10.07996,5.21997-10.07996,10.69995C11.14659,39.80499,15.41661,43.62494,21.12657,44.55499z"/><path fill="#ededed" d="M23.31822,43.95746c-3.99353-1.64856-6.71167-5.0033-6.71167-9.62256c0-4.95007,0.4115-9.11255,7.5647-10.3855c-0.18872-0.0658-0.375-0.13501-0.55151-0.21558c-8.68799,0.91504-9.16308,5.30493-9.16308,10.60107c0,5.11682,3.32617,8.68481,8.03223,10.09924C22.74937,44.258,23.02305,44.09589,23.31822,43.95746z"/><path fill="#fff" d="M57.83921 35.17499c-.5166-.19434-1.09277.07227-1.28516.58984-.96973 2.61328-4.13477 3.6123-6.77441 3.67578-.55176.01367-.98828.47168-.97559 1.02441.01367.54395.45801.97559 1 .97559.00781 0 .01563 0 .02441 0 4.20313-.10156 7.49902-2.00977 8.60059-4.98047C58.62144 35.94257 58.35679 35.36737 57.83921 35.17499zM46.72203 39.04022c-.23047-.06934-.45605-.14844-.6748-.23535-.5127-.20215-1.09375.04688-1.29785.56152-.20313.51367.04785 1.09473.56152 1.29785.26953.10645.5459.20313.8291.29004.09668.0293.19531.04297.29102.04297.42871 0 .8252-.27734.95703-.70898C47.5482 39.75995 47.25035 39.20135 46.72203 39.04022z"/></svg>