<svg xmlns="http://www.w3.org/2000/svg" enable-background="new 0 0 68 68" viewBox="0 0 68 68"><path fill="#444" d="M2.22021,45.24477c-0.41113,0-0.79688-0.25586-0.94238-0.66504c-1.14941-3.23535,1.33887-7.43848,7.00684-11.83496c5.38184-4.17383,13.07422-8.15234,21.66016-11.2041c16.08496-5.71484,34.23828-7.36133,36.77734-0.21777c0.18457,0.52051-0.08691,1.0918-0.60742,1.27734c-0.51953,0.18359-1.09277-0.08789-1.27734-0.60742c-1.60059-4.50488-16.05078-5.02539-34.22266,1.43262c-8.3916,2.98145-15.88672,6.85254-21.10449,10.89941c-4.85938,3.76953-7.17285,7.2627-6.34766,9.58496c0.18457,0.52051-0.08691,1.0918-0.60742,1.27734C2.44482,45.22621,2.33154,45.24477,2.22021,45.24477z"/><path fill="#a7d08c" d="M36.85283 50.25998c-.12668-.53811-.30471-1.08815-.54008-1.61006-.84013-1.92114-3.27985-2.53663-4.90796-1.23116-.56391.45779-1.23519.78898-1.90576 1.03451-1.46695.51279-3.08585.76142-4.34503 1.68161-1.19597.88076-1.12504 4.82344-.15854 6.95543.25808.10047.50252.22099.76574.3135 4.87638 1.7146 9.92751 1.81192 14.57332.57887-1.06191-1.0821-1.92441-2.34097-2.43375-3.76227C37.13694 52.0657 37.35331 52.48095 36.85283 50.25998zM53.64366 18.86894c-1.07413-.40299-2.15382-.62204-3.15021-.12962-1.72704.85327-1.93656 3.25656-3.22294 4.67929-.71524.7821-1.70175 1.22478-2.55829 1.83428-.87371.6151-1.6473 1.53954-1.55367 2.59148.08279.98905.92732 1.75049 1.82064 2.16398.89329.41339 1.88013.58772 2.77924.98971 1.07552.47791 2.05684 1.28057 3.22787 1.29077 1.40539.00086 2.67837-1.19913 4.0704-.97561 1.47186.23565 2.20604 1.85886 2.69653 3.25706.31654.90503.63126 1.83417.82955 2.77299C59.49858 30.6685 57.61198 24.03465 53.64366 18.86894zM14.01034 37.13588c2.18306-.73505 4.5827-.77119 6.78207-.10645.67243.20013 1.33847.46872 2.02471.38905.68044-.06834 1.38811-.63911 1.29703-1.33117-.03697-.3488-.26855-.65365-.32269-.99685-.07456-.61197.45585-1.1729 1.04605-1.37338.59019-.20048 1.24079-.1263 1.86338-.10941 1.79914.04429 3.66551-.40788 5.05783-1.53251 1.40952-1.13031 2.26567-3.00237 1.89266-4.77086-.20256-1.00728-.76608-1.89768-1.32981-2.75952-.85677-1.32718-1.70774-2.6657-2.56451-3.99288-.45651-.70664-.9187-1.43048-1.16291-2.24384-.16083-.55555-.21854-1.14453-.19639-1.7213.05067-1.22209.4497-2.42403 1.05315-3.49276.49333-.8812 1.16935-1.75508 1.16111-2.77778-.00283-.3121-.08327-.5951-.19426-.86536-8.83171 1.2938-16.66795 7.30911-19.8342 16.31419-1.30999 3.72564-1.6506 7.54885-1.20154 11.22012.95757.38317 1.71596.65524 1.96707.69868C12.24462 37.84021 13.13935 37.43675 14.01034 37.13588z"/><path fill="#e2e2e2" d="M57.75323,34.57027c-0.49049-1.3982-1.22467-3.02141-2.69653-3.25706c-1.39202-0.22353-2.665,0.97646-4.0704,0.97561c-1.17104-0.0102-2.15236-0.81286-3.22787-1.29077c-0.89911-0.40198-1.88595-0.57632-2.77924-0.98971c-0.89332-0.41349-1.73785-1.17493-1.82064-2.16398c-0.09363-1.05195,0.67997-1.97638,1.55367-2.59148c0.85654-0.6095,1.84305-1.05217,2.55829-1.83428c1.28638-1.42273,1.4959-3.82601,3.22294-4.67929c0.99639-0.49242,2.07608-0.27337,3.15021,0.12962c-2.83002-3.68385-6.71218-6.62576-11.42142-8.28157c-3.92294-1.37932-7.95705-1.70018-11.80449-1.13651c0.11099,0.27026,0.19142,0.55325,0.19426,0.86536c0.00824,1.0227-0.66778,1.89658-1.16111,2.77778c-0.60344,1.06873-1.00248,2.27066-1.05315,3.49276c-0.02215,0.57676,0.03556,1.16574,0.19639,1.7213c0.24421,0.81336,0.7064,1.5372,1.16291,2.24384c0.85677,1.32718,1.70774,2.6657,2.56451,3.99288c0.56373,0.86184,1.12725,1.75224,1.32981,2.75952c0.37301,1.76849-0.48314,3.64055-1.89266,4.77086c-1.39232,1.12463-3.25869,1.5768-5.05783,1.53251c-0.62259-0.01689-1.27318-0.09107-1.86338,0.10941c-0.5902,0.20048-1.12061,0.76141-1.04605,1.37338c0.05414,0.34319,0.28571,0.64804,0.32269,0.99685c0.09108,0.69206-0.61659,1.26283-1.29703,1.33117c-0.68623,0.07967-1.35227-0.18892-2.02471-0.38905c-2.19936-0.66473-4.599-0.6286-6.78207,0.10645c-0.87099,0.30088-1.76573,0.70433-2.66126,0.54797c-0.25111-0.04343-1.0095-0.3155-1.96707-0.69868c1.0775,8.80878,6.84847,16.69431,15.61345,20.10514c-0.96651-2.132-1.03744-6.07468,0.15854-6.95543c1.25918-0.92019,2.87808-1.16882,4.34503-1.68161c0.67057-0.24553,1.34185-0.57672,1.90576-1.03451c1.6281-1.30547,4.06783-0.68998,4.90796,1.23116c0.23537,0.52191,0.41339,1.07195,0.54008,1.61006c0.50048,2.22097,0.28411,1.80572,1.04795,3.96043c0.50934,1.4213,1.37184,2.68018,2.43375,3.76227c7.67091-2.03585,14.23444-7.70498,17.06547-15.75659c0.56797-1.61535,0.95881-3.25006,1.18279-4.88284C58.38449,36.40444,58.06977,35.4753,57.75323,34.57027z"/><path fill="#9ac181" d="M16.90038,28.99046c-0.90685,2.56969-1.34478,5.17576-1.37817,7.75838c-0.50766,0.09266-1.02112,0.22301-1.51328,0.39127c-0.87082,0.29973-1.76398,0.69639-2.66324,0.54829c-0.24767-0.04531-1.00017-0.32147-1.96742-0.70737c-0.4425-3.66536-0.10175-7.4856,1.20884-11.21646c3.16307-8.99919,11.00227-15.01332,19.83013-16.31123c0.10549,0.27051,0.19477,0.54637,0.19744,0.85913c0.00179,1.02998-0.67452,1.90297-1.16206,2.7777c-0.4053,0.71362-0.70868,1.49288-0.88279,2.28405C23.29845,18.19154,19.02955,22.9157,16.90038,28.99046z"/><path fill="#d3d3d3" d="M48.28257 13.7346c-3.83319-1.32222-7.77796-1.60478-11.55207-1.05538-2.86697.41716-5.63586 1.3312-8.16068 2.69499.17411-.79118.47749-1.57043.88279-2.28405.48754-.87473 1.16385-1.74772 1.16206-2.7777-.00267-.31276-.09195-.58862-.19744-.85913 3.84971-.56491 7.88589-.24919 11.81024 1.13317C44.44233 11.36616 46.47137 12.43005 48.28257 13.7346zM24.99148 57.09084c-8.76523-3.40905-14.53622-11.30005-15.61321-20.10981.96725.38589 1.71975.66206 1.96742.70737.89926.1481 1.79242-.24856 2.66324-.54829.49216-.16826 1.00562-.29861 1.51328-.39127-.03708 1.15912.03368 2.31905.16933 3.45809.78015 6.3698 4.01264 12.25957 9.04601 16.32086C24.8275 56.72276 24.90674 56.91217 24.99148 57.09084z" opacity=".5"/><path fill="none" d="M14.01024,37.13582c2.18306-0.73505,4.5827-0.77119,6.78207-0.10645c0.67243,0.20013,1.33847,0.46872,2.0247,0.38905c0.68044-0.06834,1.38811-0.63911,1.29703-1.33117c-0.03697-0.3488-0.26855-0.65365-0.32269-0.99685c-0.07456-0.61197,0.45585-1.1729,1.04605-1.37338c0.59019-0.20048,1.24079-0.1263,1.86338-0.10941c1.79914,0.04429,3.66551-0.40788,5.05783-1.53251c1.40952-1.13031,2.26567-3.00237,1.89266-4.77086c-0.20256-1.00728-0.76608-1.89768-1.32981-2.75952c-0.85677-1.32718-1.70774-2.6657-2.56451-3.99288c-0.45651-0.70664-0.9187-1.43048-1.16291-2.24384c-0.16083-0.55556-0.21854-1.14454-0.19639-1.7213c0.05067-1.22209,0.4497-2.42403,1.05315-3.49276c0.49332-0.8812,1.16935-1.75508,1.1611-2.77778c-0.00283-0.3121-0.08327-0.59509-0.19426-0.86536c-8.8317,1.2938-16.66795,7.30911-19.8342,16.31419c-1.30999,3.72564-1.6506,7.54885-1.20154,11.22012c0.95757,0.38318,1.71596,0.65524,1.96707,0.69868C12.24451,37.84016,13.13924,37.4367,14.01024,37.13582z"/><path fill="none" d="M57.75313,34.57021c-0.49049-1.3982-1.22467-3.02141-2.69653-3.25706c-1.39202-0.22353-2.665,0.97646-4.0704,0.97561c-1.17104-0.0102-2.15236-0.81286-3.22787-1.29076c-0.89911-0.40199-1.88596-0.57632-2.77924-0.98971c-0.89332-0.41349-1.73785-1.17493-1.82064-2.16398c-0.09363-1.05195,0.67996-1.97638,1.55367-2.59148c0.85654-0.6095,1.84305-1.05217,2.55829-1.83427c1.28638-1.42273,1.4959-3.82601,3.22294-4.67929c0.99638-0.49242,2.07608-0.27337,3.15021,0.12962c-2.83002-3.68385-6.71218-6.62576-11.42142-8.28157C38.2992,9.208,34.26508,8.88713,30.41765,9.45081c0.11099,0.27026,0.19142,0.55325,0.19426,0.86536c0.00824,1.0227-0.66778,1.89658-1.1611,2.77778c-0.60344,1.06873-1.00248,2.27066-1.05315,3.49276c-0.02216,0.57676,0.03556,1.16574,0.19639,1.7213c0.24421,0.81336,0.7064,1.5372,1.16291,2.24384c0.85677,1.32718,1.70774,2.6657,2.56451,3.99288c0.56373,0.86184,1.12725,1.75224,1.32981,2.75952c0.37301,1.76849-0.48314,3.64055-1.89266,4.77086c-1.39232,1.12463-3.25869,1.5768-5.05783,1.53251c-0.62259-0.01689-1.27318-0.09107-1.86338,0.10941c-0.59019,0.20048-1.12061,0.76141-1.04605,1.37338c0.05414,0.34319,0.28571,0.64804,0.32269,0.99685c0.09108,0.69206-0.61659,1.26283-1.29703,1.33117c-0.68623,0.07967-1.35227-0.18892-2.0247-0.38905c-2.19937-0.66473-4.59901-0.6286-6.78207,0.10645c-0.87099,0.30088-1.76573,0.70433-2.66126,0.54797c-0.25111-0.04343-1.0095-0.3155-1.96707-0.69868c1.0775,8.80878,6.84846,16.69431,15.61345,20.10514c-0.96651-2.132-1.03744-6.07468,0.15854-6.95543c1.25918-0.92019,2.87808-1.16882,4.34503-1.68161c0.67057-0.24553,1.34185-0.57672,1.90576-1.03451c1.62811-1.30547,4.06783-0.68998,4.90796,1.23116c0.23537,0.52191,0.41339,1.07195,0.54008,1.61006c0.50048,2.22097,0.28411,1.80572,1.04795,3.96043c0.50934,1.4213,1.37184,2.68018,2.43375,3.76227c7.67091-2.03585,14.23444-7.70498,17.06546-15.75659c0.56797-1.61535,0.95881-3.25006,1.18279-4.88284C58.38439,36.40438,58.06967,35.47524,57.75313,34.57021z"/><path fill="none" d="M14.01024,37.13582c2.18306-0.73505,4.5827-0.77119,6.78207-0.10645c0.67243,0.20013,1.33847,0.46872,2.0247,0.38905c0.68044-0.06834,1.38811-0.63911,1.29703-1.33117c-0.03697-0.3488-0.26855-0.65365-0.32269-0.99685c-0.07456-0.61197,0.45585-1.1729,1.04605-1.37338c0.59019-0.20048,1.24079-0.1263,1.86338-0.10941c1.79914,0.04429,3.66551-0.40788,5.05783-1.53251c1.40952-1.13031,2.26567-3.00237,1.89266-4.77086c-0.20256-1.00728-0.76608-1.89768-1.32981-2.75952c-0.85677-1.32718-1.70774-2.6657-2.56451-3.99288c-0.45651-0.70664-0.9187-1.43048-1.16291-2.24384c-0.16083-0.55556-0.21854-1.14454-0.19639-1.7213c0.05067-1.22209,0.4497-2.42403,1.05315-3.49276c0.49332-0.8812,1.16935-1.75508,1.1611-2.77778c-0.00283-0.3121-0.08327-0.59509-0.19426-0.86536c-8.8317,1.2938-16.66795,7.30911-19.8342,16.31419c-1.30999,3.72564-1.6506,7.54885-1.20154,11.22012c0.95757,0.38318,1.71596,0.65524,1.96707,0.69868C12.24451,37.84016,13.13924,37.4367,14.01024,37.13582z"/><path fill="none" d="M57.75313,34.57021c-0.49049-1.3982-1.22467-3.02141-2.69653-3.25706c-1.39202-0.22353-2.665,0.97646-4.0704,0.97561c-1.17104-0.0102-2.15236-0.81286-3.22787-1.29076c-0.89911-0.40199-1.88596-0.57632-2.77924-0.98971c-0.89332-0.41349-1.73785-1.17493-1.82064-2.16398c-0.09363-1.05195,0.67996-1.97638,1.55367-2.59148c0.85654-0.6095,1.84305-1.05217,2.55829-1.83427c1.28638-1.42273,1.4959-3.82601,3.22294-4.67929c0.99638-0.49242,2.07608-0.27337,3.15021,0.12962c-2.83002-3.68385-6.71218-6.62576-11.42142-8.28157C38.2992,9.208,34.26508,8.88713,30.41765,9.45081c0.11099,0.27026,0.19142,0.55325,0.19426,0.86536c0.00824,1.0227-0.66778,1.89658-1.1611,2.77778c-0.60344,1.06873-1.00248,2.27066-1.05315,3.49276c-0.02216,0.57676,0.03556,1.16574,0.19639,1.7213c0.24421,0.81336,0.7064,1.5372,1.16291,2.24384c0.85677,1.32718,1.70774,2.6657,2.56451,3.99288c0.56373,0.86184,1.12725,1.75224,1.32981,2.75952c0.37301,1.76849-0.48314,3.64055-1.89266,4.77086c-1.39232,1.12463-3.25869,1.5768-5.05783,1.53251c-0.62259-0.01689-1.27318-0.09107-1.86338,0.10941c-0.59019,0.20048-1.12061,0.76141-1.04605,1.37338c0.05414,0.34319,0.28571,0.64804,0.32269,0.99685c0.09108,0.69206-0.61659,1.26283-1.29703,1.33117c-0.68623,0.07967-1.35227-0.18892-2.0247-0.38905c-2.19937-0.66473-4.59901-0.6286-6.78207,0.10645c-0.87099,0.30088-1.76573,0.70433-2.66126,0.54797c-0.25111-0.04343-1.0095-0.3155-1.96707-0.69868c1.0775,8.80878,6.84846,16.69431,15.61345,20.10514c-0.96651-2.132-1.03744-6.07468,0.15854-6.95543c1.25918-0.92019,2.87808-1.16882,4.34503-1.68161c0.67057-0.24553,1.34185-0.57672,1.90576-1.03451c1.62811-1.30547,4.06783-0.68998,4.90796,1.23116c0.23537,0.52191,0.41339,1.07195,0.54008,1.61006c0.50048,2.22097,0.28411,1.80572,1.04795,3.96043c0.50934,1.4213,1.37184,2.68018,2.43375,3.76227c7.67091-2.03585,14.23444-7.70498,17.06546-15.75659c0.56797-1.61535,0.95881-3.25006,1.18279-4.88284C58.38439,36.40438,58.06967,35.47524,57.75313,34.57021z"/><path fill="#ededed" d="M53.64627 18.87192c-1.08035-.40311-2.15686-.62822-3.15335-.13544-.41154.19599-.73215.47893-1.00484.8271-.72067-1.45152-1.58211-2.83943-2.57383-4.13152-1.44481-1.88913-3.17188-3.57052-5.15467-4.98986.15606.03908.31734.09447.46791.1443C46.9313 12.24532 50.81511 15.19112 53.64627 18.87192zM40.33579 57.98523c-1.05826-1.08229-1.93159-2.341-2.43681-3.76358-.12631-.36238-.23628-.73006-.31388-1.10821 5.91747-2.7038 10.7604-7.70338 13.08849-14.3264.56957-1.61817.95586-3.24867 1.18044-4.88065.08082-.6086.13994-1.20127.16679-1.81034 1.01657-.32005 1.98735-.94786 3.03734-.77695 1.47013.22319 2.20543 1.85813 2.7002 3.24827.31021.9032.63099 1.83891.82769 2.7789-.22457 1.63198-.61086 3.26249-1.1805 4.88062C54.56351 50.27979 48.01078 55.94932 40.33579 57.98523z"/><path fill="#badda4" d="M58.58605 37.34624c-.1967-.93999-.51748-1.8757-.82769-2.7789-.49477-1.39014-1.23007-3.02508-2.7002-3.24827-1.05-.17091-2.02077.45691-3.03734.77695.29179-4.3869-.63035-8.70344-2.53274-12.53246.27269-.34817.5933-.63111 1.00484-.8271.99649-.49278 2.073-.26766 3.15335.13544C57.61305 24.04015 59.49646 30.66229 58.58605 37.34624zM40.33579 57.98523c-4.64816 1.22665-9.70542 1.13388-14.57055-.58027-.26347-.09396-.51039-.22013-.77376-.31413-.27516-.60092-.53911-1.25032-.77613-1.89952 3.19968.38927 6.38332.14747 9.38842-.64595 1.36201-.36014 2.7035-.83912 3.98134-1.43193.07759.37815.18757.74583.31388 1.10821C38.4042 55.64423 39.27753 56.90294 40.33579 57.98523z"/><path fill="#fff" d="M14.53934 31.30461c-.06152 0-.12402-.00586-.1875-.01758-.54199-.10254-.89844-.62598-.7959-1.16895l.02051-.10742c.04785-.25684.09668-.5127.15625-.76758.125-.53711.6582-.87109 1.20117-.74609.53711.125.87207.66309.74609 1.20117-.05273.22559-.0957.4541-.13867.68262l-.02051.11035C15.42997 30.97063 15.01004 31.30461 14.53934 31.30461zM15.91434 26.91692c-.13574 0-.27441-.02734-.40625-.08691-.50488-.22461-.73145-.81641-.50586-1.32031 1.52832-3.42383 3.95508-6.37109 7.01855-8.52344.45117-.31738 1.07715-.20703 1.39355.24316.31738.45215.20801 1.07617-.24316 1.39355-2.76855 1.94531-4.96191 4.6084-6.34277 7.70117C16.66239 26.69621 16.29715 26.91692 15.91434 26.91692z"/><path fill="#444" d="M13.22705,49.34926c-6.62402,0-10.85156-1.67969-11.94922-4.76953c-0.18457-0.52051,0.08691-1.09277,0.60742-1.27734c0.52246-0.18457,1.0918,0.08789,1.27734,0.60742c0.8252,2.32227,4.80078,3.57031,10.97266,3.42871c6.60156-0.15332,14.8584-1.87988,23.25-4.8623S53.271,35.62367,58.48877,31.5768c4.86035-3.76855,7.17383-7.26172,6.34863-9.58398c-0.18457-0.52051,0.08691-1.0918,0.60742-1.27734c0.51758-0.18457,1.0918,0.08691,1.27734,0.60742c1.14941,3.23535-1.33887,7.43848-7.00684,11.83496c-5.38184,4.17285-13.07422,8.15137-21.66016,11.20313c-8.58691,3.05078-17.06445,4.81934-23.87305,4.97754C13.85791,49.34633,13.53955,49.34926,13.22705,49.34926z"/><circle cx="45.422" cy="40.159" r="4.459" fill="#fe9967"/><path fill="#ef8759" d="M47.25492,44.21758c-0.10999,0.05005-0.21997,0.10004-0.33997,0.14001c-2.31995,0.83002-4.87-0.39001-5.69006-2.70996c-0.82996-2.32001,0.38013-4.87,2.69995-5.69c1.13013-0.40002,2.31006-0.32001,3.32007,0.13995c-2.09998,0.93005-3.1499,3.35004-2.37,5.55005C45.29496,42.84758,46.18485,43.74761,47.25492,44.21758z"/></svg>