<svg xmlns="http://www.w3.org/2000/svg" enable-background="new 0 0 68 68" viewBox="0 0 68 68"><path fill="#fe9967" d="M45.54031,64.29582H22.4597c-2.33264,0-4.22361-1.89098-4.22361-4.22361V25.8633c0-2.33264,1.89098-4.22361,4.22361-4.22361h23.08061c2.33263,0,4.22361,1.89098,4.22361,4.22361v34.20891C49.76392,62.40485,47.87294,64.29582,45.54031,64.29582z"/><rect width="31.528" height="25.701" x="18.236" y="30.473" fill="#e2e2e2"/><path fill="#ef8759" d="M24.88 30.47302v-4.60999c0-2.32996 1.88995-4.22009 4.21997-4.22009h-6.64001c-2.32996 0-4.21997 1.89014-4.21997 4.22009v4.60999H24.88zM24.88 60.07299v-3.89851h-6.64001v3.89851c0 2.32996 1.89001 4.2201 4.21997 4.2201h6.64001C26.76996 64.29309 24.88 62.40295 24.88 60.07299z"/><rect width="6.64" height="25.7" x="18.24" y="30.473" fill="#d3d3d3"/><path fill="#ffac88" d="M30.52997 30.47302v-4.60999c0-2.32996 1.89001-4.22009 4.22003-4.22009h-2.97003c-2.33002 0-4.21997 1.89014-4.21997 4.22009v4.60999H30.52997zM30.52997 60.07299v-3.90002H27.56v3.90002c0 2.32996 1.88995 4.2201 4.21997 4.2201H34.75C32.41998 64.29309 30.52997 62.40295 30.52997 60.07299z"/><rect width="2.97" height="25.7" x="27.56" y="30.473" fill="#ededed"/><path fill="#ffac88" d="M43.11389 25.85978v4.61324h6.65002v-4.61324c0-2.32996-1.89001-4.22009-4.22998-4.22009h-6.64001C41.22394 21.63969 43.11389 23.52982 43.11389 25.85978zM43.11389 56.22302v3.84998c0 2.32996-1.88995 4.2201-4.21997 4.2201h6.64001c2.33997 0 4.22998-1.89014 4.22998-4.2201v-3.84998H43.11389z"/><rect width="6.65" height="25.7" x="43.114" y="30.473" fill="#ededed"/><path fill="#444" d="M41.39358,21.63969H26.60642v-3.99201c0-0.78659,0.63766-1.42424,1.42424-1.42424h11.93867c0.78659,0,1.42424,0.63766,1.42424,1.42424V21.63969z"/><path fill="#333" d="M33.68329 16.22339h-5.65265c-.78656 0-1.42419.6377-1.42419 1.42419v3.99207h7.07684V16.22339zM37.70909 16.22069h-7.41823l2.7352-11.74335c.24011-1.03088 1.70776-1.03087 1.94786 0L37.70909 16.22069z"/><path fill="#fff" d="M33.49158 52.81384l.36914.00879c.00781 0 .01563 0 .02344 0 .54199 0 .98633-.43262 1-.97656.0127-.55176-.42383-1.00977-.97656-1.02344l-.36914-.00879c-.57129-.04199-1.00977.4248-1.02344.97656C32.50232 52.34216 32.93884 52.80017 33.49158 52.81384zM37.16248 52.81189c.00098 0 .00195 0 .00293 0l8.12695-.02539c.55273-.00195.99902-.45117.99707-1.00293s-.44922-.99707-1-.99707c-.00098 0-.00195 0-.00293 0l-8.12695.02539c-.55273.00195-.99902.45117-.99707 1.00293S36.61169 52.81189 37.16248 52.81189z"/></svg>