<svg xmlns="http://www.w3.org/2000/svg" enable-background="new 0 0 68 68" viewBox="0 0 68 68"><path fill="#444" d="M60.11184,28.28838c-0.41406,0-0.75-0.33594-0.75-0.75V17.20635c0-0.41406,0.33594-0.75,0.75-0.75s0.75,0.33594,0.75,0.75v10.33203C60.86184,27.95244,60.52591,28.28838,60.11184,28.28838z"/><circle cx="28.907" cy="42.397" r="23.558" fill="#a7d08c"/><path fill="#9ac181" d="M32.23822,65.71577c-1.08997,0.16003-2.20001,0.23999-3.32996,0.23999c-13.01001,0-23.56006-10.54992-23.56006-23.55993s10.55005-23.56006,23.56006-23.56006c1.32996,0,2.63995,0.10999,3.90997,0.33008C21.38824,20.77571,12.58826,30.60579,12.58826,42.4858C12.58826,54.16585,21.08826,63.85579,32.23822,65.71577z"/><path fill="#badda4" d="M52.46432,42.4858c0,13.01001-10.54999,23.55993-23.56,23.55993c-1.33002,0-2.64001-0.10986-3.91003-0.32996c11.42999-1.60999,20.23004-11.44006,20.23004-23.31994c0-11.68006-8.5-21.37012-19.65002-23.22998c1.09003-0.16003,2.20001-0.23999,3.33002-0.23999C41.91433,18.92586,52.46432,29.47579,52.46432,42.4858z"/><path fill="#ededed" d="M52.44198,43.35308c0.00995-0.32007,0.01996-0.64014,0.01996-0.96008c0-0.34998-0.01001-0.69995-0.02997-1.03992h-9.29999c-0.07001-3.25-0.46002-6.33008-1.11005-9.14014c5.75,2,9.73004,5.25,10.41003,9.01001c-0.10004-1.98999-0.44-3.90991-1-5.73999c-2.31-2.35986-5.79004-4.28992-10.03003-5.57996c-1.28998-4.23999-3.21997-7.71997-5.57996-10.02002c-1.82001-0.56995-3.73004-0.91003-5.71002-1.00989c3.73999,0.69995,6.98999,4.66992,8.96997,10.40991c-2.81-0.65991-5.90997-1.04004-9.16998-1.10999v-9.29993c-0.33002-0.02002-0.66998-0.03003-1.01001-0.03003c-0.32996,0-0.65997,0.01001-0.98999,0.02002v9.30994c-3.27002,0.06995-6.35999,0.45007-9.17999,1.10999c1.98999-5.73999,5.23999-9.71997,8.98999-10.40991c-1.97998,0.09985-3.89996,0.43994-5.71997,1c-2.36005,2.30994-4.29004,5.78992-5.58002,10.02991c-4.23999,1.29004-7.72003,3.22009-10.03998,5.57996c-0.56,1.83008-0.90002,3.75-1,5.73999c0.69-3.76001,4.66998-7.01001,10.41998-9.01001c-0.66003,2.81006-1.04999,5.89014-1.12,9.14014H5.38198c-0.02002,0.33997-0.03003,0.68994-0.03003,1.03992c0,0.31995,0.01001,0.64001,0.02002,0.96008h9.31c0.07001,3.27991,0.45001,6.38989,1.12,9.21997c-5.73999-1.98999-9.71002-5.23999-10.41998-8.96997c0.09998,1.97998,0.44,3.87988,1,5.69995c2.31995,2.35999,5.79999,4.30005,10.03998,5.57996c1.28998,4.24011,3.21997,7.72009,5.58002,10.04004c1.81,0.55994,3.71997,0.90002,5.69,1c-3.74005-0.72009-6.98004-4.68005-8.96002-10.42004c2.82001,0.66003,5.90997,1.05005,9.17999,1.12012v9.30993c0.33002,0.01001,0.66003,0.0199,0.98999,0.0199c0.34003,0,0.67999-0.00989,1.01001-0.02991V56.6231c3.26001-0.07007,6.35999-0.46008,9.16998-1.12012c-1.97998,5.73999-5.22998,9.69995-8.95996,10.42004c1.97998-0.09998,3.88-0.45007,5.70001-1.01001c2.35999-2.30993,4.28998-5.78991,5.57996-10.03003c4.23999-1.27991,7.72003-3.21997,10.03003-5.57996c0.56-1.84009,0.90997-3.77002,1-5.77002c-0.66003,3.77002-4.64001,7.04004-10.41003,9.04004c0.66003-2.83008,1.05005-5.94006,1.11005-9.21997H52.44198z M27.91195,54.6231c-3.54999-0.08008-6.89001-0.56006-9.87-1.36011c-0.79999-2.98999-1.28998-6.34998-1.35999-9.90991h11.22998V54.6231z M27.91195,41.35308H16.68197c0.08002-3.53003,0.56-6.86011,1.35999-9.82007c2.97998-0.80005,6.32001-1.28003,9.87-1.35999V41.35308z M39.77194,53.26299c-2.97998,0.80005-6.32001,1.28003-9.85999,1.36011V43.35308h11.22003C41.06198,46.91301,40.57199,50.273,39.77194,53.26299z M29.91195,41.35308V30.17302c3.53998,0.07996,6.88,0.55994,9.85999,1.35999c0.80005,2.95996,1.28003,6.29004,1.36005,9.82007H29.91195z"/><path fill="#feeb75" d="M42.05976,2.00289L20.09523,2.0734c-0.76201,0.00245-1.13182,1.06758-0.53528,1.54172l17.19502,13.66663c0.55912,0.44439,1.24249,0.68165,1.95668,0.67936l21.96453-0.07051c0.76201-0.00245,1.13182-1.06758,0.53528-1.54171L44.01645,2.68225C43.45733,2.23786,42.77396,2.0006,42.05976,2.00289z"/><path fill="#efd96a" d="M44.43439,17.7993l-0.10183,0.00033c-0.71522,0.00489-1.39995-0.23285-1.95825-0.6799L25.18215,3.45486c-0.46992-0.37034-0.34853-1.09547,0.08611-1.39723l-5.16932,0.01599c-0.76794,0.0019-1.13643,1.06324-0.53491,1.54066l17.19216,13.66487c0.5583,0.44706,1.24304,0.6848,1.95825,0.6799l5.67085-0.01832L44.43439,17.7993z"/><path fill="#fff3ab" d="M50.39697,17.61463l-2.02534,0.00484c-0.7153,0.00487-1.40004-0.23287-1.95156-0.67758L29.22113,3.27467c-0.43356-0.34235-0.36372-0.98563-0.00191-1.32041L28.0524,1.95583c-0.76794,0.0019-1.13643,1.06324-0.53491,1.54066l17.19216,13.66487c0.5583,0.44706,1.24304,0.6848,1.95825,0.6799l3.65448-0.01181L50.39697,17.61463z"/><path fill="#fff3ab" d="M60.67563,17.88814l-21.96119,0.0709c-0.21544,0.00195-0.43069-0.01906-0.63633-0.06747l16.38368-0.05085c0.7611-0.00432,1.12959-1.06565,0.53491-1.54066L37.79779,2.63281c-0.39042-0.31201-0.83944-0.52162-1.31507-0.61005l5.57742-0.02008c0.7152-0.00485,1.39994,0.23289,1.95825,0.6799l17.19214,13.66491C61.80522,16.82248,61.43673,17.88382,60.67563,17.88814z"/><path fill="#feeb75" d="M53.11728,17.74045l-4.24866,12.21616c-7.65376-6.14843-17.0407-9.32327-28.04375-9.73673L25.05756,8.0289C36.00154,8.52929,45.39497,11.70628,53.11728,17.74045z"/><path fill="#efd96a" d="M25.06318,8.03352c1.55042,0.07028,3.07542,0.19307,4.56609,0.37298l-4.22225,12.16092c-1.49305-0.17305-3.0204-0.28908-4.57561-0.34556L25.06318,8.03352z"/><path fill="#fff3ab" d="M34.4928,9.21281l-4.21273,12.13351c-0.80692-0.17273-1.62976-0.32027-2.45738-0.4542L32.0378,8.75176C32.86541,8.88569,33.68588,9.04008,34.4928,9.21281z"/><path fill="#fff5a5" d="M49.25416,15.05145c1.30248,0.80523,2.56598,1.68122,3.78154,2.63264l-4.24129,12.21576c-1.20843-0.97198-2.46476-1.86862-3.76488-2.68062L49.25416,15.05145z"/><path fill="#fff" d="M47.82355 18.14412c-2.29785-1.4248-4.75781-2.6543-7.30859-3.65332-.51465-.20605-1.09473.05078-1.2959.56543-.20215.51465.05176 1.09473.56543 1.2959 2.43945.95605 4.79004 2.13086 6.98633 3.49121.16406.10254.3457.15039.52539.15039.33496 0 .66211-.16797.85059-.47363C48.43781 19.05135 48.29327 18.43416 47.82355 18.14412zM37.03644 13.28182c-.20117-.06152-.4043-.12207-.60742-.18066-.53613-.15625-1.08496.15234-1.23926.68066-.1543.53027.15039 1.08496.68066 1.23926l.57617.17285c.09863.03027.19727.04395.29492.04395.42773 0 .82324-.27539.95605-.70508C37.85968 14.00447 37.56378 13.4449 37.03644 13.28182z"/><polygon fill="#666" points="62.652 32.514 57.572 32.524 58.532 26.494 61.692 26.494"/></svg>