<svg xmlns="http://www.w3.org/2000/svg" enable-background="new 0 0 68 68" viewBox="0 0 68 68"><path fill="#fff48b" d="M53.69622,27.25377v21.34317c0,2.5145-1.91182,4.5529-4.27018,4.5529H14.46789c-2.35835,0-4.27018-2.0384-4.27018-4.5529l0-21.34317"/><path fill="#feeb75" d="M53.69622,27.25377v21.34317c0,2.5145-1.91182,4.5529-4.27018,4.5529H14.46789c-2.35835,0-4.27018-2.0384-4.27018-4.5529l0-21.34317"/><path fill="#efd96a" d="M16.70154,27.25377v21.33997c0,2.52002,1.91003,4.56,4.27002,4.56h-6.5c-2.35999,0-4.27002-2.03998-4.27002-4.56V27.25377H16.70154z"/><path fill="#fff3ab" d="M23.82154 48.59373V27.25377h.38501l0 0h-4.005v21.33997c0 2.52002 1.91003 4.56 4.27002 4.56h3.63C25.74146 53.15373 23.82154 51.11375 23.82154 48.59373zM53.56653 27.25377v21.33997c0 2.52002-1.91003 4.56-4.2699 4.56h-6.5c2.35986 0 4.2699-2.03998 4.2699-4.56V27.25377H53.56653z"/><path fill="#fff" d="M49.48547 45.12822c-.51563-.19336-1.09277.06543-1.29004.58105-.50781 1.33984-1.69238 2.20605-3.01953 2.20605h-4.55273c-.55273 0-1 .44727-1 1s.44727 1 1 1h4.55273c2.16602 0 4.08496-1.37305 4.89063-3.49707C50.26184 45.90166 50.00207 45.32451 49.48547 45.12822zM36.95617 47.91533h-.54102c-.55273 0-1 .44727-1 1s.44727 1 1 1h.54102c.55273 0 1-.44727 1-1S37.50891 47.91533 36.95617 47.91533z"/><path fill="#444" d="M65.51385,49.94099h-4.83392c-0.56845,0-1.00222-0.50821-0.91294-1.0696l1.02593-6.45116c0.07138-0.44885,0.45845-0.77923,0.91294-0.77923h2.78207c0.45449,0,0.84156,0.33038,0.91294,0.77923l1.02592,6.45116C66.51607,49.43279,66.0823,49.94099,65.51385,49.94099z"/><path fill="#feeb75" d="M30.90121,15.09419L2.30659,25.12516c-0.99203,0.348-0.99203,1.90354,0,2.25154l28.59462,10.03097c0.92978,0.32617,1.92779,0.32617,2.85757,0L62.35341,27.3767c0.99202-0.348,0.99202-1.90354,0-2.25154L33.75879,15.09419C32.829,14.76802,31.831,14.76802,30.90121,15.09419z"/><path fill="#efd96a" d="M41.14405,34.60722l-0.13257,0.04651c-0.92993,0.33002-1.92993,0.33002-2.85986,0L9.56153,24.62376c-0.78003-0.27002-0.94995-1.27002-0.52002-1.85999l-6.72998,2.35999c-1,0.34998-1,1.89996,0,2.25l28.59009,10.02997c0.92993,0.33002,1.92993,0.33002,2.85986,0l7.38257-2.58997V34.60722z"/><path fill="#fff3ab" d="M48.83155 31.66844l-2.63745.92279c-.93005.33002-1.93005.33002-2.8501 0L14.74402 22.56126c-.71997-.25-.92004-1.12-.59998-1.72003l-1.52002.53003c-1 .34998-1 1.89996 0 2.25l28.59009 10.02997c.92993.33002 1.92993.33002 2.85986 0l4.75757-1.66907V31.66844zM62.35157 27.37376l-8.12 2.75c.98999-.35004.98999-1.90002 0-2.25L25.6316 17.84373c-.65002-.22998-1.33008-.29999-1.98999-.20001l7.26001-2.54999c.92993-.32996 1.92993-.32996 2.85986 0l28.59009 10.03003C63.34156 25.47374 63.34156 27.02373 62.35157 27.37376z"/><ellipse cx="32.33" cy="26.251" fill="#444" rx="3.922" ry="2.117"/><path fill="#444" d="M64.09689,26.65633v15.76465h-2V27.201l-27.07996,0.01996l-0.03003-2L62.64156,25.202C63.44516,25.20145,64.09689,25.85274,64.09689,26.65633z"/></svg>