<svg xmlns="http://www.w3.org/2000/svg" enable-background="new 0 0 68 68" viewBox="0 0 68 68"><path fill="#e2e2e2" d="M62.84608,56.53455l-0.03003,0.03003l-6.77997,6.78003l-0.03003,0.02991c-0.99979-0.82675-6.42655-5.19316-14.48547-4.2945c-0.62137,0.06929-1.24361-0.12566-1.68485-0.56862l-1.82967-1.83683l18.14001-18.14001l1.83095,1.83099c0.44057,0.44058,0.63455,1.06065,0.56605,1.67994C57.6515,50.10638,62.01915,55.53455,62.84608,56.53455z"/><path fill="#fe9967" d="M14.37885,4.17691L3.64883,14.90693c-1.12709,1.12709-1.16724,2.9417-0.0911,4.11753L38.008,56.66632l18.13023-18.13023L18.49638,4.08581C17.32055,3.00967,15.50594,3.04982,14.37885,4.17691z"/><path fill="#ededed" d="M62.84223,56.53145l-0.03003,0.03003l-3.21619,3.21624c-1.18005-1.47009-6.09381-6.33636-4.79376-14.46624l-2.73004-2.71008l4.07001-4.06995l1.83099,1.83099c0.44059,0.44059,0.63457,1.06066,0.56607,1.67997C57.64772,50.10329,62.01536,55.53146,62.84223,56.53145z"/><path fill="#ffac88" d="M56.13823,38.53026l-4.07001,4.06995L14.61821,8.33031c-1.17999-1.07007-2.98999-1.03003-4.12,0.08984l-7.51996,7.52002c0.13995-0.36987,0.37-0.72998,0.66998-1.02991l10.72998-10.7301c1.12-1.12988,2.94-1.16992,4.11005-0.09985L56.13823,38.53026z"/><path fill="#d3d3d3" d="M58.80225,60.57149l-2.77002,2.77002l-0.03003,0.02991c-0.99979-0.82675-6.42654-5.19315-14.48544-4.29451c-0.62139,0.06929-1.24365-0.12567-1.68489-0.56866l-1.82967-1.83691l0.01001-0.00989l4.65002-4.65002l2.37,2.37C52.26221,54.33394,56.77229,58.95161,58.80225,60.57149z"/><path fill="#ef8759" d="M41.23082,53.44623l-3.22003,3.22009L3.56077,19.0263c-1.07996-1.17004-1.03998-2.98999,0.09003-4.10999l3.84003-3.83997c-0.04004,0.10986-0.08002,0.20996-0.10004,0.31995l-0.40997,0.41003c-1.13,1.11987-1.17004,2.93994-0.09003,4.10999L41.23082,53.44623z"/><path fill="#ffac88" d="M10.1638,12.99234c-1.08002-1.17017-1.04004-2.99011,0.08997-4.11011l0.27246-0.27246H9.93626L8.4138,10.13223c-1.13,1.12-1.17004,2.93994-0.09003,4.11011l34.45001,37.63989l1.56-1.56006L10.1638,12.99234z"/><path fill="#fe9967" d="M60.87523,64.60573l3.64527-1.53347c0.75167-0.31621,0.94324-1.29337,0.36662-1.87l-3.35415-3.35415l-4.21294,4.21293l2.29826,2.29826C59.94824,64.68926,60.4451,64.78667,60.87523,64.60573z"/><path fill="#fff" d="M28.26551 18.69917l-.64941-.60254c-.40527-.37598-1.03711-.35352-1.41309.05371-.375.4043-.35156 1.03711.05371 1.41309l.64941.60254c.19238.17871.43555.2666.67969.2666.26855 0 .53613-.10742.7334-.32031C28.69422 19.70796 28.67078 19.07515 28.26551 18.69917zM24.96961 15.70894l-6.11426-5.62793c-1.14648-1.05664-2.90723-1.02051-4.00879.08203l-1.02637 1.02637c-.39063.39063-.39063 1.02344 0 1.41406s1.02344.39063 1.41406 0l1.02637-1.02637c.3418-.34082.8877-.34961 1.24121-.02539l6.11426 5.62793c.19141.17773.43457.26465.67676.26465.26953 0 .53906-.1084.73535-.32324C25.40223 16.7148 25.37684 16.08296 24.96961 15.70894z"/></svg>