<svg xmlns="http://www.w3.org/2000/svg" enable-background="new 0 0 68 68" viewBox="0 0 68 68"><path fill="#e2e2e2" d="M37.29829,33.81559c5.58182,3.74554,16.32671,11.88712,16.32671,18.97456v6.1118H14.37499v-6.1118c0-7.08744,10.7449-15.22902,16.32671-18.97456c-5.58181-3.75683-16.32671-11.89841-16.32671-18.98578V8.72858h39.25002v6.10123C53.62501,21.91718,42.88011,30.05877,37.29829,33.81559z"/><path fill="#d3d3d3" d="M30.70511,33.81747c-5.58099,3.74628-10.68192,11.88255-10.68192,18.97174v6.10937H14.375v-6.10937C14.375,45.70002,25.124,37.56376,30.70511,33.81747C25.124,30.06152,14.375,21.91569,14.375,14.8265V8.7326h5.64818v6.09389C20.02318,21.91569,25.12411,30.06152,30.70511,33.81747z"/><path fill="#ededed" d="M37.2949,33.81747c5.58099,3.74628,10.68192,11.88255,10.68192,18.97174v6.10937h5.64819v-6.10937C53.62501,45.70002,42.87601,37.56376,37.2949,33.81747c5.58111-3.75596,16.33011-11.90178,16.33011-18.99097V8.7326h-5.64819v6.09389C47.97682,21.91569,42.87589,30.06152,37.2949,33.81747z"/><path fill="#fe9967" d="M24.5463 21.1939c2.57001 2.68598 6.08247 5.51413 9.45866 7.81715 3.37975-2.29994 6.89485-5.12809 9.46346-7.81715H24.5463zM20.71204 53.29481v-.50267c0-3.58879 6.90414-9.82565 13.28796-14.17994 6.38258 4.3532 13.28796 10.59115 13.28796 14.17994v.50267H20.71204z"/><path fill="#a7d08c" d="M54.7943,8.72858H13.2057c-1.83161,0-3.31643-1.48481-3.31643-3.31643V5.31643c0-1.83161,1.48481-3.31643,3.31643-3.31643h41.5886c1.83161,0,3.31642,1.48481,3.31642,3.31643v0.09572C58.11072,7.24377,56.62591,8.72858,54.7943,8.72858z"/><path fill="#badda4" d="M58.08886,5.65394c0.0075-0.08056,0.02181-0.15906,0.02181-0.24179V5.31641C58.11066,3.48481,56.62592,2,54.79432,2H13.20568c-1.8316,0-3.31635,1.48481-3.31635,3.31641v0.09574c0,0.08273,0.01431,0.16123,0.02181,0.24179H58.08886z"/><path fill="#a7d08c" d="M54.7943,65.71034H13.2057c-1.83161,0-3.31643-1.48481-3.31643-3.31642v-0.09573c0-1.83161,1.48481-3.31642,3.31643-3.31642h41.5886c1.83161,0,3.31642,1.48481,3.31642,3.31642v0.09573C58.11072,64.22553,56.62591,65.71034,54.7943,65.71034z"/><path fill="#badda4" d="M58.08886,62.34606c0.0075,0.08056,0.02181,0.15907,0.02181,0.24179v0.09574C58.11066,64.5152,56.62592,66,54.79432,66H13.20568c-1.8316,0-3.31635-1.4848-3.31635-3.31641v-0.09574c0-0.08273,0.01431-0.16123,0.02181-0.24179H58.08886z"/><path fill="#fff" d="M25.86658 14.08492c.55273 0 1-.44727 1-1s-.44727-1-1-1h-7c-.55273 0-1 .44727-1 1v1.60156c0 .87695.32227 1.91211.95801 3.07715.18164.33301.52441.52148.87891.52148.16211 0 .32617-.03906.47754-.12207.48535-.26465.66406-.87207.39941-1.35645-.45996-.84375-.71387-1.59668-.71387-2.12012v-.60156H25.86658zM30.36658 14.08492h.9375c.55273 0 1-.44727 1-1s-.44727-1-1-1h-.9375c-.55273 0-1 .44727-1 1S29.81384 14.08492 30.36658 14.08492z"/></svg>