<svg xmlns="http://www.w3.org/2000/svg" enable-background="new 0 0 68 68" viewBox="0 0 68 68"><path fill="#a7d08c" d="M62.68586,60.85423H5.31764c-1.83132,0-3.31589-1.48458-3.31589-3.3159V19.00601c0-1.83132,1.48458-3.3159,3.31589-3.3159h57.36821c1.83132,0,3.31589,1.48458,3.31589,3.3159v38.53233C66.00175,59.36966,64.51717,60.85423,62.68586,60.85423z"/><path fill="#9ac181" d="M13.5483,60.85213H5.31832c-1.83008,0-3.32007-1.47998-3.32007-3.31V19.00215c0-1.83002,1.48999-3.31,3.32007-3.31h8.22998c-1.83008,0-3.31006,1.47998-3.31006,3.31v38.53998C10.23824,59.37215,11.71822,60.85213,13.5483,60.85213z"/><path fill="#badda4" d="M20.17818 60.85213h-3.5c-1.82983 0-3.31983-1.47998-3.31983-3.31V19.00215c0-1.83002 1.48999-3.31 3.31983-3.31h3.5c-1.82983 0-3.31982 1.47998-3.31982 3.31v38.53998C16.85836 59.37215 18.34835 60.85213 20.17818 60.85213zM66.00175 19.00215v38.53998c0 1.83002-1.48999 3.31-3.31994 3.31h-8.2301c1.83008 0 3.31006-1.47998 3.31006-3.31V19.00215c0-1.83002-1.47998-3.31-3.31006-3.31h8.2301C64.51176 15.69215 66.00175 17.17213 66.00175 19.00215z"/><path fill="#e2e2e2" d="M29.32603,48.06384H8.93337c-0.62795,0-1.137-0.50906-1.137-1.137V26.53418c0-0.62795,0.50905-1.137,1.137-1.137h20.39266c0.62795,0,1.137,0.50905,1.137,1.137v20.39266C30.46304,47.55478,29.95398,48.06384,29.32603,48.06384z"/><path fill="#d3d3d3" d="M13.65828,48.06215H8.93819c-0.62988,0-1.13989-0.51001-1.13989-1.14001V26.53218c0-0.63,0.51001-1.13,1.13989-1.13h4.72009c-0.63,0-1.14001,0.5-1.14001,1.13v20.38995C12.51827,47.55214,13.02828,48.06215,13.65828,48.06215z"/><path fill="#ededed" d="M30.46304,26.53218v20.38995c0,0.63-0.51001,1.14001-1.13989,1.14001h-4.71997c0.62988,0,1.12988-0.51001,1.12988-1.14001V26.53218c0-0.63-0.5-1.13-1.12988-1.13h4.71997C29.95303,25.40218,30.46304,25.90218,30.46304,26.53218z"/><circle cx="19.128" cy="33.602" r="4.306" fill="#444"/><path fill="#444" d="M28.79408,48.06384c-1.07544-5.65042-4.64959-8.15659-8.9056-8.15659h-1.51756c-4.25601,0-7.83014,2.50617-8.90558,8.15659H28.79408z"/><path fill="#333" d="M19.18011 29.3009c-.01791-.00022-.03448-.00528-.05239-.00528-2.37818 0-4.3061 1.92792-4.3061 4.3061 0 2.37823 1.92792 4.30616 4.3061 4.30616.01791 0 .03448-.00506.05239-.00528V29.3009zM19.18011 39.90726h-.80919c-4.25594 0-7.83016 2.50615-8.90551 8.15656h9.7147V39.90726z"/><path fill="#feeb75" d="M38.56266,21.36343h-9.12181V8.77217c0-0.89821,0.72815-1.62636,1.62636-1.62636h5.86909c0.89822,0,1.62636,0.72815,1.62636,1.62636V21.36343z"/><path fill="#efd96a" d="M38.5627,14.27217v-5.5c0-0.89825-0.72827-1.6264-1.62646-1.6264h-5.86902c-0.89832,0-1.62634,0.72815-1.62634,1.6264v5.5H38.5627z"/><path fill="#ededed" d="M60.20675 29.29561H38.87374c-.55273 0-1 .44727-1 1s.44727 1 1 1h21.33301c.55273 0 1-.44727 1-1S60.75948 29.29561 60.20675 29.29561zM60.20675 37.14912H38.87374c-.55273 0-1 .44727-1 1s.44727 1 1 1h21.33301c.55273 0 1-.44727 1-1S60.75948 37.14912 60.20675 37.14912zM60.20675 45.00264H38.87374c-.55273 0-1 .44727-1 1s.44727 1 1 1h21.33301c.55273 0 1-.44727 1-1S60.75948 45.00264 60.20675 45.00264zM60.20675 52.85518H7.79659c-.55273 0-1 .44727-1 1s.44727 1 1 1h52.41016c.55273 0 1-.44727 1-1S60.75948 52.85518 60.20675 52.85518z"/><path fill="#fff" d="M50.20186 21.44698h.6875c.55273 0 1-.44727 1-1s-.44727-1-1-1h-.6875c-.55273 0-1 .44727-1 1S49.64913 21.44698 50.20186 21.44698zM58.68038 19.44698h-3.78711c-.55273 0-1 .44727-1 1s.44727 1 1 1h3.78711c.55176 0 1 .44922 1 1.00098v3.40723c0 .55273.44727 1 1 1s1-.44727 1-1v-3.40723C61.68038 20.79366 60.33467 19.44698 58.68038 19.44698z"/><path fill="#9ac181" d="M42.23625,22.36369H25.76946c-0.55273,0-1-0.44727-1-1s0.44727-1,1-1h16.46679c0.55273,0,1,0.44727,1,1S42.78899,22.36369,42.23625,22.36369z"/></svg>