<svg xmlns="http://www.w3.org/2000/svg" enable-background="new 0 0 68 68" viewBox="0 0 68 68"><path fill="#444" d="M61.62,25.61587v36.0641c0,1.83387-1.48664,3.32051-3.32051,3.32051H9.70052c-1.83387,0-3.32051-1.48664-3.32051-3.32051v-36.0641c0-1.83387,1.48664-3.32051,3.32051-3.32051H13.49c3.51805,0,6.36999-2.85194,6.36999-6.36999v-0.00001h28.27991v0.00001c0,3.51805,2.85194,6.36999,6.36999,6.36999h3.7896C60.13335,22.29535,61.62,23.782,61.62,25.61587z"/><path fill="#333" d="M12.71325,61.6815V25.61143c0-1.69873,1.2887-3.08813,2.93677-3.28113v-0.42224c-0.67493,0.24365-1.39905,0.38342-2.15674,0.38342H9.70324c-1.83997,0-3.31995,1.48999-3.31995,3.31995V61.6815c0,1.82996,1.47998,3.31995,3.31995,3.31995h6.33008C14.20324,65.00145,12.71325,63.51146,12.71325,61.6815z"/><path fill="#666" d="M26.31591 61.6815V15.92053h-3.5V61.6815c0 1.82996 1.47998 3.31995 3.31995 3.31995h3.5C27.79589 65.00145 26.31591 63.51146 26.31591 61.6815zM58.30004 22.29149H54.51c-.77258 0-1.50916-.1438-2.19348-.39551v.43054c1.66565.17627 2.97351 1.57361 2.97351 3.28491V61.6815c0 1.82996-1.48999 3.31995-3.31995 3.31995h6.32996c1.82996 0 3.31995-1.48999 3.31995-3.31995V25.61143C61.61998 23.78148 60.12999 22.29149 58.30004 22.29149z"/><path fill="#e2e2e2" d="M52.91143,56.67053V29.83719c0-0.55229-0.44772-1-1-1H16.08857c-0.55228,0-1,0.44771-1,1v26.83333c0,0.55228,0.44771,1,1,1h35.82285C52.46371,57.67053,52.91143,57.22281,52.91143,56.67053z"/><path fill="#d3d3d3" d="M33.48326,28.83727H16.08849c-0.55229,0-1,0.44772-1,1v26.83325c0,0.55228,0.44772,1,1,1h17.39477V28.83727z"/><path fill="#444" d="M20.72899 48.62669c.48547 0 .88171-.39368.88171-.87903V36.20518c0-.24146-.09985-.46179-.25977-.62183-.16016-.16016-.38062-.2572-.62195-.2572-.48547 0-.87903.39355-.87903.87903v11.54248c0 .24414.09717.46191.2572.62183C20.2672 48.52696 20.48766 48.62669 20.72899 48.62669zM25.5963 48.62413c.44873-.02893.78467-.43298.78467-.88159v-9.56689l6.83252 10.21753c.09717.14697.25977.23352.43555.23352h.99976c.28857 0 .52478-.23621.52478-.52478V36.16832c0-.23071-.09436-.44336-.2467-.59546-.1521-.15222-.36462-.2467-.59558-.2467-.46704 0-.84485.37781-.84485.84216v9.60095L26.6538 35.55968c-.09705-.14697-.25977-.23352-.43567-.23352H25.2185c-.2887 0-.52478.23621-.52478.52478v11.93347c0 .23352.09448.44348.24658.59558C25.10827 48.54527 25.33922 48.64244 25.5963 48.62413zM38.94152 48.62669c.48535 0 .87891-.39368.87891-.87903v-3.72852l2.17798-2.1228 4.45801 6.33667c.17578.24683.45923.39368.76086.39368.76355 0 1.20178-.86584.75037-1.47986l-4.73608-6.43115 4.10913-3.96997c.17578-.17065.25439-.38049.25439-.58777 0-.42517-.32788-.83179-.82642-.83179-.22046 0-.43042.08655-.58521.24133l-6.36304 6.35522v-5.71753c0-.24146-.09961-.46179-.25708-.62183-.16003-.16016-.37781-.2572-.62183-.2572-.48804 0-.88159.39355-.88159.87903v11.54248c0 .24414.09705.46191.25708.62183C38.47716 48.52696 38.6975 48.62669 38.94152 48.62669z"/><path fill="#fff" d="M46.41002 52.32677L45.52428 52.317c-.00391 0-.00684 0-.01074 0-.54688 0-.99414.44043-1 .98926-.00586.55176.43652 1.00488.98926 1.01074l.88574.00977c.00391 0 .00684 0 .01074 0 .54688 0 .99414-.44043 1-.98926C47.40514 52.78575 46.96276 52.33263 46.41002 52.32677zM41.95201 52.32774c-.00098 0-.00195 0-.00293 0l-8.46875.02539c-.55273.00195-.99902.45117-.99707 1.00293s.44922.99707 1 .99707c.00098 0 .00195 0 .00293 0l8.46875-.02539c.55273-.00195.99902-.45117.99707-1.00293S42.5028 52.32774 41.95201 52.32774z"/><path fill="#e2e2e2" d="M53.20515,17.92053H14.78828c-1.57991,0-2.86068-1.28077-2.86068-2.86068V9.96669c0-3.8484,3.11974-6.96814,6.96814-6.96814h30.20195c3.8484,0,6.96814,3.11974,6.96814,6.96814v5.09315C56.06583,16.63976,54.78506,17.92053,53.20515,17.92053z"/><path fill="#d3d3d3" d="M21.12328,17.92149h-6.32996c-1.57856,0-2.87012-1.29155-2.87012-2.87012V9.96889c0-3.84801,3.11943-6.96744,6.96744-6.96744h2.23263c-1.57996,0-2.85999,1.28003-2.85999,2.85999v9.20007C18.2633,16.64146,19.54333,17.92149,21.12328,17.92149z"/><path fill="#ededed" d="M30.7633 17.92149h-3.5c-1.58008 0-2.87012-1.28003-2.87012-2.85999V5.86144c0-1.57996 1.29004-2.85999 2.87012-2.85999h3.5c-1.58008 0-2.87012 1.28003-2.87012 2.85999v9.20007C27.89318 16.64146 29.18322 17.92149 30.7633 17.92149zM56.06583 9.96877v5.09274c0 1.57953-1.28046 2.85999-2.85999 2.85999h-6.33997c1.58008 0 2.86011-1.28003 2.86011-2.85999V5.86144c0-1.57996-1.28003-2.85999-2.86011-2.85999h2.23263C52.94645 3.00145 56.06583 6.12083 56.06583 9.96877z"/><path fill="#d3d3d3" d="M18.45495 6.54649c-.55273 0-1 .44727-1 1v5.82617c0 .55273.44727 1 1 1s1-.44727 1-1V7.54649C19.45495 6.99376 19.00768 6.54649 18.45495 6.54649zM26.22545 6.54649c-.55273 0-1 .44727-1 1v5.82617c0 .55273.44727 1 1 1s1-.44727 1-1V7.54649C27.22545 6.99376 26.77819 6.54649 26.22545 6.54649zM33.99694 6.54649c-.55273 0-1 .44727-1 1v5.82617c0 .55273.44727 1 1 1s1-.44727 1-1V7.54649C34.99694 6.99376 34.54967 6.54649 33.99694 6.54649zM41.76744 6.54649c-.55273 0-1 .44727-1 1v5.82617c0 .55273.44727 1 1 1s1-.44727 1-1V7.54649C42.76744 6.99376 42.32018 6.54649 41.76744 6.54649zM49.53795 6.54649c-.55273 0-1 .44727-1 1v5.82617c0 .55273.44727 1 1 1s1-.44727 1-1V7.54649C50.53795 6.99376 50.09069 6.54649 49.53795 6.54649z"/></svg>