<svg xmlns="http://www.w3.org/2000/svg" enable-background="new 0 0 68 68" viewBox="0 0 68 68"><path fill="#666" d="M34.00198,24.58357c-0.55273,0-1-0.44727-1-1v-3c0-1.83789-1.49609-3.33398-3.33398-3.33398H18.78518c-2.94141,0-5.33398-2.39258-5.33398-5.33301s2.39258-5.33301,5.33398-5.33301H45.5469c0.55273,0,1,0.44727,1,1s-0.44727,1-1,1H18.78518c-1.83789,0-3.33398,1.49512-3.33398,3.33301s1.49609,3.33301,3.33398,3.33301H29.668c2.94141,0,5.33398,2.39258,5.33398,5.33398v3C35.00198,24.13631,34.55471,24.58357,34.00198,24.58357z"/><path fill="#e2e2e2" d="M62.66041,61.41643H5.33959C3.49519,61.41643,2,59.92124,2,58.07684V26.92268c0-1.8444,1.49519-3.33959,3.33959-3.33959h57.32082c1.8444,0,3.33959,1.49519,3.33959,3.33959v31.15416C66,59.92124,64.50481,61.41643,62.66041,61.41643z"/><path fill="#d3d3d3" d="M11.44,61.41173H5.34003C3.5,61.41173,2,59.92174,2,58.08165V26.92174c0-1.84009,1.5-3.34009,3.34003-3.34009H11.44c-1.83997,0-3.33997,1.5-3.33997,3.34009v31.15991C8.10004,59.92174,9.60004,61.41173,11.44,61.41173z"/><path fill="#ededed" d="M21.07001 61.41173H17.06c-1.83997 0-3.33997-1.48999-3.33997-3.33008V26.92174c0-1.84009 1.5-3.34009 3.33997-3.34009h4.01001c-1.83997 0-3.33997 1.5-3.33997 3.34009v31.15991C17.73004 59.92174 19.23004 61.41173 21.07001 61.41173zM66 26.92174v31.15991c0 1.84009-1.49005 3.33008-3.34003 3.33008H56.56c1.83997 0 3.33997-1.48999 3.33997-3.33008V26.92174c0-1.84009-1.5-3.34009-3.33997-3.34009h6.09998C64.50995 23.58165 66 25.08165 66 26.92174z"/><path fill="#666" d="M19.65371 34.12898v-3.62012c0-.54993.44-1 1-1h3.61005c.54999 0 1 .45007 1 1v3.62012c0 .55005-.45001 1-1 1h-3.61005C20.09372 35.12898 19.65371 34.67903 19.65371 34.12898zM59.89376 30.50887v3.62012c0 .55005-.45001 1-1 1h-3.61005c-.54999 0-1-.44995-1-1v-3.62012c0-.54993.45001-1 1-1h3.61005C59.44375 29.50887 59.89376 29.95894 59.89376 30.50887zM59.89376 50.87898v3.60999c0 .54993-.45001 1-1 1h-3.61005c-.54999 0-1-.45007-1-1v-3.60999c0-.56006.45001-1 1-1h3.61005C59.44375 49.87898 59.89376 50.31892 59.89376 50.87898zM13.71371 30.50887v3.62012c0 .55005-.44995 1-1 1H9.10373c-.54999 0-1-.44995-1-1v-3.62012c0-.54993.45001-1 1-1h3.60999C13.26376 29.50887 13.71371 29.95894 13.71371 30.50887zM13.71371 50.87898v3.60999c0 .54993-.44995 1-1 1H9.10373c-.54999 0-1-.45007-1-1v-3.60999c0-.56006.45001-1 1-1h3.60999C13.26376 49.87898 13.71371 50.31892 13.71371 50.87898zM59.89376 40.69893v3.60999c0 .55005-.45001 1-1 1h-3.61005c-.54999 0-1-.44995-1-1v-3.60999c0-.55994.45001-1 1-1h3.61005C59.44375 39.69893 59.89376 40.13899 59.89376 40.69893zM13.71371 40.69893v3.60999c0 .55005-.44995 1-1 1H9.10373c-.54999 0-1-.44995-1-1v-3.60999c0-.55994.45001-1 1-1h3.60999C13.26376 39.69893 13.71371 40.13899 13.71371 40.69893zM48.35373 50.86897v3.62c0 .54993-.45001 1-1 1H20.65371c-.56 0-1-.45007-1-1v-3.62c0-.55005.44-1 1-1h26.70001C47.90371 49.86897 48.35373 50.31892 48.35373 50.86897zM31.19375 34.12898v-3.62012c0-.54993.45001-1 1-1h3.60999c.54999 0 1 .45007 1 1v3.62012c0 .55005-.45001 1-1 1h-3.60999C31.64376 35.12898 31.19375 34.67903 31.19375 34.12898zM48.35373 40.69893v3.60999c0 .55005-.45001 1-1 1h-3.60999c-.56 0-1-.44995-1-1v-3.60999c0-.55994.44-1 1-1h3.60999C47.90371 39.69893 48.35373 40.13899 48.35373 40.69893zM19.65371 44.30891v-3.60999c0-.55994.44-1 1-1h3.61005c.54999 0 1 .44006 1 1v3.60999c0 .55005-.45001 1-1 1h-3.61005C20.09372 45.30891 19.65371 44.85896 19.65371 44.30891zM31.19375 44.30891v-3.60999c0-.55994.45001-1 1-1h3.60999c.54999 0 1 .44006 1 1v3.60999c0 .55005-.45001 1-1 1h-3.60999C31.64376 45.30891 31.19375 44.85896 31.19375 44.30891zM48.35373 30.50887v3.62012c0 .55005-.45001 1-1 1h-3.60999c-.56 0-1-.44995-1-1v-3.62012c0-.54993.44-1 1-1h3.60999C47.90371 29.50887 48.35373 29.95894 48.35373 30.50887z"/></svg>