<svg xmlns="http://www.w3.org/2000/svg" enable-background="new 0 0 68 68" viewBox="0 0 68 68"><path fill="#fe9967" d="M36.75747,45.65409c-1.76676-2.41649-3.25195-5.11932-4.24909-7.96305h-7.38173c-0.99713,2.84374-2.48232,5.54656-4.24909,7.96305c-0.18011,0.24641-0.36043,0.49744-0.54021,0.75271c-4.41063,6.26422-3.05952,14.67409,2.45923,19.35284c0.3522,0.29859,0.80904,0.44839,1.27077,0.44839h9.50033c0.46173,0,0.91857-0.14979,1.27077-0.44838c5.51881-4.67875,6.86993-13.08862,2.4593-19.35284C37.11796,46.15154,36.93758,45.9005,36.75747,45.65409z"/><path fill="#ef8759" d="M27.60756,66.20473h-3.53628c-0.46156,0-0.91822-0.14967-1.27036-0.44805c-5.51879-4.6762-6.8785-13.08746-2.46338-19.35188c0.17999-0.25,0.36005-0.5,0.54004-0.75c1.76996-2.42004,3.25-5.12012,4.25-7.95996h4.25c-1,2.83984-2.48004,5.53992-4.25,7.95996c-0.17999,0.25-0.36005,0.5-0.54004,0.75C20.02755,52.87477,21.62758,61.63478,27.60756,66.20473z"/><path fill="#ffac88" d="M33.56353,66.20473h-3.53628c5.98004-4.56995,7.58002-13.32996,3.02002-19.79993l-0.53998-0.75c-1.77002-2.42004-3.25-5.12012-4.25-7.95996h4.25c1,2.83984,2.47998,5.53992,4.25,7.95996l0.53998,0.75c4.41513,6.26442,3.05547,14.67568-2.46338,19.35188C34.48175,66.05506,34.02509,66.20473,33.56353,66.20473z"/><path fill="#666" d="M32.33128,5.74193h-7.02997c0-2.60986,1.56995-3.94995,3.50995-3.94995C30.76128,1.79198,32.33128,3.13206,32.33128,5.74193z"/><path fill="#a7d08c" d="M45.72615,4.67874c1.31667-0.15478,2.5167,0.76522,2.68623,2.08008l3.47023,26.91493c0.16782,1.30159-0.73629,2.50974-2.03528,2.69666c-14.30402,2.05822-28.34627,2.14968-42.09351,0.02402c-1.28572-0.1988-2.17141-1.40207-2.00504-2.69238L9.21732,6.80022c0.17161-1.33098,1.39483-2.25024,2.72548-2.07608L45.72615,4.67874z"/><path fill="#badda4" d="M19.9113,35.79198c-0.09003,0.70996,0.09998,1.40002,0.5,1.92993c-0.91003-0.04993-1.82001-0.10986-2.73004-0.17993c-0.31-0.5-0.44995-1.12-0.37-1.75l3.84003-29.81006c0.06-0.47998,0.25-0.90991,0.52002-1.27002h2.60999c-0.28003,0.36011-0.47003,0.79004-0.53003,1.27002L19.9113,35.79198z"/><path fill="#a7d08c" d="M62.27129,3.63206H61.6013C61.83128,3.60204,62.05132,3.61205,62.27129,3.63206z"/><path fill="#9ac181" d="M12.82127,34.55199c-0.14996,1.14001,0.48004,2.21997,1.47003,2.67993c-2.19-0.21997-4.37-0.5-6.54004-0.83997c-1.27997-0.19995-2.16998-1.40002-2-2.68994L9.2213,6.80199c0.16998-1.33008,1.39001-2.25,2.71997-2.08008l4.98999-0.01001c-0.19995,0.32007-0.34998,0.69006-0.39996,1.09009L12.82127,34.55199z"/><path fill="#badda4" d="M44.81009,34.55199c0.14996,1.14001-0.48004,2.21997-1.47003,2.67993c2.19-0.21997,4.37-0.5,6.54004-0.83997c1.27997-0.19995,2.16998-1.40002,2-2.68994L48.41007,6.80199c-0.16998-1.33008-1.39001-2.25-2.71997-2.08008L40.70011,4.7119c0.19995,0.32007,0.34998,0.69006,0.39996,1.09009L44.81009,34.55199z"/><path fill="#fff" d="M46.95174 25.82985c-.07129-.54883-.58594-.92578-1.12012-.86426-.54785.07129-.93457.57324-.86426 1.12012l.54102 4.17969c.02148.16016-.04883.27637-.0918.33203-.04199.05273-.13574.14551-.29004.16211l-.89453.09766c-.69531.07813-.89648.09961-2.05664.19141-.5498.04395-.96094.52539-.91797 1.07617.04199.52344.47949.9209.99609.9209.02637 0 .05273-.00098.08008-.00293 1.19434-.09473 1.40234-.11816 2.11914-.19727l.88965-.09766c.65332-.07129 1.2373-.39551 1.64551-.91309.41016-.52051.58887-1.16895.50488-1.8252L46.95174 25.82985zM44.50643 22.43434c.06543.50391.49512.87207.99121.87207.04199 0 .08594-.00293.12891-.00781.54785-.07129.93457-.57227.86426-1.12012l-.06445-.5c-.07031-.54688-.56445-.92285-1.12012-.86426-.54785.07129-.93457.57227-.86426 1.12012L44.50643 22.43434z"/></svg>