<svg xmlns="http://www.w3.org/2000/svg" enable-background="new 0 0 68 68" viewBox="0 0 68 68"><path fill="#fe9967" d="M61.06237,47.55666H6.93775V13.51511c0-1.57327,1.27539-2.84867,2.84866-2.84867h48.4273c1.57327,0,2.84866,1.27539,2.84866,2.84867V47.55666z"/><path fill="#444" d="M65.00006,47.55666h-62c-0.55228,0-1,0.44772-1,1v0.80416c0,4.4021,3.56861,7.97071,7.97071,7.97071h48.05859c4.4021,0,7.97071-3.56861,7.97071-7.97071v-0.80416C66.00006,48.00437,65.55235,47.55666,65.00006,47.55666z"/><path fill="#ef8759" d="M16.57001,10.66501c-1.57007,0-2.8501,1.27997-2.8501,2.84998v34.04004H6.93988V13.51498c0-1.57001,1.27002-2.84998,2.8501-2.84998H16.57001z"/><path fill="#333" d="M16.74994,57.33499H9.96991c-4.40169,0-7.96997-3.56828-7.96997-7.96997v-0.81c0-0.55228,0.44772-1,1-1h5.78003v1.81C8.77997,53.76498,12.34991,57.33499,16.74994,57.33499z"/><path fill="#ffac88" d="M23.40985,10.66501c-1.57983,0-2.84985,1.27997-2.84985,2.84998v34.04004h-2.48999V13.51498c0-1.57001,1.27002-2.84998,2.84985-2.84998H23.40985z"/><path fill="#666" d="M28.53009,57.33499h-2.49011c-4.41003,0-7.96997-3.57001-7.96997-7.96997v-1.81H20.56v1.81C20.56,53.76498,24.12994,57.33499,28.53009,57.33499z"/><path fill="#ffac88" d="M51.42999,10.66501c1.57007,0,2.8501,1.27997,2.8501,2.84998v34.04004h6.78003V13.51498c0-1.57001-1.27002-2.84998-2.8501-2.84998H51.42999z"/><path fill="#666" d="M51.25006,57.33499h6.78003c4.40169,0,7.96997-3.56828,7.96997-7.96997v-0.81c0-0.55228-0.44772-1-1-1h-5.78003v1.81C59.22003,53.76498,55.65009,57.33499,51.25006,57.33499z"/><rect width="25.496" height="42.73" x="21.252" y="7.747" fill="#e2e2e2" transform="rotate(90 34 29.112)"/><rect width="5.78" height="25.49" x="12.63" y="16.365" fill="#d3d3d3"/><rect width="2.25" height="25.49" x="23.59" y="16.365" fill="#ededed"/><rect width="5.78" height="25.49" x="49.585" y="16.365" fill="#ededed"/><rect width="10.398" height="8.641" x="18.332" y="21.8" fill="#a7d08c"/><path fill="#666" d="M45.2275,27.61122l-1.14837,0.69434c-0.27387,0.16559-0.32382,0.54227-0.10258,0.77352l3.31104,3.46075c0.19849,0.20747,0.18187,0.53912-0.03637,0.7257l-1.72002,1.47047c-0.21825,0.18658-0.54844,0.15144-0.72253-0.0769l-2.90373-3.80865c-0.19408-0.25457-0.57407-0.26372-0.78019-0.01879l-0.85905,1.02084c-0.27327,0.32474-0.80136,0.18279-0.87498-0.2352l-1.14202-6.48359c-0.06605-0.37496,0.29452-0.68322,0.65466-0.55968l6.22769,2.13636C45.53242,26.84809,45.59063,27.39167,45.2275,27.61122z"/><path fill="#fff" d="M37.99994,51.44388h-8c-0.55273,0-1,0.44727-1,1s0.44727,1,1,1h8c0.55273,0,1-0.44727,1-1S38.55267,51.44388,37.99994,51.44388z"/></svg>