<svg xmlns="http://www.w3.org/2000/svg" enable-background="new 0 0 68 68" viewBox="0 0 68 68"><path fill="#a7d08c" d="M59.42226,47.53759H8.57774V14.59117c0-1.47027,1.19189-2.66217,2.66217-2.66217h45.52019c1.47028,0,2.66217,1.19189,2.66217,2.66217V47.53759z"/><path fill="#9ac181" d="M16.45984,11.93098c-1.46997,0-2.65991,1.19-2.65991,2.65997v32.95001H8.57996V14.59095c0-1.46997,1.18994-2.65997,2.65991-2.65997H16.45984z"/><path fill="#badda4" d="M24.13989 11.93098c-1.47009 0-2.66003 1.19-2.66003 2.65997v32.95001h-2.41992V14.59095c0-1.46997 1.18994-2.65997 2.65991-2.65997H24.13989zM59.42226 14.59095v32.95001h-5.2301V14.59095c0-1.46997-1.18994-2.65997-2.65991-2.65997h5.21997C58.22219 11.93098 59.42226 13.12098 59.42226 14.59095z"/><rect width="25.161" height="40.396" x="21.42" y="9.535" fill="#e2e2e2" transform="rotate(90 34 29.733)"/><rect width="40.4" height="6.35" x="13.8" y="17.151" fill="#d3d3d3"/><rect width="40.4" height="6.35" x="13.8" y="35.964" fill="#ededed"/><path fill="#444" d="M3.27957,47.53756c-0.81648,0-1.41217,0.75318-1.25403,1.5542c0.78379,3.97006,4.51558,6.97795,9.00074,6.97795h45.94745c4.48516,0,8.21695-3.00789,9.00074-6.97795c0.15814-0.80102-0.43755-1.5542-1.25403-1.5542H3.27957z"/><path fill="#333" d="M65.96985,49.09095c-0.78003,3.97003-4.51001,6.98004-9,6.98004H11.02991c-4.48999,0-8.21997-3.01001-9-6.98004c-0.15002-0.73999,0.34998-1.44,1.07996-1.52997c1.58997,2.52997,4.54004,4.23999,7.92004,4.23999h45.93994c3.38,0,6.33008-1.71002,7.92004-4.23999C65.61987,47.65095,66.11987,48.35096,65.96985,49.09095z"/><path fill="#fff" d="M38.44031 50.80372h-8.88086c-.55273 0-1 .44727-1 1s.44727 1 1 1h8.88086c.55273 0 1-.44727 1-1S38.99304 50.80372 38.44031 50.80372zM17.80164 24.25099c.55273 0 1-.44727 1-1v-1.09863h4.94824c.55273 0 1-.44727 1-1s-.44727-1-1-1h-5.24805c-.9375 0-1.7002.7627-1.7002 1.7002v1.39844C16.80164 23.80372 17.2489 24.25099 17.80164 24.25099zM27.29187 22.15236h1c.55273 0 1-.44727 1-1s-.44727-1-1-1h-1c-.55273 0-1 .44727-1 1S26.73914 22.15236 27.29187 22.15236z"/></svg>