<svg xmlns="http://www.w3.org/2000/svg" enable-background="new 0 0 68 68" viewBox="0 0 68 68"><path fill="#feeb75" d="M62.01045,56.14627H5.98955C3.78618,56.14627,2,54.36008,2,52.15672V15.84754c0-2.20337,1.78618-3.98955,3.98955-3.98955h56.0209c2.20337,0,3.98955,1.78618,3.98955,3.98955v36.30918C66,54.36008,64.21382,56.14627,62.01045,56.14627z"/><path fill="#efd96a" d="M12.49331,56.14377h-6.5c-2.20996,0-3.98999-1.78003-3.98999-3.99005v-36.31c0-2.19995,1.78003-3.98999,3.98999-3.98999h6.5c-2.20996,0-3.98999,1.79004-3.98999,3.98999v36.31C8.50332,54.36374,10.28335,56.14377,12.49331,56.14377z"/><path fill="#fff3ab" d="M21.02334 56.14377h-3.5c-2.21002 0-3.98999-1.78003-3.98999-3.99005v-36.31c0-2.19995 1.77997-3.98999 3.98999-3.98999h3.5c-2.21002 0-3.98999 1.79004-3.98999 3.98999v36.31C17.03335 54.36374 18.81331 56.14377 21.02334 56.14377zM66 15.84372v36.31c0 2.21002-1.78998 3.99005-3.98999 3.99005h-6.5c2.20001 0 3.98999-1.78003 3.98999-3.99005v-36.31c0-2.19995-1.78998-3.98999-3.98999-3.98999h6.5C64.21002 11.85373 66 13.64377 66 15.84372z"/><path fill="#fff" d="M46.75423 50.59751l-1.00195-.01074c-.00391 0-.00684 0-.01074 0-.54785 0-.99414.44043-1 .98926-.00586.55273.4375 1.00488.98926 1.01074l1.00195.01074c.00391 0 .00684 0 .01074 0 .54785 0 .99414-.44043 1-.98926C47.74935 51.05552 47.30599 50.60337 46.75423 50.59751zM41.82552 50.59458l-10.38086-.00781c-.00098 0-.00098 0-.00098 0-.55176 0-1 .44727-1 .99902 0 .55273.44727 1.00098.99902 1.00098l10.38086.00781c.00098 0 .00098 0 .00098 0 .55176 0 1-.44727 1-.99902C42.82454 51.04282 42.37728 50.59458 41.82552 50.59458z"/><path fill="#efd96a" d="M65.72704,53.60096c-0.25995,0.67999-0.70996,1.27002-1.27997,1.71002l-24.73999-21.75l-2.35004,1.76001c-1.01001,0.73999-2.19,1.10999-3.35999,1.10999s-2.34997-0.37-3.34997-1.10999l-2.36005-1.76001l-24.73999,21.75c-0.57001-0.44-1.01996-1.03003-1.27997-1.72003l24.27997-21.32996L2.34703,14.23096c0.29004-0.66998,0.76001-1.23999,1.35004-1.64996l28.21997,21.02997c1.23999,0.91998,2.92004,0.91998,4.17004,0L64.29704,12.581c0.59003,0.40997,1.06,0.96997,1.35004,1.63995L41.44707,32.26099L65.72704,53.60096z"/></svg>