<svg xmlns="http://www.w3.org/2000/svg" enable-background="new 0 0 68 68" viewBox="0 0 68 68"><path fill="#444" d="M13.24417,34.33559c-0.55273,0-1-0.44727-1-1V21.90785c0-1.12305,0.66504-2.1377,1.69434-2.58594l1.7334-0.75293c0.50781-0.22168,1.09473,0.01172,1.31543,0.51855s-0.01172,1.0957-0.51855,1.31543l-1.73242,0.75293c-0.29883,0.12988-0.49219,0.42578-0.49219,0.75195v11.42773C14.24417,33.88832,13.7969,34.33559,13.24417,34.33559z"/><circle cx="35.973" cy="11.204" r="9.204" fill="#fe9967"/><path fill="#fe9967" d="M53.36052,33.33001c-2.02913-8.94212-8.41537-12.92324-16.0118-12.92324h-2.74252c-7.59648,0-13.98266,3.98112-16.0118,12.92324H53.36052z"/><path fill="#ef8759" d="M38.09044,20.15795c-0.68567,0.16028-1.38917,0.2493-2.1193,0.2493c-5.0845,0-9.19842-4.12284-9.19842-9.20739c0-5.07558,4.11392-9.19842,9.19842-9.19842c0.73013,0,1.43363,0.08902,2.1193,0.2493c-4.06947,0.9528-7.08803,4.60372-7.08803,8.94912C31.0024,15.55423,34.02097,19.20515,38.09044,20.15795z"/><path fill="#ef8759" d="M24.18861,33.33001c1.90213-8.37355,7.61972-12.40333,14.58663-12.87035c-0.47284-0.03152-0.94568-0.05257-1.42708-0.05257h-2.74448c-7.59818,0-13.9772,3.97964-16.01298,12.92292H24.18861z"/><path fill="#ffac88" d="M33.85183,20.15795c0.68567,0.16028,1.38917,0.2493,2.1193,0.2493c5.0845,0,9.19842-4.12284,9.19842-9.20739c0-5.07558-4.11392-9.19842-9.19842-9.19842c-0.73013,0-1.43363,0.08902-2.1193,0.2493c4.06947,0.9528,7.08803,4.60372,7.08803,8.94912C40.93987,15.55423,37.9213,19.20515,33.85183,20.15795z"/><path fill="#ffac88" d="M47.75478,33.33001h5.59791c-2.03578-8.94328-8.4148-12.92292-16.01298-12.92292h-2.74448c-0.4814,0-0.95424,0.02105-1.42708,0.05257C40.13505,20.92668,45.85264,24.95645,47.75478,33.33001z"/><path fill="#feeb75" d="M56.80484 42.76246H11.19517c-.71147 0-1.28822-.57676-1.28822-1.28822v-6.85601c0-.71147.57676-1.28822 1.28822-1.28822h45.60967c.71146 0 1.28822.57676 1.28822 1.28822v6.85601C58.09306 42.1857 57.5163 42.76246 56.80484 42.76246zM54.43979 42.76246H13.56021l2.25674 20.17763C15.99981 64.67945 17.46647 66 19.21542 66h29.56916c1.74895 0 3.21561-1.32055 3.39847-3.05991L54.43979 42.76246z"/><path fill="#efd96a" d="M18.14001 42.75762h-6.94c-.71997 0-1.28998-.57001-1.28998-1.28003V34.6176c0-.71002.57001-1.28998 1.28998-1.28998h6.94c-.72003 0-1.28998.57996-1.28998 1.28998v6.85999C16.85004 42.18761 17.41998 42.75762 18.14001 42.75762zM26.16003 65.9976h-6.94c-1.75 0-3.22003-1.32001-3.40002-3.05999L13.56 42.75762h6.94l2.26001 20.17999C22.94 64.6776 24.41003 65.9976 26.16003 65.9976z"/><path fill="#fff3ab" d="M25.95001 42.75762h-3.12c-.72003 0-1.28998-.57001-1.28998-1.28003V34.6176c0-.71002.56995-1.28998 1.28998-1.28998h3.12c-.71997 0-1.28998.57996-1.28998 1.28998v6.85999C24.66003 42.18761 25.23004 42.75762 25.95001 42.75762zM33.97003 65.9976h-3.12c-1.75 0-3.23004-1.32001-3.41003-3.05999l-2.26001-20.17999h3.13l2.26001 20.17999C30.75 64.6776 32.22003 65.9976 33.97003 65.9976zM58.09306 34.6176v6.85999c0 .71002-.57001 1.28003-1.28003 1.28003h-6.95001c.72003 0 1.29004-.57001 1.29004-1.28003V34.6176c0-.71002-.57001-1.28998-1.29004-1.28998h6.95001C57.52305 33.32763 58.09306 33.90758 58.09306 34.6176zM54.44303 42.75762l-2.26001 20.17999c-.17999 1.73999-1.64996 3.05999-3.39996 3.05999h-6.94c1.75 0 3.21997-1.32001 3.39996-3.05999l2.26001-20.17999H54.44303z"/><path fill="#666" d="M24.03621,15.92975L24.03621,15.92975c0.49519,1.11579,0.06621,2.38886-0.95816,2.84348l-4.28108,1.86084c-1.02437,0.45462-2.25621-0.08137-2.7514-1.19715l0,0c-0.49519-1.11579-0.06621-2.38885,0.95816-2.84347l4.28108-1.86084C22.30917,14.27798,23.54102,14.81397,24.03621,15.92975z"/><path fill="#fff" d="M43.38751 61.99993h2.86719c1.14551 0 2.10547-.8584 2.23242-1.99609l.65039-5.81348c.06152-.54883-.33398-1.04395-.88281-1.10547-.54883-.04883-1.04395.33398-1.10547.88281l-.65039 5.81445c-.01367.12402-.11914.21777-.24414.21777h-2.86719c-.55273 0-1 .44727-1 1S42.83478 61.99993 43.38751 61.99993zM38.70001 61.99993h.9375c.55273 0 1-.44727 1-1s-.44727-1-1-1h-.9375c-.55273 0-1 .44727-1 1S38.14728 61.99993 38.70001 61.99993z"/></svg>