<svg xmlns="http://www.w3.org/2000/svg" enable-background="new 0 0 68 68" viewBox="0 0 68 68"><path fill="#fe9967" d="M65.53034,6.35164v30.08996c0,2.02002-1.64014,3.65002-3.65015,3.65002H16.55036V6.35164c0-2.01001,1.62988-3.64001,3.6499-3.64001H61.8802C63.89021,2.71163,65.53034,4.34163,65.53034,6.35164z"/><path fill="#ef8759" d="M23.35533,38.57855l-0.18872-0.48334V6.35442c0-2.02002,1.62988-3.65002,3.6499-3.65002h-6.61987c-2.02002,0-3.65015,1.63-3.65015,3.65002v31.74079l0.18872,0.48334H23.35533z"/><path fill="#ffac88" d="M32.44664 14.13439V6.35442c0-2.02002 1.62988-3.65002 3.6499-3.65002h-3.76001c-2.02002 0-3.6499 1.63-3.6499 3.65002v7.77997 25.96002h3.76001V14.13439zM61.87667 2.7044h-6.60999c2.01001 0 3.63989 1.63 3.63989 3.65002v30.08997c0 2.01001-1.62988 3.65002-3.63989 3.65002h6.60999c2.02002 0 3.65002-1.64001 3.65002-3.65002V6.35442C65.5267 4.3344 63.89669 2.7044 61.87667 2.7044z"/><polyline fill="#ededed" points="22.373 15.839 22.373 8.238 59.7 8.238 59.7 34.56 27.42 34.56"/><rect width="17.076" height="26.322" x="22.373" y="8.238" fill="#e2e2e2"/><path fill="#a7d08c" d="M28.64608,65.2956h18.6736v-1.2098c0-3.82026-3.09694-6.9172-6.91721-6.9172h-4.8392c-3.82027,0-6.9172,3.09694-6.9172,6.9172V65.2956z"/><circle cx="37.983" cy="50.701" r="4.416" fill="#a7d08c"/><circle cx="56.663" cy="50.701" r="4.416" fill="#a7d08c"/><path fill="#a7d08c" d="M47.3264,65.2956H66v-1.2098c0-3.82026-3.09694-6.9172-6.9172-6.9172h-4.8392c-3.82027,0-6.9172,3.09694-6.9172,6.9172V65.2956z"/><circle cx="17.571" cy="19.63" r="5.593" fill="#feeb75"/><path fill="#feeb75" d="M34.58146,12.23055c-1.07394-0.47167-2.32844-0.04015-2.88035,0.99354l-7.35033,9.73536c-0.53194,0.99354-1.50546,1.66595-2.60938,1.80651l-2.73998,0.41144l-7.9285,1.18427c-0.76276,0.10037-1.47527,0.44158-2.01727,0.99364l-6.00139,7.72746c-0.41874,0.53917-0.66141,1.19415-0.69506,1.876L2.00301,44.1758c-0.06832,1.38436,1.03567,2.54419,2.42172,2.54419h0c1.29881,0,2.36696-1.02345,2.42245-2.32107l0.23051-5.3903c0.02224-0.51998,0.20464-1.02038,0.52225-1.43269l3.71382-4.82122l-0.00001,29.56745c0,1.46954,1.0567,2.80014,2.51786,2.95679c1.57396,0.16875,2.95048-0.96526,3.12074-2.49921l2.04907-15.56867l2.04917,15.56863c0.15899,1.43228,1.36958,2.51592,2.81066,2.51592h0.00015c1.5618,0,2.82789-1.26608,2.82789-2.82788V30.30596l8.98624-15.01439c0.17051-0.32118,0.2509-0.67241,0.2509-1.01362C35.92642,13.42484,35.42462,12.60185,34.58146,12.23055z"/><path fill="#efd96a" d="M19.58653 24.84441c-.62988.25-1.31006.38-2.02002.38-3.07996 0-5.58996-2.51001-5.58996-5.59003 0-3.08997 2.51001-5.59998 5.58996-5.59998.70996 0 1.39014.13 2.02002.38-2.08997.81-3.56995 2.83997-3.56995 5.21997C16.01658 22.00438 17.49656 24.03441 19.58653 24.84441zM11.31651 32.20108L11.31651 32.20108l0 30.12331c0 1.47003 1.05005 2.79999 2.52002 2.95001.91003.09998 1.76001-.23999 2.3501-.84998-.53003-.55005-.84009-1.30005-.84009-2.10004V36.23111C15.34654 34.00539 13.54223 32.20108 11.31651 32.20108z"/><path fill="#efd96a" d="M11.07652,26.36437l3.28003-0.48999L7.08653,35.0844c-0.40991,0.53998-0.65991,1.19-0.68994,1.87l-0.36011,7.22003c-0.02991,0.53998,0.13013,1.04999,0.41016,1.46997c0,0,0,0,0,0.01001c-0.11011,0.14996-0.21008,0.27002-0.34009,0.39001c-0.43994,0.41998-1.03003,0.67999-1.67993,0.67999c-1.39014,0-2.48999-1.16003-2.42004-2.54999l0.34998-7.22003c0.04004-0.67999,0.28003-1.33002,0.69995-1.87l6-7.72998C9.59654,26.80437,10.3065,26.46441,11.07652,26.36437z"/><path fill="#666" d="M42.19957 15.95141h12.5c.55273 0 1-.44727 1-1s-.44727-1-1-1h-12.5c-.55273 0-1 .44727-1 1S41.64683 15.95141 42.19957 15.95141zM42.19957 22.39867h12.5c.55273 0 1-.44727 1-1s-.44727-1-1-1h-12.5c-.55273 0-1 .44727-1 1S41.64683 22.39867 42.19957 22.39867z"/></svg>