<svg xmlns="http://www.w3.org/2000/svg" enable-background="new 0 0 68 68" viewBox="0 0 68 68"><path fill="#444" d="M3.06299 38.35815c-.0166-.45801-.02441-.91602-.02441-1.37207 0-9.62109 3.81836-18.80176 10.47559-25.18945l.3125-.29883 2.92285 3.5752-.25977.25586C10.87939 20.8396 7.6626 28.73315 7.6626 36.98608c0 .32715.00684.64746.01465.97559l.00879.35059-.3457.07813L3.07861 38.781 3.06299 38.35815zM64.93701 38.35815c.0166-.45801.02441-.91602.02441-1.37207 0-9.62109-3.81836-18.80176-10.47559-25.18945l-.3125-.29883-2.92285 3.5752.25977.25586c5.61035 5.51074 8.82715 13.4043 8.82715 21.65722 0 .32715-.00684.64746-.01465.97559l-.00879.35059.3457.07813 4.26172.39063L64.93701 38.35815z"/><path fill="#e2e2e2" d="M9.17716 41.37407l-.23437-1.08295c-.42025-2.11742-2.69123-3.30544-4.67126-2.44878-1.51937.6627-2.33563 2.33563-1.93154 3.9439l1.60827 6.15022M64.05174 47.93646l1.60827-6.15022c.40409-1.60827-.41217-3.2812-1.93154-3.9439-1.98003-.85667-4.25101.33135-4.67126 2.44878l-.23437 1.08295"/><path fill="#444" d="M17.74487,39.68547l6.71749,21.9138c0.55102,1.79755-0.45737,3.6974-2.26219,4.25065c-0.89875,0.27551-1.82186,0.15879-2.59292-0.24433c-0.38186-0.20271-0.72095-0.47444-1.00772-0.81022c-0.01403-0.01966-0.02583-0.03204-0.03987-0.05174c-0.26993-0.33289-0.48305-0.71521-0.61521-1.14634l-6.71749-21.9138c-0.13216-0.43113-0.16991-0.86721-0.13292-1.29418c0.00059-0.02419,0.00342-0.04106,0.00402-0.0652c0.14072-1.31415,1.04657-2.47912,2.39109-2.89127c0.90607-0.27775,1.82913-0.16102,2.60019,0.2421C16.85538,38.0876,17.46937,38.78672,17.74487,39.68547z"/><path fill="#666" d="M22.20017,65.84991c-0.89875,0.27551-1.82186,0.15879-2.59292-0.24433c-0.38186-0.20271-0.72095-0.47444-1.00772-0.81022c-0.01403-0.01966-0.02583-0.03204-0.03987-0.05174c-0.26993-0.33289-0.48305-0.71521-0.61521-1.14634l-6.71749-21.9138c-0.13216-0.43113-0.16991-0.86721-0.13292-1.29418c0.00059-0.02419,0.00342-0.04106,0.00402-0.0652c0.14072-1.31415,1.04657-2.47912,2.39109-2.89127L22.20017,65.84991z"/><path fill="#fe9967" d="M17.94446,63.59728c0.13216,0.43113,0.34528,0.81345,0.61521,1.14634c-6.37779,1.30757-12.83344-2.43695-14.77992-8.78676L3.7775,55.94955C1.83101,49.59973,5.07913,42.8806,11.09405,40.3893c-0.037,0.42698,0.00076,0.86305,0.13292,1.29418L17.94446,63.59728z"/><path fill="#ffac88" d="M18.56433,64.74365c-6.38001,1.31006-12.83997-2.43995-14.78003-8.79004H3.77429c-1.54993-5.05994,0.20007-10.36987,4.03003-13.55994c-1.76001,2.97998-2.29993,6.67004-1.21008,10.22998v0.01001c1.53003,5,5.8501,8.38,10.7301,8.95007l0.62,2.01001C18.07434,64.02368,18.29431,64.4137,18.56433,64.74365z"/><path fill="#e2e2e2" d="M54.20715,12.0883c-0.11466,0.51204-0.32098,1.01644-0.63435,1.47502c-0.45854,0.68016-1.07759,1.1846-1.7807,1.48268c-0.53499,0.24457-1.11584,0.36683-1.69669,0.36683c-0.81777,0-1.63554-0.23692-2.35395-0.72606c-4.1423-2.80484-8.896-4.27986-13.74146-4.27986s-9.59916,1.47502-13.74146,4.27986c-1.2381,0.84832-2.77428,0.93243-4.05064,0.35923c-0.70311-0.29807-1.32216-0.80252-1.7807-1.48268c-0.31337-0.45859-0.51969-0.96298-0.63435-1.47502c-0.35158-1.62024,0.29042-3.37043,1.75015-4.35632C21.08391,3.97942,27.46555,2,34,2s12.91609,1.97942,18.457,5.73198C53.91673,8.71787,54.55873,10.46806,54.20715,12.0883z"/><path fill="#ededed" d="M54.20435,12.08374c-0.11011,0.52002-0.32007,1.02002-0.63,1.47998c0,0.01001-0.01001,0.01001-0.01001,0.02002c-0.29004-0.43005-0.66003-0.80005-1.10999-1.1001c-5.54004-3.75-11.92004-5.72998-18.44995-5.72998c-6.54004,0-12.92017,1.97998-18.46008,5.72998c-0.45007,0.30005-0.81995,0.67004-1.10999,1.1001c0-0.01001-0.01001-0.01001-0.01001-0.02002c-0.31006-0.45996-0.52002-0.95996-0.63-1.47998c-0.34998-1.62012,0.28992-3.37012,1.75-4.3501c5.53992-3.75,11.92004-5.72998,18.46008-5.72998c6.52991,0,12.90991,1.97998,18.44995,5.72998C53.91431,8.71362,54.55432,10.46362,54.20435,12.08374z"/><path fill="#444" d="M50.25513,39.68547l-6.71749,21.9138c-0.55103,1.79755,0.45737,3.6974,2.26219,4.25065c0.89875,0.27551,1.82186,0.15879,2.59292-0.24433c0.38186-0.20271,0.72096-0.47444,1.00773-0.81022c0.01403-0.01966,0.02582-0.03204,0.03986-0.05174c0.26993-0.33289,0.48305-0.71521,0.61521-1.14634l6.71749-21.9138c0.13216-0.43113,0.16991-0.86721,0.13292-1.29418c-0.00059-0.02419-0.00342-0.04106-0.00402-0.0652c-0.14072-1.31415-1.04657-2.47912-2.39109-2.89127c-0.90607-0.27775-1.82913-0.16102-2.60019,0.2421C51.14462,38.0876,50.53063,38.78672,50.25513,39.68547z"/><path fill="#666" d="M45.79983,65.84991c0.89875,0.27551,1.82186,0.15879,2.59292-0.24433c0.38186-0.20271,0.72096-0.47444,1.00773-0.81022c0.01403-0.01966,0.02582-0.03204,0.03986-0.05174c0.26993-0.33289,0.48305-0.71521,0.61521-1.14634l6.71749-21.9138c0.13216-0.43113,0.16991-0.86721,0.13292-1.29418c-0.00059-0.02419-0.00342-0.04106-0.00402-0.0652c-0.14072-1.31415-1.04657-2.47912-2.39109-2.89127L45.79983,65.84991z"/><path fill="#fe9967" d="M50.05555,63.59728c-0.13216,0.43113-0.34528,0.81345-0.61521,1.14634c6.37778,1.30757,12.83344-2.43695,14.77992-8.78676l0.00224-0.00731c1.94648-6.34982-1.30163-13.06894-7.31655-15.56025c0.037,0.42698-0.00076,0.86305-0.13292,1.29418L50.05555,63.59728z"/><path fill="#ffac88" d="M49.43567,64.74365c6.38,1.31006,12.83997-2.43995,14.78003-8.79004h0.01001c1.54993-5.05994-0.20007-10.36987-4.03003-13.55994c1.76001,2.97998,2.29993,6.67004,1.21008,10.22998v0.01001c-1.53003,5-5.8501,8.38-10.7301,8.95007l-0.62,2.01001C49.92566,64.02368,49.70569,64.4137,49.43567,64.74365z"/><path fill="#e2e2e2" d="M21.98206,19.71556v14.91288c0,0.67551,0.65623,1.15906,1.29825,0.94902c4.1647-1.36246,9.72762,0.62802,10.7197,1.18307V19.66925c-1.05624-0.59095-6.45951-2.84667-11.40976-0.87979C22.21747,18.93757,21.98206,19.31444,21.98206,19.71556z"/><path fill="#d3d3d3" d="M27.99103,18.00309c-2.19983-0.02064-3.83709,0.17975-5.35079,0.7674c-0.39228,0.15229-0.65817,0.52163-0.65817,0.94243v14.92185c0,0.67359,0.64995,1.1548,1.2918,0.95046c1.26459-0.4026,2.77382-0.5157,4.71716-0.46142V18.00309z"/><path fill="#e2e2e2" d="M34.00001,19.66925v17.09128c0.99205-0.55505,6.55498-2.54552,10.71967-1.18307c0.64202,0.21003,1.29825-0.27352,1.29825-0.94902V19.71556c0-0.40113-0.23541-0.77799-0.60819-0.92611C40.4595,16.82258,35.05622,19.0783,34.00001,19.66925z"/><path fill="#ededed" d="M40.00897,18.00309c2.19983-0.02064,3.8371,0.17975,5.35081,0.7674c0.39227,0.15229,0.65816,0.52163,0.65816,0.94243v14.92185c0,0.67359-0.64996,1.1548-1.2918,0.95046c-1.26458-0.4026-2.77383-0.5157-4.71717-0.46142V18.00309z"/></svg>