<svg xmlns="http://www.w3.org/2000/svg" enable-background="new 0 0 68 68" viewBox="0 0 68 68"><path fill="#fe9967" d="M34,1.99615c-12.58002,0-22.78998,10.20996-22.78998,22.78998c0,9.63,13.33997,30.33002,19.60999,39.53003c1.53003,2.25,4.83002,2.25,6.35999,0c6.27002-9.20001,19.60999-29.90002,19.60999-39.53003C56.78998,12.20612,46.58002,1.99615,34,1.99615z M34,35.58612c-5.96997,0-10.79999-4.82996-10.79999-10.79999c0-5.96997,4.83002-10.79999,10.79999-10.79999c5.97003,0,10.79999,4.83002,10.79999,10.79999C44.79999,30.75616,39.97003,35.58612,34,35.58612z"/><path fill="#ef8759" d="M11.2133,24.78613c0,9.63,13.33996,30.33002,19.60999,39.53003c1.26996,1.87,3.77997,2.19,5.45996,0.94c-0.33997-0.25-0.64996-0.56006-0.90997-0.94c-6.27002-9.20001-19.60999-29.90002-19.60999-39.53003c0-11.81,8.98999-21.52997,20.51001-22.66998c-0.75-0.08002-1.5-0.12-2.27002-0.12C21.42326,1.99615,11.2133,12.20612,11.2133,24.78613z"/><path fill="#ffac88" d="M56.78998,24.78613c0,9.63-13.33997,30.33002-19.60999,39.53003c-1.26996,1.87-3.77997,2.19-5.45996,0.94c0.33997-0.25,0.64996-0.56006,0.90997-0.94c6.27002-9.20001,19.60999-29.90002,19.60999-39.53003c0-11.81-8.98999-21.52997-20.51001-22.66998c0.75-0.08002,1.5-0.12,2.27002-0.12C46.58002,1.99615,56.78998,12.20612,56.78998,24.78613z"/><path fill="#fff" d="M38.05027 54.15353c-.46191-.30176-1.08203-.16992-1.38281.29492l-.46191.71191c-.2998.46289-.16699 1.08203.29688 1.38281.16797.1084.35547.16016.54199.16016.32813 0 .64941-.16113.84082-.45703l.45996-.70996C38.64597 55.07346 38.51413 54.45432 38.05027 54.15353zM45.30417 42.28146c-.47656-.27637-1.08887-.11621-1.36719.36133-1.54395 2.6543-3.23535 5.44336-5.02734 8.28906-.29395.46777-.15332 1.08496.31348 1.37988.16602.10352.35059.15332.53223.15332.33203 0 .65723-.16504.84766-.4668 1.80371-2.86621 3.50684-5.67578 5.0625-8.34961C45.94284 43.17111 45.78171 42.55881 45.30417 42.28146z"/></svg>