<svg xmlns="http://www.w3.org/2000/svg" enable-background="new 0 0 68 68" viewBox="0 0 68 68"><path fill="#fe9967" d="M65.09029,60.55752l-4.51862,4.51862c-1.2714,1.26167-3.345,1.19321-4.52841-0.15646L42.07271,49.22472c-0.49723-0.56712-0.46947-1.42267,0.06348-1.95636l5.10869-5.1157c0.53296-0.53369,1.38848-0.56263,1.95628-0.06617l15.73273,13.93283C66.29328,57.20279,66.36181,59.28606,65.09029,60.55752z"/><path fill="#ffac88" d="M65.08707,60.55441l-2.97998,2.97998c0.69995-1.23999,0.46997-2.85999-0.67017-3.84998L45.69693,45.75442c-0.55994-0.5-1.41992-0.47003-1.94995,0.06l-1.92993,1.92999c0.07996-0.17999,0.17993-0.34003,0.31995-0.47998l5.10999-5.11005c0.53003-0.53998,1.39001-0.56,1.94995-0.06995l15.73999,13.92999C66.29704,57.20443,66.35709,59.28439,65.08707,60.55441z"/><polygon fill="#444" points="42.813 38.7 46.96 42.29 42.118 47.219 38.46 43.004"/><circle cx="24.777" cy="24.797" r="22.776" fill="#a7d08c"/><path fill="#9ac181" d="M14.04703,40.90438c3.76001,3.76001,8.51001,5.93005,13.41992,6.5c-6.68994,0.80005-13.65991-1.37-18.79993-6.5c-8.89001-8.89996-8.89001-23.31995,0-32.20996c5.14001-5.14002,12.10999-7.31,18.79993-6.51001c-4.90991,0.58002-9.65991,2.75-13.41992,6.51001C5.14701,17.58444,5.14701,32.00442,14.04703,40.90438z"/><path fill="#badda4" d="M40.88543,40.90438c-5.13,5.13-12.09998,7.30005-18.79004,6.5c4.91003-0.56995,9.65002-2.73999,13.41003-6.5c8.90002-8.89996,8.90002-23.31995,0-32.20996c-3.76001-3.76001-8.5-5.92999-13.41003-6.51001c6.69006-0.79999,13.66003,1.37,18.79004,6.51001C49.77544,17.58444,49.77544,32.00442,40.88543,40.90438z"/><circle cx="24.818" cy="24.776" r="16.883" fill="#e2e2e2"/><path fill="#fff" d="M27.74845 16.13302c-.0957 0-.19336-.01367-.29004-.04297-1.05371-.31933-2.14551-.44629-3.25098-.36914-.5459.03516-1.02734-.37891-1.06543-.93066-.03711-.55078.37988-1.02734.93066-1.06543 1.3418-.09082 2.67871.06152 3.96582.45117.52832.16016.82715.71875.66699 1.24707C28.57462 15.8547 28.17814 16.13302 27.74845 16.13302zM14.92716 23.85177c-.0625 0-.12695-.00586-.19141-.01855-.54199-.10449-.89648-.62988-.79102-1.17188.41992-2.1709 1.47168-4.14746 3.04102-5.7168.78418-.78516 1.67676-1.44531 2.65234-1.96191.49121-.25977 1.09277-.07129 1.35156.41602.25879.48828.07227 1.09277-.41602 1.35156-.79883.42285-1.53027.96387-2.17285 1.6084-1.28711 1.28613-2.14844 2.90527-2.49317 4.68359C15.81485 23.51974 15.39689 23.85177 14.92716 23.85177z"/><path fill="#d3d3d3" d="M17.08707,36.7344c2.75,2.75,6.21997,4.35004,9.80994,4.79999c-5,0.64001-10.22998-0.96997-14.05994-4.79999c-6.59009-6.58997-6.59009-17.27997,0-23.88c3.82996-3.82996,9.05994-5.44,14.05994-4.79999c-3.58997,0.45001-7.05994,2.04999-9.80994,4.79999C10.49698,19.45443,10.49698,30.14444,17.08707,36.7344z"/><path fill="#ededed" d="M32.46741,36.7344c-2.75,2.75-6.21997,4.35004-9.80993,4.79999c5,0.64001,10.22998-0.96997,14.05993-4.79999c6.59009-6.58997,6.59009-17.27997,0-23.88c-3.82996-3.82996-9.05993-5.44-14.05993-4.79999c3.58997,0.45001,7.05994,2.04999,9.80993,4.79999C39.0575,19.45443,39.0575,30.14444,32.46741,36.7344z"/></svg>