<svg xmlns="http://www.w3.org/2000/svg" enable-background="new 0 0 68 68" viewBox="0 0 68 68"><path fill="#a7d08c" d="M62.96002,12.41995v24.62c0,15.96997-12.98999,28.96008-28.96997,28.96008c-15.96008,0-28.95007-12.99011-28.95007-28.96008v-24.62H16.69v24.62c0,9.54993,7.77002,17.30994,17.30005,17.30994c9.54993,0,17.31982-7.76001,17.31982-17.30994v-24.62H62.96002z"/><path fill="#fe9967" d="M33.89996,54.34525C24.41168,54.29593,16.69,46.55936,16.69,37.03995v-24.62H5.03998v24.62c0,15.93982,12.94141,28.90881,28.85999,28.95789V54.34525z"/><path fill="#ef8759" d="M33.89996,65.22v0.78003C17.98004,65.94998,5.03998,52.98001,5.03998,37.03995v-24.62h6.55994v24.62C11.59991,50.72,21.12994,62.20999,33.89996,65.22z"/><path fill="#badda4" d="M34.08014,65.22v0.78003c15.91992-0.05005,28.85999-13.02002,28.85999-28.96008v-24.62h-6.55994v24.62C56.38019,50.72,46.85016,62.20999,34.08014,65.22z"/><path fill="#f2f1e8" d="M16.69,4.13501v8.28494H5.03998V4.13501c0-1.17915,0.95589-2.13504,2.13504-2.13504h7.37994C15.73411,1.99997,16.69,2.95586,16.69,4.13501z"/><path fill="#e2e2e2" d="M16.69 4.13501v8.28494H5.03998V4.13501c0-1.17915.95589-2.13504 2.13504-2.13504h7.37994C15.73411 1.99997 16.69 2.95586 16.69 4.13501zM62.96002 4.13501v8.28494H51.30988V4.13501c0-1.17915.95589-2.13504 2.13504-2.13504h7.38007C62.00413 1.99997 62.96002 2.95586 62.96002 4.13501z"/><circle cx="33.9" cy="25.055" r="12.635" fill="#feeb75"/><path fill="#efd96a" d="M36.28998,37.45999c-0.77002,0.1499-1.56995,0.22998-2.39001,0.22998c-6.97998,0-12.64001-5.66003-12.64001-12.64001c0-6.97009,5.66003-12.63,12.64001-12.63c0.82007,0,1.62,0.08008,2.39001,0.22998c-5.82996,1.10999-10.25,6.23999-10.25,12.40002C26.03998,31.22,30.46002,36.34988,36.28998,37.45999z"/><path fill="#fff3ab" d="M46.53497,25.04996c0,6.97998-5.65991,12.64001-12.63989,12.64001c-0.81006,0-1.61011-0.08008-2.38-0.22998c5.83997-1.11011,10.25-6.25,10.25-12.41003c0-6.15002-4.41003-11.29004-10.25-12.40002c0.7699-0.1499,1.56995-0.22998,2.38-0.22998C40.87506,12.41995,46.53497,18.07986,46.53497,25.04996z"/><path fill="#fff" d="M57.78082 32.8782c.00879 0 .01758 0 .02539 0 .54102 0 .98535-.43066 1-.97461l.01074-.41699c.01367-.55176-.42188-1.01074-.97461-1.02539-.54395.00684-1.01074.42188-1.02539.97461l-.01074.41699C56.79254 32.40457 57.22809 32.86356 57.78082 32.8782zM57.81696 28.76297c.55273 0 1-.44727 1-1v-9.16602c0-.55273-.44727-1-1-1s-1 .44727-1 1v9.16602C56.81696 28.3157 57.26422 28.76297 57.81696 28.76297z"/><path fill="#444" d="M31.63922,24.78543l2.95703,1.28027l-1.95801,2.64258c-0.32813,0.44434-0.23535,1.07031,0.20801,1.39941c0.17969,0.13281,0.3877,0.19629,0.59473,0.19629c0.30664,0,0.6084-0.13965,0.80469-0.4043l2.70801-3.65527c0.18164-0.24512,0.24121-0.56055,0.16211-0.85449c-0.0791-0.29492-0.28809-0.53809-0.56836-0.65918l-2.99805-1.29785l1.91406-2.78125c0.3125-0.4541,0.19727-1.07715-0.25781-1.39063c-0.4541-0.3125-1.07617-0.19727-1.39063,0.25781l-2.60254,3.78223c-0.16895,0.24609-0.21973,0.55469-0.13672,0.84277C31.15778,24.43094,31.36481,24.66629,31.63922,24.78543z"/></svg>