<svg xmlns="http://www.w3.org/2000/svg" enable-background="new 0 0 68 68" viewBox="0 0 68 68"><path fill="#fe9967" d="M9.66401,2.359C9.18547,2.05821,8.5442,2.19673,8.26912,2.69049C6.84003,5.25565,5.71729,8.35722,4.99722,12.0686C1.92106,27.92367,7.93402,44.94051,19.00722,47.08891c11.0732,2.14839,23.01337-11.38523,26.08953-27.2403c0.72007-3.71138,0.83874-7.00775,0.47261-9.92121c-0.07047-0.56081-0.61342-0.92908-1.16972-0.82907C31.95101,11.33632,20.37253,9.08989,9.66401,2.359z"/><path fill="#ef8759" d="M17.46684,46.66936c-10.0759-3.34214-15.39701-19.502-12.467-34.6038c0.71934-3.70759,1.84068-6.80767,3.26591-9.37099C8.54121,2.19915,9.1847,2.05875,9.66462,2.36043c1.52464,0.95838,3.06672,1.82673,4.62632,2.60502c-1.18021,2.35259-2.11651,5.12647-2.74581,8.37002C9.26922,25.06584,11.56785,39.45704,17.46684,46.66936z"/><path fill="#ffac88" d="M17.32717,17.17153c0.74769-3.85372,1.94046-7.0319,3.44952-9.64797c-0.89279-0.18573-1.6857-0.47416-2.38176-0.84696c-1.47726,2.60052-2.65356,5.73558-3.3912,9.5375c-2.34019,12.06175,0.58708,24.79111,6.99252,31.13311c0.37195-0.1312,0.766-0.22564,1.17235-0.29766C17.57521,40.38306,15.13289,28.4812,17.32717,17.17153z"/><path fill="#ededed" d="M27.5325,36.46227c-1.4765,1.65176-4.05566,2.40344-6.72655,1.97693c-2.68031-0.42991-4.88446-1.96421-5.76669-3.99552c-0.21514-0.50063,0.01413-1.08771,0.51804-1.31231c0.51341-0.22123,1.09723,0.01743,1.3218,0.5214c0.60009,1.39025,2.26503,2.50005,4.24217,2.81872c1.97708,0.31865,3.90702-0.21758,4.92131-1.34343c0.27162-0.31753,0.70663-0.40744,1.07425-0.27718c0.12254,0.04342,0.23839,0.10571,0.3348,0.19291C27.86221,35.41211,27.90413,36.04231,27.5325,36.46227z"/><path fill="#ffac88" d="M45.09699,19.84511C42.176,34.90043,31.26499,47.86268,20.68943,47.2826c8.22569-4.15831,15.53451-16.70964,17.86228-28.70739c0.62931-3.24355,0.79826-6.1663,0.58345-8.78955c1.73743-0.13861,3.49239-0.36728,5.26483-0.68597c0.55791-0.10032,1.10221,0.27053,1.17242,0.83303C45.93565,12.84303,45.81633,16.13752,45.09699,19.84511z"/><path fill="#a7d08c" d="M23.71975,27.34234c-0.55521-0.10585-1.102,0.25669-1.17837,0.81672c-0.39676,2.90945-0.31286,6.20691,0.36814,9.92566c2.90926,15.88654,14.70656,29.54496,25.80174,27.51313c11.09518-2.03183,17.28666-18.98448,14.3774-34.87103c-0.681-3.71874-1.77098-6.83196-3.17299-9.41201c-0.26987-0.49663-0.90965-0.64188-1.39133-0.34615C47.74563,27.58659,36.14417,29.71113,23.71975,27.34234z"/><path fill="#9ac181" d="M47.12387,65.76811c-10.60111,0.55686-21.44198-12.55539-24.21301-27.68716c-0.68031-3.71495-0.76497-7.01052-0.37114-9.91684c0.07612-0.56173,0.62429-0.92683,1.18112-0.82065c1.76897,0.33732,3.52138,0.58444,5.25732,0.74129c-0.24239,2.62085-0.10418,5.54522,0.49098,8.7952C31.62155,48.63362,39.00336,61.1994,47.12387,65.76811z"/><path fill="#badda4" d="M63.08761,30.7235c2.76251,15.0852-2.67857,31.13091-12.73912,34.44213c6.14642-6.86842,8.38232-21.21957,6.18084-33.24113c-0.59516-3.24999-1.50223-6.03356-2.65764-8.39843c1.56764-0.76184,3.1188-1.61393,4.65346-2.55623c0.48307-0.29661,1.12504-0.14945,1.39528,0.34885C61.31862,23.89684,62.4073,27.00855,63.08761,30.7235z"/><path fill="#badda4" d="M52.65371,63.66227c-0.35004,0.21997-0.67999,0.44995-0.98004,0.70996c-8.27997-3.57996-15.63995-14.37-17.84998-26.45001c-0.65997-3.59998-0.73999-6.79999-0.38-9.63996c0.85004,0,1.69-0.03003,2.53003-0.08002c-0.38,2.87-0.31,6.10999,0.35999,9.76001C38.41372,49.30222,45.0137,59.49223,52.65371,63.66227z"/><path fill="#ededed" d="M18.74451 20.65113c.27246 0 .54492-.11133.74219-.3291.37012-.41016.33789-1.04297-.07129-1.41309-3.875-3.50195-7.73047-1.53906-7.89258-1.45508-.48633.25488-.67188.85352-.4209 1.3418s.85156.68066 1.34375.43262c.11426-.05664 2.81836-1.37695 5.62793 1.16504C18.26501 20.56617 18.50525 20.65113 18.74451 20.65113zM29.85583 22.67847c3.5459-1.29492 5.56055.91699 5.65527 1.02441.19727.22949.47656.34766.75781.34766.22949 0 .45996-.07813.64746-.23828.4209-.35742.47266-.98828.11426-1.40918-.11816-.13965-2.95703-3.40137-7.86426-1.60156-.51855.18945-.78418.76465-.59375 1.2832C28.76306 22.6023 29.33435 22.86988 29.85583 22.67847zM46.32654 52.57691c-2.66211.4873-4.83691 2.06445-5.67676 4.11621-.20898.51172.03613 1.0957.54688 1.30469.12402.05078.25195.07422.37891.07422.39355 0 .76758-.23438.92578-.62109.5752-1.40527 2.21777-2.54688 4.18555-2.90723 1.97168-.36035 3.90918.12402 4.94434 1.23438.37695.40527 1.00977.42676 1.41309.0498.4043-.37695.42676-1.00977.0498-1.41309C51.58337 52.79469 48.99548 52.08668 46.32654 52.57691zM38.82849 39.20387c-4.87793-1.84668-7.76074 1.38086-7.87988 1.52051-.36035.41504-.31543 1.03906.09668 1.40234.18848.16699.42383.24902.65918.24902.27539 0 .55078-.11328.74902-.33496.08496-.0957 2.12207-2.31152 5.66602-.96582.51758.19434 1.09473-.06445 1.29004-.58105S39.34509 39.40015 38.82849 39.20387zM56.5072 36.04371c-.16113-.08691-3.99707-2.08984-7.90723 1.37109-.41406.36621-.45313.99805-.08691 1.41113.19727.22363.47266.33789.74902.33789.23535 0 .47266-.08301.66211-.25098 2.8291-2.5 5.50586-1.17188 5.64063-1.10547.48535.25977 1.08887.0752 1.34961-.40918C57.17615 36.91187 56.99353 36.30543 56.5072 36.04371z"/><path fill="#fff" d="M20.91245 13.35523c-.09275 0-.18748-.0127-.28123-.04004-.21582-.06348-.42969-.13379-.64258-.20508-.52344-.17578-.80664-.74219-.63086-1.26563.17676-.52441.74414-.80469 1.26563-.63086.18945.06348.37988.12598.57031.18164.53027.15625.83398.71094.67871 1.24121C21.74451 13.073 21.34509 13.35523 20.91245 13.35523zM33.85095 15.39722c-.00977 0-.01953 0-.0293 0-3.27734-.09375-6.53613-.49219-9.68652-1.18359-.53906-.11816-.87988-.65137-.76172-1.19141.11816-.53906.6543-.87988 1.19141-.76172 3.02734.66406 6.16113 1.04688 9.31348 1.13672.55273.0166.9873.47656.97168 1.02832C34.83435 14.96851 34.39001 15.39722 33.85095 15.39722z"/></svg>