<svg xmlns="http://www.w3.org/2000/svg" enable-background="new 0 0 68 68" viewBox="0 0 68 68"><polygon fill="#9ac181" points="43.65 11.588 24.35 11.588 19.968 1.999 48.032 1.999"/><polygon fill="#badda4" points="45.897 6.671 48.032 1.999 19.968 1.999 22.103 6.671"/><polyline fill="#a7d08c" points="29.903 23.742 19.968 1.999 11.292 10.98 19.349 29.181"/><polygon fill="#9ac181" points="24.121 26.721 19.351 29.181 11.291 10.981 15.06 7.081"/><polyline fill="#a7d08c" points="38.097 23.742 48.032 1.999 56.708 10.98 48.651 29.181"/><polygon fill="#badda4" points="43.879 26.721 48.649 29.181 56.709 10.981 52.94 7.081"/><circle cx="34" cy="44.673" r="21.326" fill="#fe9967"/><path fill="#ef8759" d="M36.98097,65.79102c-0.97009,0.14001-1.97009,0.20996-2.9801,0.20996c-11.77991,0-21.32983-9.54993-21.32983-21.32996s9.54993-21.32007,21.32983-21.32007c1.01001,0,2.01001,0.07007,2.9801,0.21008C26.61098,25.00098,18.62099,33.901,18.62099,44.67102S26.61098,64.35095,36.98097,65.79102z"/><path fill="#ffac88" d="M55.32618,44.67102c0,11.78003-9.54993,21.32996-21.31995,21.32996c-1.01001,0-2-0.06995-2.96997-0.20996c10.37-1.45007,18.34998-10.34998,18.34998-21.12s-7.97998-19.67004-18.34998-21.10999c0.96997-0.14001,1.95996-0.21008,2.96997-0.21008C45.77626,23.35095,55.32618,32.89099,55.32618,44.67102z"/><circle cx="34" cy="44.673" r="15.38" fill="#feeb75"/><path fill="#efd96a" d="M34.89674,37.00806l1.70775,3.46027c0.14566,0.29514,0.42723,0.49971,0.75294,0.54704l3.81864,0.55488c0.82022,0.11919,1.14773,1.12716,0.55421,1.7057l-2.7632,2.69345c-0.23568,0.22974-0.34323,0.56074-0.28759,0.88513l0.6523,3.80321c0.14011,0.81691-0.71732,1.43987-1.45095,1.05418l-3.4155-1.79564c-0.29132-0.15316-0.63936-0.15316-0.93068,0l-3.4155,1.79564c-0.73363,0.38569-1.59106-0.23727-1.45095-1.05418l0.6523-3.80321c0.05564-0.32439-0.05191-0.6554-0.2876-0.88513l-2.76319-2.69345c-0.59352-0.57854-0.26601-1.58651,0.55421-1.7057l3.81864-0.55488c0.32571-0.04733,0.60728-0.2519,0.75294-0.54704l1.70775-3.46027C33.47008,36.26481,34.52992,36.26481,34.89674,37.00806z"/><path fill="#fff" d="M19.87026 9.53235l-.13965-.30859c-.22754-.50293-.81934-.72656-1.32324-.49902-.50293.22754-.72656.82031-.49902 1.32324l.13965.30859c.16699.36914.53125.58789.91211.58789.1377 0 .27734-.02832.41113-.08887C19.87416 10.62805 20.0978 10.03528 19.87026 9.53235zM23.57143 20.32043c.14844 0 .29883-.0332.44043-.10254.49512-.24414.69922-.84277.45605-1.33887l-3.28613-6.68066c-.24414-.49609-.8457-.69824-1.33887-.45605-.49512.24414-.69922.84375-.45605 1.33887l3.28613 6.68066C22.84682 20.11536 23.20229 20.32043 23.57143 20.32043z"/></svg>