<svg xmlns="http://www.w3.org/2000/svg" enable-background="new 0 0 68 68" viewBox="0 0 68 68"><path fill="#fff48b" d="M51.78977,25.03019c8.31343,2.53822,14.21195,8.98138,14.21195,16.51381c0,4.56262-2.16827,8.72447-5.72383,11.8587c0.94541,1.89082,2.4038,3.51856,4.25943,4.67278c0.64108,0.39875,0.66853,1.34285,0.00354,1.70029c-2.69119,1.44655-5.92535,1.85882-9.07222,0.8819c-1.65446-0.50354-3.09313-1.34618-4.30572-2.40462c-2.28131,0.63712-4.72704,0.97623-7.27553,0.97623c-10.0912,0-18.61015-5.41554-21.25113-12.80411"/><path fill="#feeb75" d="M51.78977,25.03019c8.31343,2.53822,14.21195,8.98138,14.21195,16.51381c0,4.56262-2.16827,8.72447-5.72383,11.8587c0.94541,1.89082,2.4038,3.51856,4.25943,4.67278c0.64108,0.39875,0.66853,1.34285,0.00354,1.70029c-2.69119,1.44655-5.92535,1.85882-9.07222,0.8819c-1.65446-0.50354-3.09313-1.34618-4.30572-2.40462c-2.28131,0.63712-4.72704,0.97623-7.27553,0.97623c-10.0912,0-18.61015-5.41554-21.25113-12.80411"/><path fill="#fff3ab" d="M51.7882,25.02724l-2.04492,1.50122v4.81036l2.04492-1.50159c7.41016,2.26996,12.91016,7.63001,14.01001,14.12c0.13013-0.79004,0.20007-1.59003,0.20007-2.41003C65.99828,34.00722,60.09826,27.56721,51.7882,25.02724z"/><path fill="#efd96a" d="M64.5353,58.07536c0.64085,0.39831,0.66754,1.34206,0.00304,1.69952c-2.69132,1.44777-5.9231,1.85936-9.0701,0.88334c-1.65002-0.5-3.08997-1.35004-4.30994-2.40002c-2.28003,0.63-4.71997,0.97003-7.27002,0.97003c-10.09009,0-18.61011-5.41003-21.25-12.80005l1.79004-1.31c3.72998,5.54004,11.04992,9.29999,19.45996,9.29999c2.55005,0,4.98999-0.33997,7.27002-0.96997c1.21997,1.04999,2.65991,1.90002,4.30994,2.40002c2.21008,0.69,4.47009,0.69,6.55005,0.12C62.74393,56.77447,63.58701,57.48597,64.5353,58.07536z"/><circle cx="53.744" cy="41.545" r="2.537" fill="#444"/><path fill="#a7d08c" d="M51.89247,26.76687c0,11.01603-11.17007,19.95631-24.9403,19.95631c-2.87725,0-5.64161-0.3905-8.21065-1.10984c-1.36669,1.20236-3.00056,2.14775-4.86061,2.72321c-3.63521,1.12334-7.36958,0.60981-10.4427-1.11464c-0.65187-0.36579-0.62123-1.3012,0.01964-1.68593c2.18042-1.30894,3.89608-3.19564,4.99721-5.38957c-4.00761-3.53501-6.45334-8.23116-6.45334-13.37954c0-11.01609,11.1702-19.95638,24.95046-19.95638C40.7224,6.81049,51.89247,15.75077,51.89247,26.76687z"/><path fill="#9ac181" d="M51.88829,26.76723c0,11.02002-11.17004,19.95996-24.93994,19.95996c-2.87012,0-5.64014-0.38995-8.21008-1.10999c-1.35999,1.20001-3,2.14001-4.85999,2.72003c-3.63052,1.1184-7.36476,0.60847-10.4384-1.11584c-0.65473-0.3673-0.61911-1.30544,0.02456-1.69178c1.02143-0.61308,1.94141-1.35571,2.74392-2.19238c2.42993,0.71997,5.07983,0.75,7.66992-0.06c1.85999-0.57001,3.5-1.52002,4.85999-2.72003c2.56995,0.72003,5.33997,1.10999,8.21008,1.10999c12.69995,0,23.18994-7.60999,24.72998-17.42999C51.81823,25.06721,51.88829,25.90724,51.88829,26.76723z"/><path fill="#badda4" d="M51.88829,26.77051c0,0.84998-0.07007,1.69995-0.20996,2.51996c-1.54004-9.82996-12.03003-17.42999-24.72998-17.42999c-12.72009,0-23.21008,7.60998-24.73999,17.45001c-0.14014-0.83002-0.21008-1.67999-0.21008-2.53998c0-11.02002,11.17004-19.96002,24.95007-19.96002C40.71825,6.81049,51.88829,15.75049,51.88829,26.77051z"/><circle cx="38.634" cy="26.767" r="2.815" fill="#fff"/><circle cx="26.949" cy="26.767" r="2.815" fill="#fff"/><circle cx="15.264" cy="26.767" r="2.815" fill="#fff"/><path fill="#fff" d="M31.80773 50.14723c-.17871-.1123-.35449-.22559-.52832-.34277-.45605-.30859-1.07813-.18848-1.3877.27051-.30859.45801-.1875 1.0791.27051 1.3877.19141.12891.38477.25586.58301.37988.16504.10352.34863.15234.53027.15234.33301 0 .6582-.16602.84863-.46875C32.4171 51.05836 32.2755 50.44118 31.80773 50.14723zM43.68566 53.74391c-3.10059-.14258-6.05371-.80762-8.78027-1.97461-.50391-.21973-1.0957.0166-1.3125.52539-.21777.50781.01758 1.0957.52539 1.3125 2.94727 1.2627 6.13477 1.98047 9.47559 2.13477.01563.00098.03125.00098.04688.00098.53125 0 .97363-.41797.99805-.9541C44.66417 54.23708 44.23742 53.7693 43.68566 53.74391z"/></svg>