<svg xmlns="http://www.w3.org/2000/svg" enable-background="new 0 0 68 68" viewBox="0 0 68 68"><path fill="#feeb75" d="M54.11955,45.15722L47.70697,5.14689c-0.26822-1.80507-1.81792-3.14147-3.64278-3.14147H15.57811c-1.82493,0-3.37456,1.3364-3.64279,3.14147L5.52269,45.15722H54.11955z"/><path fill="#efd96a" d="M13.29121,44.94541l0.02203-0.13728l6.35492-39.6649c0.26431-1.79973,1.82003-3.14184,3.64006-3.14184h-7.72756c-1.8302,0-3.37574,1.34211-3.6503,3.14184l-6.35492,39.6649l-0.02203,0.13728H13.29121z"/><path fill="#fff3ab" d="M30.92402,2.00139c-1.83027,0-3.37574,1.34211-3.6503,3.14184l-6.35493,39.6649l-0.02036,0.13219h-3.44686l0.02029-0.13219l6.35492-39.6649c0.27455-1.79973,1.82009-3.14184,3.6503-3.14184H30.92402z" opacity=".4"/><path fill="#fff3ab" d="M39.97966,5.14323l6.35492,39.6649l0.02203,0.13728h7.72762l-0.02203-0.13728l-6.35492-39.6649c-0.26438-1.79973-1.82009-3.14184-3.64012-3.14184h-7.73774C38.15963,2.00139,39.70517,3.34349,39.97966,5.14323z"/><path fill="#444" d="M42.26689,45.15722V14.71533c0-1.10457-0.89543-2-2-2H19.37535c-1.10457,0-2,0.89543-2,2v30.44189H42.26689z"/><path fill="#333" d="M40.39959,45.7234c-0.17676,0-0.35547-0.04688-0.51758-0.14453c-0.47266-0.28711-0.62305-0.90137-0.33691-1.37402L62.41815,6.48317c0.28711-0.47266,0.90234-0.62207,1.37402-0.33691c0.47265,0.28711,0.62304,0.90137,0.33691,1.37402L41.25604,45.24196C41.06756,45.55251,40.73748,45.7234,40.39959,45.7234z"/><path fill="#666" d="M29.47288,12.71533H19.37535c-1.10457,0-2,0.89543-2,2v30.44189h12.09753V12.71533z"/><path fill="#ededed" d="M29.82147,45.43141c-0.55273,0-1-0.44727-1-1v-26.8125c0-0.55273,0.44727-1,1-1s1,0.44727,1,1v26.8125C30.82147,44.98415,30.3742,45.43141,29.82147,45.43141z"/><path fill="#fe9967" d="M54.063,44.80436H5.57927L3.76919,56.09804c-0.33064,2.22496,1.39332,4.22407,3.64278,4.22407H52.2303c2.24946,0,3.97342-1.99911,3.64278-4.22407L54.063,44.80436z"/><path fill="#ef8759" d="M15.14345,60.32432H7.41582c-2.25724,0-3.97561-2.0031-3.65023-4.22987l1.80985-11.28632h7.7378l-1.80991,11.28632C11.16777,58.32122,12.89632,60.32432,15.14345,60.32432z"/><path fill="#ffac88" d="M22.75918,60.32432h-3.44692c-2.25724,0-3.97561-2.0031-3.65023-4.22987l1.78956-11.15413l0.02029-0.13219h3.44692l-0.02036,0.13219l-1.78956,11.15413C18.78357,58.32122,20.50194,60.32432,22.75918,60.32432z" opacity=".4"/><path fill="#ffac88" d="M52.23198,60.32432h-7.7378c2.2573,0,3.97567-2.0031,3.6503-4.22987l-1.80991-11.28632h7.72763l1.80985,11.28632C56.2076,58.32122,54.47904,60.32432,52.23198,60.32432z"/><path fill="#ededed" d="M26.28924 20.28395h-1.75195c-.55273 0-1-.44727-1-1s.44727-1 1-1h1.75195c.55273 0 1 .44727 1 1S26.84198 20.28395 26.28924 20.28395zM26.28924 25.40016h-1.75195c-.55273 0-1-.44727-1-1s.44727-1 1-1h1.75195c.55273 0 1 .44727 1 1S26.84198 25.40016 26.28924 25.40016zM26.28924 30.51637h-1.75195c-.55273 0-1-.44727-1-1s.44727-1 1-1h1.75195c.55273 0 1 .44727 1 1S26.84198 30.51637 26.28924 30.51637zM26.28924 35.63258h-1.75195c-.55273 0-1-.44727-1-1s.44727-1 1-1h1.75195c.55273 0 1 .44727 1 1S26.84198 35.63258 26.28924 35.63258zM26.28924 40.74879h-1.75195c-.55273 0-1-.44727-1-1s.44727-1 1-1h1.75195c.55273 0 1 .44727 1 1S26.84198 40.74879 26.28924 40.74879zM35.10565 20.28395h-1.75293c-.55273 0-1-.44727-1-1s.44727-1 1-1h1.75293c.55273 0 1 .44727 1 1S35.65838 20.28395 35.10565 20.28395zM35.10565 25.40016h-1.75293c-.55273 0-1-.44727-1-1s.44727-1 1-1h1.75293c.55273 0 1 .44727 1 1S35.65838 25.40016 35.10565 25.40016zM35.10565 30.51637h-1.75293c-.55273 0-1-.44727-1-1s.44727-1 1-1h1.75293c.55273 0 1 .44727 1 1S35.65838 30.51637 35.10565 30.51637zM35.10565 35.63258h-1.75293c-.55273 0-1-.44727-1-1s.44727-1 1-1h1.75293c.55273 0 1 .44727 1 1S35.65838 35.63258 35.10565 35.63258zM35.10565 40.74879h-1.75293c-.55273 0-1-.44727-1-1s.44727-1 1-1h1.75293c.55273 0 1 .44727 1 1S35.65838 40.74879 35.10565 40.74879z"/><path fill="#fe9967" d="M60.67464,10.82599L60.67464,10.82599c1.61034,0.92973,2.16208,2.98886,1.23236,4.5992l-1.7146,2.96977c-0.92973,1.61034-2.98886,2.16208-4.59919,1.23235l-0.00001,0c-1.61034-0.92973-2.16208-2.98886-1.23235-4.59919l1.7146-2.96977C57.00518,10.448,59.06431,9.89626,60.67464,10.82599z"/><path fill="#444" d="M8.55377 60.32857h7.63v4.25c0 .78003-.64001 1.42004-1.42999 1.42004H9.98376c-.78998 0-1.42999-.64001-1.42999-1.42004V60.32857zM51.09375 60.32857v4.25c0 .78003-.63995 1.42004-1.42999 1.42004H44.8938c-.79004 0-1.42999-.64001-1.42999-1.42004v-4.25H51.09375z"/></svg>