<svg xmlns="http://www.w3.org/2000/svg" enable-background="new 0 0 68 68" viewBox="0 0 68 68"><path fill="#444" d="M12.01205 44.10191c2.10098 6.39736 7.61056 11.2431 14.38322 12.39333v-6.06216c-1.95415.34802-8.12397-3.78755-8.88099-7.75838L12.01205 44.10191zM38.75292 22.44255c-.39415.46115-.85204.86684-1.36733 1.18702-.06762.04198-.12075.07336-.16517.09811-.28372.27698-.5771.54269-.8506.83072-.57616.60721-1.11245 1.25121-1.64784 1.8941-.11545.13866-.2314.27687-.3468.41563 4.46591 1.89941 7.59935 6.32698 7.59935 11.48495 0 6.56087-5.0724 11.9303-11.50644 12.42681v5.93101c9.71491-.50678 17.4375-8.51651 17.4375-18.35782C47.90559 31.55954 44.22593 25.63206 38.75292 22.44255z"/><path fill="#fe9967" d="M39.87151,59.34594l-5.40307-10.84129c-0.26596-0.53366-0.81092-0.87094-1.40718-0.87094h-8.35424c-0.59626,0-1.14121,0.33729-1.40718,0.87094l-5.40307,10.84129H39.87151z"/><path fill="#ef8759" d="M28.92042,47.63076c-0.5969,0-1.14317,0.34405-1.40621,0.87l-5.40218,10.84499H17.8934l5.40224-10.84499c0.27317-0.52596,0.81944-0.87,1.41628-0.87H28.92042z"/><path fill="#ffac88" d="M39.87151,59.34575h-4.21857L30.2507,48.50076c-0.26304-0.52596-0.80931-0.87-1.40621-0.87h4.21863c0.59684,0,1.14317,0.34405,1.40615,0.87L39.87151,59.34575z"/><path fill="#e2e2e2" d="M50.85825,20.19451L29.71214,37.39924c-0.46651,0.37955-1.15237,0.30906-1.53192-0.15744l-7.91512-9.72838c-0.37955-0.4665-0.30907-1.15237,0.15744-1.53192L41.56864,8.77677c0.46651-0.37955,1.15237-0.30906,1.53192,0.15744l7.91512,9.72838C51.39524,19.12909,51.32475,19.81495,50.85825,20.19451z"/><path fill="#d3d3d3" d="M45.98999,12.48085c-0.38-0.47009-1.07001-0.54004-1.53003-0.16016L23.31,29.53078c-0.46002,0.37-0.54004,1.02991-0.17999,1.5l-2.86005-3.52002c-0.38-0.45996-0.31-1.15002,0.15002-1.52991L41.56995,8.78078c0.47003-0.38,1.15002-0.30994,1.53003,0.15002L45.98999,12.48085z"/><path fill="#ededed" d="M50.85543,20.18895L29.71542,37.39903c-0.46997,0.37988-1.15002,0.30994-1.53003-0.16003l-2.88995-3.55005c0.38,0.47009,1.07001,0.54004,1.52997,0.16003l21.15002-17.20996c0.44-0.37012,0.52997-1.01001,0.19-1.47998l2.84998,3.5C51.39541,19.12901,51.32541,19.80894,50.85543,20.18895z"/><rect width="7.059" height="8.561" x="46.266" y="7.29" fill="#666" transform="rotate(140.868 49.796 11.57)"/><path fill="#666" d="M27.17573,36.0072c-2.00457,1.63094-4.95173,1.32806-6.58267-0.67651s-1.32805-4.95173,0.67651-6.58267L27.17573,36.0072z"/><path fill="#e2e2e2" d="M22.29418,45.44648H9.84947c-0.6092,0-1.10305-0.49385-1.10305-1.10305v-2.26267c0-0.6092,0.49385-1.10305,1.10305-1.10305h12.44471c0.6092,0,1.10305,0.49385,1.10305,1.10305v2.26267C23.39723,44.95263,22.90338,45.44648,22.29418,45.44648z"/><circle cx="28.884" cy="53.196" r="2" fill="#444"/><circle cx="41.308" cy="27.95" r="6.623" fill="#fe9967"/><circle cx="41.308" cy="27.95" r="2.165" fill="#666"/><path fill="#e2e2e2" d="M58.85185,13.83604l-2.37384,1.93139c-0.4665,0.37955-1.15237,0.30906-1.53192-0.15744l-8.05731-9.90314c-0.37955-0.4665-0.30907-1.15237,0.15744-1.53192l2.37384-1.93138c0.4665-0.37955,1.15237-0.30907,1.53192,0.15744l8.05731,9.90314C59.38884,12.77062,59.31836,13.45649,58.85185,13.83604z"/><path fill="#d3d3d3" d="M54.94369,7.30797l-3.98999,3.40002l-4.06-5c-0.38-0.46997-0.31-1.15002,0.15002-1.53003l2.37994-1.93005c0.46002-0.37988,1.15002-0.30994,1.53003,0.15015L54.94369,7.30797z"/><path fill="#fff" d="M33.86658 18.54555l-.49609.39746c-.43164.34473-.50098.97461-.15527 1.40527.19727.24707.4873.375.78125.375.21875 0 .43945-.07227.62402-.21973l.49609-.39746c.43164-.34473.50098-.97461.15527-1.40527C34.9281 18.26918 34.30017 18.19985 33.86658 18.54555zM41.26111 12.45473l-4.82227 3.97363c-.42676.35059-.4873.98145-.13574 1.40723.19727.24023.4834.36426.77246.36426.22363 0 .44824-.0752.63477-.22852l4.82227-3.97363c.42676-.35059.4873-.98145.13574-1.40723C42.31873 12.16371 41.68884 12.10317 41.26111 12.45473z"/><path fill="#fe9967" d="M47.47635,65.99925H10.29256c-0.85385,0-1.54603-0.69218-1.54603-1.54603v-3.69597c0-0.85385,0.69218-1.54603,1.54603-1.54603h37.18379c0.85385,0,1.54603,0.69218,1.54603,1.54603v3.69597C49.02237,65.30707,48.33019,65.99925,47.47635,65.99925z"/><path fill="#ef8759" d="M14.45996,66.00075h-4.16998C9.44,66.00075,8.75,65.31068,8.75,64.45082v-3.69006c0-0.85999,0.69-1.54993,1.53998-1.54993h4.16998c-0.84998,0-1.54999,0.68994-1.54999,1.54993v3.69006C12.90997,65.31068,13.60999,66.00075,14.45996,66.00075z"/><path fill="#ffac88" d="M49.02237,60.76076v3.69006c0,0.85986-0.69,1.54993-1.55005,1.54993h-4.15997c0.84998,0,1.53998-0.69006,1.53998-1.54993v-3.69006c0-0.85999-0.69-1.54993-1.53998-1.54993h4.15997C48.33237,59.21083,49.02237,59.90078,49.02237,60.76076z"/></svg>