<svg xmlns="http://www.w3.org/2000/svg" enable-background="new 0 0 68 68" viewBox="0 0 68 68"><path fill="#a7d08c" d="M63.95976,61.60281H10.4885c-1.40274,0-2.53989-1.13715-2.53989-2.53989V40.04009c0-1.40274,1.13715-2.53989,2.53989-2.53989h53.47126c1.40274,0,2.53988,1.13715,2.53988,2.53989v19.02284C66.49964,60.46567,65.3625,61.60281,63.95976,61.60281z"/><path fill="#9ac181" d="M18.06615,61.60233H10.4862c-1.40002,0-2.53992-1.14001-2.53992-2.53998V40.04233c0-1.40997,1.13989-2.53998,2.53992-2.53998h7.57996c-1.3999,0-2.54004,1.13-2.54004,2.53998v19.02002C15.52611,60.46231,16.66625,61.60233,18.06615,61.60233z"/><path fill="#badda4" d="M24.19628 61.60233h-3.22009c-1.40002 0-2.53992-1.14001-2.53992-2.53998V40.04233c0-1.40997 1.13989-2.53998 2.53992-2.53998h3.22009c-1.40015 0-2.54004 1.13-2.54004 2.53998v19.02002C21.65624 60.46231 22.79613 61.60233 24.19628 61.60233zM66.49964 40.04233v19.02002c0 1.39996-1.13989 2.53998-2.54004 2.53998h-7.57983c1.40991 0 2.53992-1.14001 2.53992-2.53998V40.04233c0-1.40997-1.13-2.53998-2.53992-2.53998h7.57983C65.35975 37.50235 66.49964 38.63236 66.49964 40.04233z"/><rect width="4.377" height="19.8" x="15.033" y="17.702" fill="#e2e2e2"/><path fill="#444" d="M17.75314 66.26633h-4.45539c-.59731 0-1.08152-.48421-1.08152-1.08152v-3.58199h6.61843v3.58199C18.83465 65.78211 18.35044 66.26633 17.75314 66.26633zM61.15051 66.26633h-4.45539c-.59731 0-1.08152-.48421-1.08152-1.08152v-3.58199h6.61843v3.58199C62.23203 65.78211 61.74782 66.26633 61.15051 66.26633z"/><circle cx="56.95" cy="49.552" r="3.165" fill="#feeb75"/><circle cx="45.45" cy="49.552" r="3.165" fill="#fe9967"/><circle cx="17.224" cy="13.208" r="5.002" fill="#444"/><path fill="#666" d="M17.3662,8.21927c-1.32739-0.03772-2.66614,0.43835-3.6792,1.45142c-1.95337,1.95337-1.95337,5.12042,0,7.07379c1.01306,1.01306,2.35181,1.48914,3.6792,1.45142V8.21927z"/><path fill="#444" d="M26.91015,22.97489c-0.39063,0.39063-0.39063,1.02344,0,1.41406c0.19531,0.19531,0.45117,0.29297,0.70703,0.29297s0.51172-0.09766,0.70703-0.29297c6.16504-6.16602,6.16406-16.19727-0.00098-22.3623c-0.39063-0.39063-1.02344-0.39063-1.41406,0s-0.39063,1.02344,0,1.41406C32.29491,8.82645,32.29491,17.58915,26.91015,22.97489z"/><path fill="#444" d="M23.56737 19.63211c-.39063.39063-.39063 1.02344 0 1.41406.19531.19531.45117.29297.70703.29297s.51172-.09766.70703-.29297c4.32129-4.32227 4.32129-11.35449-.00098-15.67676-.39063-.39063-1.02344-.39063-1.41406 0s-.39063 1.02344 0 1.41406C27.10839 10.32547 27.10937 16.08915 23.56737 19.63211zM7.53808 22.97489C2.15331 17.58817 2.15331 8.82547 7.53905 3.44071c.39063-.39063.39063-1.02344 0-1.41406s-1.02344-.39063-1.41406 0c-6.16602 6.16406-6.16602 16.19629-.00098 22.3623.19531.19531.45117.29297.70703.29297s.51172-.09766.70703-.29297C7.9287 23.99833 7.9287 23.36551 7.53808 22.97489z"/><path fill="#444" d="M9.46679 21.04618c.19531.19531.45117.29297.70703.29297s.51172-.09766.70703-.29297c.39063-.39063.39063-1.02344 0-1.41406-3.54199-3.54297-3.54102-9.30664.00098-12.84863.39063-.39063.39063-1.02344 0-1.41406s-1.02344-.39063-1.41406 0C5.1455 9.69168 5.1455 16.72391 9.46679 21.04618zM14.91601 45.38602c-.55273 0-1 .44727-1 1v6.33105c0 .55273.44727 1 1 1s1-.44727 1-1v-6.33105C15.91601 45.83329 15.46874 45.38602 14.91601 45.38602zM20.81835 45.38602c-.55273 0-1 .44727-1 1v6.33105c0 .55273.44727 1 1 1s1-.44727 1-1v-6.33105C21.81835 45.83329 21.37108 45.38602 20.81835 45.38602zM26.72069 45.38602c-.55273 0-1 .44727-1 1v6.33105c0 .55273.44727 1 1 1s1-.44727 1-1v-6.33105C27.72069 45.83329 27.27343 45.38602 26.72069 45.38602zM32.62206 45.38602c-.55273 0-1 .44727-1 1v6.33105c0 .55273.44726 1 1 1s1-.44727 1-1v-6.33105C33.62206 45.83329 33.17479 45.38602 32.62206 45.38602z"/><path fill="#fff" d="M44.4912 42.20536h.6875c.55273 0 1-.44727 1-1s-.44727-1-1-1h-.6875c-.55273 0-1 .44727-1 1S43.93847 42.20536 44.4912 42.20536zM48.7412 42.20536h8.20801c.55273 0 1-.44727 1-1s-.44727-1-1-1H48.7412c-.55273 0-1 .44727-1 1S48.18847 42.20536 48.7412 42.20536z"/></svg>