<svg xmlns="http://www.w3.org/2000/svg" enable-background="new 0 0 68 68" viewBox="0 0 68 68"><polygon fill="#444" points="26.099 36.978 18.37 52.695 20.956 53.981 28.786 38.061"/><polygon fill="#444" points="24.447 23.479 13.492 11.788 11.73 13.747 22.698 25.451"/><polygon fill="#444" points="36.899 26.01 51.607 20.774 52.638 23.819 37.978 29.055"/><circle cx="30.211" cy="30.101" r="9.683" fill="#e2e2e2"/><path fill="#d3d3d3" d="M32.74697,39.44938c-0.8013,0.21759-1.65199,0.33629-2.53238,0.33629c-5.35141,0-9.68418-4.33265-9.68418-9.68412c0-5.35154,4.33277-9.68418,9.68418-9.68418c0.88039,0,1.73108,0.1187,2.53238,0.33635c-4.12495,1.10788-7.1617,4.86678-7.1617,9.34783C25.58526,34.58254,28.62201,38.34144,32.74697,39.44938z"/><path fill="#ededed" d="M27.67724,39.44938c0.8013,0.21759,1.65199,0.33629,2.53238,0.33629c5.35141,0,9.68418-4.33265,9.68418-9.68412c0-5.35154-4.33276-9.68418-9.68418-9.68418c-0.88039,0-1.73108,0.1187-2.53238,0.33635c4.12495,1.10788,7.1617,4.86678,7.1617,9.34783C34.83894,34.58254,31.80219,38.34144,27.67724,39.44938z"/><circle cx="8.435" cy="9.269" r="6.435" fill="#fe9967"/><circle cx="17.294" cy="58.087" r="7.078" fill="#a7d08c"/><circle cx="57.902" cy="20.418" r="8.098" fill="#feeb75"/><path fill="#ef8759" d="M14.10152,12.34042c-1.09063,2.00458-3.20938,3.36527-5.65024,3.36527c-3.55222,0-6.42922-2.88747-6.42922-6.43962c0-3.10554,2.20192-5.70216,5.12052-6.30459C6.63365,3.87549,6.3428,4.93487,6.3428,6.05662c0,3.55215,2.88747,6.42922,6.43962,6.42922C13.2291,12.48585,13.67564,12.44432,14.10152,12.34042z"/><path fill="#9ac181" d="M23.38577,61.7152c-1.22553,2.06689-3.48984,3.44831-6.06578,3.44831c-3.91559,0-7.08351-3.16785-7.08351-7.08357c0-3.30289,2.26431-6.07605,5.33866-6.84464c-0.64396,1.05938-1.00746,2.30576-1.00746,3.63526c0,3.90526,3.16792,7.07318,7.08364,7.07318C22.25355,61.94374,22.83526,61.87103,23.38577,61.7152z"/><path fill="#efd96a" d="M64.65482,24.93751c-1.454,2.16034-3.92611,3.57294-6.72001,3.57294c-4.47663,0-8.10149-3.62493-8.10149-8.10149c0-3.6456,2.39933-6.72001,5.71255-7.74826c-0.8723,1.29831-1.38123,2.86667-1.38123,4.53888c0,4.46617,3.62487,8.09103,8.10136,8.09103C63.09686,25.29062,63.89663,25.16599,64.65482,24.93751z"/></svg>