<svg xmlns="http://www.w3.org/2000/svg" enable-background="new 0 0 68 68" viewBox="0 0 68 68"><path fill="#e2e2e2" d="M33.99923,66.50127H33.9992c-10.35533,0-18.74998-8.39465-18.74998-18.74998V26.65957c0-6.43075,5.21315-11.6439,11.6439-11.6439h14.21219c6.43075,0,11.64391,5.21315,11.64391,11.6439v21.09172C52.74921,58.10662,44.35456,66.50127,33.99923,66.50127z"/><path fill="#d3d3d3" d="M36.95924,66.25843c-0.97003,0.16003-1.95001,0.24011-2.96002,0.24011c-10.35999,0-18.75-8.39014-18.75-18.75V26.65845c0-6.42993,5.21002-11.64002,11.64002-11.64002h5.91998c-6.42999,0-11.64001,5.21008-11.64001,11.64002v21.09009C21.1692,57.0984,28.00922,64.8484,36.95924,66.25843z"/><path fill="#ededed" d="M40.59467,65.33314c-7.14569-2.64404-12.23547-9.51282-12.23547-17.58459V26.65845c0-6.42993,5.21002-11.64002,11.64001-11.64002h-2.71997c-6.43005,0-11.64001,5.21008-11.64001,11.64002v21.09009c0,8.71338,5.94379,16.01196,13.99426,18.11853C39.93244,65.66578,40.25013,65.48426,40.59467,65.33314z"/><path fill="#ededed" d="M52.74921,26.65845v21.09009c0,10.35986-8.39996,18.75-18.75,18.75c-1.01001,0-1.98999-0.08008-2.95996-0.24011c8.94995-1.41003,15.78998-9.16003,15.78998-18.50989V26.65845c0-6.42993-5.21002-11.64002-11.64001-11.64002h5.91003C47.52924,15.01844,52.74921,20.22852,52.74921,26.65845z"/><path fill="#fff" d="M42.09433 59.83884c-.30762 0-.61133-.1416-.80664-.4082-.32715-.44531-.23145-1.07129.21387-1.39746 2.38672-1.75293 4.10254-4.27832 4.83105-7.11035.1377-.53516.69141-.85742 1.21777-.71973.53516.1377.85742.68359.71973 1.21777-.84375 3.27832-2.82715 6.19922-5.58496 8.22363C42.50741 59.77537 42.2994 59.83884 42.09433 59.83884zM47.7496 48.75486c-.55273 0-1-.44727-1-1v-.58301c0-.55273.44727-1 1-1s1 .44727 1 1v.58301C48.7496 48.30759 48.30233 48.75486 47.7496 48.75486z"/><path fill="#666" d="M34.00079 20.67841c-.55273 0-1-.44727-1-1v-4.66016c0-.61035-.23438-1.17676-.66113-1.59668-.43164-.43848-.99902-.67285-1.60938-.67285h-5.75c-2.16699 0-3.92969-1.7627-3.92969-3.92969 0-1.04785.40918-2.03418 1.15332-2.77734.74219-.74316 1.72852-1.15332 2.77637-1.15332h12.18066c1.3125 0 2.37988-1.07227 2.37988-2.38965 0-.55273.44727-1 1-1s1 .44727 1 1c0 2.4209-1.96484 4.38965-4.37988 4.38965H24.98028c-.51367 0-.99707.20117-1.36133.56641-.36719.36719-.56836.85156-.56836 1.36426 0 1.06445.86523 1.92969 1.92969 1.92969h5.75c1.15137 0 2.22461.44727 3.02344 1.25879.7998.78711 1.24707 1.86035 1.24707 3.01074v4.66016C35.00079 20.23115 34.55352 20.67841 34.00079 20.67841zM34.00079 37.33857c-.55273 0-1-.44727-1-1v-6.69043c0-.55273.44727-1 1-1s1 .44727 1 1v6.69043C35.00079 36.8913 34.55352 37.33857 34.00079 37.33857z"/><rect width="37.5" height="2" x="15.251" y="35.334" fill="#666"/><path fill="#333" d="M36.49615,22.17915v4.96997c0,1.37988-1.12,2.5-2.5,2.5c-0.68994,0-1.31006-0.28003-1.76001-0.72998c-0.44995-0.46008-0.72998-1.08008-0.72998-1.77002v-4.96997c0-1.38013,1.10999-2.5,2.48999-2.5S36.49615,20.79902,36.49615,22.17915z"/></svg>