<svg xmlns="http://www.w3.org/2000/svg" enable-background="new 0 0 68 68" viewBox="0 0 68 68"><path fill="#fe9967" d="M63.49942,7.10268c-0.01001-3.21997-2.97998-5.60999-6.13-4.91998l-36.44995,8.01001c-2.32007,0.51001-3.95996,2.56-3.95996,4.92999l0.03992,35.08002c-1.97009-0.26001-4.18005,0.07001-6.28992,1.04999c-4.90015,2.28003-7.45007,7.16998-5.69006,10.94c1.75,3.78998,7.13,5,12.02991,2.72998c3.8501-1.78998,6.22998-5.19,6.21008-8.40997h0.0199l-0.0199-21.71031l33.97998-7.73004l0.02002,13.73033c-1.96008-0.23999-4.17004,0.08002-6.28003,1.04999c-4.90002,2.30005-7.46997,7.18005-5.70007,10.96002c1.75,3.77002,7.12012,5,12.04004,2.72003c3.8501-1.80005,6.20996-5.20001,6.20996-8.41003h0.01001L63.49942,7.10268z M23.24942,28.0027l-0.01001-10.94l33.97998-7.72998l0.01001,10.94L23.24942,28.0027z"/><path fill="#ffac88" d="M23.27933 56.51271h-.0199c.0199 3.21997-2.35999 6.62-6.21008 8.40997-4.8999 2.27002-10.27991 1.06-12.02991-2.72998-.93005-1.97998-.66003-4.28003.5199-6.34003 2.15015 3.06 7.03003 3.90002 11.51001 1.82001 3.8501-1.78998 6.22998-5.19 6.21008-8.40997h.01001L23.27933 56.51271zM63.53934 47.1227h-.01001c0 3.21002-2.35986 6.60999-6.20996 8.41003-4.91992 2.27997-10.29004 1.04999-12.04004-2.72003-.92993-1.98999-.65991-4.27997.52002-6.34003 2.14014 3.04004 7.02002 3.90002 11.52002 1.81006 3.8501-1.80005 6.20996-5.20001 6.20996-8.41003L63.53934 47.1227z"/><path fill="#ef8759" d="M63.49942,12.05269v4.84003h0.00989l-0.00989-9.92004c-0.01001-3.21997-2.97998-5.60999-6.13-4.91998L20.91947,10.0627c-2.32007,0.51001-3.95996,2.56-3.95996,4.92999l0.00989,4.92999c0.05994-2.31,1.68005-4.27997,3.95007-4.77997l36.44995-8.01001C60.51944,6.4427,63.48941,8.83272,63.49942,12.05269z"/><path fill="#ffac88" d="M23.45267 21.48598l-2.5332.5567c-2.32007.51001-3.95996 2.56-3.95996 4.92999l.00989 2.78003c.05005-2.32001 1.67004-4.31 3.95007-4.81l2.5332-.5567V21.48598zM57.36942 14.03273l-.16675.03662v2.89996l.16675-.03662c3.15002-.69 6.12 1.70001 6.13 4.91998v-2.89996C63.48941 15.73268 60.51944 13.34273 57.36942 14.03273z"/></svg>