<svg xmlns="http://www.w3.org/2000/svg" enable-background="new 0 0 68 68" viewBox="0 0 68 68"><path fill="#e2e2e2" d="M56.76504,65.50337H11.23496c-1.18831,0-2.15163-0.96332-2.15163-2.15163V8.7911c0-1.18831,0.96332-2.15163,2.15163-2.15163h45.53008c1.18831,0,2.15163,0.96332,2.15163,2.15163v54.56064C58.91667,64.54005,57.95335,65.50337,56.76504,65.50337z"/><path fill="#d3d3d3" d="M18.1534,65.4994h-6.92004c-1.19006,0-2.15002-0.96002-2.15002-2.15002v-54.56c0-1.19,0.95996-2.15002,2.15002-2.15002h6.92004c-1.19006,0-2.15015,0.96002-2.15015,2.15002v54.56C16.00326,64.53938,16.96334,65.4994,18.1534,65.4994z"/><path fill="#ededed" d="M27.63338 65.4994h-3.27002c-1.19995 0-2.16003-.96002-2.16003-2.15002v-54.56c0-1.19.96008-2.15002 2.16003-2.15002h3.27002c-1.19006 0-2.16003.96002-2.16003 2.15002v54.56C25.47335 64.53938 26.44332 65.4994 27.63338 65.4994zM58.91667 8.78939v54.56c0 1.19-.95996 2.15002-2.15002 2.15002H49.8466c1.19006 0 2.15015-.96002 2.15015-2.15002v-54.56c0-1.19-.96008-2.15002-2.15015-2.15002h6.92004C57.95671 6.63936 58.91667 7.59938 58.91667 8.78939z"/><path fill="#666" d="M52.00032 22.77639h-36c-.55274 0-1 .44727-1 1s.44727 1 1 1h36c.55273 0 1-.44727 1-1S52.55306 22.77639 52.00032 22.77639zM52.00032 32.47072h-36c-.55274 0-1 .44727-1 1s.44727 1 1 1h36c.55273 0 1-.44727 1-1S52.55306 32.47072 52.00032 32.47072zM52.00032 42.16506h-36c-.55274 0-1 .44727-1 1s.44727 1 1 1h36c.55273 0 1-.44727 1-1S52.55306 42.16506 52.00032 42.16506zM52.00032 51.85939h-36c-.55274 0-1 .44727-1 1s.44727 1 1 1h36c.55273 0 1-.44727 1-1S52.55306 51.85939 52.00032 51.85939z"/><path fill="#fff" d="M47.83333 60.00295h-11c-.55273 0-1 .44727-1 1s.44727 1 1 1h11c.55273 0 1-.44727 1-1S48.38607 60.00295 47.83333 60.00295zM32.89583 60.00295h-.45801c-.55273 0-1 .44727-1 1s.44727 1 1 1h.45801c.55273 0 1-.44727 1-1S33.44857 60.00295 32.89583 60.00295z"/><path fill="#666" d="M35.00713 3.49663v7.81c0 .54999-.45007 1-1 1-.56006 0-1-.45001-1-1v-7.81c0-.55005.43994-1 1-1C34.55705 2.49663 35.00713 2.94658 35.00713 3.49663zM44.00713 3.49663v7.81c0 .54999-.45007 1-1 1-.56006 0-1-.45001-1-1v-7.81c0-.55005.43994-1 1-1C43.55705 2.49663 44.00713 2.94658 44.00713 3.49663zM53.00713 3.49663v7.81c0 .54999-.45007 1-1 1-.56006 0-1-.45001-1-1v-7.81c0-.55005.43994-1 1-1C52.55705 2.49663 53.00713 2.94658 53.00713 3.49663zM17.00713 3.49663v7.81c0 .54999-.45007 1-1 1-.56006 0-1-.45001-1-1v-7.81c0-.55005.43994-1 1-1C16.55705 2.49663 17.00713 2.94658 17.00713 3.49663zM26.00713 3.49663v7.81c0 .54999-.45007 1-1 1-.56006 0-1-.45001-1-1v-7.81c0-.55005.43994-1 1-1C25.55705 2.49663 26.00713 2.94658 26.00713 3.49663z"/></svg>