<svg xmlns="http://www.w3.org/2000/svg" enable-background="new 0 0 68 68" viewBox="0 0 68 68"><path fill="#e2e2e2" d="M53.56528,17.95851v45.11987c0,1.89014-1.52997,3.42017-3.41998,3.42017H6.25528c-1.88995,0-3.42999-1.53003-3.42999-3.42017V17.95851H53.56528z"/><path fill="#fe9967" d="M53.56528,8.92848v9.03003H2.82529V8.92848c0-1.89001,1.54004-3.42004,3.42999-3.42004h43.89001C52.03531,5.50844,53.56528,7.03847,53.56528,8.92848z"/><path fill="#d3d3d3" d="M13.08529,66.49855H6.25528c-1.88995,0-3.42999-1.53003-3.42999-3.42017V17.95851H9.6553v45.11987C9.6553,64.96852,11.19528,66.49855,13.08529,66.49855z"/><path fill="#ef8759" d="M13.08529,5.50844c-1.89001,0-3.42999,1.53003-3.42999,3.42004v9.03003H2.82529V8.92848c0-1.89001,1.54004-3.42004,3.42999-3.42004H13.08529z"/><path fill="#ededed" d="M21.37527,66.49855h-3.53998c-1.89001,0-3.42999-1.53003-3.42999-3.42017V17.95851h3.53998v45.11987C17.94528,64.96852,19.48532,66.49855,21.37527,66.49855z"/><path fill="#ffac88" d="M21.37527,5.50844c-1.88995,0-3.42999,1.53003-3.42999,3.42004v9.03003H14.4053V8.92848c0-1.89001,1.53998-3.42004,3.42999-3.42004H21.37527z"/><path fill="#ededed" d="M53.56528,17.95851v45.11987c0,1.89014-1.52997,3.42017-3.41998,3.42017h-6.83002c1.89001,0,3.41998-1.53003,3.41998-3.42017V17.95851H53.56528z"/><path fill="#ffac88" d="M53.56528,8.92848v9.03003h-6.83002V8.92848c0-1.89001-1.52997-3.42004-3.41998-3.42004h6.83002C52.03531,5.50844,53.56528,7.03847,53.56528,8.92848z"/><path fill="#d3d3d3" d="M53.57001,8.93047v49.94239h9.17041c1.57891,0,2.73964-1.48053,2.36282-3.01382L53.57001,8.93047z"/><path fill="#666" d="M11.15463 28.63356h34.08984c.55273 0 1-.44727 1-1s-.44727-1-1-1H11.15463c-.55273 0-1 .44727-1 1S10.6019 28.63356 11.15463 28.63356zM11.15463 38.05836h34.08984c.55273 0 1-.44727 1-1s-.44727-1-1-1H11.15463c-.55273 0-1 .44727-1 1S10.6019 38.05836 11.15463 38.05836zM11.15463 47.48317h34.08984c.55273 0 1-.44727 1-1s-.44727-1-1-1H11.15463c-.55273 0-1 .44727-1 1S10.6019 47.48317 11.15463 47.48317zM11.15463 56.907h34.08984c.55273 0 1-.44727 1-1s-.44727-1-1-1H11.15463c-.55273 0-1 .44727-1 1S10.6019 56.907 11.15463 56.907z"/><path fill="#fff" d="M34.02442 15.87739l.36914.00879c.00781 0 .01563 0 .02344 0 .54199 0 .98633-.43262 1-.97656.0127-.55176-.42383-1.00977-.97656-1.02344l-.36914-.00879c-.55566-.00488-1.00977.4248-1.02344.97656C33.03516 15.40571 33.47169 15.86371 34.02442 15.87739zM37.69532 15.8686c.00195 0 .00293 0 .00488 0l9.16211-.04297c.55176-.00293.99805-.45215.99512-1.00488-.00293-.55078-.4502-.99512-1-.99512-.00195 0-.00293 0-.00488 0l-9.16211.04297c-.55176.00293-.99805.45215-.99512 1.00488C36.69825 15.42426 37.14552 15.8686 37.69532 15.8686z"/><path fill="#444" d="M45.22223 9.78465c-.55273 0-1-.44727-1-1v-6.2832c0-.55273.44727-1 1-1s1 .44727 1 1v6.2832C46.22223 9.33739 45.77496 9.78465 45.22223 9.78465zM33.32281 9.78465c-.55273 0-1-.44727-1-1v-6.2832c0-.55273.44727-1 1-1s1 .44727 1 1v6.2832C34.32281 9.33739 33.87555 9.78465 33.32281 9.78465zM23.07867 9.78465c-.55273 0-1-.44727-1-1v-6.2832c0-.55273.44727-1 1-1s1 .44727 1 1v6.2832C24.07867 9.33739 23.6314 9.78465 23.07867 9.78465zM11.18023 9.78465c-.55273 0-1-.44727-1-1v-6.2832c0-.55273.44727-1 1-1s1 .44727 1 1v6.2832C12.18023 9.33739 11.73297 9.78465 11.18023 9.78465z"/></svg>