<svg xmlns="http://www.w3.org/2000/svg" enable-background="new 0 0 68 68" viewBox="0 0 68 68"><path fill="#444" d="M59.69129,54.0323h-48.765V22.43339c0-1.41014,1.14314-2.55329,2.55329-2.55329H57.138c1.41014,0,2.55329,1.14314,2.55329,2.55329V54.0323z"/><path fill="#333" d="M18.48602,19.882c-1.40985,0-2.55112,1.14133-2.55112,2.55118v31.60236h-5.00647V22.43318c0-1.40985,1.14127-2.55118,2.55112-2.55118H18.48602z"/><path fill="#666" d="M25.85196 19.882c-1.40997 0-2.55124 1.14133-2.55124 2.55118v31.60236h-2.32095V22.43318c0-1.40985 1.14127-2.55118 2.55112-2.55118H25.85196zM59.69129 22.43318v31.60236H54.6751V22.43318c0-1.40985-1.14127-2.55118-2.55112-2.55118h5.00647C58.5403 19.882 59.69129 21.02333 59.69129 22.43318z"/><rect width="24.132" height="38.744" x="23.243" y="17.584" fill="#e2e2e2" transform="rotate(90 35.309 36.956)"/><rect width="38.748" height="6.09" x="15.935" y="24.888" fill="#d3d3d3"/><rect width="38.748" height="6.09" x="15.935" y="42.932" fill="#ededed"/><path fill="#666" d="M5.84482,54.03228c-0.78309,0-1.35442,0.72237-1.20274,1.49063c0.75174,3.80769,4.33089,6.69256,8.63261,6.69256H57.3429c4.30172,0,7.88087-2.88487,8.63261-6.69256c0.15167-0.76826-0.41965-1.49063-1.20274-1.49063H5.84482z"/><path fill="#444" d="M65.97108,55.52214c-0.74813,3.80766-4.32555,6.69456-8.6319,6.69456h-44.061c-4.30635,0-7.88378-2.8869-8.6319-6.69456c-0.14389-0.70972,0.33566-1.38111,1.03579-1.46739c1.52494,2.42649,4.35435,4.06657,7.59612,4.06657h44.061c3.24176,0,6.07118-1.64008,7.59612-4.06657C65.63542,54.14103,66.11497,54.81241,65.97108,55.52214z"/><path fill="#fe9967" d="M35.50158,15.06458l1.47807,9.84606c0.17372,1.15723-0.46795,2.26922-1.54461,2.71681c-7.24932,3.01112-14.78093,4.14174-22.59484,3.39187c-1.16063-0.11173-2.11016-0.98487-2.28388-2.14209l-1.47806-9.84607"/><path fill="#ef8759" d="M16.73838,30.61122c2.55076,0.24403,5.06917,0.28396,7.56238,0.13137c-3.7454,0.55714-7.57094,0.64364-11.46006,0.27323c-1.16572-0.10705-2.10863-0.97968-2.28777-2.14144l-1.47545-9.84451l26.41883-3.96221l0.02006,0.17178l-22.54121,3.38583l1.47545,9.84451C14.62039,29.62941,15.57263,30.50428,16.73838,30.61122z"/><path fill="#ffac88" d="M21.61044,30.28997c-1.16572-0.10705-2.10863-0.97968-2.28777-2.14144l-0.9788-6.51505c-0.16233-0.02636-0.32298-0.04826-0.48956-0.08603c-0.59339-0.13455-1.12487-0.32877-1.60812-0.56415l1.11937,7.4689c0.17914,1.16176,1.12211,2.0344,2.28777,2.14144c1.44587,0.13768,2.87963,0.19062,4.30705,0.20131c0.11518-0.11458,0.23397-0.22498,0.35764-0.33044C23.41913,30.42828,22.51772,30.37624,21.61044,30.28997z"/><path fill="#ffac88" d="M35.43578,27.62797c-4.86485,2.02422-9.86019,3.1928-14.97883,3.51721c3.76625-0.56226,7.46167-1.5928,11.07906-3.10335c1.08595-0.4521,1.72217-1.56668,1.55025-2.71684l-1.4647-9.67484l3.87971-0.58563l1.47547,9.8444C37.15584,26.07065,36.51025,27.18311,35.43578,27.62797z"/><path fill="#fe9967" d="M19.48691,6.20755l-17.0214,9.70901c-0.72749,0.41496-0.56344,1.50782,0.25383,1.69089l19.12189,4.28339c0.78491,0.17582,1.60718,0.05239,2.30587-0.34615l17.02152-9.70914c0.72749-0.41497,0.56343-1.50782-0.25384-1.69089L21.79275,5.8614C21.00785,5.68558,20.18559,5.80902,19.48691,6.20755z"/><path fill="#ffac88" d="M41.16529,11.83907l-3.62179,2.05037c0.73313-0.41397,0.56716-1.50384-0.2466-1.68835L18.16758,7.9129c-0.68279-0.15482-1.39782-0.08093-2.03359,0.20758l3.35485-1.91426c0.6987-0.39236,1.51485-0.52208,2.30058-0.34392l19.12205,4.27682C41.73459,10.32575,41.89838,11.42497,41.16529,11.83907z"/><path fill="#ef8759" d="M26.50481,19.46068c0.41156,0.09332,0.83284,0.10036,1.24307,0.02615l-3.60309,2.05474c-0.70079,0.40161-1.51486,0.52184-2.30265,0.35305L2.72219,17.60855c-0.82312-0.18664-0.98901-1.2766-0.25594-1.69059l3.2975-1.87816c0.02231,0.37889,0.27669,0.73153,0.71634,0.83122L26.50481,19.46068z"/><path fill="#ffac88" d="M31.29874,17.03523c-0.60745,0.25015-1.2718,0.31872-1.92199,0.17946l-19.11996-4.28607c-0.53316-0.12089-0.79317-0.62235-0.71002-1.07565l-0.88233,0.50811c-0.73307,0.41398-0.56928,1.5132,0.25384,1.69983l19.12208,4.27671c0.78779,0.16878,1.59973,0.05792,2.30053-0.34369l0.78378-0.44702C31.17625,17.37397,31.23539,17.20395,31.29874,17.03523z"/><path fill="#ededed" d="M39.56771,57.12345h-8.51758c-0.55273,0-1,0.44727-1,1s0.44727,1,1,1h8.51758c0.55273,0,1-0.44727,1-1S40.12044,57.12345,39.56771,57.12345z"/><path fill="#fff" d="M50.85384 42.30997c-.55273 0-1 .44727-1 1v1.0127h-4.70508c-.55273 0-1 .44727-1 1s.44727 1 1 1h5.0332c.92188 0 1.67188-.75 1.67188-1.67188v-1.34082C51.85384 42.75724 51.40657 42.30997 50.85384 42.30997zM41.75228 44.32267h-.95898c-.55273 0-1 .44727-1 1s.44727 1 1 1h.95898c.55273 0 1-.44727 1-1S42.30501 44.32267 41.75228 44.32267z"/><path fill="#444" d="M42.8394,21.93372c-0.375,0-0.69824-0.28027-0.74414-0.66113l-1.12012-9.43066l-19.06933,2.2832c-0.41309,0.04492-0.78418-0.24609-0.83398-0.65625c-0.04883-0.41113,0.24512-0.78418,0.65625-0.83398l19.81445-2.37207c0.19434-0.02148,0.39648,0.03223,0.55273,0.15527s0.25781,0.30371,0.28125,0.50098l1.20898,10.17578c0.04883,0.41211-0.24512,0.78516-0.65625,0.83398C42.89897,21.93177,42.8687,21.93372,42.8394,21.93372z"/><polygon fill="#666" points="45.495 24.154 41.052 24.665 41.241 18.921 44.006 18.603"/></svg>