<svg xmlns="http://www.w3.org/2000/svg" enable-background="new 0 0 68 68" viewBox="0 0 68 68"><path fill="#a7d08c" d="M52.74992,4.5588l11.82353,11.82353c1.79793,1.79793,1.79793,4.71295,0,6.51087l-8.93625,8.93625c-0.19133,0.19132-0.45201,0.29695-0.72256,0.29277l-7.05275-0.10898c-0.27054-0.00418-0.53123,0.10145-0.72256,0.29277L24.35496,55.09039c-0.95289,0.95289-2.46226,1.05793-3.53794,0.2462L8.84539,46.30264c-1.30989-0.98846-1.44338-2.90681-0.28302-4.06717L46.23904,4.5588C48.03697,2.76087,50.95199,2.76087,52.74992,4.5588z"/><path fill="#badda4" d="M60.69205,12.50471l3.87842,3.87842c1.79704,1.79704,1.79704,4.7106,0,6.50764l-8.9379,8.9379c-0.19137,0.19137-0.45213,0.297-0.72273,0.29277l-7.04879-0.11016c-0.2706-0.00423-0.53136,0.1014-0.72273,0.29277L24.35235,55.09002c-0.94838,0.94838-2.45952,1.05634-3.53139,0.24688L8.84649,46.30772c-0.57829-0.43937-0.94066-1.06415-1.03328-1.72715l9.12933,6.87792c1.07187,0.80945,2.58301,0.7015,3.53139-0.24688L43.2599,28.42563c0.19137-0.19137,0.45214-0.297,0.72275-0.29277l7.04886,0.11025c0.27061,0.00423,0.53138-0.1014,0.72274-0.29277l8.9379-8.93789C62.48857,17.21602,62.48867,14.30132,60.69205,12.50471z"/><path fill="#9ac181" d="M52.75027,4.56293l3.5391,3.5391c-1.79652-1.79652-4.71121-1.79642-6.50764,0L12.10803,45.77574c-0.67081,0.67081-0.90988,1.58832-0.74018,2.43665l-2.52136-1.90467c-1.31075-0.98697-1.44186-2.90679-0.27757-4.07109L46.24263,4.56293C48.03906,2.7665,50.95375,2.76641,52.75027,4.56293z"/><path fill="#e2e2e2" d="M17.88858,53.12616L6.51837,64.49638c-0.51808,0.51807-1.39902,0.32152-1.64773-0.36765l-2.73307-7.57317c-0.13159-0.36463-0.04059-0.77246,0.23351-1.04656l7.96977-7.96977L17.88858,53.12616z"/><path fill="#d3d3d3" d="M14.08037,50.30727l-3.73959-2.76805l-7.96976,7.96975c-0.27411,0.27411-0.36511,0.68196-0.23351,1.04659l1.5102,4.18435L14.08037,50.30727z"/><path fill="#e2e2e2" d="M39.6758,28.9559L27.57655,41.05515c-0.89017,0.89017-2.33342,0.89017-3.22359,0l-0.40483-0.40484c-0.89017-0.89017-0.89017-2.33342,0-3.22359l12.09925-12.09925c0.89017-0.89017,2.33342-0.89017,3.22359,0l0.40483,0.40483C40.56598,26.62247,40.56598,28.06573,39.6758,28.9559z"/><path fill="#fff" d="M52.36218 11.94853c-.2627 0-.52539-.10254-.72168-.30762l-.25586-.2666c-.38184-.39844-.36914-1.03125.0293-1.41406.39746-.38086 1.03125-.37012 1.41406.0293l.25586.2666c.38184.39844.36914 1.03125-.0293 1.41406C52.8612 11.85576 52.6112 11.94853 52.36218 11.94853zM60.47253 19.96806c-.25391 0-.50781-.0957-.70313-.28906l-5.7793-5.71387c-.39258-.3877-.39648-1.02148-.00781-1.41406.3877-.39258 1.02051-.39746 1.41406-.00781l5.7793 5.71387c.39258.3877.39648 1.02148.00781 1.41406C60.98816 19.86943 60.73034 19.96806 60.47253 19.96806z"/><path fill="#444" d="M30.24618,33.7588c0-0.25586,0.09766-0.51172,0.29297-0.70703l5.37988-5.37988c0.39063-0.39063,1.02344-0.39063,1.41406,0s0.39063,1.02344,0,1.41406l-5.37988,5.37988c-0.39063,0.39063-1.02346,0.39063-1.41406,0C30.34384,34.27052,30.24618,34.01466,30.24618,33.7588z"/><path fill="#666" d="M36.62606,34.7588c-0.25586,0-0.51172-0.09766-0.70703-0.29297l-5.37988-5.37988c-0.39063-0.39063-0.39063-1.02344,0-1.41406c0.3906-0.39063,1.02344-0.39063,1.41406,0l5.37988,5.37988c0.39063,0.39063,0.39063,1.02344,0,1.41406C37.13778,34.66115,36.88192,34.7588,36.62606,34.7588z"/></svg>