<svg xmlns="http://www.w3.org/2000/svg" enable-background="new 0 0 68 68" viewBox="0 0 68 68"><path fill="#444" d="M30.53594 19.17375c-.24512 0-.49121-.08984-.68359-.27051-.40332-.37695-.42383-1.00977-.0459-1.41309L43.67559 2.68743c.63867-.68262 1.50586-1.06934 2.44043-1.08887.90137.00781 1.81641.33008 2.48242.98535l1.97461 1.93652c.39453.38672.40039 1.01953.01367 1.41406C50.2 6.32708 49.56524 6.33489 49.17266 5.94817l-1.97461-1.93652c-.27246-.26758-.62988-.41309-1.00977-.41309-.00977 0-.02051 0-.03125 0-.3916.00781-.75391.16992-1.02246.45605L31.26543 18.85735C31.06914 19.06731 30.80254 19.17375 30.53594 19.17375zM3.80239 66.40144c-.25293 0-.50586-.0957-.7002-.28613-.39453-.38672-.40039-1.01953-.01367-1.41406l2.64844-2.69922c.3877-.39648 1.02051-.39941 1.41406-.01367.39453.38672.40039 1.01953.01367 1.41406l-2.64844 2.69922C4.31997 66.30183 4.06118 66.40144 3.80239 66.40144z"/><path fill="#fe9967" d="M43.49915,36.39627L31.16789,24.29869L50.26635,4.83131c1.4493-1.47729,3.82177-1.49999,5.29907-0.05069l6.98151,6.84921c1.47729,1.4493,1.49999,3.82177,0.05069,5.29907L43.49915,36.39627z"/><path fill="#444" d="M64.77937,5.31689L61.8345,2.42782C61.28424,1.888,60.40056,1.89645,59.86074,2.4467l-3.27332,3.33655l4.93752,4.84395l3.27332-3.33655C65.33807,6.7404,65.32962,5.85671,64.77937,5.31689z"/><path fill="#fe9967" d="M43.49923,36.3962C33.00017,47.55811,16.16376,60.64141,7.72199,63.58318c-0.56417,0.1966-1.23413,0.00747-1.70413-0.45362h0c-0.47-0.46109-0.67191-1.12732-0.48614-1.69514c2.77975-8.49651,14.67722-26.42514,25.63625-37.1358L43.49923,36.3962z"/><path fill="#ef8759" d="M59.89717 9.02442c-1.47731-1.44931-3.85625-1.42656-5.30552.0507L35.49652 28.53909l-4.32821-4.24619L50.26344 4.82893c1.44926-1.47726 3.82821-1.50001 5.30552-.0507L59.89717 9.02442zM6.02006 63.1274C5.90807 63.05147 6.11507 63.22061 6.02006 63.1274c-.46649-.45765-.67825-1.12318-.48698-1.69839 2.78576-8.49052 14.68071-26.41931 25.63524-37.1361l4.32821 4.24619C26.76332 37.07804 10.14577 55.15465 6.02006 63.1274z"/><path fill="#ffac88" d="M62.59738 16.92914L43.50225 36.39311l-4.32821-4.24619 19.09512-19.46398c1.44926-1.47726 1.42651-3.8562-.0508-5.30552l4.32821 4.24619C64.02389 13.07293 64.04665 15.45188 62.59738 16.92914zM7.71015 63.56483c-.57139.20228-1.24084.0033-1.70739-.4544 7.86737-3.31874 24.00708-21.25382 33.15674-30.97777l4.32821 4.24619C32.98244 47.53638 16.15453 60.62569 7.71015 63.56483z"/><rect width="5.586" height="17.275" x="36.497" y="19.717" fill="#444" transform="rotate(-45.548 39.29 28.354)"/><path fill="#fff" d="M32.46639 38.02462l-.34961.28418c-.42871.34863-.49317.97852-.14551 1.40723.19824.24316.48633.36914.77735.36914.22168 0 .44434-.07324.62988-.22363l.34961-.28418c.42871-.34863.49316-.97852.14551-1.40723C33.52499 37.74239 32.89608 37.67794 32.46639 38.02462zM29.06795 40.93966l-8.46484 7.29395c-.41895.36035-.46582.99219-.10547 1.41016.19824.22949.47754.34766.75781.34766.23145 0 .46387-.08008.65234-.24219l8.46484-7.29395c.41895-.36035.46582-.99219.10547-1.41016C30.1158 40.62618 29.48397 40.58028 29.06795 40.93966z"/></svg>