<svg xmlns="http://www.w3.org/2000/svg" enable-background="new 0 0 68 68" viewBox="0 0 68 68"><path fill="#feeb75" d="M18.10421,54.9908c0.18553-3.01887-2.0984-7.11115-3.54563-9.37623c-0.61165-0.95731-0.50907-2.2184,0.27801-3.03758c8.06777-8.39687,16.16428-28.72341,19.16762-40.57619c3.00333,11.85278,11.09985,32.17932,19.16761,40.57619c0.78708,0.81919,0.88967,2.08027,0.27802,3.03758c-1.44723,2.26508-3.73116,6.35736-3.54563,9.37623H18.10421z"/><path fill="#efd96a" d="M18.78424,43.9308c0,0,4.95996,6.66998,4.69006,11.06h-5.37012c0.18555-3.01676-2.09862-7.11018-3.54582-9.37593c-0.61156-0.95747-0.50888-2.21863,0.27826-3.03788c8.06778-8.39688,16.1642-28.72341,19.16758-40.57618C34.00421,15.0608,27.30414,36.60078,18.78424,43.9308z"/><path fill="#fff3ab" d="M49.21779,43.9308c0,0-4.95996,6.66998-4.69006,11.06h5.37012c-0.18555-3.01676,2.09862-7.11018,3.54582-9.37593c0.61156-0.95747,0.50888-2.21863-0.27826-3.03788c-8.06778-8.39688-16.1642-28.72341-19.16758-40.57618C33.99782,15.0608,40.6979,36.60078,49.21779,43.9308z"/><path fill="#a7d08c" d="M16.88763,54.9933H51.1144c1.76805,0,3.20134,1.43329,3.20134,3.20134v6.18749c0,0.89462-0.72523,1.61984-1.61985,1.61984H15.30614c-0.89462,0-1.61984-0.72523-1.61984-1.61984v-6.18749C13.68629,56.42659,15.11958,54.9933,16.88763,54.9933z"/><path fill="#9ac181" d="M22.07416,54.9908c-1.77002,0-3.19995,1.44-3.19995,3.20001v7.81h-3.5701c-0.89461,0-1.61984-0.72523-1.61984-1.61984v-6.19016c0-1.76001,1.44001-3.20001,3.20001-3.20001H22.07416z"/><path fill="#badda4" d="M28.51422 54.9908c-1.76001 0-3.20007 1.44-3.20007 3.20001v7.81h-2.30994v-7.81c0-1.76001 1.44006-3.20001 3.20007-3.20001H28.51422zM54.31574 58.19081v6.19016c0 .89461-.72523 1.61984-1.61985 1.61984h-3.57022v-7.81c0-1.76001-1.42993-3.20001-3.19995-3.20001h5.18994C52.88568 54.9908 54.31574 56.4308 54.31574 58.19081z"/><circle cx="34.001" cy="33.408" r="3.273" fill="#444"/><path fill="#fff" d="M30.44671 60.5558h8.9375c.55273 0 1-.44727 1-1s-.44727-1-1-1h-8.9375c-.55273 0-1 .44727-1 1S29.89398 60.5558 30.44671 60.5558zM42.93011 60.5558h.8291c.55273 0 1-.44727 1-1s-.44727-1-1-1h-.8291c-.55273 0-1 .44727-1 1S42.37738 60.5558 42.93011 60.5558z"/><path fill="#444" d="M35.00796,5.61802v26.89001h-2V5.61802c0.38-1.27002,0.70996-2.48004,1-3.61999C34.298,3.13798,34.62795,4.348,35.00796,5.61802z"/></svg>