<svg xmlns="http://www.w3.org/2000/svg" enable-background="new 0 0 68 68" viewBox="0 0 68 68"><path fill="#666" d="M53.19172,35.4253l-2.26583,26.5858c-0.1866,2.01704-1.87487,3.55425-3.89191,3.55425H21.50557c-2.01704,0-3.70531-1.53722-3.8919-3.55425l-2.26584-26.5858H53.19172z"/><path fill="#e2e2e2" d="M55.29761,26.76625H13.23897c-0.75656,0-1.36987,0.61331-1.36987,1.36987v5.92375c0,0.75656,0.61331,1.36987,1.36987,1.36987h42.05864c0.75656,0,1.36987-0.61331,1.36987-1.36987v-5.92375C56.66748,27.37957,56.05417,26.76625,55.29761,26.76625z"/><path fill="#444" d="M27.5919,65.56575h-6.08984c-2.01001,0-3.70007-1.53998-3.89014-3.54999l-2.26001-26.59003h6.08008l2.27002,26.59003C23.88194,64.02577,25.57188,65.56575,27.5919,65.56575z"/><path fill="#d3d3d3" d="M19.32188,35.42574h-6.07983c-0.76001,0-1.37012-0.60999-1.37012-1.37v-5.91998c0-0.76001,0.61011-1.37,1.37012-1.37h6.07983c-0.75989,0-1.36987,0.60999-1.36987,1.37v5.91998C17.95201,34.81575,18.562,35.42574,19.32188,35.42574z"/><path fill="#707070" d="M34.23204,65.56575h-2.71008c-2.01001,0-3.70007-1.53998-3.89001-3.54999l-2.26001-26.59003h2.70996l2.26001,26.59003C30.53197,64.02577,32.22203,65.56575,34.23204,65.56575z"/><path fill="#ededed" d="M25.97203,35.42574h-2.71008c-0.75989,0-1.37-0.60999-1.37-1.37v-5.91998c0-0.76001,0.61011-1.37,1.37-1.37h2.71008c-0.76001,0-1.37012,0.60999-1.37012,1.37v5.91998C24.60191,34.81575,25.21202,35.42574,25.97203,35.42574z"/><path fill="#707070" d="M53.19172,35.42574l-2.26001,26.59003c-0.19006,2.01001-1.88,3.54999-3.89001,3.54999h-6.08997c2.02002,0,3.71008-1.53998,3.89001-3.54999l2.27002-26.59003H53.19172z"/><path fill="#ededed" d="M56.66748,28.13801v5.91998c0,0.76001-0.61011,1.37-1.37012,1.37h-6.07996c0.75,0,1.37-0.60999,1.37-1.37v-5.91998c0-0.76001-0.62-1.37-1.37-1.37h6.07996C56.05737,26.76801,56.66748,27.378,56.66748,28.13801z"/><path fill="#feeb75" d="M14.11219,26.76625l-3.21322-16.74068c-0.10407-0.54218,0.25093-1.06612,0.79305-1.17047l11.55831-2.22492c0.54239-0.10441,1.06671,0.2507,1.17103,0.79311l3.72014,19.34296H14.11219z"/><path fill="#efd96a" d="M20.98204,26.76576h-6.87012L10.9004,10.02757c-0.10405-0.54229,0.25114-1.06628,0.79341-1.17047l5.62807-1.08133L20.98204,26.76576z"/><path fill="#fdb682" d="M30.76007,26.76533c-0.04794,0-0.09105,0-0.13419,0.00523V10.27228c3.67389,1.39283,7.3478,1.39283,11.02169,0v16.49827c-0.04314-0.00523-0.08625-0.00523-0.13419-0.00523H30.76007z"/><path fill="#ef9d65" d="M30.62666,26.76827V10.26988c1.16101,0.44096,2.32679,0.74446,3.48781,0.90482v15.58783h-3.35456C30.71231,26.76253,30.6695,26.76253,30.62666,26.76827z"/><path fill="#f9c19b" d="M41.64758,26.76827V10.26988c-1.16101,0.44096-2.32679,0.74446-3.48781,0.90482v15.58783h3.35456C41.56193,26.76253,41.60474,26.76253,41.64758,26.76827z"/><path fill="#e2e2e2" d="M30.62588,10.27228l4.66587-7.3719c0.39257-0.62026,1.29737-0.62026,1.68995,0l4.66587,7.3719C37.97368,11.66512,34.29978,11.66512,30.62588,10.27228z"/><polygon fill="#a7d08c" points="55.642 14.466 52.672 26.766 44.132 26.766 47.632 12.526"/><path fill="#444" d="M57.08189,8.48573l-1.43994,5.98004l-8.01001-1.94l1.45996-5.96002c0.16016-0.69,0.8501-1.10999,1.54004-0.95001l5.51001,1.33002C56.82188,7.11574,57.25206,7.80574,57.08189,8.48573z"/><polygon fill="#9ac181" points="55.642 14.466 52.672 26.766 48.232 26.766 51.412 13.596 51.452 13.446"/><path fill="#333" d="M57.08189,8.48573l-1.43994,5.98004l-4.18994-1.02002l1.3999-5.84003c0.17004-0.67999-0.26001-1.37-0.93994-1.53998L50.062,5.61574c0.18005-0.03998,0.38-0.03998,0.56995,0l5.51001,1.33002C56.82188,7.11574,57.25206,7.80574,57.08189,8.48573z"/><path fill="#d3d3d3" d="M30.62666,10.26988l4.6656-7.37049c0.39247-0.62,1.29682-0.62023,1.68961-0.00043l0.43959,0.69365l-4.64406,7.33585C32.0589,10.76237,31.34516,10.54475,30.62666,10.26988z"/><path fill="#444" d="M33.60291,5.57756l1.68831-2.67338c0.39242-0.62138,1.2986-0.62138,1.69102,0l1.68831,2.67338c-0.71805,0.54874-1.59291,0.86357-2.53382,0.86357S34.32096,6.12629,33.60291,5.57756z"/><path fill="none" d="M40.65197,11.66577v-0.01 M31.62197,11.66577v-0.01"/><path fill="#666" d="M15.09577 14.11296l-3.27888.69131-.38-1.95996 3.27875-.70132c.54004-.10004 1.07007.25 1.17004.79999C15.99568 13.48296 15.63569 14.00298 15.09577 14.11296zM17.86567 23.22301c.09998.53998-.25 1.06995-.79993 1.16998l-3.27888.69131-.38-1.96002 3.28876-.69131C17.23567 22.32298 17.75569 22.68297 17.86567 23.22301zM14.96565 19.463l-2.16877.48129-.38-1.96002 2.1789-.48129c.53992-.09998 1.05994.25 1.16992.78998C15.86567 18.83299 15.5157 19.36296 14.96565 19.463z"/><path fill="#333" d="M53.19563,35.42296h-0.57996L49.87568,38.153l-2.73999-2.73004h-2.40002c0,0.26001,0.09009,0.52002,0.29004,0.71002l3.42993,3.44l-5.21997,5.21997l-5.20996-5.21997l4.1499-4.15002h-2.83984L36.60579,38.153l-2.7301-2.73004h-2.82996l4.1499,4.15002l-5.21997,5.21997l-5.21997-5.21997l4.15002-4.15002h-2.82996L23.34578,38.153l-2.7301-2.73004h-2.83997l4.1499,4.15002L16.71565,44.783l-0.61987-0.62l0.31995,3.75l0.29993-0.30005l5.21997,5.22003l-4.69995,4.69l0.36011,4.22998l3.79993,3.79999c0.03992,0.01001,0.06995,0.01001,0.10999,0.01001h3.78003l4.68994-4.69l4.69006,4.69h3.89001l4.67993-4.67999l4.6001,4.59998c0.70996-0.14996,1.34985-0.48999,1.85986-0.96997L44.65571,59.463l5.20996-5.22003l1.58997,1.59003l0.21997-2.60999l-0.38989-0.39001l0.45996-0.46002l0.27002-3.09998l-2.15002,2.14996l-5.20996-5.21997l5.21997-5.22003l2.02002,2.03003c0.18005,0.16998,0.40002,0.27002,0.63,0.27997l0.18994-2.28998l-1.42993-1.42999l1.69995-1.70001L53.19563,35.42296z M36.60579,40.98296l5.21997,5.22003l-5.21997,5.21997l-5.22009-5.21997L36.60579,40.98296z M18.12568,46.20299l5.22009-5.22003l5.21997,5.22003l-5.21997,5.21997L18.12568,46.20299z M23.34578,64.67296L18.13569,59.463l5.21008-5.22003l5.21997,5.22003L23.34578,64.67296z M24.75569,52.83299l5.21997-5.22003l5.21997,5.22003l-5.21997,5.20996L24.75569,52.83299z M36.60579,64.68297L31.38569,59.463l5.22009-5.22003l5.21997,5.22003L36.60579,64.68297z M48.45564,52.83299l-5.21997,5.21997l-5.21997-5.21997l5.21997-5.22003L48.45564,52.83299z"/></svg>