<svg xmlns="http://www.w3.org/2000/svg" enable-background="new 0 0 68 68" viewBox="0 0 68 68"><path fill="#ededed" d="M48.17999,15.93458c0,0.72052-0.32228,1.37718-0.84599,1.85147c-0.45321,0.41957-1.06752,0.69318-1.75234,0.75703c-0.09067,0.00913-0.18127,0.00913-0.28202,0.00913H22.70036c-0.10075,0-0.19135,0-0.28202-0.00913c-1.46031-0.13683-2.59834-1.25866-2.59834-2.60851c0-0.72057,0.32228-1.37724,0.84599-1.85153c0.45321-0.41957,1.06752-0.69318,1.75235-0.75704c0.09067-0.00913,0.18127-0.00913,0.28202-0.00913h22.59928c0.10075,0,0.19135,0,0.28202,0.00913C47.04197,13.46285,48.17999,14.58467,48.17999,15.93458z"/><path fill="#a7d08c" d="M43.12685,2.52712c1.35575,0,2.45481,0.99535,2.45481,2.22317v8.57572c-0.09067-0.00913-0.18127-0.00913-0.28202-0.00913H22.70036c-0.10075,0-0.19135,0-0.28202,0.00913V4.7503c0-1.22782,1.09905-2.22317,2.45481-2.22317H43.12685z"/><path fill="#9ac181" d="M45.58002,4.7471v8.58002c-0.09003-0.01001-0.17999-0.01001-0.28003-0.01001h-5.96997V4.7471c0-1.21997-1.10004-2.21997-2.45001-2.21997h6.25C44.47998,2.52712,45.58002,3.52712,45.58002,4.7471z"/><path fill="#badda4" d="M22.41834,4.7471v8.58002c0.09003-0.01001,0.17999-0.01001,0.28003-0.01001h5.96997V4.7471c0-1.21997,1.10004-2.21997,2.45001-2.21997h-6.25C23.51838,2.52712,22.41834,3.52712,22.41834,4.7471z"/><path fill="#fdb682" d="M39.33002,13.3171v0.01001c-0.09003-0.01001-0.17999-0.01001-0.28003-0.01001H39.33002z"/><path fill="#fe9967" d="M45.29964,18.55222c0.10075,0,0.19135,0,0.28202-0.00913v32.77983c-7.7211-2.43219-15.44221-2.43219-23.16331,0V18.54309c0.09067,0.00913,0.18127,0.00913,0.28202,0.00913H45.29964z"/><path fill="#ef8759" d="M45.58002,18.54708v32.78003c-2.44-0.77002-4.89001-1.29999-7.33002-1.58002v-31.19h7.04999C45.40002,18.55709,45.48999,18.55709,45.58002,18.54708z"/><path fill="#fff" d="M38.25,18.54708v0.01001h-0.27997C38.07001,18.55709,38.16003,18.55709,38.25,18.54708z"/><path fill="#ffac88" d="M22.41834,18.54708v32.78003c2.44-0.77002,4.89001-1.29999,7.33002-1.58002v-31.19h-7.04999C22.59834,18.55709,22.50837,18.55709,22.41834,18.54708z"/><path fill="#aa91ab" d="M29.74836,18.54708v0.01001h0.27997C29.92835,18.55709,29.83833,18.55709,29.74836,18.54708z" opacity=".5"/><path fill="#feeb75" d="M45.58166,51.32292L35.29114,64.83213c-0.64956,0.85274-1.93272,0.85274-2.58228,0L22.41834,51.32292C30.13945,48.89073,37.86055,48.89073,45.58166,51.32292z"/><path fill="#e2e2e2" d="M48.17999,15.9371c0,0.72003-0.32001,1.37-0.84998,1.85004c-0.45001,0.41998-1.06,0.69-1.75,0.75995c-0.09003,0.01001-0.17999,0.01001-0.28003,0.01001h-4.25c0.10004,0,0.19,0,0.28003-0.01001c0.67999-0.06995,1.29999-0.33997,1.75-0.75995c0.52997-0.48004,0.84998-1.13,0.84998-1.85004c0-1.34998-1.14001-2.46997-2.59998-2.60999c-0.09003-0.01001-0.17999-0.01001-0.28003-0.01001h4.25c0.10004,0,0.19,0,0.28003,0.01001C47.03998,13.46713,48.17999,14.58712,48.17999,15.9371z"/><path fill="#efd96a" d="M45.58002,51.32711L35.29035,64.8334c-0.64935,0.85233-1.93181,0.85268-2.58162,0.00071l-1.40874-1.84703l9.76001-12.81C42.57001,50.46713,44.07001,50.84713,45.58002,51.32711z"/><path fill="#444" d="M38.17247,61.03746L35.29219,64.827c-0.64952,0.85458-1.93486,0.85458-2.58438,0l-2.88028-3.78955C31.00995,60.28665,32.4506,59.85588,34,59.85588S36.99005,60.28665,38.17247,61.03746z"/><path fill="#fff" d="M26.7679 43.65243c.55273 0 1-.44727 1-1v-9.44238c0-.55273-.44727-1-1-1s-1 .44727-1 1v9.44238C25.7679 43.20517 26.21517 43.65243 26.7679 43.65243zM26.7679 30.31845c.55273 0 1-.44727 1-1v-.83301c0-.55273-.44727-1-1-1s-1 .44727-1 1v.83301C25.7679 29.87118 26.21517 30.31845 26.7679 30.31845z"/></svg>