<svg xmlns="http://www.w3.org/2000/svg" enable-background="new 0 0 68 68" viewBox="0 0 68 68"><rect width="47.514" height="20.506" x="7.196" y="27.003" fill="#a7d08c" transform="rotate(-44.829 30.953 37.256)"/><path fill="#e2e2e2" d="M50.38575,3.48264l-5.94612,5.91064l14.45645,14.54321l5.94612-5.91064c1.5372-1.52803,1.54467-4.02418,0.01664-5.56138l-8.91176-8.96524C54.4191,1.96207,51.92295,1.9546,50.38575,3.48264z"/><path fill="#feeb75" d="M21.33642,61.27211L6.88305,46.732L2.422,64.41158c-0.18453,0.73129,0.47608,1.39586,1.20846,1.21571L21.33642,61.27211z"/><rect width="47.514" height="6.061" x="12.288" y="39.348" fill="#badda4" transform="rotate(-44.829 36.045 42.378)"/><path fill="#d3d3d3" d="M60.58596,8.16594c1.52798,1.53715,1.52057,4.03335-0.01664,5.56139l-5.94612,5.91064l4.27288,4.29852l5.94612-5.91064c1.5372-1.52803,1.54467-4.02418,0.01664-5.56138L60.58596,8.16594z"/><path fill="#efd96a" d="M21.33371,61.2801l-12.75,3.11987c-0.16003-0.66992-0.41998-1.29993-0.76001-1.85986l9.23999-5.56006L21.33371,61.2801z"/><rect width="47.514" height="6.061" x="2.107" y="29.107" fill="#9ac181" transform="rotate(-44.829 25.864 32.137)"/><path fill="#ededed" d="M60.22001,7.79779c-1.52798-1.53715-4.02418-1.54467-5.56139-0.01664l-5.94612,5.91064l-4.27287-4.29852l5.94612-5.91064c1.5372-1.52803,4.03335-1.52057,5.56139,0.01664L60.22001,7.79779z"/><path fill="#fff3ab" d="M11.1437,51.02009l-5.62,9.21997c-0.56-0.34009-1.19-0.60999-1.85999-0.77002l3.19995-12.75L11.1437,51.02009z"/><rect width="5.451" height="20.506" x="47.009" y="8.333" fill="#666" transform="rotate(-44.829 49.735 18.586)"/><rect width="20.506" height="47.514" x="26.794" y="13.499" fill="#fe9967" transform="rotate(-45.171 37.047 37.256)"/><path fill="#e2e2e2" d="M17.61425,3.48264l5.94612,5.91064L9.10392,23.93649L3.1578,18.02585c-1.5372-1.52803-1.54467-4.02418-0.01664-5.56138l8.91176-8.96524C13.5809,1.96207,16.07705,1.9546,17.61425,3.48264z"/><path fill="#feeb75" d="M46.66358,61.27211L61.11695,46.732L65.578,64.41158c0.18452,0.73129-0.47607,1.39586-1.20846,1.21571L46.66358,61.27211z"/><rect width="6.061" height="47.514" x="28.925" y="18.622" fill="#ffac88" transform="rotate(-45.171 31.955 42.378)"/><path fill="#d3d3d3" d="M7.41404,8.16594c-1.52798,1.53715-1.52057,4.03335,0.01664,5.56139l5.94612,5.91064l-4.27288,4.29852L3.1578,18.02585c-1.5372-1.52803-1.54467-4.02418-0.01664-5.56138L7.41404,8.16594z"/><path fill="#efd96a" d="M60.18368,62.5301c-0.34998,0.56995-0.60999,1.20996-0.76996,1.87988l-12.75-3.12988l4.27997-4.30005L60.18368,62.5301z"/><rect width="6.061" height="47.514" x="39.105" y="8.38" fill="#ef8759" transform="rotate(-45.171 42.136 32.137)"/><path fill="#ededed" d="M7.77999,7.79779c1.52798-1.53715,4.02418-1.54467,5.56139-0.01664l5.94612,5.91064l4.27287-4.29852l-5.94612-5.91064c-1.5372-1.52803-4.03335-1.52057-5.56139,0.01664L7.77999,7.79779z"/><path fill="#fff3ab" d="M64.33371,59.47004c-0.66004,0.16003-1.28998,0.41992-1.85999,0.76001l-5.61005-9.20996l4.27002-4.30005L64.33371,59.47004z"/><rect width="20.506" height="5.451" x="8.012" y="15.861" fill="#666" transform="rotate(-45.171 18.265 18.586)"/><path fill="#444" d="M8.58187 64.402l-4.95493 1.22202c-.73268.18069-1.39385-.48426-1.20898-1.2159l1.24816-4.9395C6.09755 60.06761 8.00042 61.97037 8.58187 64.402zM59.41311 64.40653l4.95493 1.22202c.73268.18069 1.39386-.48426 1.20898-1.2159l-1.24816-4.9395C61.89743 60.07214 59.99456 61.9749 59.41311 64.40653z"/><path fill="#fff" d="M36.76404 43.3585l-.29492-.2832c-.39746-.38184-1.03223-.37109-1.41406.0293-.38184.39844-.36914 1.03125.0293 1.41406l.29492.2832c.19336.18555.44336.27832.69238.27832.2627 0 .52539-.10254.72168-.30762C37.17517 44.37412 37.16248 43.74131 36.76404 43.3585zM26.88416 33.29111c-.38574-.39355-1.01855-.40234-1.41406-.01563-.39453.38574-.40137 1.01953-.01563 1.41406l7.06055 7.21777c.19629.2002.45508.30078.71484.30078.25195 0 .50488-.09473.69922-.28516.39453-.38574.40137-1.01953.01563-1.41406L26.88416 33.29111z"/></svg>