<svg xmlns="http://www.w3.org/2000/svg" enable-background="new 0 0 68 68" viewBox="0 0 68 68"><path fill="#444" d="M17.1552 29.98759c-.55273 0-1-.44727-1-1V10.63798c0-.55273.44727-1 1-1s1 .44727 1 1v18.34961C18.1552 29.54032 17.70793 29.98759 17.1552 29.98759zM27.48821 29.98759c-.55273 0-1-.44727-1-1V10.63798c0-.55273.44727-1 1-1s1 .44727 1 1v18.34961C28.48821 29.54032 28.04094 29.98759 27.48821 29.98759zM37.82121 29.98759c-.55273 0-1-.44727-1-1V10.63798c0-.55273.44727-1 1-1s1 .44727 1 1v18.34961C38.82121 29.54032 38.37395 29.98759 37.82121 29.98759zM50.45891 29.98759c-.46289 0-.87793-.32227-.97754-.79297l-3.875-18.34961c-.11426-.54102.23145-1.07129.77148-1.18555.54297-.11719 1.07129.23145 1.18555.77148l3.875 18.34961c.11426.54102-.23145 1.07129-.77148 1.18555C50.5966 29.98075 50.52727 29.98759 50.45891 29.98759z"/><circle cx="17.153" cy="30.201" r="3.214" fill="#fe9967"/><circle cx="27.487" cy="30.201" r="3.214" fill="#feeb75"/><circle cx="37.82" cy="30.201" r="3.214" fill="#a7d08c"/><circle cx="50.843" cy="30.201" r="3.214" fill="#e2e2e2"/><path fill="#ef8759" d="M17.08661,26.99446c-1.74316,0.03638-3.14673,1.45483-3.14673,3.20679s1.40356,3.17041,3.14673,3.20679V26.99446z"/><path fill="#efd96a" d="M27.50311,26.98933c-0.00562,0-0.01074-0.00171-0.01636-0.00171c-1.7749,0-3.21362,1.43884-3.21362,3.21362s1.43872,3.2135,3.21362,3.2135c0.00562,0,0.01074-0.00159,0.01636-0.00159V26.98933z"/><path fill="#9ac181" d="M37.75311,26.99446c-1.74316,0.03638-3.14661,1.45483-3.14661,3.20679s1.40344,3.17041,3.14661,3.20679V26.99446z"/><path fill="#d3d3d3" d="M50.83661,26.98835c-1.77173,0.00366-3.20703,1.44043-3.20703,3.21289s1.4353,3.20923,3.20703,3.21289V26.98835z"/><path fill="#feeb75" d="M60.48507,55.26521c-1.38086,0-2.5-1.11914-2.5-2.5V12.98396c0-1.01855-0.82813-1.84668-1.8457-1.84668H11.86397c-1.01758,0-1.8457,0.82813-1.8457,1.84668v39.78125c0,1.38086-1.11914,2.5-2.5,2.5s-2.5-1.11914-2.5-2.5V12.98396c0-3.77539,3.07129-6.84668,6.8457-6.84668h44.27539c3.77441,0,6.8457,3.07129,6.8457,6.84668v39.78125C62.98507,54.14607,61.86592,55.26521,60.48507,55.26521z"/><path fill="#efd96a" d="M33.18494,6.13728H11.86397c-3.77441,0-6.8457,3.07129-6.8457,6.84668v39.78125c0,1.38086,1.11914,2.5,2.5,2.5s2.5-1.11914,2.5-2.5V12.98396c0-1.01855,0.82813-1.84668,1.8457-1.84668h21.32096V6.13728z"/><path fill="#fe9967" d="M65.00175,61.86272h-62c-0.55228,0-1-0.44772-1-1v-4.43217c0-2.57677,2.08888-4.66565,4.66565-4.66565h54.6687c2.57677,0,4.66565,2.08888,4.66565,4.66565v4.43217C66.00175,61.415,65.55403,61.86272,65.00175,61.86272z"/><path fill="#ffac88" d="M2.00167,58.66169v2.20093c0,0.55228,0.44772,1,1,1h62c0.55228,0,1-0.44772,1-1v-2.20093H2.00167z"/><path fill="#ef8759" d="M65.99825,56.43171v3.82996c0-2.56995-2.08997-4.66003-4.65992-4.66003H6.66829c-2.57996,0-4.67004,2.09009-4.67004,4.66003v-3.82996c0-2.58008,2.09009-4.67004,4.67004-4.67004h54.67004C63.90828,51.76167,65.99825,53.85163,65.99825,56.43171z"/><path fill="#fff" d="M25.64718 55.81892l-.41699-.01074c-.58301-.04004-1.01074.4209-1.02539.97461-.01367.55176.42188 1.01074.97461 1.02539l.41699.01074c.00879 0 .01758 0 .02539 0 .54102 0 .98535-.43066 1-.97461C26.63546 56.29255 26.19991 55.83357 25.64718 55.81892zM21.50655 55.80818h-9.16602c-.55273 0-1 .44727-1 1s.44727 1 1 1h9.16602c.55273 0 1-.44727 1-1S22.05929 55.80818 21.50655 55.80818z"/></svg>