<svg xmlns="http://www.w3.org/2000/svg" enable-background="new 0 0 68 68" viewBox="0 0 68 68"><path fill="#e2e2e2" d="M59.51844,28.90382h-6.68909l-4.60107-7.96936l5.63293-7.22009c0.33984-0.43555,0.2627-1.06348-0.17285-1.40332c-0.43652-0.34082-1.06445-0.2627-1.40332,0.17285l-5.74768,7.36719h-9.45923l-4.9259-6.67774c-0.32813-0.44434-0.95313-0.53906-1.39844-0.21094c-0.44434,0.32813-0.53906,0.9541-0.21094,1.39844l4.83685,6.55713l-4.612,7.98975h-9.42847l-6.14892-7.08203c-0.36133-0.41895-0.99512-0.46094-1.41016-0.09961c-0.41699,0.3623-0.46191,0.99316-0.09961,1.41016l5.98077,6.88831l-4.58173,7.93494H8.39051c-0.55273,0-1,0.44727-1,1s0.44727,1,1,1h6.68909l4.60107,7.96851l-5.63293,7.22095c-0.33986,0.43555-0.2627,1.06445,0.17285,1.40332c0.18262,0.14258,0.39941,0.21191,0.61426,0.21191c0.29785,0,0.5918-0.13184,0.78906-0.38477l5.74768-7.36816h9.45929l4.92682,6.67773c0.19629,0.26563,0.49902,0.40625,0.80566,0.40625c0.20605,0,0.41406-0.06348,0.59277-0.19531c0.44434-0.32813,0.53906-0.9541,0.21094-1.39844l-4.83777-6.55701l4.61285-7.98889h9.42761l6.14984,7.08105c0.19727,0.22852,0.47559,0.34473,0.75488,0.34473c0.23242,0,0.4668-0.08105,0.65527-0.24512c0.41699-0.3623,0.46191-0.99316,0.09961-1.41016l-5.98169-6.88745l4.58167-7.93481h6.68909c0.55273,0,1-0.44727,1-1S60.07117,28.90382,59.51844,28.90382z M30.75867,47.01125h-9.29785l-4.64941-8.05176l4.64941-8.05176h9.29785l4.64942,8.05176L30.75867,47.01125z M46.44813,37.95558h-9.29785l-4.64844-8.05176l4.64844-8.05273h9.29785l4.64941,8.05273L46.44813,37.95558z"/><circle cx="61.509" cy="29.903" r="4.491" fill="#feeb75"/><circle cx="30.708" cy="12.236" r="4.491" fill="#666"/><circle cx="6.491" cy="38.955" r="4.491" fill="#a7d08c"/><circle cx="37.199" cy="55.764" r="4.491" fill="#fe9967"/><path fill="#efd96a" d="M61.50866,34.39464c-2.4805,0-4.49134-2.01085-4.49134-4.49134s2.01085-4.49134,4.49134-4.49134V34.39464z"/><path fill="#444" d="M30.70766,16.72757c-2.4805,0-4.49134-2.01084-4.49134-4.49134s2.01084-4.49134,4.49134-4.49134V16.72757z"/><path fill="#9ac181" d="M6.49134,43.4467C4.01084,43.4467,2,41.43586,2,38.95536c0-2.4805,2.01084-4.49134,4.49134-4.49134V43.4467z"/><path fill="#ef8759" d="M37.19876,60.25512c-2.4805,0-4.49134-2.01084-4.49134-4.49134c0-2.4805,2.01085-4.49134,4.49134-4.49134"/></svg>