<svg xmlns="http://www.w3.org/2000/svg" enable-background="new 0 0 68 68" viewBox="0 0 68 68"><path fill="#444" d="M41.31121,34.09115c0,3.86912-3.13522,7.00434-7.00441,7.00434c-3.86905,0-6.99314-3.13522-6.99314-7.00434c0-3.86905,3.12409-6.99321,6.99314-6.99321C38.17599,27.09794,41.31121,30.2221,41.31121,34.09115z"/><path fill="#e2e2e2" d="M67.31601,34.09993c0-4.86999-4.85999-9.11999-12.53003-11.83996c0.17004-0.91998,0.31006-1.82001,0.41003-2.70001c0.17004-1.52002,0.21008-2.92999,0.16003-4.25l-2,0.5c0.03003,1.10999-0.01001,2.27002-0.15002,3.53003c-0.07996,0.73999-0.20007,1.50995-0.33997,2.27997c-3.06006-0.92999-6.48999-1.63-10.20007-2.04999c-2.17004-2.92999-4.48999-5.54999-6.84998-7.76001c0.60999-0.51001,1.21997-1,1.83008-1.45001c3.42993-2.52997,6.62988-3.83997,9.21997-3.83997c0.6499,0,1.25,0.09998,1.81995,0.26996l1.77002-1.44995c-3.57996-1.81-8.53003-0.62006-13.98999,3.40997c-0.72009,0.53003-1.44006,1.09998-2.15002,1.71002c-0.71997-0.61005-1.42993-1.17999-2.15002-1.71002c-5.65002-4.16998-10.75-5.31-14.34998-3.22998c-3.60999,2.07996-5.15991,7.07001-4.38,14.03998c0.09998,0.88,0.22998,1.78003,0.40002,2.70001c-1.19995,0.41998-2.32007,0.89001-3.38,1.39001l1.09998,1.72998c0.8501-0.39001,1.75-0.76001,2.70996-1.09998c0.72998,3.14996,1.8501,6.46997,3.30005,9.81994c-1.44995,3.35004-2.57007,6.66003-3.30005,9.82001c-6.65991-2.40997-10.94995-5.95001-10.94995-9.82001c0-0.63,0.10999-1.25,0.33008-1.84998L2.056,30.89998c-0.47998,1.02997-0.73999,2.08996-0.73999,3.19995c0,4.86005,4.84998,9.11005,12.52002,11.84003c-0.17004,0.90997-0.30005,1.81-0.40002,2.69c-0.77991,6.97998,0.77002,11.96997,4.38,14.04999c1.16992,0.66998,2.5,1.01001,3.95996,1.01001c3.02002,0,6.58008-1.44,10.39001-4.23999c0.72009-0.53003,1.43005-1.10999,2.15002-1.72003c0.70996,0.61005,1.42993,1.19,2.15002,1.72003c3.80994,2.79999,7.35999,4.23999,10.38,4.23999c1.45996,0,2.79004-0.34003,3.96997-1.01001c0.52002-0.31,0.98999-0.70001,1.41992-1.13l-1.8999-0.95996c-0.17004,0.12-0.34009,0.25-0.52002,0.34998c-2.83008,1.64001-7.27002,0.5-12.16992-3.09998c-0.61011-0.45001-1.22009-0.94-1.83008-1.46002c2.35999-2.21002,4.67993-4.83002,6.84998-7.75c3.71008-0.42999,7.14001-1.13,10.20007-2.06c0.13989,0.77997,0.26001,1.53998,0.33997,2.27997c0.06995,0.63,0.09998,1.22003,0.13,1.81l2.02002,0.22003c-0.03003-0.72998-0.08008-1.47003-0.16003-2.25c-0.09998-0.88-0.23999-1.78003-0.41003-2.69C62.45602,43.20997,67.31601,38.95997,67.31601,34.09993z M52.44601,23.63997c-0.57996,2.57001-1.42004,5.23999-2.51001,7.96997c-0.80994-1.66998-1.68005-3.34998-2.63-5.01001c-0.95996-1.65997-1.97998-3.25-3.02002-4.77997C47.21603,22.25996,49.96603,22.86995,52.44601,23.63997z M34.31601,13.14998c1.92993,1.78998,3.83008,3.85999,5.64001,6.15997c-1.82996-0.13-3.71008-0.21002-5.64001-0.21002s-3.82007,0.07001-5.65002,0.21002C30.48593,17.00996,32.37606,14.93995,34.31601,13.14998z M15.41598,19.33998c-0.67004-6.05005,0.56995-10.45001,3.40002-12.09003c0.84998-0.48999,1.84009-0.72998,2.94995-0.72998c2.58008,0,5.78003,1.31,9.20996,3.83997c0.61011,0.45001,1.2301,0.94,1.84009,1.45001c-2.37,2.21002-4.67993,4.83002-6.85999,7.76001c-3.71008,0.42999-7.14001,1.13-10.20007,2.06C15.61605,20.84993,15.50595,20.08998,15.41598,19.33998z M16.17599,23.63997c2.4801-0.77002,5.2301-1.39001,8.17004-1.82001c-1.05005,1.52997-2.06006,3.12-3.02002,4.77997c-0.95996,1.66003-1.83008,3.34003-2.64001,5.01001C17.60604,28.88997,16.75595,26.20997,16.17599,23.63997z M18.686,36.57997c0.80994,1.67999,1.68005,3.34998,2.64001,5.01996c0.94995,1.65002,1.96997,3.24005,3.02002,4.77002c-2.93994-0.42999-5.68994-1.04999-8.17004-1.81C16.75595,41.98994,17.60604,39.30995,18.686,36.57997z M30.97592,57.83998c-4.8999,3.60999-9.32983,4.73999-12.15991,3.09998c-2.83008-1.63-4.07007-6.03998-3.40002-12.09003c0.08997-0.73999,0.20007-1.50995,0.33997-2.27997c3.06006,0.92999,6.5,1.63,10.20007,2.06c2.18005,2.91998,4.48999,5.53998,6.85999,7.75C32.20602,56.89997,31.58603,57.38997,30.97592,57.83998z M34.31601,55.03993c-1.93994-1.77997-3.83008-3.84998-5.65002-6.15997c1.82996,0.14001,3.71008,0.21002,5.65002,0.21002c1.92993,0,3.81006-0.07001,5.64001-0.21002C38.14608,51.18995,36.24594,53.25996,34.31601,55.03993z M41.59604,46.70997c-2.3501,0.25-4.78003,0.38-7.28003,0.38s-4.93994-0.13-7.29004-0.38c-1.38989-1.92004-2.72998-3.96002-3.96997-6.11005c-1.23999-2.15997-2.33997-4.33997-3.31006-6.5c0.97009-2.16998,2.07007-4.34997,3.31006-6.5c1.23999-2.15997,2.58008-4.19,3.96997-6.12c2.3501-0.25,4.79004-0.38,7.29004-0.38s4.92993,0.13,7.28003,0.38c1.38989,1.92004,2.72998,3.96002,3.96997,6.12c1.25,2.15002,2.34009,4.33002,3.31006,6.5c-0.96997,2.16003-2.06006,4.34003-3.31006,6.5C44.32602,42.74995,42.98593,44.78993,41.59604,46.70997z M44.28598,46.36995c1.04004-1.52997,2.06006-3.12,3.02002-4.77002c0.94995-1.66998,1.82007-3.33997,2.63-5.01996c1.08997,2.72998,1.93005,5.40997,2.51001,7.97998C49.96603,45.31996,47.21603,45.93995,44.28598,46.36995z M54.35604,43.91993c-0.72998-3.15997-1.8501-6.46997-3.29004-9.82001c1.43994-3.34997,2.56006-6.65997,3.29004-9.81994c6.65991,2.39996,10.95996,5.93994,10.95996,9.81994C65.31601,37.96992,61.01596,41.50996,54.35604,43.91993z"/><circle cx="53.019" cy="10.265" r="5.955" fill="#a7d08c"/><path fill="#badda4" d="M53.01864,16.22091c-3.2891,0-5.95543-2.66634-5.95543-5.95543s2.66634-5.95543,5.95543-5.95543V16.22091z"/><circle cx="6.379" cy="27.411" r="5.695" fill="#fe9967"/><path fill="#ffac88" d="M6.37895,33.10603c-3.14524,0-5.69495-2.54972-5.69495-5.69495s2.54972-5.69495,5.69495-5.69495V33.10603z"/><circle cx="53.747" cy="56.203" r="6.095" fill="#feeb75"/><path fill="#efd96a" d="M53.74672,62.29812c-3.36639,0-6.09538-2.729-6.09538-6.09538c0-3.36639,2.729-6.09538,6.09538-6.09538V62.29812z"/></svg>