<svg xmlns="http://www.w3.org/2000/svg" enable-background="new 0 0 68 68" viewBox="0 0 68 68"><path fill="#e2e2e2" d="M66,36.745v23.60999c0,0.78003-0.63,1.41003-1.41003,1.41003H3.40997C2.63,61.76501,2,61.13501,2,60.35498V36.745H66z"/><path fill="#feeb75" d="M66,30.255V36.745H2V23.52502C2,13.97498,9.73999,6.23499,19.29999,6.23499h2.23999c8.31,0,15.04999,6.72998,15.04999,15.04999c0,1.24005,0.5,2.36005,1.31,3.17004c0.82001,0.81,1.94,1.31,3.17999,1.31h20.42999C63.98999,25.76501,66,27.77502,66,30.255z"/><path fill="#d3d3d3" d="M9.81,61.76501H3.40997C2.63127,61.76501,2,61.13375,2,60.35504V36.745h6.39996v23.60999C8.39996,61.13501,9.02997,61.76501,9.81,61.76501z"/><path fill="#efd96a" d="M23.56,6.375C15.00995,7.41498,8.39996,14.69501,8.39996,23.52502V36.745H2V23.52502C2,13.976,9.74101,6.23499,19.29004,6.23499h2.24994C22.22998,6.23499,22.89996,6.28497,23.56,6.375z"/><path fill="#ededed" d="M19.06,61.76501h-3.90002c-0.77997,0-1.40997-0.63-1.40997-1.41003V36.745h3.90997v23.60999C17.65997,61.13501,18.28998,61.76501,19.06,61.76501z"/><path fill="#fff3ab" d="M26.68262,6.81055C19.24652,8.74445,13.75,15.48303,13.75,23.52502V36.745h3.90997V23.52502c0-7.10339,4.29346-13.18848,10.41791-15.84827C27.55902,7.44623,27.09698,7.15088,26.68262,6.81055z"/><path fill="#ededed" d="M66,36.745v23.60999c0,0.78003-0.63,1.41003-1.40997,1.41003H58.19c0.78003,0,1.41003-0.63,1.41003-1.41003V36.745H66z"/><path fill="#fff3ab" d="M66,30.255V36.745h-6.39996V30.255c0-2.47998-2.01001-4.48999-4.49005-4.48999h6.40002C63.98999,25.76501,66,27.77502,66,30.255z"/><rect width="5.06" height="13.96" x="31.474" y="36.742" fill="#666"/><rect width="5.06" height="13.96" x="18.784" y="36.742" fill="#666"/><rect width="5.05" height="13.96" x="40.404" y="36.742" fill="#666"/><rect width="5.05" height="13.96" x="9.864" y="36.742" fill="#666"/><rect width="5.05" height="13.96" x="53.094" y="36.742" fill="#666"/><path fill="#fe9967" d="M45.724 32.76978c.08594.02344.17285.03418.25879.03418.44141 0 .8457-.29492.96484-.74219l.33398-1.25c.14258-.5332-.17383-1.08105-.70801-1.22363-.52441-.1416-1.08105.1748-1.22363.70801l-.33398 1.25C44.87341 32.07935 45.18982 32.6272 45.724 32.76978zM51.95349 32.76978c.08691.02344.17285.03418.25879.03418.44141 0 .8457-.29492.96484-.74219l.33301-1.25c.14258-.53418-.1748-1.08203-.70801-1.22363s-1.08105.1748-1.22363.70801l-.33301 1.25C51.10291 32.08032 51.42029 32.62817 51.95349 32.76978zM58.18201 32.76978c.08594.02344.17285.03418.25879.03418.44141 0 .8457-.29492.96484-.74219l.33398-1.25c.14258-.5332-.17383-1.08105-.70801-1.22363-.52441-.1416-1.08105.1748-1.22363.70801l-.33398 1.25C57.33142 32.07935 57.64783 32.6272 58.18201 32.76978z"/><path fill="#fff" d="M8.67419 17.29712c-.49902-.23926-1.0957-.03125-1.33594.46484-.16992.35059-.32129.71191-.46191 1.07813-.19629.5166.06152 1.09473.57715 1.29199.11816.04395.23828.06543.35742.06543.40234 0 .78223-.24414.93457-.64258.11914-.31348.24902-.62207.39355-.92188C9.37927 18.13599 9.17126 17.53735 8.67419 17.29712zM10.58142 15.88501c.25781 0 .51465-.09863.70996-.2959 2.14453-2.16309 4.98828-3.35449 8.00879-3.35449.55273 0 1-.44727 1-1s-.44727-1-1-1c-3.55762 0-6.90625 1.40137-9.42871 3.94629-.38867.39258-.38672 1.02539.00586 1.41406C10.07263 15.78833 10.32654 15.88501 10.58142 15.88501z"/><rect width="2" height="11.063" x="11.388" y="50.7" fill="#444"/><rect width="2" height="11.063" x="20.316" y="50.7" fill="#444"/><rect width="2" height="11.063" x="33.004" y="50.7" fill="#444"/><rect width="2" height="11.063" x="41.932" y="50.7" fill="#444"/><rect width="2" height="11.063" x="54.621" y="50.7" fill="#444"/></svg>