<svg xmlns="http://www.w3.org/2000/svg" enable-background="new 0 0 68 68" viewBox="0 0 68 68"><path fill="#a7d08c" d="M62.20845,59.33144H5.79167c-2.09405,0-3.79161-1.69756-3.79161-3.7916V12.45638c0-2.09405,1.69756-3.79161,3.79161-3.79161h56.41679c2.09404,0,3.79161,1.69756,3.79161,3.79161v43.08346C66.00006,57.63388,64.3025,59.33144,62.20845,59.33144z"/><path fill="#9ac181" d="M11.66986,59.33522H5.78998c-2.09009,0-3.79004-1.69995-3.79004-3.79993V12.45534c0-2.09003,1.69995-3.79004,3.79004-3.79004h5.87988c-2.09985,0-3.78992,1.70001-3.78992,3.79004v43.07996C7.87994,57.63527,9.57001,59.33522,11.66986,59.33522z"/><path fill="#badda4" d="M21.11993 59.33522h-4c-2.08997 0-3.78992-1.69995-3.78992-3.79993V12.45534c0-2.09003 1.69995-3.79004 3.78992-3.79004h4c-2.08997 0-3.78992 1.70001-3.78992 3.79004v43.07996C17.33002 57.63527 19.02997 59.33522 21.11993 59.33522zM66.00006 12.45534v43.07996c0 2.09998-1.70007 3.79993-3.79993 3.79993h-5.87012c2.09009 0 3.79004-1.69995 3.79004-3.79993V12.45534c0-2.09003-1.69995-3.79004-3.79004-3.79004h5.87012C64.29999 8.6653 66.00006 10.36531 66.00006 12.45534z"/><rect width="36.667" height="50" x="15.666" y="8.998" fill="#e2e2e2" transform="rotate(90 34 33.998)"/><polygon fill="#444" points="59 41.475 59 52.335 40.2 52.335 32.28 40.735 47.03 25.095"/><polygon fill="#666" points="47.03 25.095 46.875 25.26 46.875 52.335 59 52.335 59 41.475"/><polygon fill="#333" points="40.2 52.335 9 52.335 9 45.285 25.25 30.425 32.28 40.735"/><polygon fill="#444" points="25.25 30.425 9 45.285 9 52.335 25.25 52.335"/><circle cx="32.567" cy="24.8" r="4.5" fill="#fe9967"/><path fill="#fff" d="M38.1933 39.57668l-.25586.2666c-.38184.39844-.36914 1.03125.0293 1.41406.19336.18555.44336.27832.69238.27832.2627 0 .52539-.10254.72168-.30762l.25586-.2666c.38184-.39844.36914-1.03125-.0293-1.41406C39.2099 39.16652 38.57611 39.17726 38.1933 39.57668zM45.84174 31.15285l-5.46289 6.0166c-.37109.4082-.34082 1.04102.06836 1.41211.19141.17383.43164.25977.67188.25977.27148 0 .54297-.11035.74023-.32813l5.46289-6.0166c.37109-.4082.34082-1.04101-.06836-1.41211C46.84662 30.71437 46.21381 30.74269 45.84174 31.15285z"/></svg>