<svg xmlns="http://www.w3.org/2000/svg" enable-background="new 0 0 68 68" viewBox="0 0 68 68"><path fill="#a7d08c" d="M50.30728,56.50177h12.25124c1.82343,0,3.30162-1.47819,3.30162-3.30162V29.11923c0-1.82343-1.47819-3.30162-3.30162-3.30162H5.44492c-1.82344,0-3.30162,1.47819-3.30162,3.30162v24.08092c0,1.82344,1.47819,3.30162,3.30162,3.30162h12.5344"/><path fill="#9ac181" d="M12.06991,56.49762H5.4498c-1.82996,0-3.30994-1.46997-3.30994-3.29999V29.11761c0-1.82001,1.47998-3.29999,3.30994-3.29999h6.62012c-1.82007,0-3.30005,1.47998-3.30005,3.29999v24.08002C8.76987,55.02765,10.24985,56.49762,12.06991,56.49762z"/><path fill="#badda4" d="M20.07992 56.49762H16.9498c-1.82996 0-3.30994-1.46997-3.30994-3.29999V29.11761c0-1.82001 1.47998-3.29999 3.30994-3.29999h3.13013c-1.83008 0-3.31006 1.47998-3.31006 3.29999v24.08002C16.76987 55.02765 18.24985 56.49762 20.07992 56.49762zM65.86014 29.11761v24.08002c0 1.83002-1.47998 3.29999-3.31005 3.29999h-6.61987c1.81995 0 3.29993-1.46997 3.29993-3.29999V29.11761c0-1.82001-1.47998-3.29999-3.29993-3.29999h6.61987C64.38016 25.81762 65.86014 27.2976 65.86014 29.11761z"/><path fill="#e2e2e2" d="M52.21053 13.22127v12.59633H16.07606V5.50001c0-.55228.44772-1 1-1h26.40708L52.21053 13.22127zM17.97931 48.73941V62.3973c0 .60901.4937 1.10271 1.10271 1.10271h30.12253c.60901 0 1.10271-.4937 1.10271-1.10271V48.73941H17.97931z"/><path fill="#d3d3d3" d="M23.13986,48.73761v14.76001h-4.05732c-0.60901,0-1.10271-0.4937-1.10271-1.10271v-13.6573H23.13986z"/><rect width="2.18" height="14.76" x="27.11" y="48.738" fill="#ededed"/><path fill="#ededed" d="M50.30727,48.73761v13.6573c0,0.60901-0.4937,1.10271-1.10271,1.10271h-4.0572V48.73761H50.30727z"/><path fill="#d3d3d3" d="M21.23609,4.49999v21.31762h-5.16003V5.49999c0-0.55228,0.44772-1,1-1H21.23609z"/><rect width="2.18" height="21.318" x="25.441" y="4.5" fill="#ededed"/><rect width="5.16" height="12.593" x="47.051" y="13.225" fill="#ededed"/><path fill="#666" d="M14.32642,46.6403v1.63212c0,0.25791,0.20908,0.46699,0.46699,0.46699h38.69976c0.25791,0,0.46699-0.20908,0.46699-0.46699V46.6403c0-0.25791-0.20908-0.46699-0.46699-0.46699H14.79341C14.5355,46.17331,14.32642,46.38239,14.32642,46.6403z"/><circle cx="57.968" cy="33.489" r="2.361" fill="#ededed"/><circle cx="48.764" cy="33.489" r="2.361" fill="#feeb75"/><path fill="#666" d="M16.07606 25.81761h-4.86286v-5.83177c0-.60895.49365-1.10261 1.10261-1.10261h3.76026V25.81761zM57.0734 25.81761h-4.86287v-6.93438h3.76026c.60895 0 1.10261.49365 1.10261 1.10261V25.81761zM44.89657 52.44232H23.38974c-.55273 0-1 .44727-1 1s.44727 1 1 1h21.50683c.55273 0 1-.44727 1-1S45.44931 52.44232 44.89657 52.44232zM44.89657 56.9306H23.38974c-.55273 0-1 .44727-1 1s.44727 1 1 1h21.50683c.55273 0 1-.44727 1-1S45.44931 56.9306 44.89657 56.9306z"/><path fill="#fff" d="M26.32331 31.12786h-8.02441c-.55273 0-1-.44727-1-1s.44727-1 1-1h8.02441c.55273 0 1 .44727 1 1S26.87604 31.12786 26.32331 31.12786zM30.16999 31.12786h-.3623c-.55273 0-1-.44727-1-1s.44727-1 1-1h.3623c.55273 0 1 .44727 1 1S30.72272 31.12786 30.16999 31.12786z"/><path fill="#666" d="M52.21355,13.22482h-7.72998c-0.55228,0-1-0.44771-1-1V4.50485L52.21355,13.22482z"/></svg>