<svg xmlns="http://www.w3.org/2000/svg" enable-background="new 0 0 68 68" viewBox="0 0 68 68"><path fill="#fe9967" d="M59.23405,65.7636c1.7248,0,3.12304-1.39823,3.12304-3.12304v-8.25381c0-7.9697-5.87009-14.5653-17.54432-15.53266c-5.77116,3.85843-15.55123,3.85942-21.32239,0.00098c-11.67423,0.96736-17.8441,7.55099-17.8441,15.53168v8.25381c0,1.7248,1.39823,3.12304,3.12304,3.12304H59.23405z"/><path fill="#ef8759" d="M13.02292,54.38314v8.26001c0,1.71997,1.40002,3.12,3.11999,3.12H8.77292c-1.72998,0-3.13001-1.40002-3.13001-3.12v-8.26001c0-7.97998,6.16977-14.55908,17.84976-15.52905c0.54999,0.37012,0.85025,0.70898,1.48025,1.00903C17.02291,42.17318,13.02292,47.80306,13.02292,54.38314z"/><path fill="#ffac88" d="M62.35709 54.38314v8.26001c0 1.71997-1.40002 3.12-3.12 3.12h-7.38c1.72998 0 3.12-1.40002 3.12-3.12v-8.26001c0-6.58008-4-12.20996-11.95001-14.52002.63-.30005 1.21997-.63989 1.77997-1.01001C56.48709 39.82308 62.35709 46.41317 62.35709 54.38314zM23.49267 38.85409c-3.3584 1.56555-6.43046 4.02889-8.62119 7.37606l5.04333 2.06754-1.34122 4.01116L33.07415 65.7636 23.49267 38.85409z"/><path fill="#ffac88" d="M44.8128,38.85405c3.3584,1.56555,6.12836,4.02893,8.31909,7.3761l-5.04333,2.06754l1.34121,4.01116L34.92922,65.7636L44.8128,38.85405z"/><polygon fill="#ededed" points="44.813 38.854 34.929 65.764 33.074 65.764 23.493 38.854"/><path fill="#feeb75" d="M49.92318,28.49581c0.20576,3.09596-3.90909,4.54593-3.90909,4.54593s-0.11756,1.61645-0.40166,2.52765c-1.58715,5.05541-6.30943,8.47464-11.60976,8.47464c-2.65501,0-5.15336-0.85236-7.20094-2.34156c-2.03784-1.4892-3.61518-3.60543-4.40876-6.13308c-0.2841-0.91119-0.40172-2.52765-0.40172-2.52765s-4.11479-1.44997-3.9189-4.54593c0.20576-3.10577,2.30239-3.65447,2.30239-3.65447l4.18344-9.77763c3.03712,2.75308,9.44449,2.4102,9.44449,2.4102s6.40743,0.34288,9.44455-2.4102l4.18344,9.77763C47.63066,24.84134,49.72723,25.39005,49.92318,28.49581z"/><path fill="#efd96a" d="M36.45291,43.78316c-0.79999,0.18005-1.62,0.26001-2.45001,0.26001c-2.65997,0-5.14996-0.84998-7.20001-2.33997c-2.03998-1.48999-3.62-3.61011-4.40997-6.13013c-0.27997-0.90991-0.40002-2.52991-0.40002-2.52991s-4.12-1.45008-3.91998-4.55005c0.21002-3.09998,2.29999-3.65002,2.29999-3.65002l4.19-9.78003c1.08002,0.9801,2.59003,1.56006,4.08002,1.91016l-1.27048,2.28616c-3.04072,5.47165-3.23539,12.20729-0.09199,17.6206c1.05914,1.82397,2.48994,3.5263,4.42246,4.82322C33.10293,42.72323,34.72293,43.4432,36.45291,43.78316z"/><path fill="#fff3ab" d="M31.54191,43.78316c0.79999,0.18005,1.62,0.26001,2.45001,0.26001c2.65997,0,5.14996-0.84998,7.20001-2.33997c2.03998-1.48999,3.62-3.61011,4.40997-6.13013c0.27997-0.90991,0.40002-2.52991,0.40002-2.52991s4.12-1.45008,3.91998-4.55005c-0.21002-3.09998-2.29999-3.65002-2.29999-3.65002l-4.19-9.78003c-1.08002,0.9801-2.59003,1.56006-4.08002,1.91016l1.27047,2.28616c3.04072,5.47165,3.2354,12.20729,0.092,17.6206c-1.05915,1.82397-2.48994,3.5263-4.42247,4.82322C34.89189,42.72323,33.27189,43.4432,31.54191,43.78316z"/><circle cx="38.899" cy="26.831" r="1.5" fill="#444"/><circle cx="29.098" cy="26.831" r="1.5" fill="#444"/><path fill="#444" d="M29.3749,34.23129c-0.39063,0.39063-0.39063,1.02344,0,1.41406c1.23535,1.23535,2.87695,1.91504,4.62305,1.91504s3.3877-0.67969,4.62305-1.91504c0.39063-0.39063,0.39063-1.02344,0-1.41406s-1.02344-0.39063-1.41406,0c-1.76953,1.76953-4.64844,1.76953-6.41797,0C30.39834,33.84066,29.76553,33.84066,29.3749,34.23129z"/><path fill="#4d4d4d" d="M47.63066,24.84134l-3.08432-7.20875c-0.53759-1.25646-1.98476-1.78344-3.2476-1.26104c-3.19531,1.3218-7.29607,1.10236-7.29607,1.10236s-4.10072,0.21944-7.29601-1.10236c-1.26284-0.5224-2.71001,0.00458-3.24759,1.26103l-3.08433,7.20875c0,0-2.70344-6.81574-2.02803-10.23807c0,0,1.89086-13.0989,14.57829-12.33469h2.1554c12.68738-0.76421,14.5783,12.33469,14.5783,12.33469C50.49154,18.36927,47.63066,24.84134,47.63066,24.84134z"/></svg>