<svg xmlns="http://www.w3.org/2000/svg" enable-background="new 0 0 68 68" viewBox="0 0 68 68"><path fill="#a7d08c" d="M62.17342,46.18744H5.82332c-2.11248,0-3.82498-1.7125-3.82498-3.82498V23.01242c0-2.11248,1.7125-3.82498,3.82498-3.82498h56.3501c2.11248,0,3.82499,1.7125,3.82499,3.82498v19.35004C65.99841,44.47494,64.2859,46.18744,62.17342,46.18744z"/><path fill="#9ac181" d="M66.00166,23.00745v5.75c0-2.11005-1.71997-3.82001-3.83007-3.82001H5.82167c-2.11005,0-3.82001,1.70996-3.82001,3.82001v-5.75c0-2.11005,1.70996-3.82001,3.82001-3.82001h56.34991C64.28168,19.18744,66.00166,20.8974,66.00166,23.00745z"/><path fill="#badda4" d="M66.00166 33.04743v2.59998c0-2.10999-1.71997-3.81995-3.83007-3.81995H5.82167c-2.11005 0-3.82001 1.70996-3.82001 3.81995v-2.59998c0-2.10999 1.70996-3.82001 3.82001-3.82001h56.34991C64.28168 29.22742 66.00166 30.93744 66.00166 33.04743zM66.00166 36.61744v5.75c0 2.10999-1.71997 3.82001-3.83007 3.82001H5.82167c-2.11005 0-3.82001-1.71002-3.82001-3.82001v-5.75c0 2.10999 1.70996 3.82001 3.82001 3.82001h56.34991C64.28168 40.43744 66.00166 38.72742 66.00166 36.61744z"/><path fill="#444" d="M59.95611 50.77077h-4.25c-.64433 0-1.16667-.52233-1.16667-1.16666v-3.41667h6.58333v3.41667C61.12277 50.24844 60.60044 50.77077 59.95611 50.77077zM12.29064 50.77077h-4.25c-.64433 0-1.16667-.52233-1.16667-1.16666v-3.41667h6.58333v3.41667C13.4573 50.24844 12.93497 50.77077 12.29064 50.77077z"/><circle cx="24.962" cy="40.756" r="2" fill="#444"/><circle cx="45.1" cy="32.765" r="15.535" fill="#fe9967"/><path fill="#ffac88" d="M45.10044,17.22922c8.58001,0,15.53547,6.95547,15.53547,15.53547s-6.95547,15.53547-15.53547,15.53547V17.22922z"/><circle cx="45.1" cy="32.765" r="9.747" fill="#e2e2e2"/><path fill="#d3d3d3" d="M46.85808,42.3482c-0.56477,0.1076-1.15623,0.16138-1.75678,0.16138c-5.38663,0-9.7515-4.36493-9.7515-9.74259c0-5.38658,4.36487-9.75145,9.7515-9.75145c0.60055,0,1.19201,0.05377,1.75678,0.16132c-4.55316,0.82456-7.99495,4.80404-7.99495,9.59013C38.86314,37.54417,42.30492,41.52364,46.85808,42.3482z"/><path fill="#ededed" d="M54.84711,32.76699c0,5.37766-4.36476,9.74259-9.74242,9.74259c-0.60054,0-1.19212-0.05378-1.75667-0.16138c4.54408-0.82456,7.98575-4.80404,7.98575-9.58121c0-4.78609-3.44167-8.76557-7.98575-9.59013c0.56455-0.10755,1.15612-0.16132,1.75667-0.16132C50.48235,23.01554,54.84711,27.38041,54.84711,32.76699z"/><path fill="#444" d="M7.70722 27.27045c-.55273 0-1 .44727-1 1v8.83398c0 .55273.44727 1 1 1s1-.44727 1-1v-8.83398C8.70722 27.71772 8.25996 27.27045 7.70722 27.27045zM13.45722 27.27045c-.55273 0-1 .44727-1 1v8.83398c0 .55273.44727 1 1 1s1-.44727 1-1v-8.83398C14.45722 27.71772 14.00996 27.27045 13.45722 27.27045zM19.20722 27.27045c-.55273 0-1 .44727-1 1v8.83398c0 .55273.44727 1 1 1s1-.44727 1-1v-8.83398C20.20722 27.71772 19.75996 27.27045 19.20722 27.27045z"/></svg>