<svg xmlns="http://www.w3.org/2000/svg" enable-background="new 0 0 68 68" viewBox="0 0 68 68"><path fill="#feeb75" d="M33.71997,13.24672c-16,0-28.96997,12.98004-28.96997,28.98004c0,0.57001,0.01996,1.14001,0.06,1.70001h57.82996c0.04004-0.56,0.06-1.13,0.06-1.70001C62.69995,26.22676,49.72998,13.24672,33.71997,13.24672z M16.38,35.64675c2.18994-8.02002,9.25995-13.90997,17.62-13.90997c8.35999,0,15.42999,5.88995,17.62,13.90997H16.38z"/><path fill="#efd96a" d="M37.52997,13.50673c-1.25-0.17999-2.52002-0.26001-3.81-0.26001c-16,0-28.96997,12.98004-28.96997,28.98004c0,0.57001,0.01996,1.14001,0.06,1.70001h7.63c-0.05005-0.56-0.06-1.13-0.06-1.70001C12.38,27.51674,23.32996,15.36678,37.52997,13.50673z"/><path fill="#fff3ab" d="M55.06995,42.22676c0,0.57001-0.00995,1.14001-0.06,1.70001h7.63c0.04004-0.56,0.06-1.13,0.06-1.70001c0-16-12.96997-28.98004-28.96997-28.98004c-1.28998,0-2.56,0.08002-3.81,0.26001C44.12,15.36678,55.06995,27.51674,55.06995,42.22676z"/><path fill="#feeb75" d="M2,45.62537v7.42905c0,0.93825,0.67977,1.69886,1.5183,1.69886H64.4817c0.83854,0,1.5183-0.7606,1.5183-1.69886v-7.42905c0-0.93825-0.67976-1.69886-1.5183-1.69886H3.5183C2.67977,43.92651,2,44.68711,2,45.62537z"/><path fill="#fff3ab" d="M66,49.04646v-3.42108c0-0.93829-0.67975-1.69885-1.51831-1.69885H3.51831C2.67975,43.92652,2,44.68708,2,45.62537v3.42108H66z"/><path fill="#fff" d="M39.14978 38.85427h-10.0498c-.55273 0-1 .44727-1 1s.44727 1 1 1h10.0498c.55273 0 1-.44727 1-1S39.70251 38.85427 39.14978 38.85427zM44.27869 38.85427H43.2533c-.55273 0-1 .44727-1 1s.44727 1 1 1h1.02539c.55273 0 1-.44727 1-1S44.83142 38.85427 44.27869 38.85427z"/><path fill="#666" d="M32.97706 13.24672l2.07345.01038-.02069 2.74735c-.01038.57019-.47692 1.02635-1.03673 1.02635-.01038 0-.01038 0-.01038 0-.58056 0-1.03672-.47692-1.02635-1.0471L32.97706 13.24672zM7.38032 40.16013C7.36994 40.71994 6.90347 41.1761 6.3436 41.1761c-.01038 0-.01038 0-.02069 0l-1.56546-.02076.14509-2.07345 1.45144.02076C6.92416 39.11303 7.3907 39.57956 7.38032 40.16013zM11.74496 29.57514c-.19698.33176-.53912.51836-.89157.51836-.1866 0-.36289-.05182-.52874-.14516l-2.20823-1.30622 1.03673-1.79358 2.22892 1.30628C11.86936 28.44515 12.0352 29.08791 11.74496 29.57514zM47.19059 16.55388l1.80389 1.03673-.7361 1.23371c-.19698.32138-.53905.50798-.89157.50798-.17622 0-.36283-.05182-.52874-.14509-.48723-.29031-.65314-.93308-.36283-1.42037L47.19059 16.55388zM58.30425 26.84855l1.03672 1.79358-2.20823 1.30622c-.16585.09333-.34208.14516-.52868.14516-.35251 0-.69465-.1866-.89163-.51836-.29025-.48723-.1244-1.12999.36289-1.42031L58.30425 26.84855zM20.98215 17.76683c.29031.48729.1244 1.13006-.36283 1.42037-.16591.09327-.35251.14509-.52874.14509-.35245 0-.69459-.1866-.89157-.50798l-.7361-1.24408 1.79358-1.02635L20.98215 17.76683zM62.69995 41.15534l-1.5654.02076c-.01038 0-.01038 0-.02075 0-.55981 0-1.02635-.45616-1.03673-1.01597-.01038-.58057.45616-1.0471 1.02635-1.05748l1.45144-.02076L62.69995 41.15534zM26.24368 50.59398v4.15929h-2v-4.15929c0-.54999.45001-1 1-1C25.79373 49.59398 26.24368 50.04399 26.24368 50.59398zM9.18368 50.59398v4.15929h-2v-4.15929c0-.54999.45001-1 1-1C8.74368 49.59398 9.18368 50.04399 9.18368 50.59398zM34.77371 52.69396v2.05932h-2v-2.05932c0-.56.44-1 1-1C34.3237 51.69396 34.77371 52.13396 34.77371 52.69396zM51.8237 52.69396v2.05932h-2v-2.05932c0-.56.45001-1 1-1C51.38369 51.69396 51.8237 52.13396 51.8237 52.69396zM17.71371 52.69396v2.05932h-2v-2.05932c0-.56.45001-1 1-1S17.71371 52.13396 17.71371 52.69396zM60.35373 50.59398v4.15929h-2v-4.15929c0-.54999.44995-1 1-1C59.90371 49.59398 60.35373 50.04399 60.35373 50.59398zM43.29373 50.59398v4.15929h-2v-4.15929c0-.54999.44995-1 1-1C42.85373 49.59398 43.29373 50.04399 43.29373 50.59398z"/></svg>