<svg xmlns="http://www.w3.org/2000/svg" enable-background="new 0 0 68 68" viewBox="0 0 68 68"><path fill="#444" d="M16.7945,43.71146L3.04345,64.02147c-0.41588,0.61424,0.31605,1.355,0.9303,0.93914c5.64949-3.82492,17.82005-12.06486,20.31541-13.75449L16.7945,43.71146z"/><path fill="#666" d="M20.74727,47.66002L3.14742,64.89c-0.2301-0.19995-0.32007-0.54999-0.1001-0.87l13.75-20.31L20.74727,47.66002z"/><path fill="#fe9967" d="M58.13565,33.00052L35.00019,9.86505c-0.63067-0.63067-0.63067-1.6532,0-2.28387l4.18621-4.18621c0.63068-0.63067,1.6532-0.63067,2.28387,0l23.13547,23.13547c0.63068,0.63067,0.63068,1.6532,0,2.28387l-4.18621,4.18621C59.78885,33.6312,58.76633,33.6312,58.13565,33.00052z"/><polyline fill="#fe9967" points="36.143 51.06 56.173 31.03 36.978 11.834 16.956 31.856"/><path fill="#fe9967" d="M9.12673,36.48486c-1.1877-1.1877-0.3206-3.56023,1.5606-4.20829c5.3498-1.84297,12.88339,0.50782,18.7062,6.33062s8.17358,13.3564,6.33062,18.7062c-0.64806,1.8812-3.0206,2.7483-4.20829,1.5606L9.12673,36.48486z"/><path fill="#ef8759" d="M38.39101,13.2588l-3.5027-3.5027c-0.57206-0.57206-0.46092-1.60128,0.23016-2.29236l3.9452-3.9452c0.69978-0.69978,1.72031-0.80222,2.29236-0.23016l3.5027,3.5027c-0.57206-0.57206-1.5925-0.46954-2.29228,0.23025l-3.9452,3.9452C37.93018,11.6576,37.81895,12.68674,38.39101,13.2588z"/><rect width="28.321" height="5.213" x="14.65" y="21.08" fill="#ef8759" transform="rotate(-45 28.81 23.687)"/><path fill="#ef8759" d="M13.45136,40.81134l-4.32898-4.32898c-1.18636-1.18636-0.3109-3.55904,1.56475-4.20591c5.345-1.84231,12.87996,0.50946,18.70607,6.33557c0.73438,0.73439,1.41153,1.4979,2.03996,2.28187c-5.41142-4.30565-11.74888-5.89185-16.41705-4.28846C13.1334,37.24523,12.26492,39.62489,13.45136,40.81134z"/><path fill="#ffac88" d="M47.4462,11.90107l-3.94519,3.9452c-0.69108,0.69108-0.79515,1.72737-0.22318,2.29935l-1.58894-1.58894c-0.57197-0.57197-0.46791-1.60827,0.22318-2.29935l3.9452-3.9452c0.69978-0.69978,1.72738-0.79515,2.29935-0.22318l1.58894,1.58894C49.17357,11.10592,48.14598,11.20128,47.4462,11.90107z"/><path fill="#ef9d65" d="M45.72123,20.58901l-1.41946-1.41946l0.00865-0.00865l1.34894,1.34894C45.67184,20.53962,45.70011,20.56789,45.72123,20.58901z"/><rect width="24.769" height="2.247" x="22.46" y="26.532" fill="#ffac88" transform="rotate(-45 34.845 27.655)"/><path fill="#ffac88" d="M31.74075,41.69351c-0.25746-0.17099-0.51365-0.34703-0.77416-0.50599c-0.67333-0.41423-1.34987-0.79699-2.03969-1.12405c-0.99201-0.4909-1.99347-0.8877-2.99592-1.19901c-0.86566-0.27829-1.72358-0.47966-2.5737-0.60417c-2.24799-0.36472-4.39113-0.22724-6.26672,0.41958c-1.87565,0.64688-2.7512,3.01947-1.56475,4.20591l1.58894,1.58894c-1.18645-1.18644-0.3109-3.55904,1.56475-4.20591c1.86853-0.65389,4.01873-0.78431,6.26672-0.41958c1.10215,0.16921,2.21591,0.4537,3.33278,0.86214c0.74331,0.25961,1.48892,0.57328,2.22977,0.93397c0.45538,0.22202,0.90892,0.46813,1.36086,0.72635C31.81369,42.14746,31.76998,41.92152,31.74075,41.69351z"/><path fill="#ef9d65" d="M47.31017,22.17795l-3.0084-3.0084l0.00865-0.00865l2.93788,2.93788C47.26078,22.12856,47.28905,22.15683,47.31017,22.17795z"/><path fill="#ef9d65" d="M47.31017,22.17795l-1.41946-1.41946l0.00865-0.00865l1.34894,1.34894C47.26078,22.12856,47.28905,22.15683,47.31017,22.17795z"/><path fill="#ffac88" d="M54.71328,29.58106l3.5027,3.5027c0.57206,0.57206,1.60128,0.46092,2.29237-0.23016l3.9452-3.94519c0.69978-0.69978,0.80222-1.7203,0.23016-2.29236l-3.5027-3.5027c0.57206,0.57206,0.46954,1.5925-0.23025,2.29228l-3.94519,3.9452C56.31447,30.04189,55.28534,30.15312,54.71328,29.58106z"/><rect width="28.321" height="5.213" x="30.124" y="36.555" fill="#ffac88" transform="rotate(-45 44.285 39.162)"/><path fill="#ffac88" d="M27.16074,54.52071l4.32898,4.32898c1.18636,1.18636,3.55903,0.3109,4.20591-1.56475c1.8423-5.34501-0.50946-12.87996-6.33557-18.70607c-0.73438-0.73438-1.4979-1.41153-2.28187-2.03996c4.30565,5.41142,5.89185,11.74888,4.28846,16.41705C30.72684,54.83868,28.34718,55.70716,27.16074,54.52071z"/><path fill="#fff" d="M39.44409 41.65785c.19531.19531.45117.29297.70703.29297s.51172-.09766.70703-.29297l4.75-4.75c.39063-.39063.39063-1.02344 0-1.41406s-1.02344-.39063-1.41406 0l-4.75 4.75C39.05346 40.63441 39.05346 41.26723 39.44409 41.65785zM47.38061 34.70082c.25586 0 .51172-.09766.70703-.29297l.5-.5c.39063-.39063.39063-1.02344 0-1.41406s-1.02344-.39063-1.41406 0l-.5.5c-.39063.39063-.39063 1.02344 0 1.41406C46.86889 34.60316 47.12475 34.70082 47.38061 34.70082z"/></svg>