<svg xmlns="http://www.w3.org/2000/svg" enable-background="new 0 0 68 68" viewBox="0 0 68 68"><path fill="#fe9967" d="M65.57605,47.51429c0.58697-0.61866,0.56127-1.59601-0.05739-2.18297l-7.60327-7.21371c1.62676,0.53164,3.53255-0.05254,4.53388-1.72173c0.73706-1.22866,0.70156-2.83264-0.08526-4.03005c-1.42921-2.175-4.38148-2.34274-6.05664-0.57712c-1.0589,1.11608-1.31953,2.69944-0.80532,4.03921l-7.60321-7.21365c-0.61866-0.58696-1.596-0.56127-2.18297,0.05739l-6.23028,6.56673c-0.28708,0.30259-0.05858,0.77973,0.35849,0.77465c1.24588-0.01518,2.49962,0.5725,3.28948,1.76601c0.79034,1.19424,0.82989,2.79719,0.09964,4.0291c-1.31953,2.22599-4.24411,2.54148-6.0091,0.86692c-0.75496-0.71628-1.15557-1.66941-1.19591-2.63495c-0.01748-0.41832-0.50606-0.62421-0.79423-0.32048l-6.23519,6.57191c-0.58696,0.61866-0.56127,1.596,0.05739,2.18297l17.61982,16.71705c0.61866,0.58696,1.596,0.56126,2.18296-0.05739L65.57605,47.51429z"/><path fill="#ffac88" d="M54.83893 36.46024c-.62433.65805-1.6639.68538-2.32195.06105l-6.3786-6.05179c-.61787-.58621-1.59959-.5604-2.18582.05749l1.76244-1.85761c.58566-.61728 1.56084-.64292 2.17812-.05727l7.57404 7.18598L54.83893 36.46024zM60.88074 37.8757c.621-.31566 1.16449-.8096 1.56894-1.48028.75005-1.24768.69964-2.87344-.11887-4.08371-1.44505-2.12632-4.36162-2.27608-6.02323-.52473-.3099.32664-.54974.68989-.71978 1.08194 1.65447-.85324 3.80307-.43005 4.9806 1.30038C61.30696 35.2589 61.42137 36.69106 60.88074 37.8757zM63.75797 47.18634l-6.29986-5.97708c-.65805-.62433-.68538-1.66391-.06105-2.32195l.62822-.66215 7.49136 7.10754c.61692.58532.64278 1.56897.05747 2.18589l-1.75866 1.85362C64.4017 48.75432 64.37589 47.77259 63.75797 47.18634z"/><path fill="#ef8759" d="M51.05284,62.82405c-0.58623,0.61789-1.56419,0.63974-2.18211,0.05349L31.25114,46.16069c-0.61787-0.58621-0.64744-1.56397-0.0612-2.18186l-2.19182,2.31019c-0.58623,0.61789-0.5604,1.59959,0.05747,2.1858l17.61959,16.71684c0.61791,0.58626,1.59961,0.56047,2.18585-0.05742L51.05284,62.82405z"/><path fill="#ffac88" d="M53.19986,60.56108l1.00443-1.05867c-0.58623,0.61789-1.56793,0.64368-2.18584,0.05742L34.39885,42.84299c-0.61787-0.58621-0.6437-1.56791-0.05747-2.1858l-1.00443,1.05868c-0.58623,0.61789-0.55666,1.59565,0.06121,2.18186l17.61959,16.71684C51.63566,61.20082,52.61362,61.17897,53.19986,60.56108z"/><path fill="#feeb75" d="M20.10122,39.38579c0.61866,0.58696,1.596,0.56126,2.18297-0.0574l7.21371-7.60327c-0.53164,1.62676,0.05254,3.53255,1.72173,4.53387c1.22866,0.73706,2.83264,0.70156,4.03005-0.08526c2.175-1.42921,2.34274-4.38148,0.57712-6.05664c-1.11608-1.0589-2.69944-1.31953-4.03921-0.80532l7.21366-7.60321c0.58696-0.61866,0.56126-1.59601-0.05739-2.18297l-6.56673-6.23028c-0.30258-0.28708-0.77973-0.05859-0.77465,0.35848c0.01518,1.24589-0.5725,2.49963-1.76601,3.28948c-1.19424,0.79034-2.79719,0.82989-4.0291,0.09964c-2.226-1.31953-2.54148-4.24411-0.86692-6.0091c0.71628-0.75496,1.6694-1.15557,2.63495-1.19591c0.41832-0.01748,0.62421-0.50606,0.32048-0.79423L21.32397,2.8085c-0.61866-0.58696-1.59601-0.56127-2.18297,0.05739L2.42395,20.48571c-0.58696,0.61866-0.56127,1.59601,0.05739,2.18297L20.10122,39.38579z"/><path fill="#fff3ab" d="M31.15526 28.64867c-.65805-.62433-.68538-1.6639-.06105-2.32195l6.05179-6.3786c.58621-.61787.5604-1.59959-.05749-2.18582l1.85761 1.76243c.61729.58566.64293 1.56084.05727 2.17812l-7.18598 7.57404L31.15526 28.64867zM29.7398 34.69048c.31566.621.8096 1.16449 1.48028 1.56894 1.24768.75005 2.87344.69964 4.08371-.11887 2.12632-1.44505 2.27608-4.36162.52474-6.02323-.32664-.3099-.68989-.54975-1.08194-.71978.85323 1.65447.43005 3.80306-1.30038 4.9806C32.35661 35.1167 30.92445 35.2311 29.7398 34.69048zM20.42916 37.56771l5.97708-6.29986c.62433-.65805 1.6639-.68538 2.32195-.06105l.66215.62822-7.10753 7.49136c-.58532.61692-1.56897.64278-2.18589.05747l-1.85362-1.75865C18.86118 38.21143 19.84291 38.18562 20.42916 37.56771z"/><path fill="#efd96a" d="M4.79145,24.86257c-0.61789-0.58623-0.63974-1.56419-0.05348-2.18211L21.45481,5.06087c0.58621-0.61787,1.56397-0.64744,2.18186-0.0612l-2.31019-2.19182c-0.61789-0.58623-1.59959-0.5604-2.1858,0.05747L2.42384,20.4849c-0.58626,0.61791-0.56047,1.59961,0.05742,2.18585L4.79145,24.86257z"/><path fill="#fff3ab" d="M7.05442,27.00959l1.05867,1.00443c-0.61789-0.58623-0.64368-1.56793-0.05742-2.18585L24.77251,8.20859c0.58621-0.61787,1.56791-0.6437,2.1858-0.05747l-1.05867-1.00443c-0.61789-0.58623-1.59565-0.55666-2.18186,0.06121L7.00093,24.82748C6.41468,25.4454,6.43653,26.42336,7.05442,27.00959z"/><path fill="#fff" d="M52.63275 53.64744l-.38867.41016c-.37988.40039-.36328 1.0332.03809 1.41309.19336.18359.44043.27441.6875.27441.26465 0 .5293-.10449.72559-.3125l.38867-.41016c.37988-.40039.36328-1.0332-.03809-1.41309C53.64545 53.22849 53.01263 53.24509 52.63275 53.64744zM50.27826 56.12791l-3.00586 3.16895c-.20605.2168-.55176.22656-.77051.02051-.40039-.38086-1.03418-.36426-1.41309.03809-.37988.40039-.36328 1.0332.03809 1.41309.49023.46582 1.12012.69629 1.75.69629.67383 0 1.34668-.26465 1.84668-.79102l3.00586-3.16895c.37988-.40137.36328-1.03418-.03711-1.41406C51.29095 55.71091 50.65814 55.72752 50.27826 56.12791z"/></svg>