<svg xmlns="http://www.w3.org/2000/svg" enable-background="new 0 0 68 68" viewBox="0 0 68 68"><path fill="#e2e2e2" d="M5.63939,56.97188c2.19654,0.10712,4.60731-0.17147,6.88952-0.63219c5.9894-1.20003,11.62527-3.84655,16.56466-7.43591c1.92867-1.39288,3.76082-2.81793,5.47512-4.24298c-2.16423-0.08567-5.56092-0.60001-8.77529-2.65719c0,0,7.80023,0.84642,14.21823-2.17502c3.22509-3.07514,6.02171-6.16087,8.43248-9.161c-2.12146-0.03211-5.75384-0.4821-9.18245-2.67864c0,0,8.37886-0.32142,12.80384-2.13218c3.90025-5.57158,6.50381-10.67165,8.19679-14.67895c-3.30017-0.61074-6.70732-0.19285-6.70732-0.19285c2.84998-2.01434,5.86083-2.5929,7.86432-2.72147c1.37149-3.68581,1.80023-5.90373,1.80023-5.90373s-6.686-2.68936-17.05775,0.26786c-3.16074,3.69653-4.90709,9.48236-4.90709,9.48236c-0.50368-2.96789-0.21437-5.70009,0.28918-7.87517c-3.42874,1.42505-7.15738,3.46078-11.10026,6.36445c-2.53934,4.50013-2.4215,11.83957-2.4215,11.83957c-1.51066-2.9036-2.03566-5.83945-2.16436-8.16448c-2.13218,1.8536-4.318,3.97512-6.54658,6.37517c-2.56079,4.50013-2.43209,11.89313-2.43209,11.89313c-1.21088-2.32504-1.78951-4.6608-2.03592-6.70732c-2.40005,2.95723-4.83227,6.25733-7.28582,9.94314c-2.14291,3.21437-3.6966,6.87873-4.18943,10.71455C2.41443,53.93964,5.63939,56.97188,5.63939,56.97188z"/><path fill="#ededed" d="M63.21595,2.35611c0,0-44.65997,25.88995-57.57996,54.62c0,0-3.22003-3.04004-2.27002-10.48004c0.48999-3.83997,2.04999-7.5,4.19-10.71997c2.45001-3.67999,4.89001-6.97998,7.28998-9.94c0.23999,2.04999,0.82001,4.38,2.03003,6.71002c0,0-0.13-7.40002,2.44-11.90002c2.21997-2.40002,4.40997-4.52002,6.53998-6.37c0.13,2.32001,0.65997,5.26001,2.16998,8.15997c0,0-0.12-7.33997,2.42004-11.83997c3.94-2.90002,7.66998-4.94,11.09997-6.35999c-0.51001,2.16998-0.78998,4.90997-0.28998,7.87c0,0,1.75-5.78003,4.90997-9.48004C56.53595-0.33389,63.21595,2.35611,63.21595,2.35611z"/><path fill="#666" d="M65.70969,48.98333c-0.42999,1.97998-2.28003,3.37-5.34998,4.01996c-4.72003,0.98999-9.59003,0.95001-14.29004,0.91003c-2.62-0.02002-5.32996-0.04004-7.96997,0.12c-1.60999,0.08997-3.45001,0.27997-4.85004,1.19c-1.14996,0.73999-2.06,2.27997-1.57995,3.57001c0.09998,0.27997,0.26996,0.56995,0.45996,0.88c0.36005,0.62994,0.78003,1.32996,0.81,2.21997c0.04004,1.16998-0.65997,2.34003-1.82001,3.03998c-0.89996,0.55005-1.91998,0.75-2.87994,0.90002c-3.75,0.62-7.68005,0.92999-11.84003,0.92999s-8.54999-0.31-13.22998-0.92999c-0.04004,0-0.07001,0-0.11005-0.01001c-0.54999-0.07001-0.92999-0.58002-0.84998-1.12c0.31-2.28998,1.07001-4.77002,2.27002-7.56l0.98999-2.14001c13.52997-27.95001,35.97998-36.27997,36.20996-36.35999c0.52002-0.19,1.10004,0.08002,1.28003,0.59998c0.19,0.52002-0.08002,1.09003-0.59998,1.28003c-0.22003,0.08002-21.99005,8.20001-35.14001,35.45001l-0.91998,2.01001c-0.94,2.19-1.57001,4.15997-1.93005,5.97998c8.77002,1.08002,16.49005,1.04999,23.55005-0.10004c0.79999-0.12994,1.57001-0.27997,2.16998-0.63995c0.42999-0.26001,0.87-0.76001,0.84998-1.26001c-0.01001-0.38-0.26001-0.78998-0.53998-1.27002c-0.22003-0.37-0.44-0.76001-0.60999-1.20001c-0.85004-2.31995,0.57996-4.78998,2.36999-5.94995c1.72998-1.12,3.82001-1.39001,5.82001-1.51001c2.69995-0.16003,5.44995-0.14001,8.10999-0.12c4.59998,0.03998,9.34998,0.07996,13.84998-0.87c1.29004-0.27002,3.48004-0.95001,3.82001-2.49005c0.23999-1.06995-0.54999-2.17999-1.38-2.75c-1.07001-0.75-2.45001-1.04999-3.78998-1.33997c-0.53998-0.12-0.88-0.65002-0.76001-1.19c0.10999-0.53998,0.65002-0.89001,1.19-0.77002c1.46002,0.32001,3.10999,0.67999,4.51001,1.66003C64.92966,45.1333,66.14969,47.00329,65.70969,48.98333z"/></svg>