<svg xmlns="http://www.w3.org/2000/svg" enable-background="new 0 0 68 68" viewBox="0 0 68 68"><path fill="#feeb75" d="M16.57854,16.57854C33.49776-0.34068,56.30836,1.61862,63.04779,2.6495c1.19415,0.18266,2.12004,1.10855,2.3027,2.3027c1.03088,6.73944,2.99019,29.55004-13.92903,46.46926S11.69164,66.38138,4.95221,65.35049c-1.19415-0.18266-2.12004-1.10855-2.3027-2.3027C1.61862,56.30836-0.34068,33.49776,16.57854,16.57854z"/><path fill="#efd96a" d="M65.27916,4.65109c-10.56885,0.26771-28.20876,3.21072-42.81,17.81197C7.8489,37.08331,4.90577,54.72333,4.64775,65.2825c-1.05111-0.26747-1.83475-1.12763-1.99712-2.22645c-1.0321-6.74643-2.99108-29.55592,13.93227-46.47926c16.91378-16.91378,39.72327-14.9548,46.4697-13.9227C64.15141,2.81646,65.01157,3.6001,65.27916,4.65109z"/><path fill="#ead86a" d="M5.48866,33.95879l0.00957,0.00957c0.58277,2.57044,1.88246,5.49433,3.76492,8.50454c-1.27099,3.14388-2.19776,6.23026-2.8763,9.16406c-1.50989-1.96854-2.80934-3.93709-3.82231-5.84824c0.00957-0.1815,0.03826-0.36301,0.06696-0.54475c0.06684-0.5255,0.15281-1.07012,0.24846-1.6053c0.08597-0.56376,0.20063-1.13708,0.3153-1.7104c0.08609-0.35368,0.16249-0.7168,0.24846-1.08949c0.05727-0.2866,0.12411-0.56364,0.19119-0.84091c0.12411-0.50625,0.24834-0.99372,0.3917-1.50032c0.26759-0.9936,0.57321-2.00657,0.91743-3.01942C5.12542,34.97152,5.29747,34.47472,5.48866,33.95879z"/><path fill="#fff3ab" d="M63.34891,2.72084c-0.26771,10.56885-3.21072,28.20876-17.81197,42.81C30.91669,60.1511,13.27667,63.09423,2.7175,63.35225c0.26747,1.05111,1.12763,1.83475,2.22645,1.99713c6.74643,1.0321,29.55592,2.99107,46.47926-13.93227c16.91378-16.91378,14.9548-39.72327,13.9227-46.4697C65.18354,3.84859,64.3999,2.98843,63.34891,2.72084z"/><path fill="#444" d="M16.5205,51.47946c5.90974,5.90974,12.40967,9.84969,17.5195,11.03971c-4.05994,1.51997-8.08985,2.42986-11.80971,2.92985c-3.63978-1.95991-7.5198-4.85997-11.16959-8.50976c-3.64992-3.64992-6.54985-7.5298-8.50988-11.16971c0.50011-3.71974,1.40999-7.74965,2.92997-11.80959C6.67082,39.06979,10.61064,45.5696,16.5205,51.47946z"/><path fill="#333" d="M5.49822,33.96835c0.58277,2.57044,1.88246,5.49433,3.76492,8.50454c-1.27099,3.14388-2.19776,6.23026-2.8763,9.16406c-1.50989-1.96854-2.80934-3.93709-3.84142-5.86735c-0.07313-0.07313,0.14382-0.95158,0.16329-1.07995c0.06083-0.40095,0.12619-0.80121,0.19604-1.20069c0.1397-0.79895,0.29738-1.59476,0.47286-2.38662c0.35095-1.58373,0.77307-3.15169,1.26484-4.6975C4.90404,35.58258,5.18884,34.76788,5.49822,33.96835z"/><path fill="#d0d2c7" d="M33.96835,5.49822c2.57044,0.58277,5.49433,1.88246,8.50454,3.76492c3.14388-1.27099,6.23026-2.19776,9.16406-2.8763c-1.96854-1.50989-3.93709-2.80934-5.86735-3.84142c-0.07313-0.07313-0.95158,0.14382-1.07995,0.16329c-0.40095,0.06083-0.80121,0.12619-1.20069,0.19604c-0.79895,0.1397-1.59476,0.29738-2.38662,0.47286c-1.58373,0.35095-3.15169,0.77307-4.6975,1.26484C35.58258,4.90404,34.76788,5.18884,33.96835,5.49822z"/><path fill="#444" d="M51.47946,16.5205c5.90974,5.90974,9.84969,12.40967,11.03971,17.5195c1.51997-4.05994,2.42986-8.08985,2.92985-11.80971c-1.95991-3.63978-4.85997-7.5198-8.50976-11.16959c-3.64992-3.64992-7.5298-6.54985-11.16971-8.50988c-3.71974,0.50011-7.74965,1.40999-11.80959,2.92997C39.06979,6.67082,45.5696,10.61064,51.47946,16.5205z"/><path fill="#666" d="M34.03165 62.50178c-2.57044-.58277-5.49433-1.88246-8.50454-3.76492-3.14388 1.27099-6.23026 2.19775-9.16406 2.87629 1.96854 1.50989 3.93709 2.80934 5.86735 3.84142.07313.07313.95158-.14382 1.07995-.16329.40095-.06084.80121-.12619 1.20069-.19604.79895-.13969 1.59476-.29738 2.38663-.47285 1.58373-.35096 3.15169-.77308 4.6975-1.26484C32.41742 63.09596 33.23212 62.81116 34.03165 62.50178zM62.50178 34.03165c-.58277-2.57044-1.88246-5.49433-3.76492-8.50454 1.27099-3.14388 2.19775-6.23026 2.87629-9.16406 1.50989 1.96854 2.80934 3.93709 3.84142 5.86735.07313.07313-.14382.95158-.16329 1.07995-.06084.40095-.12619.80121-.19604 1.20069-.13969.79895-.29738 1.59476-.47285 2.38663-.35096 1.58373-.77308 3.15169-1.26484 4.6975C63.09596 32.41742 62.81116 33.23212 62.50178 34.03165z"/><path fill="#333" d="M33.96835,5.49822c2.57044,0.58277,5.49433,1.88246,8.50454,3.76492c3.14388-1.27099,6.23026-2.19776,9.16406-2.8763c-1.96854-1.50989-3.93709-2.80934-5.86735-3.84142c-0.07313-0.07313-0.95158,0.14382-1.07995,0.16329c-0.40095,0.06083-0.80121,0.12619-1.20069,0.19604c-0.79895,0.1397-1.59476,0.29738-2.38662,0.47286c-1.58373,0.35095-3.15169,0.77307-4.6975,1.26484C35.58258,4.90404,34.76788,5.18884,33.96835,5.49822z"/><path fill="#fe9967" d="M44.95937,21.62642l-2.08447,2.08447l-1.20947-1.20947c-0.39063-0.39063-1.02344-0.39063-1.41406,0s-0.39063,1.02344,0,1.41406l1.20947,1.20947l-4.50293,4.50293l-1.20947-1.20947c-0.39063-0.39063-1.02344-0.39063-1.41406,0s-0.39063,1.02344,0,1.41406l1.20947,1.20947l-4.50195,4.50196l-1.20947-1.20947c-0.39063-0.39063-1.02344-0.39063-1.41406,0s-0.39063,1.02344,0,1.41406l1.20947,1.20947l-4.50293,4.50293l-1.20947-1.20947c-0.39063-0.39063-1.02344-0.39063-1.41406,0s-0.39063,1.02344,0,1.41406l1.20947,1.20947l-2.08447,2.08447c-0.39063,0.39063-0.39063,1.02344,0,1.41406c0.19531,0.19531,0.45117,0.29297,0.70703,0.29297s0.51172-0.09766,0.70703-0.29297l2.08447-2.08447l1.20947,1.20947c0.19531,0.19531,0.45117,0.29297,0.70703,0.29297s0.51172-0.09766,0.70703-0.29297c0.39063-0.39063,0.39063-1.02344,0-1.41406l-1.20947-1.20947l4.50293-4.50293l1.20947,1.20947c0.19531,0.19531,0.45117,0.29297,0.70703,0.29297s0.51172-0.09766,0.70703-0.29297c0.39063-0.39063,0.39063-1.02344,0-1.41406l-1.20947-1.20947l4.50195-4.50195l1.20947,1.20947c0.19531,0.19531,0.45117,0.29297,0.70703,0.29297s0.51172-0.09766,0.70703-0.29297c0.39063-0.39063,0.39063-1.02344,0-1.41406l-1.20947-1.20947l4.50293-4.50293l1.20947,1.20947c0.19531,0.19531,0.45117,0.29297,0.70703,0.29297s0.51172-0.09766,0.70703-0.29297c0.39063-0.39063,0.39063-1.02344,0-1.41406l-1.20947-1.20947l2.08447-2.08447c0.39063-0.39063,0.39063-1.02344,0-1.41406S45.34999,21.23579,44.95937,21.62642z"/><path fill="#fff" d="M53.56191 41.88521c-.18262 0-.36816-.0498-.53418-.15527-.4668-.2959-.60547-.91309-.30957-1.37988.07324-.11621.1416-.23242.20898-.34961.27539-.47852.88574-.64453 1.36523-.36719.47852.27539.64355.88672.36719 1.36523-.08105.14063-.16309.28223-.25195.42188C54.21718 41.72115 53.89296 41.88521 53.56191 41.88521zM43.97011 52.34419c-.29688 0-.59082-.13184-.78809-.38379-.34082-.43457-.26465-1.06348.1709-1.40332 1.39063-1.08887 2.6416-2.19336 3.82617-3.37793 1.16699-1.16699 2.28906-2.43457 3.33398-3.7666.34082-.43555.9707-.51172 1.4043-.16992.43457.3418.51074.96973.16992 1.4043-1.09473 1.39453-2.27051 2.72266-3.49414 3.94629-1.24219 1.24219-2.55273 2.39941-4.00781 3.53809C44.40273 52.27486 44.18496 52.34419 43.97011 52.34419z"/></svg>