<svg xmlns="http://www.w3.org/2000/svg" enable-background="new 0 0 68 68" viewBox="0 0 68 68"><path fill="#feeb75" d="M45.46716,1.99861H22.53723c-1.84009,0-3.33008,1.5-3.33008,3.34003v57.33002c0,1.83997,1.48999,3.32996,3.33008,3.32996h22.92993c1.84009,0,3.33008-1.48999,3.33008-3.32996V5.33864C48.79724,3.49861,47.30725,1.99861,45.46716,1.99861z M33.99719,13.07863c-1.77002,0-3.19995-1.42999-3.19995-3.20001c0-1.77997,1.42993-3.20996,3.19995-3.20996s3.20996,1.42999,3.20996,3.20996C37.20715,11.64864,35.76721,13.07863,33.99719,13.07863z"/><path fill="#efd96a" d="M48.7961,5.33135v57.34003c0,1.84003-1.48999,3.33002-3.33002,3.33002h-7.33997c1.84998,0,3.33997-1.48999,3.33997-3.33002V5.33135c0-1.83997-1.48999-3.32996-3.33997-3.32996h7.33997C47.30611,2.00139,48.7961,3.49138,48.7961,5.33135z"/><path fill="#fff3ab" d="M19.20276,5.33135v57.34003c0,1.84003,1.48999,3.33002,3.33002,3.33002h7.33997c-1.84998,0-3.33997-1.48999-3.33997-3.33002V5.33135c0-1.83997,1.48999-3.32996,3.33997-3.32996h-7.33997C20.69275,2.00139,19.20276,3.49138,19.20276,5.33135z"/><path fill="#fff3ab" d="M36.1571,65.99861h-3.19995c-1.83997,0-3.32996-1.48999-3.32996-3.32996V5.32863c0-1.84003,1.48999-3.33002,3.32996-3.33002h3.19995c-1.83984,0-3.32983,1.48999-3.32983,3.33002v1.56c-1.19006,0.47003-2.03003,1.63001-2.03003,2.98999c0,1.35004,0.83997,2.51001,2.03003,2.98004v49.81C32.82727,64.50862,34.31726,65.99861,36.1571,65.99861z"/><path fill="#fff" d="M43.46158 25.84642c-.55273 0-1 .44727-1 1v11.44922c0 .55273.44727 1 1 1s1-.44727 1-1V26.84642C44.46158 26.29369 44.01431 25.84642 43.46158 25.84642zM43.46158 40.97142c-.55273 0-1 .44727-1 1v.83301c0 .55273.44727 1 1 1s1-.44727 1-1v-.83301C44.46158 41.41869 44.01431 40.97142 43.46158 40.97142z"/><path fill="#444" d="M21.91272 19.33864h-2.70996v-2h2.70996c.55005 0 1 .45001 1 1C22.91272 18.89864 22.46277 19.33864 21.91272 19.33864zM25.03284 59.24861c0 .55005-.44006 1-1 1h-4.83008v-2h4.83008C24.59278 58.24861 25.03284 58.69862 25.03284 59.24861zM25.03284 47.55861c0 .56-.44006 1-1 1h-4.83008v-2h4.83008C24.59278 46.55861 25.03284 47.00862 25.03284 47.55861zM25.03284 35.87862c0 .54999-.44006 1-1 1h-4.83008v-2h4.83008C24.59278 34.87862 25.03284 35.31862 25.03284 35.87862zM25.03284 24.18861c0 .54999-.44006 1-1 1h-4.83008v-2h4.83008C24.59278 23.18861 25.03284 23.63863 25.03284 24.18861zM21.91272 31.02864h-2.70996v-2h2.70996c.55005 0 1 .45001 1 1S22.46277 31.02864 21.91272 31.02864zM21.91272 54.40865h-2.70996v-2h2.70996c.55005 0 1 .44 1 1C22.91272 53.95863 22.46277 54.40865 21.91272 54.40865zM24.03284 13.49861h-4.83008v-2h4.83008c.55994 0 1 .45001 1 1C25.03284 13.04866 24.59278 13.49861 24.03284 13.49861zM21.91272 42.71864h-2.70996v-2h2.70996c.55005 0 1 .45001 1 1S22.46277 42.71864 21.91272 42.71864z"/></svg>