<svg xmlns="http://www.w3.org/2000/svg" enable-background="new 0 0 68 68" viewBox="0 0 68 68"><path fill="#fe9967" d="M57.58573,8.46548h-8.82197c-0.47875,0-0.93069-0.22104-1.22462-0.59894L43.4434,2.60059c-0.29393-0.37791-0.74587-0.59894-1.22462-0.59894H25.78122c-0.47876,0-0.93069,0.22104-1.22462,0.59894l-4.09574,5.26596c-0.29393,0.37791-0.74587,0.59894-1.22462,0.59894h-8.82197c-0.85683,0-1.55143,0.6946-1.55143,1.55142v7.98942c0,0.85683,0.6946,1.55143,1.55143,1.55143h47.17146c0.85683,0,1.55143-0.6946,1.55143-1.55143v-7.98942C59.13716,9.16008,58.44256,8.46548,57.58573,8.46548z"/><path fill="#e2e2e2" d="M41.41646,66.00164H26.58354c-1.10457,0-2-0.89542-2-2V19.55775h18.83292v44.44389C43.41646,65.10622,42.52103,66.00164,41.41646,66.00164z"/><path fill="#ef8759" d="M14.19323 10.01838v7.98999c0 .84998.69995 1.55005 1.55005 1.55005H10.4132c-.85986 0-1.54993-.70007-1.54993-1.55005v-7.98999c0-.85999.69006-1.54993 1.54993-1.54993h5.33008C14.89318 8.46845 14.19323 9.15839 14.19323 10.01838zM31.11327 1.99836c-.47998 0-.93005.22009-1.22009.59998l-4.09985 5.27002c-.29004.38-.73999.6001-1.21997.6001h-5.34009c.47998 0 .92993-.22009 1.22998-.6001l4.09009-5.27002c.29993-.37988.75-.59998 1.22998-.59998H31.11327z"/><path fill="#d3d3d3" d="M29.9132,19.55841v46.43995h-3.32996c-1.10457,0-2-0.89543-2-2V19.55841H29.9132z" opacity=".5"/><path fill="#ffac88" d="M48.75715 8.46845H43.4272c-.47998 0-.93005-.22009-1.21997-.6001l-4.1001-5.27002c-.29004-.37988-.75-.59998-1.21997-.59998h5.33008c.47998 0 .92993.22009 1.21997.59998l4.09998 5.27002C47.8271 8.24836 48.28718 8.46845 48.75715 8.46845zM59.13716 10.01838v7.98999c0 .84998-.69995 1.55005-1.55005 1.55005h-5.33997c.85999 0 1.55005-.70007 1.55005-1.55005v-7.98999c0-.85999-.69006-1.54993-1.55005-1.54993h5.33997C58.43721 8.46845 59.13716 9.15839 59.13716 10.01838z"/><path fill="#ededed" d="M43.41646,19.55841v44.43994c0,1.10457-0.89543,2-2,2h-3.34009V19.55841H43.41646z" opacity=".5"/><path fill="#fff" d="M38.93639 46.76313c.00391 0 .00684 0 .01074 0 .54688 0 .99414-.44043 1-.98926l.00977-.88574c.00586-.55176-.43652-1.00488-.98926-1.01074-.52637.01465-1.00488.43652-1.01074.98926l-.00977.88574C37.94127 46.30414 38.38366 46.75727 38.93639 46.76313zM38.95787 48.32465c-.00098 0-.00195 0-.00293 0-.55273.00195-.99902.45117-.99707 1.00293l.02539 8.46875c.00195.55176.44922.99707 1 .99707.00098 0 .00195 0 .00293 0 .55273-.00195.99902-.45117.99707-1.00293l-.02539-8.46875C39.95592 48.76996 39.50866 48.32465 38.95787 48.32465z"/><path fill="#666" d="M26.7932 52.4184h-2.20996v-2h2.20996c.55005 0 1 .44995 1 1C27.7932 51.96833 27.34325 52.4184 26.7932 52.4184zM26.7932 35.13837h-2.20996v-2h2.20996c.55005 0 1 .45007 1 1S27.34325 35.13837 26.7932 35.13837zM29.21325 60.05841c0 .55005-.45007 1-1 1h-3.63v-2h3.63C28.76317 59.05841 29.21325 59.49836 29.21325 60.05841zM29.21325 42.77839c0 .55005-.45007 1-1 1h-3.63v-2h3.63C28.76317 41.77839 29.21325 42.22834 29.21325 42.77839zM28.21325 26.49836h-3.63v-2h3.63c.54993 0 1 .44995 1 1C29.21325 26.05841 28.76317 26.49836 28.21325 26.49836z"/></svg>