<svg xmlns="http://www.w3.org/2000/svg" enable-background="new 0 0 68 68" viewBox="0 0 68 68"><path fill="#333" d="M16.97468,52.02717c-0.25586,0-0.51172-0.09766-0.70703-0.29297c-0.39062-0.39063-0.39062-1.02344,0-1.41406l3.44531-3.44629c0.39063-0.39063,1.02344-0.39063,1.41406,0s0.39063,1.02344,0,1.41406l-3.44531,3.44629C17.48639,51.92952,17.23054,52.02717,16.97468,52.02717z"/><path fill="#feeb75" d="M2.49937,14.11279l14.42947,14.42947c0.66583,0.66583,1.74535,0.66583,2.41118,0l9.2015-9.2015c0.66583-0.66583,0.66583-1.74535,0-2.41118L14.11206,2.5001c-0.66583-0.66583-1.74535-0.66583-2.41118,0l-9.2015,9.2015C1.83354,12.36743,1.83354,13.44696,2.49937,14.11279z"/><path fill="#a7d08c" d="M26.5104,53.6724L14.32747,41.48947c-0.66583-0.66583-0.66583-1.74535,0-2.41118l22.11504-22.11504c0.66583-0.66583,1.74535-0.66583,2.41118,0l12.18293,12.18293c0.66583,0.66583,0.66583,1.74535,0,2.41118L28.92158,53.6724C28.25575,54.33823,27.17623,54.33823,26.5104,53.6724z"/><path fill="#9ac181" d="M16.96907,44.12696l-2.63908-2.63908c-0.66892-0.66892-0.66892-1.73916-0.00004-2.40804l22.11617-22.11617c0.6628-0.6628,1.73912-0.66888,2.40804,0.00004l2.63908,2.63908c-0.66888-0.66888-1.74521-0.6628-2.408,0L16.96907,41.71896C16.30018,42.38784,16.30018,43.45808,16.96907,44.12696z"/><path fill="#badda4" d="M20.78788 47.94577l-1.67224-1.67225c-.66892-.66892-.66892-1.73916-.00004-2.40804l22.11617-22.11616c.66279-.6628 1.73912-.66888 2.40804.00004l1.67224 1.67224c-.66892-.66892-1.74525-.66283-2.40804-.00004L20.78784 45.53773C20.11896 46.20661 20.11896 47.27686 20.78788 47.94577zM51.03821 31.55577L28.92205 53.67194c-.66888.66888-1.73912.66888-2.40801 0l-3.81881-3.81881c.66892.66892 1.74521.67497 2.41409.00608l22.11616-22.11617c.6628-.66279.66283-1.74517-.00608-2.41409l3.81881 3.81881C51.7071 29.81665 51.70101 30.89298 51.03821 31.55577z"/><rect width="3.906" height="9.961" x="23.369" y="20.342" fill="#666" transform="rotate(45 25.322 25.322)"/><path fill="#c2dc95" d="M53.88708,65.5005L39.45761,51.07103c-0.66583-0.66583-0.66583-1.74535,0-2.41119l9.2015-9.2015c0.66583-0.66583,1.74535-0.66583,2.41118,0l14.42947,14.42947c0.66582,0.66583,0.66582,1.74535,0,2.41119l-9.2015,9.2015C55.63243,66.16633,54.55291,66.16633,53.88708,65.5005z"/><path fill="#feeb75" d="M53.88708,65.5005L39.45761,51.07103c-0.66583-0.66583-0.66583-1.74535,0-2.41119l9.2015-9.2015c0.66583-0.66583,1.74535-0.66583,2.41118,0l14.42947,14.42947c0.66582,0.66583,0.66582,1.74535,0,2.41119l-9.2015,9.2015C55.63243,66.16633,54.55291,66.16633,53.88708,65.5005z"/><path fill="#fff3ab" d="M28.541 19.33519l-3.09522 3.09522c.66896-.66896.67497-1.74521.00609-2.41409L11.02191 5.58636c-.6628-.6628-1.74514-.66287-2.41409.00609l3.09522-3.09522c.6628-.6628 1.74521-.6628 2.40801 0L28.541 16.92719C29.20988 17.59607 29.2038 18.6724 28.541 19.33519zM65.50063 56.29481l-3.09523 3.09522c.66896-.66896.67497-1.74521.00605-2.41413L47.98153 42.54598c-.66283-.66283-1.74514-.66287-2.41409.00609l3.09522-3.09522c.6628-.6628 1.74517-.66283 2.408 0l14.42992 14.42992C66.1695 54.55569 66.16342 55.63202 65.50063 56.29481z"/><path fill="#efd96a" d="M22.42446 25.45174l-3.08899 3.08899c-.66287.66287-1.7392.66896-2.40808.00007L2.49743 14.11084c-.6628-.6628-.6628-1.74521.00007-2.40808l3.08899-3.08899c-.66272.66272-.6628 1.74521 0 2.40801l14.42996 14.42996C20.68533 26.12062 21.76173 26.11446 22.42446 25.45174zM59.38408 62.41136l-3.08899 3.08898c-.66287.66287-1.7392.66896-2.40812.00004L39.45705 51.07046c-.66283-.66283-.6628-1.74521.00007-2.40808l3.08899-3.08899c-.66272.66272-.66283 1.74517 0 2.408l14.42992 14.42992C57.64495 63.08024 58.72136 63.07408 59.38408 62.41136z"/><rect width="3.906" height="9.961" x="40.725" y="37.698" fill="#666" transform="rotate(-135 42.677 42.678)"/><circle cx="14.92" cy="53.08" r="3.061" fill="#444"/><path fill="#666" d="M39.89107,18.00062c2.39285-2.39284,6.59542-2.06983,9.38672,0.72146s3.11431,6.99387,0.72146,9.38672L39.89107,18.00062z"/><path fill="none" d="M2.49937,14.11279l14.42947,14.42947c0.66583,0.66583,1.74535,0.66583,2.41118,0l9.2015-9.2015c0.66583-0.66583,0.66583-1.74535,0-2.41118L14.11206,2.5001c-0.66583-0.66583-1.74535-0.66583-2.41118,0l-9.2015,9.2015C1.83354,12.36743,1.83354,13.44696,2.49937,14.11279z"/><path fill="none" d="M2.49937,14.11279l14.42947,14.42947c0.66583,0.66583,1.74535,0.66583,2.41118,0l9.2015-9.2015c0.66583-0.66583,0.66583-1.74535,0-2.41118L14.11206,2.5001c-0.66583-0.66583-1.74535-0.66583-2.41118,0l-9.2015,9.2015C1.83354,12.36743,1.83354,13.44696,2.49937,14.11279z"/><path fill="#444" d="M14.98423,63.46592c-5.7627,0-10.4502-4.6875-10.4502-10.44922c0-0.55273-0.44727-1-1-1s-1,0.44727-1,1c0,6.86426,5.58496,12.44921,12.4502,12.44921c0.55273,0,1-0.44727,1-1C15.98423,63.91319,15.53697,63.46592,14.98423,63.46592z"/><path fill="#444" d="M14.98423,59.19053c-3.4043,0-6.17383-2.76953-6.17383-6.17383c0-0.55273-0.44727-1-1-1s-1,0.44727-1,1c0,4.50684,3.66699,8.17383,8.17383,8.17383c0.55273,0,1-0.44727,1-1S15.53697,59.19053,14.98423,59.19053z"/><path fill="#fff" d="M25.36119 32.36534l-.45605.40918c-.41113.36816-.44531 1.00098-.07617 1.41211.19727.21973.4707.33203.74414.33203.23828 0 .47656-.08398.66797-.25586l.45605-.40918c.41113-.36816.44531-1.00098.07617-1.41211S25.77134 31.99522 25.36119 32.36534zM23.44322 37.04893c.39355-.3877.39746-1.02051.00977-1.41406-.38672-.3916-1.01953-.39746-1.41406-.00977l-2.70508 2.66602c-.40723.40234-.63379.93848-.6377 1.51074-.00293.57324.2168 1.11328.62012 1.52148l2.41602 2.43945c.19629.19727.45313.2959.71094.2959.25391 0 .50879-.09668.7041-.28906.3916-.38867.39551-1.02246.00684-1.41504l-2.41602-2.43848c-.03516-.03516-.04199-.0752-.04199-.10156.00098-.02734.00781-.06543.04199-.09961L23.44322 37.04893z"/><polygon fill="#666" points="61.714 50.1 60.3 48.686 55.201 53.786 50.915 49.5 56.014 44.401 54.6 42.987 49.501 48.086 44.767 43.352 43.353 44.766 48.086 49.5 42.987 54.599 44.401 56.014 49.501 50.914 53.786 55.2 48.688 60.3 50.102 61.714 55.201 56.614 60.193 61.607 61.607 60.193 56.615 55.2"/><polygon fill="#666" points="24.752 13.139 23.338 11.725 18.238 16.825 13.952 12.539 19.051 7.44 17.637 6.026 12.538 11.125 7.804 6.391 6.39 7.805 11.124 12.539 6.025 17.638 7.439 19.052 12.538 13.953 16.824 18.239 11.725 23.338 13.139 24.752 18.238 19.653 23.231 24.646 24.645 23.232 19.652 18.239"/></svg>