<svg xmlns="http://www.w3.org/2000/svg" enable-background="new 0 0 68 68" viewBox="0 0 68 68"><rect width="16.304" height="27.68" x="46.872" y="31.204" fill="#d3d3d3"/><rect width="16.304" height="27.68" x="4.818" y="31.204" fill="#d3d3d3"/><path fill="#fe9967" d="M21.12055 24.29537v6.90936H3.32843c-.66503 0-1.14479-.63706-.9611-1.27622l2.92521-10.17826c.12317-.42856.51519-.72378.9611-.72378h13.6405M48.09834 19.02647h13.63972c.44563 0 .83747.29486.96089.72305l2.93356 10.17826c.18427.63932-.29554 1.27695-.96088 1.27695H46.87055v-6.90936"/><polygon fill="#e2e2e2" points="46.872 58.884 46.871 24.295 33.997 10.713 21.121 24.295 21.122 58.884"/><path fill="#fe9967" d="M2.63251,62.27647v-2.39253c0-0.55228,0.44772-1,1-1h60.7294c0.55228,0,1,0.44772,1,1v2.39253c0,0.55228-0.44772,1-1,1H3.63251C3.08023,63.27647,2.63251,62.82875,2.63251,62.27647z"/><rect width="5.31" height="27.68" x="4.821" y="31.206" fill="#e2e2e2"/><path fill="#ef8759" d="M10.81055 19.02647l-3.5 12.17999H3.32837c-.66501 0-1.14477-.63704-.96111-1.27618l2.92529-10.17999c.12315-.42858.51519-.72382.96111-.72382H10.81055zM7.95056 58.88645v4.39001H3.63055c-.55228 0-1-.44772-1-1v-2.39001c0-.55228.44772-1 1-1H7.95056z"/><rect width="5.31" height="27.68" x="57.864" y="31.206" fill="#e2e2e2"/><path fill="#ffac88" d="M57.18396 19.02647l3.5 12.17999h3.98217c.66501 0 1.14477-.63704.96111-1.27618l-2.92529-10.17999c-.12315-.42858-.51519-.72382-.96111-.72382H57.18396zM60.04395 58.88645v4.39001h4.32001c.55228 0 1-.44772 1-1v-2.39001c0-.55228-.44772-1-1-1H60.04395z"/><path fill="#444" d="M33.99614,10.71333L20.4111,25.04177c-0.40687,0.42914-1.09526,0.41339-1.48208-0.03391l-1.66275-1.92274c-0.33726-0.39-0.32272-0.97249,0.03359-1.34517L33.27334,5.03248c0.39383-0.41193,1.05177-0.41193,1.44561,0l15.97353,16.7073c0.35629,0.37265,0.37086,0.95509,0.03366,1.34509l-1.66267,1.92305c-0.3868,0.44737-1.07524,0.46316-1.48214,0.03399L33.99614,10.71333z"/><path fill="#666" d="M33.91403,4.73371v6.06l-13.5,14.25c-0.40991,0.42999-1.09985,0.40997-1.48999-0.03998l-1.65991-1.92004c-0.34009-0.38995-0.32007-0.96997,0.04004-1.33997L33.27414,5.0337C33.44406,4.8437,33.68405,4.74372,33.91403,4.73371z"/><path fill="#444" d="M39.57729,58.88393H28.41722V44.60615c0-0.55228,0.44772-1,1-1h9.16007c0.55228,0,1,0.44772,1,1V58.88393z"/><path fill="#666" d="M34.37555,43.60612v15.27783h5.20172V44.60612c0-0.55228-0.44772-1-1-1H34.37555z"/><circle cx="33.996" cy="27.334" r="5" fill="#444"/><path fill="#666" d="M34.00055 22.33415v9.99914c2.75928-.00244 4.99561-2.23968 4.99561-4.99957C38.99615 24.57377 36.75983 22.33659 34.00055 22.33415zM15.25176 42.72147h-4.56345v-4.57901c0-1.26016 1.02156-2.28172 2.28172-2.28172h0c1.26016 0 2.28172 1.02156 2.28172 2.28172V42.72147zM15.25176 53.75074h-4.56345v-4.57901c0-1.26016 1.02156-2.28172 2.28172-2.28172h0c1.26016 0 2.28172 1.02156 2.28172 2.28172V53.75074zM52.74052 42.72147h4.56345v-4.57901c0-1.26016-1.02156-2.28172-2.28172-2.28172h0c-1.26016 0-2.28172 1.02156-2.28172 2.28172V42.72147zM52.74052 53.75074h4.56345v-4.57901c0-1.26016-1.02156-2.28172-2.28172-2.28172h0c-1.26016 0-2.28172 1.02156-2.28172 2.28172V53.75074z"/></svg>