<svg xmlns="http://www.w3.org/2000/svg" enable-background="new 0 0 68 68" viewBox="0 0 68 68"><path fill="#feeb75" d="M65.99982,37.56218v8.14306c0,1.51905-1.23143,2.75048-2.75048,2.75048H4.75029c-1.51905,0-2.75048-1.23143-2.75048-2.75048V16.71085c0-1.51905,1.23143-2.75048,2.75048-2.75048h41.83361c1.51905,0,2.75048,1.23143,2.75048,2.75048v14.84421l14.09121,2.8583C64.92334,34.71717,65.99982,36.03393,65.99982,37.56218z"/><path fill="#efd96a" d="M10.6402,48.45241H4.75018c-1.5199,0-2.75-1.22998-2.75-2.75V16.71242c0-1.52002,1.2301-2.75,2.75-2.75h5.89001c-1.52002,0-2.75,1.22998-2.75,2.75v28.98999C7.8902,47.22243,9.12018,48.45241,10.6402,48.45241z"/><path fill="#fff3ab" d="M17.31012 48.45241h-2.80994c-1.5199 0-2.75-1.22998-2.75-2.75V16.71242c0-1.52002 1.2301-2.75 2.75-2.75h2.80994c-1.5199 0-2.75 1.22998-2.75 2.75v28.98999C14.56012 47.22243 15.79022 48.45241 17.31012 48.45241zM65.99982 37.56239v8.14001c0 1.52002-1.22998 2.75-2.75 2.75H57.3598c1.52002 0 2.75-1.22998 2.75-2.75v-8.14001c0-1.52997-1.07996-2.84998-2.56995-3.14996l-14.1001-2.85999V16.71242c0-1.52002-1.22998-2.75-2.75-2.75h5.90015c1.51001 0 2.75 1.22998 2.75 2.75v14.84003l14.08984 2.85999C64.92975 34.71242 65.99982 36.03242 65.99982 37.56239z"/><path fill="#ef8759" d="M66.00018,38.28242v3.96997h-3.37493c-0.32863,0-0.59504-0.26641-0.59504-0.59504v-2.77988c0-0.32863,0.26641-0.59504,0.59504-0.59504H66.00018z"/><rect width="19.733" height="11.34" x="6.659" y="18.717" fill="#e2e2e2"/><rect width="4.19" height="11.34" x="6.66" y="18.722" fill="#d3d3d3"/><rect width="9.442" height="12.837" x="39.892" y="18.717" fill="#e2e2e2"/><rect width="13.5" height="29.741" x="26.392" y="18.717" fill="#444"/><circle cx="52.784" cy="48.459" r="5.581" fill="#444"/><circle cx="15.133" cy="48.459" r="5.581" fill="#444"/><path fill="#666" d="M52.78424,42.87825c-0.04529,0-0.08911,0.00568-0.13403,0.00677v11.14783c0.04492,0.0011,0.08875,0.00677,0.13403,0.00677c3.08203,0,5.58057-2.4986,5.58057-5.58069C58.36481,45.37679,55.86627,42.87825,52.78424,42.87825z"/><path fill="#333" d="M14.98346,42.88576c-3.01245,0.07977-5.43152,2.54138-5.43152,5.57318c0,3.03174,2.41907,5.49341,5.43152,5.57318V42.88576z"/><rect width="4.19" height="12.832" x="45.351" y="18.722" fill="#ededed"/><polygon fill="#333" points="26.392 44.552 39.892 44.552 39.892 42.552 34.14 42.552 34.14 18.722 32.14 18.722 32.14 42.552 26.392 42.552"/><rect width="2" height="11.32" x="15.53" y="18.722" fill="#666"/><path fill="#fff" d="M8.19806 33.47993h-.6875c-.55273 0-1 .44727-1 1s.44727 1 1 1h.6875c.55273 0 1-.44727 1-1S8.75079 33.47993 8.19806 33.47993zM21.71368 34.47993c0-.55273-.44727-1-1-1h-8.51074c-.55273 0-1 .44727-1 1s.44727 1 1 1h8.51074C21.26642 35.47993 21.71368 35.03267 21.71368 34.47993z"/><path fill="#444" d="M55.41385,20.45964v3.21002c0,0.56-0.44995,1-1,1c-0.55994,0-1-0.44-1-1v-3.21002c0-0.40997-0.33984-0.75-0.75-0.75h-3.32983v-2h3.32983C54.17385,17.70964,55.41385,18.94963,55.41385,20.45964z"/><circle cx="52.784" cy="48.459" r="2.43" fill="#e2e2e2"/><circle cx="15.133" cy="48.459" r="2.43" fill="#e2e2e2"/></svg>