<svg xmlns="http://www.w3.org/2000/svg" enable-background="new 0 0 68 68" viewBox="0 0 68 68"><path fill="#444" d="M41.89996,9.13C40.48999,6.06,37.38,4,33.92999,4c-3.46002,0-6.57001,2.06-7.97003,5.13H23.81C25.31995,4.90002,29.38,2,33.92999,2c4.53998,0,8.59998,2.90002,10.12,7.13"/><path fill="#feeb75" d="M57.48999,22.15002v39.31c0,2.51001-2.03003,4.53998-4.54004,4.53998H15.04999c-2.51001,0-4.54004-2.02997-4.54004-4.53998v-39.31c0-7.20001,5.83002-13.02002,13.02002-13.02002h20.94C51.65997,9.13,57.48999,14.95001,57.48999,22.15002z"/><path fill="#fe9967" d="M19.95539,31.90002h-4.69888c-2.6171,0-4.74349-2.11152-4.74349-4.74349v-5.01417c0-7.18903,5.82786-13.01689,13.01689-13.01689h20.9402c7.18903,0,13.01689,5.82786,13.01689,13.01689v5.01417c0,2.63197-2.11152,4.74349-4.72862,4.74349h-4.71376h-4.90706H24.86245H19.95539z"/><path fill="#efd96a" d="M22.04999,66h-7c-2.51001,0-4.54004-2.02997-4.54004-4.53998V27.16003c0,2.63,2.13,4.73999,4.75,4.73999h2.25v29.56C17.50995,63.97003,19.53998,66,22.04999,66z"/><path fill="#fe9967" d="M10.50995 43.04999v16.94H8.29999c-1.92999 0-3.48999-1.56-3.48999-3.47998v-9.97998c0-1.92004 1.56-3.48004 3.48999-3.48004H10.50995zM63.19 46.53003v9.97998c0 1.91998-1.56 3.47998-3.49005 3.47998h-2.20996v-16.94h2.20996C61.63 43.04999 63.19 44.60999 63.19 46.53003z"/><path fill="#ef8759" d="M30.52997,9.13c-7.19,0-13.02002,5.82001-13.02002,13.02002v9.75h-2.25c-2.62,0-4.75-2.10999-4.75-4.73999v-5.02002c0-7.19,5.83002-13.01001,13.02002-13.01001H30.52997z"/><path fill="#fff3ab" d="M27.45996,61.46002v-29.31h-3.53998v29.31c0,2.51001,2.02997,4.53998,4.53998,4.53998H32C29.48999,66,27.45996,63.97003,27.45996,61.46002z"/><path fill="#ffac88" d="M27.45996,31.90002v-9.76001c0-7.19,5.83002-13.01001,13.02002-13.01001H36.94c-7.19,0-13.02002,5.82001-13.02002,13.01001v9.76001H27.45996z"/><path fill="#fff3ab" d="M45.94695,66h7c2.51001,0,4.54004-2.02997,4.54004-4.53998V27.16003c0,2.63-2.13,4.73999-4.75,4.73999h-2.25v29.56C50.48699,63.97003,48.45696,66,45.94695,66z"/><path fill="#ffac88" d="M37.46697,9.13c7.19,0,13.02002,5.82001,13.02002,13.02002v9.75h2.25c2.62,0,4.75-2.10999,4.75-4.73999v-5.02002c0-7.19-5.83002-13.01001-13.02002-13.01001H37.46697z"/><path fill="#444" d="M20.93314 27.90746h2.95544c.54032 0 .97833.43801.97833.97833v5.43072c0 .54032-.43801.97833-.97833.97833h-2.95544c-.54032 0-.97833-.43801-.97833-.97833v-5.43072C19.95481 28.34547 20.39282 27.90746 20.93314 27.90746zM44.117 27.90746h2.95544c.54032 0 .97833.43801.97833.97833v5.43072c0 .54032-.43801.97833-.97833.97833H44.117c-.54032 0-.97833-.43801-.97833-.97833v-5.43072C43.13867 28.34547 43.57668 27.90746 44.117 27.90746z"/><path fill="#fe9967" d="M47.88,47.37v10.45001c0,1.81-1.47003,3.28003-3.29004,3.28003H23.40997c-1.81,0-3.27997-1.47003-3.27997-3.28003V47.37c0-1.64001,1.32996-2.96997,2.95996-2.96997h21.82001C46.54999,44.40002,47.88,45.72998,47.88,47.37z"/><path fill="#ef8759" d="M47.88,53.40002v4.41998c0,1.81-1.47003,3.28003-3.29004,3.28003H23.40997c-1.81,0-3.27997-1.47003-3.27997-3.28003v-4.41998c0,1.82001,1.46997,3.28998,3.27997,3.28998h21.17999C46.40997,56.69,47.88,55.22003,47.88,53.40002z"/><path fill="#fff" d="M53.35974 51.75159c-.55273 0-1 .44727-1 1v4.24023c0 1.23145-.63477 2.35547-1.69824 3.00488-.47168.28809-.62012.9043-.33203 1.375.18848.30859.51758.47852.85449.47852.17773 0 .35742-.04688.52051-.14648 1.66309-1.0166 2.65527-2.77832 2.65527-4.71191v-4.24023C54.35974 52.19885 53.91245 51.75159 53.35974 51.75159zM53.35974 47.76233c-.55273 0-1 .44727-1 1v.54199c0 .55273.44727 1 1 1 .55271 0 1-.44727 1-1v-.54199C54.35974 48.20959 53.91245 47.76233 53.35974 47.76233z"/><path fill="#444" d="M47.88,50.06702h-22.6521v2.16602c0,0.55273-0.44727,1-1,1s-1-0.44727-1-1v-2.16602H20.13v-2h27.75V50.06702z"/></svg>