<svg xmlns="http://www.w3.org/2000/svg" enable-background="new 0 0 68 68" viewBox="0 0 68 68"><path fill="#fe9967" d="M59.68446,51.41799H8.31256V8.66239c0-3.55776,2.88413-6.44189,6.44189-6.44189h38.48812c3.55775,0,6.44189,2.88413,6.44189,6.44189V51.41799z"/><path fill="#b5c48b" d="M22.25508,2.21804c-3.55994,0-6.44006,2.88989-6.44006,6.43994v42.76001h-7.5V8.65798c0-3.55005,2.88013-6.43994,6.44006-6.43994H22.25508z"/><path fill="#ffac88" d="M59.68446,8.65798v42.76001h-7.5V8.65798c0-3.55005-2.88013-6.43994-6.44006-6.43994h7.5C56.80434,2.21804,59.68446,5.10793,59.68446,8.65798z"/><path fill="#444" d="M21.22811 65.78196h-6.32696c-1.01885 0-1.84478-.82594-1.84478-1.84478v-5.78642h10.01653v5.78642C23.07289 64.95602 22.24696 65.78196 21.22811 65.78196zM53.09588 65.78196h-6.32696c-1.01884 0-1.84478-.82594-1.84478-1.84478v-5.78642h10.01653v5.78642C54.94066 64.95602 54.11472 65.78196 53.09588 65.78196z"/><path fill="#ef8759" d="M6.50736 30.67452H2.3852c-.60527 0-1.09594-.49067-1.09594-1.09594V21.6261c0-.60527.49067-1.09594 1.09594-1.09594h4.12216c.60527 0 1.09594.49067 1.09594 1.09594v7.95248C7.60331 30.18386 7.11264 30.67452 6.50736 30.67452zM61.49264 30.67452h4.12216c.60527 0 1.09595-.49067 1.09595-1.09594V21.6261c0-.60527-.49068-1.09594-1.09595-1.09594h-4.12216c-.60527 0-1.09594.49067-1.09594 1.09594v7.95248C60.39669 30.18386 60.88736 30.67452 61.49264 30.67452z"/><circle cx="48.994" cy="42.279" r="4.488" fill="#ededed"/><path fill="#ef8759" d="M22.25508,2.21804c-3.55994,0-6.44006,2.88989-6.44006,6.43994v42.76001h-7.5V8.65798c0-3.55005,2.88013-6.43994,6.44006-6.43994H22.25508z"/><path fill="#ffac88" d="M29.43514,2.21804c-3.56006,0-6.44006,2.88989-6.44006,6.43994v42.76001h-2.80994V8.65798c0-3.55005,2.87988-6.43994,6.43994-6.43994H29.43514z"/><path fill="#e2e2e2" d="M54.92413,31.86366V16.37658c0-1.15073-0.93285-2.08359-2.08359-2.08359H15.15648c-1.15073,0-2.08359,0.93285-2.08359,2.08359v15.48709c0,1.15073,0.93285,2.08359,2.08359,2.08359h37.68406C53.99128,33.94725,54.92413,33.0144,54.92413,31.86366z"/><path fill="#d3d3d3" d="M20.1451,33.94802h-4.98999c-1.15002,0-2.08008-0.93005-2.08008-2.08008V16.37795c0-1.1499,0.93005-2.07996,2.08008-2.07996h4.98999c-1.15002,0-2.08008,0.93005-2.08008,2.07996v15.48999C18.06502,33.01796,18.99508,33.94802,20.1451,33.94802z"/><path fill="#ededed" d="M26.10506 33.94802h-2.75c-1.1499 0-2.08008-.93005-2.08008-2.08008V16.37795c0-1.1499.93018-2.07996 2.08008-2.07996h2.75c-1.1499 0-2.08008.93005-2.08008 2.07996v15.48999C24.02498 33.01796 24.95516 33.94802 26.10506 33.94802zM54.92413 16.37795v15.48999c0 1.15002-.93005 2.08008-2.08008 2.08008h-4.98999c1.15002 0 2.08008-.93005 2.08008-2.08008V16.37795c0-1.1499-.93005-2.07996-2.08008-2.07996h4.98999C53.99408 14.29799 54.92413 15.22805 54.92413 16.37795z"/><circle cx="19.003" cy="42.279" r="4.488" fill="#ededed"/><path fill="#feeb75" d="M60.08033,58.15076H7.9167c-0.92598,0-1.67663-0.75065-1.67663-1.67663v-4.21961c0-0.92598,0.75065-1.67663,1.67663-1.67663h52.16363c0.92598,0,1.67663,0.75065,1.67663,1.67663v4.21961C61.75696,57.40011,61.00631,58.15076,60.08033,58.15076z"/><path fill="#b5c48b" d="M13.045,58.14797H7.91512c-0.92004,0-1.67004-0.75-1.67004-1.66992v-4.22009c0-0.93005,0.75-1.68005,1.67004-1.68005H13.045c-0.92993,0-1.67993,0.75-1.67993,1.68005v4.22009C11.36507,57.39797,12.11507,58.14797,13.045,58.14797z"/><path fill="#efd96a" d="M13.045,58.14797H7.91512c-0.92004,0-1.67004-0.75-1.67004-1.66992v-4.22009c0-0.93005,0.75-1.68005,1.67004-1.68005H13.045c-0.92993,0-1.67993,0.75-1.67993,1.68005v4.22009C11.36507,57.39797,12.11507,58.14797,13.045,58.14797z"/><path fill="#fff3ab" d="M21.76509 58.14797h-1.9801c-.91992 0-1.66992-.75-1.66992-1.66992v-4.22009c0-.93005.75-1.68005 1.66992-1.68005h1.9801c-.92004 0-1.67004.75-1.67004 1.68005v4.22009C20.09505 57.39797 20.84505 58.14797 21.76509 58.14797zM61.72418 52.25795v4.22009c0 .91992-.75 1.66992-1.67993 1.66992h-5.12012c.92004 0 1.67004-.75 1.67004-1.66992v-4.22009c0-.93005-.75-1.68005-1.67004-1.68005h5.12012C60.97418 50.5779 61.72418 51.3279 61.72418 52.25795z"/><path fill="#444" d="M40.80027 39.07717H27.19676c-.55273 0-1 .44727-1 1s.44727 1 1 1h13.60351c.55273 0 1-.44727 1-1S41.353 39.07717 40.80027 39.07717zM40.80027 42.64041H27.19676c-.55273 0-1 .44727-1 1s.44727 1 1 1h13.60351c.55273 0 1-.44727 1-1S41.353 42.64041 40.80027 42.64041zM40.80027 46.20364H27.19676c-.55273 0-1 .44727-1 1s.44727 1 1 1h13.60351c.55273 0 1-.44727 1-1S41.353 46.20364 40.80027 46.20364z"/><polygon fill="#444" points="44.066 7.965 44.066 10.298 23.932 10.316 23.916 7.983"/><path fill="#fff" d="M50.21175 19.45119l.66797.00391c.00195 0 .00391 0 .00586 0 .5498 0 .99707-.44434 1-.99414.00293-.55273-.44141-1.00293-.99414-1.00586l-.66797-.00391c-.00195 0-.00391 0-.00586 0-.5498 0-.99707.44434-1 .99414C49.21468 18.99807 49.65902 19.44826 50.21175 19.45119zM38.89632 19.47951c.00098 0 .00195 0 .00293 0l7.42676-.01953c.55176-.00098.99805-.4502.99707-1.00293-.00098-.55078-.44922-.99707-1-.99707-.00098 0-.00195 0-.00293 0l-7.42676.01953c-.55176.00098-.99805.4502-.99707 1.00293C37.8973 19.03322 38.34554 19.47951 38.89632 19.47951z"/><path fill="#444" d="M5.44633 20.53002h-2v-2.94629c0-1.97266 1.60547-3.57813 3.57812-3.57813H8.3145v2H7.02446c-.87012 0-1.57813.70801-1.57813 1.57813V20.53002zM64.55376 20.53002h-2v-2.94629c0-.87012-.70801-1.57813-1.57813-1.57813h-1.29004v-2h1.29004c1.97266 0 3.57813 1.60547 3.57813 3.57813V20.53002z"/><rect width="2" height="19.654" x="33" y="14.293" fill="#666"/></svg>