<svg xmlns="http://www.w3.org/2000/svg" enable-background="new 0 0 68 68" viewBox="0 0 68 68"><path fill="#e2e2e2" d="M62.14364,22.30145H5.8536L32.80569,2.1472c0.71029-0.53114,1.68553-0.53105,2.39572,0.0002L62.14364,22.30145z"/><path fill="#d3d3d3" d="M34.55355,1.82147L12.12362,22.30145H5.8536l26.94995-20.1499C33.31356,1.76141,33.96359,1.66156,34.55355,1.82147z"/><path fill="#ededed" d="M62.14364,22.30145h-6.27002L34.61361,1.83148c0.20996,0.08008,0.40991,0.17993,0.58997,0.32007L62.14364,22.30145z"/><circle cx="34.004" cy="14.781" r="4" fill="#666"/><rect width="4.408" height="12.425" x="12.048" y="52.264" fill="#fe9967" transform="rotate(-90 14.252 58.476)"/><rect width="22.907" height="8.236" x="2.798" y="40.718" fill="#feeb75" transform="rotate(-90 14.252 44.836)"/><rect width="4.408" height="12.425" x="12.048" y="24.966" fill="#fe9967" transform="rotate(-90 14.252 31.179)"/><rect width="2.912" height="22.907" x="10.134" y="33.382" fill="#efd96a"/><rect width="3.447" height="4.408" x="8.039" y="28.975" fill="#ef8759"/><rect width="3.229" height="4.408" x="8.039" y="56.272" fill="#ef8759"/><rect width="2.912" height="22.907" x="15.677" y="33.382" fill="#fff3ab"/><rect width="3.447" height="4.408" x="17.237" y="28.975" fill="#ffac88"/><rect width="3.229" height="4.408" x="17.455" y="56.272" fill="#ffac88"/><rect width="4.408" height="12.425" x="31.686" y="52.264" fill="#fe9967" transform="rotate(-90 33.89 58.476)"/><rect width="22.907" height="8.236" x="22.436" y="40.718" fill="#feeb75" transform="rotate(-90 33.89 44.836)"/><rect width="4.408" height="12.425" x="31.686" y="24.966" fill="#fe9967" transform="rotate(-90 33.89 31.179)"/><rect width="2.912" height="22.907" x="29.772" y="33.382" fill="#efd96a"/><rect width="3.447" height="4.408" x="27.677" y="28.975" fill="#ef8759"/><rect width="3.229" height="4.408" x="27.677" y="56.272" fill="#ef8759"/><rect width="2.912" height="22.907" x="35.315" y="33.382" fill="#fff3ab"/><rect width="3.447" height="4.408" x="36.876" y="28.975" fill="#ffac88"/><rect width="3.229" height="4.408" x="37.094" y="56.272" fill="#ffac88"/><rect width="4.408" height="12.425" x="51.324" y="52.264" fill="#fe9967" transform="rotate(-90 53.528 58.476)"/><rect width="22.907" height="8.236" x="42.075" y="40.718" fill="#feeb75" transform="rotate(-90 53.528 44.836)"/><rect width="4.408" height="12.425" x="51.324" y="24.966" fill="#fe9967" transform="rotate(-90 53.528 31.179)"/><rect width="2.912" height="22.907" x="49.41" y="33.382" fill="#efd96a"/><rect width="3.447" height="4.408" x="47.315" y="28.975" fill="#ef8759"/><rect width="3.229" height="4.408" x="47.315" y="56.272" fill="#ef8759"/><rect width="2.912" height="22.907" x="54.954" y="33.382" fill="#fff3ab"/><rect width="3.447" height="4.408" x="56.514" y="28.975" fill="#ffac88"/><rect width="3.229" height="4.408" x="56.732" y="56.272" fill="#ffac88"/><path fill="#666" d="M65,28.98914H3c-0.55228,0-1-0.44772-1-1v-4.68633c0-0.55228,0.44772-1,1-1h62c0.55228,0,1,0.44772,1,1v4.68633C66,28.54142,65.55228,28.98914,65,28.98914z"/><path fill="#444" d="M33.62488,22.30281H3c-0.55228,0-1,0.44772-1,1v4.68628c0,0.55228,0.44772,1,1,1h30.62488V22.30281z"/><path fill="#666" d="M65,66.2515H3c-0.55228,0-1-0.44772-1-1v-3.57148c0-0.55228,0.44772-1,1-1h62c0.55228,0,1,0.44772,1,1v3.57148C66,65.80378,65.55228,66.2515,65,66.2515z"/><path fill="#444" d="M33.74988,60.68002H3c-0.55228,0-1,0.44772-1,1v3.57141c0,0.55228,0.44772,1,1,1h30.74988V60.68002z"/><path fill="#fff" d="M54.495 49.91623c.55273 0 1-.44727 1-1v-.33887c0-.55273-.44727-1-1-1s-1 .44727-1 1v.33887C53.495 49.46896 53.94226 49.91623 54.495 49.91623zM54.495 46.73557c.55273 0 1-.44727 1-1v-5.94629c0-.55273-.44727-1-1-1s-1 .44727-1 1v5.94629C53.495 46.2883 53.94226 46.73557 54.495 46.73557z"/></svg>