<svg xmlns="http://www.w3.org/2000/svg" enable-background="new 0 0 68 68" viewBox="0 0 68 68"><path fill="#fe9967" d="M57.97858,60.23289v-7.98653c0-1.7906-0.83172-3.47961-2.25103-4.5713l-1.26505-0.97303c-1.41932-1.09168-2.25103-2.7807-2.25103-4.5713V25.86926c0-1.79059,0.83172-3.47961,2.25103-4.5713l1.26505-0.97303c1.41931-1.09168,2.25103-2.7807,2.25103-4.5713V7.76711C57.97858,4.58202,55.39656,2,52.21148,2h-0.00001H15.7876h-0.00001c-3.18509,0-5.76711,2.58202-5.76711,5.76711v7.98653c0,1.79059,0.83172,3.47961,2.25103,4.5713l1.26505,0.97303c1.41931,1.09168,2.25103,2.7807,2.25103,4.5713v16.26148c0,1.7906-0.83172,3.47961-2.25103,4.5713l-1.26505,0.97303c-1.41931,1.09169-2.25103,2.7807-2.25103,4.5713v7.98653c0,3.18509,2.58202,5.76711,5.76711,5.76711h36.42389C55.39656,66,57.97858,63.41798,57.97858,60.23289z"/><path fill="#ffac88" d="M52.20956,25.87V42.13c0,1.78998,0.82996,3.47998,2.25,4.57001l1.26996,0.97998c1.42004,1.08997,2.25,2.77997,2.25,4.57001v7.97998c0,3.19-2.57996,5.77002-5.76996,5.77002h-7.15002c3.17999,0,5.76001-2.58002,5.76001-5.77002V52.25c0-1.79004-0.83002-3.48004-2.25-4.57001l-1.26001-0.97998c-1.41998-1.09003-2.25-2.78003-2.25-4.57001V25.87c0-1.79004,0.83002-3.47998,2.25-4.57001l1.26001-0.97998c1.41998-1.09003,2.25-2.78003,2.25-4.57001V7.76996c0-3.19-2.58002-5.76996-5.76001-5.76996h7.15002c3.19,0,5.76996,2.57996,5.76996,5.76996V15.75c0,1.78998-0.82996,3.47998-2.25,4.57001l-1.26996,0.97998C53.03951,22.39001,52.20956,24.07996,52.20956,25.87z"/><path fill="#ef8759" d="M22.94047,25.87V42.13c0,1.78998-0.82996,3.47998-2.25,4.57001l-1.26996,0.97998c-1.42004,1.08997-2.25,2.77997-2.25,4.57001v7.97998c0,3.19,2.57996,5.77002,5.76996,5.77002h-7.15997c-3.17999,0-5.76001-2.58002-5.76001-5.77002V52.25c0-1.79004,0.83002-3.48004,2.25-4.57001l1.26001-0.97998c1.41998-1.09003,2.25-2.78003,2.25-4.57001V25.87c0-1.79004-0.83002-3.47998-2.25-4.57001l-1.26001-0.97998c-1.41998-1.09003-2.25-2.78003-2.25-4.57001V7.76996c0-1.58997,0.65002-3.03998,1.69-4.07996C12.75047,2.64001,14.19047,2,15.78049,2h7.15997c-1.58997,0-3.03998,0.64001-4.07996,1.69c-1.05005,1.03998-1.69,2.48999-1.69,4.07996V15.75c0,1.78998,0.82996,3.47998,2.25,4.57001l1.26996,0.97998C22.11051,22.39001,22.94047,24.07996,22.94047,25.87z"/><path fill="#ffac88" d="M34.12954,25.87V42.13c0,1.78998-0.83002,3.47998-2.25,4.57001l-1.26001,0.97998c-1.41998,1.08997-2.25,2.77997-2.25,4.57001v7.97998c0,3.19,2.58002,5.77002,5.76001,5.77002h-4.08002c-3.17999,0-5.76001-2.58002-5.76001-5.77002V52.25c0-1.79004,0.83002-3.48004,2.25-4.57001l1.26001-0.97998c1.41998-1.09003,2.25-2.78003,2.25-4.57001V25.87c0-1.79004-0.83002-3.47998-2.25-4.57001l-1.26001-0.97998c-1.41998-1.09003-2.25-2.78003-2.25-4.57001V7.76996c0-1.58997,0.65002-3.03998,1.69-4.07996C27.01955,2.64001,28.45956,2,30.04952,2h4.08002c-1.59003,0-3.03003,0.64001-4.07001,1.69c-1.03998,1.03998-1.69,2.48999-1.69,4.07996V15.75c0,1.78998,0.83002,3.47998,2.25,4.57001l1.26001,0.97998C33.29952,22.39001,34.12954,24.07996,34.12954,25.87z"/><rect width="19.426" height="51.672" x="24.287" y="14.328" fill="#e2e2e2"/><rect width="5.37" height="51.67" x="38.34" y="14.33" fill="#ededed"/><rect width="3.585" height="51.67" x="24.29" y="14.33" fill="#d3d3d3"/><circle cx="37.86" cy="37.667" r="2" fill="#666"/><path fill="#fff" d="M18.87535 17.62628l-1.26563-.97314c-.9541-.7334-1.58887-1.80029-1.78808-3.00391-.08887-.54443-.59668-.91016-1.14941-.82373-.54492.09033-.91309.60498-.82324 1.1499.28125 1.70557 1.18457 3.21973 2.54199 4.26367l1.26465.97266c.97363.74902 1.6123 1.8374 1.79883 3.06396.0752.49512.50098.84961.9873.84961.0498 0 .10059-.00391.15137-.01172.5459-.08301.9209-.59277.83789-1.13867C21.16734 20.23615 20.26011 18.69171 18.87535 17.62628zM14.74937 10.93732c.55273 0 1-.44775 1-1v-.625c0-.55225-.44727-1-1-1s-1 .44775-1 1v.625C13.74937 10.48956 14.19664 10.93732 14.74937 10.93732z"/></svg>