<svg xmlns="http://www.w3.org/2000/svg" enable-background="new 0 0 68 68" viewBox="0 0 68 68"><circle cx="14" cy="48.53" r="5.178" fill="#a7d08c"/><circle cx="5.811" cy="57.963" r="3.289" fill="#a7d08c"/><path fill="#a7d08c" d="M65.47399,28.09731c0,6.01251-4.8784,10.87536-10.87536,10.87536c-1.49142,0-2.90527-0.29519-4.19471-0.83902c-3.24721,3.06069-7.61298,4.92505-12.42898,4.92505c-4.45908,0-8.52938-1.61583-11.69883-4.27246c-2.03534,1.46041-4.53665,2.33043-7.23994,2.33043c-6.86708,0-12.42899-5.562-12.42899-12.42898c0-6.86708,5.5619-12.42899,12.42899-12.42899c0.96324,0,1.91092,0.10876,2.81196,0.3262c3.01413-5.84154,9.1044-9.83437,16.12681-9.83437c7.2864,0,13.57865,4.28801,16.46817,10.48696c0.04666-0.01555,0.10886-0.01555,0.15552-0.01555C60.59559,17.22195,65.47399,22.10035,65.47399,28.09731z"/><path fill="#9ac181" d="M65.42726,27.13856c-2.46008-3-6.96008-4.91998-10.83008-4.91998c-0.05005,0-0.10999,0-0.1499,0.02002c-2.89014-6.20001-9.19006-10.48999-16.47009-10.48999c-7.02002,0-13.10999,3.98999-16.13001,9.83996c-0.8999-0.21997-1.84998-0.32996-2.81006-0.32996c-4.37988,0-9.43994,2.25995-12.30994,5.67999c0.84998-6.04004,6.03992-10.67999,12.30994-10.67999c0.96008,0,1.91016,0.10999,2.81006,0.32996c3.02002-5.84997,9.10999-9.83997,16.13001-9.83997c7.28003,0,13.57996,4.28998,16.47009,10.48999c0.03992-0.02002,0.09985-0.02002,0.1499-0.02002C60.27711,17.21858,64.94728,21.58857,65.42726,27.13856z"/><path fill="#badda4" d="M65.47719,28.29537c0,6.01001-4.88,10.87-10.88,10.87c-1.48999,0-2.8999-0.28998-4.18994-0.83002c-3.25,3.06006-7.62012,4.92004-12.43005,4.92004c-4.46008,0-8.52991-1.62-11.70008-4.27002c-2.03992,1.46002-4.53992,2.33002-7.23999,2.33002c-6.86987,0-12.42993-5.56-12.42993-12.42999c0-0.86005,0.09009-1.69,0.25-2.5c1.15991,5.66998,6.16992,9.92999,12.17993,9.92999c2.70007,0,5.20007-0.87,7.23999-2.33002c3.17017,2.65002,7.23999,4.27002,11.70008,4.27002c4.80994,0,9.18005-1.85999,12.43005-4.92004c1.29004,0.54004,2.69995,0.83002,4.18994,0.83002c5.14001,0,9.45996-3.57001,10.59009-8.37C65.37721,26.59536,65.47719,27.43538,65.47719,28.29537z"/><path fill="#fff" d="M37.2859 13.79103c-1.88867-.39551-3.81445.06641-5.28516 1.26172-1.47071 1.19531-2.31446 2.96777-2.31446 4.86133 0 .55273.44727 1 1 1s1-.44727 1-1c0-1.28906.57422-2.49512 1.57617-3.30957 1.0166-.82519 2.30078-1.12891 3.61523-.85644 1.60352.33496 2.9043 1.63574 3.23828 3.23828.40332 1.93848-.49121 3.83789-2.22656 4.72559-1.81348.92676-2.93945 2.69336-2.93848 4.65234l.08984 2.08984c.02344.53711.46582.95703.99805.95703.01465 0 .0293 0 .04395-.00098.55176-.02344.97949-.49023.95605-1.04199l-.08887-2.04688c0-1.16113.70898-2.24512 1.85059-2.82813 2.54785-1.30469 3.86328-4.08398 3.27344-6.91504C41.57985 16.20899 39.65602 14.28517 37.2859 13.79103zM36.03981 33.67677c-.55273 0-1 .44727-1 1v.39063c0 .55273.44727 1 1 1s1-.44727 1-1v-.39063C37.03981 34.12403 36.59254 33.67677 36.03981 33.67677zM11.09254 27.8711c-.55273.0166-.9873.47656-.97168 1.02832.00586.18555.01563.37109.0293.55469.04004.52539.47754.9248.99609.9248.02539 0 .05078-.00098.07617-.00293.55078-.04199.96387-.52148.92188-1.07227-.01172-.15234-.01953-.30664-.02344-.46094C12.10426 28.28907 11.64235 27.8838 11.09254 27.8711zM19.0359 19.7588c-3.56641 0-6.78516 2.12109-8.20019 5.4043-.21875.50684.01465 1.09473.52246 1.31348.12891.05566.2627.08203.39551.08203.38672 0 .75488-.22559.91797-.60449 1.09863-2.54883 3.59668-4.19531 6.36426-4.19531.55273 0 1-.44727 1-1S19.58864 19.7588 19.0359 19.7588z"/></svg>