<svg xmlns="http://www.w3.org/2000/svg" enable-background="new 0 0 68 68" viewBox="0 0 68 68"><path fill="#fe9967" d="M61.66457,60.00081H6.33543c-1.23677,0-2.23937-1.0026-2.23937-2.23937v-7.74742c0-3.82848,3.1036-6.93208,6.93208-6.93208h45.9437c3.82848,0,6.93208,3.1036,6.93208,6.93208v7.74742C63.90393,58.99821,62.90133,60.00081,61.66457,60.00081z"/><path fill="#e2e2e2" d="M60.5631,60.00081H7.43691l1.66489,3.62177c0.54653,1.43118,1.9196,2.37661,3.45158,2.37661h42.89325c1.53198,0,2.90504-0.94543,3.45158-2.37661L60.5631,60.00081z"/><path fill="#d3d3d3" d="M33.59998,60.00081H7.43689l1.66492,3.62177c0.54651,1.43116,1.91956,2.37659,3.45154,2.37659h21.04663V60.00081z"/><path fill="#fe9967" d="M40.08454,43.08194c-0.80836-7.55928,0.77559-17.09576,2.43601-25.05922H25.4794c1.66042,7.96346,3.24437,17.49995,2.43601,25.05922H40.08454z"/><path fill="#ef8759" d="M32.91998,43.08077h-5c0.79999-7.56-0.78003-17.08996-2.44-25.06h5C32.13995,25.9908,33.71997,35.52077,32.91998,43.08077z"/><path fill="#444" d="M46.58997,5.6708v8.67999c0,2.03003-1.64001,3.66998-3.66998,3.66998H25.07996c-2.02997,0-3.66998-1.63995-3.66998-3.66998V5.6708c0-2.02997,1.64001-3.66998,3.66998-3.66998h17.84003C44.94995,2.00081,46.58997,3.64083,46.58997,5.6708z"/><path fill="#333" d="M30.07996,18.02077h-5c-2.02997,0-3.66998-1.63995-3.66998-3.66998V5.6708c0-2.02997,1.64001-3.66998,3.66998-3.66998h5c-2.02997,0-3.66998,1.64001-3.66998,3.66998v8.67999C26.40997,16.38082,28.04999,18.02077,30.07996,18.02077z"/><path fill="#ffac88" d="M35.08054,43.08077h5c-0.79999-7.56,0.78003-17.08996,2.44-25.06h-5C35.86057,25.9908,34.28056,35.52077,35.08054,43.08077z"/><path fill="#666" d="M37.91998,18.02077h5c2.02997,0,3.66998-1.63995,3.66998-3.66998V5.6708c0-2.02997-1.64001-3.66998-3.66998-3.66998h-5c2.02997,0,3.66998,1.64001,3.66998,3.66998v8.67999C41.58997,16.38082,39.94995,18.02077,37.91998,18.02077z"/><path fill="#ffac88" d="M63.89996,50.01082v5.07996c0-3.82996-3.09998-6.92999-6.92999-6.92999h-45.94c-3.83002,0-6.92999,3.10004-6.92999,6.92999v-5.07996c0-3.83002,3.09998-6.93005,6.92999-6.93005h45.94C60.79999,43.08077,63.89996,46.18081,63.89996,50.01082z"/><path fill="#ef8759" d="M63.89996,52.68087v5.07996c0,1.23999-1,2.23999-2.23999,2.23999H6.33997c-1.23999,0-2.23999-1-2.23999-2.23999v-5.07996c0,1.23999,1,2.23999,2.23999,2.23999h55.32001C62.89996,54.92086,63.89996,53.92086,63.89996,52.68087z"/><path fill="#fff" d="M56.97205 47.08187h-6.12207c-.55273 0-1 .44727-1 1s.44727 1 1 1h6.12207c.51367 0 .93164.41797.93164.93262v2.36133c0 .55273.44727 1 1 1s1-.44727 1-1v-2.36133C59.90369 48.3973 58.58826 47.08187 56.97205 47.08187zM46.72498 47.08187h-.75c-.55273 0-1 .44727-1 1s.44727 1 1 1h.75c.55273 0 1-.44727 1-1S47.27771 47.08187 46.72498 47.08187z"/></svg>