<svg xmlns="http://www.w3.org/2000/svg" enable-background="new 0 0 68 68" viewBox="0 0 68 68"><path fill="#e2e2e2" d="M36.11022 50.09996l3.10885 6.01317-.90022 7.95907c-.11903 1.05238 1.18965 1.63019 1.88715.83321l10.28508-11.75205c.21803-.24913.30984-.58444.24915-.90989l-2.16394-11.603L36.11022 50.09996zM17.7483 31.71369l-6.01317-3.10885-7.95907.90022c-1.05239.11903-1.63019-1.18965-.83321-1.88715l11.75205-10.28508c.24913-.21803.58444-.30984.90988-.24915l11.603 2.16393L17.7483 31.71369z"/><path fill="#a7d08c" d="M49.81436,39.70592c-6.99037,6.99037-14.47204,12.2132-21.01803,15.11032c-0.74559,0.32998-1.6188,0.14861-2.19534-0.42793L13.43558,41.22291c-0.57588-0.57588-0.75771-1.44786-0.42898-2.19298c2.89088-6.55258,8.12147-14.02787,15.11269-21.01908c7.85132-7.85132,15.96828-11.8019,22.59128-13.76048c0.29047,3.21191,1.64339,6.32424,4.0834,8.76425c2.43171,2.4317,5.55233,3.79294,8.78086,4.0834C61.62457,23.72933,57.67398,31.84629,49.81436,39.70592z"/><path fill="#e2e2e2" d="M63.57483,17.09802c-3.22853-0.29046-6.34916-1.6517-8.78086-4.0834c-2.44001-2.44001-3.79294-5.55233-4.0834-8.76425c8.52363-2.51478,14.60725-1.74298,14.60725-1.74298S66.08131,8.5827,63.57483,17.09802z"/><circle cx="46.656" cy="21.153" r="5.747" fill="#fff"/><path fill="#ededed" d="M50.49052,16.90309c-2.25583-2.03537-5.72517-1.98633-7.89812,0.18662c-2.17315,2.17315-2.22209,5.6424-0.18682,7.89833L50.49052,16.90309z"/><path fill="#fe9967" d="M15.17952,42.97554l9.46385,9.46386c-0.11823,4.27992-2.83089,8.63567-8.20784,9.80765c-0.144,0.0251-0.28262,0.05566-0.43273,0.08681c-3.90922,0.49817-8.18434,1.31605-10.87883,3.09303c-0.759,0.50055-1.75293-0.12788-1.55819-1.01598c0.55518-2.53196,2.10745-6.6128,6.38256-11.39388c0,0-1.79036-0.91656-4.29193-0.01808c-0.84349,0.30295-1.64343-0.56222-1.24645-1.36575C5.98399,48.44719,9.33992,43.50727,15.17952,42.97554z"/><path fill="#ffac88" d="M22.33335,50.12891l2.31168,2.31168c-0.12294,4.27913-2.83033,8.63146-8.21086,9.80716c-0.14036,0.02356-0.28167,0.05782-0.42789,0.08725c-3.91025,0.497-8.18701,1.31303-10.88175,3.09155c-0.75645,0.49926-1.75269-0.12604-1.55871-1.01138c0.13157-0.60049,0.31916-1.28814,0.58578-2.05161c2.65211-1.26998,6.23021-1.91831,9.543-2.34025c0.14622-0.02942,0.28753-0.06368,0.42789-0.08725C19.50303,58.76037,22.21041,54.40804,22.33335,50.12891z"/><path fill="#ef8759" d="M15.17955,42.97511l2.31169,2.31168c-5.06983,0.4562-8.26767,4.24776-10.04973,7.32439c-0.54116,0.03979-1.1475,0.15561-1.80148,0.39465c-0.83341,0.30463-1.62176-0.57748-1.22876-1.37306C5.98594,48.44502,9.3417,43.5055,15.17955,42.97511z"/><path fill="#feeb75" d="M16.62298,44.41899l6.77048,6.77048c-0.67964,1.37569-1.95569,2.50729-3.83628,2.91689c-0.07687,0.01121-0.1472,0.02896-0.23141,0.04752c-2.69492,0.344-5.71049,0.9692-6.85485,2.59951c0,0-0.28953-3.26976,3.59856-7.6175c0,0-1.6178-0.82507-3.58152,0.70522C12.48795,49.84111,13.64246,46.03354,16.62298,44.41899z"/><path fill="#9ac181" d="M31.75448,23.20646c-6.76413,6.76413-12.29995,13.77729-16.16756,20.16779l-2.15134-2.15134c-0.57588-0.57588-0.75771-1.44786-0.42898-2.19298c2.89088-6.55258,8.12147-14.02787,15.11269-21.01908c7.85132-7.85132,15.96828-11.8019,22.59128-13.76048c0.13282,1.47724,0.48975,2.94637,1.08729,4.32402C45.64788,11.62035,38.7261,16.23484,31.75448,23.20646z"/><path fill="#d3d3d3" d="M65.4091,3.69426c-2.2077,0.49795-4.76392,1.2117-7.56916,2.25755c-1.90893,0.71365-3.92586,1.56852-6.04208,2.62258c-0.59754-1.37765-0.95446-2.84678-1.08729-4.32402c8.52363-2.51478,14.60725-1.74298,14.60725-1.74298S65.36756,2.92246,65.4091,3.69426z"/><path fill="#badda4" d="M44.61874,36.07072c-6.76413,6.76413-13.77729,12.29995-20.16779,16.16756l2.15134,2.15134c0.57588,0.57588,1.44785,0.75771,2.19298,0.42898c6.55258-2.89088,14.02787-8.12147,21.01908-15.11269c7.85132-7.85132,11.8019-15.96828,13.76048-22.59129c-1.47724-0.13282-2.94637-0.48974-4.32402-1.08729C56.20485,22.17732,51.59037,29.0991,44.61874,36.07072z"/><path fill="#ededed" d="M64.13094,2.4161c-0.49796,2.2077-1.2117,4.76392-2.25755,7.56916c-0.71365,1.90893-1.56852,3.92586-2.62258,6.04208c1.37765,0.59754,2.84678,0.95447,4.32402,1.08729C66.08961,8.591,65.31782,2.50739,65.31782,2.50739S64.90274,2.45764,64.13094,2.4161z"/><path fill="#fff" d="M34.51724 44.41045l-.56543.3916c-.45508.3125-.57031.93555-.25781 1.39063.19434.28223.50684.43359.8252.43359.19531 0 .39258-.05664.56543-.17578l.5791-.40137c.45215-.31641.5625-.93945.24609-1.39258C35.59439 44.20537 34.97232 44.09306 34.51724 44.41045zM45.59732 35.05205c-2.5166 2.5166-5.15723 4.85938-7.84766 6.96289-.43457.34082-.51172.96875-.17188 1.4043.19727.25195.49121.38379.78906.38379.21484 0 .43262-.06934.61523-.21191 2.75391-2.1543 5.45605-4.55078 8.0293-7.125.39063-.39063.39063-1.02344 0-1.41406S45.98794 34.66142 45.59732 35.05205z"/></svg>