<svg xmlns="http://www.w3.org/2000/svg" enable-background="new 0 0 68 68" viewBox="0 0 68 68"><path fill="#fe9967" d="M64.99841,32.53046h-62c-0.55228,0-1-0.44771-1-1v-9.04399c0-0.55228,0.44772-1,1-1h62c0.55228,0,1,0.44772,1,1v9.04399C65.99841,32.08275,65.55069,32.53046,64.99841,32.53046z"/><path fill="#ffac88" d="M66.00159,22.48502V31.535c0,0.55228-0.44772,1-1,1h-4.59997V21.48502h4.59997C65.55388,21.48502,66.00159,21.93273,66.00159,22.48502z"/><path fill="#ef8759" d="M7.60157,21.48502V32.535H3.0016c-0.55228,0-1-0.44772-1-1v-9.04999c0-0.55228,0.44772-1,1-1H7.60157z"/><rect width="2.64" height="11.05" x="15.362" y="21.485" fill="#ffac88"/><path fill="#fe9967" d="M13.23167 32.53046H5.71494v29.1125c0 .55228.44772 1 1 1h5.51673c.55228 0 1-.44772 1-1V32.53046zM62.28187 32.53046h-7.51674v29.1125c0 .55228.44772 1 1 1h5.51674c.55228 0 1-.44772 1-1V32.53046z"/><path fill="#ffac88" d="M62.28163,32.535v29.10999c0,0.55228-0.44772,1-1,1h-2.76001V32.535H62.28163z"/><path fill="#e2e2e2" d="M54.76514,50.2155H33.12123c-0.55228,0-1-0.44772-1-1V32.53046h22.64391V50.2155z"/><rect width="11.509" height="17.685" x="43.257" y="32.53" fill="#d3d3d3"/><path fill="#a7d08c" d="M36.346,20.64573c0.28878,0.3283,0.07695,0.84076-0.36029,0.84076L12.7566,21.48648c-2.63172,0-3.875-1.80557-3.875-4.03286v-0.00001c0-2.22729,1.24328-4.03286,3.875-4.03286h23.39512c0.41372,0,0.64174,0.47491,0.39049,0.8036C34.78872,16.5183,34.6075,18.6693,36.346,20.64573z"/><path fill="#9ac181" d="M36.54244,14.22501c-0.85027,1.11281-1.32622,2.18773-1.39082,3.22998H12.76161c-1.31995,0-2.28992,0.45001-2.93005,1.17999c-0.21997,0.25-0.3999,0.53003-0.53003,0.84003c-0.27991-0.59003-0.41992-1.28003-0.41992-2.02002c0-1.10999,0.31006-2.12,0.94995-2.84998c0.64014-0.73004,1.61011-1.17999,2.93005-1.17999h23.38816C36.56133,13.42502,36.79231,13.89798,36.54244,14.22501z"/><path fill="#feeb75" d="M32.29434,12.57999c0.28878,0.3283,0.07695,0.84076-0.36028,0.84076l-17.37094-0.00001c-2.63172,0-3.875-1.80557-3.875-4.03286V9.38787c0-2.22729,1.24328-4.03286,3.875-4.03286h17.53695c0.41372,0,0.64174,0.47491,0.39049,0.8036C30.73706,8.45256,30.55584,10.60356,32.29434,12.57999z"/><path fill="#fff48b" d="M32.49534,6.16223c-0.3501,0.45001-0.63001,0.89996-0.85999,1.33002C31.99534,6.74225,32.41526,6.2522,32.49534,6.16223z"/><path fill="#efd96a" d="M32.29539,12.58221c0.28992,0.33002,0.07996,0.84003-0.36011,0.84003H14.56541c-1.64014,0-2.73999-0.70001-3.34009-1.77002c-0.10999-0.58002,0.1001-0.78003,0.41992-1.14001c0.64014-0.72998,1.61011-1.17999,2.92017-1.17999h16.52991C30.99534,10.46222,31.38535,11.54224,32.29539,12.58221z"/><path fill="#fff5a5" d="M31.09531,9.33221c0.03003-0.41998,0.13-0.84998,0.30994-1.28998C31.25535,8.42224,31.14524,8.86224,31.09531,9.33221z"/><path fill="#ef8759" d="M5.71518,32.535v29.10999c0,0.55228,0.44772,1,1,1h2.76001V32.535H5.71518z"/><path fill="#666" d="M41.28688 37.04446h4.3125c.55273 0 1-.44727 1-1s-.44727-1-1-1h-4.3125c-.55273 0-1 .44727-1 1S40.73414 37.04446 41.28688 37.04446zM45.59938 43.82181h-4.3125c-.55273 0-1 .44727-1 1s.44727 1 1 1h4.3125c.55273 0 1-.44727 1-1S46.15211 43.82181 45.59938 43.82181z"/><path fill="#fff" d="M55.27711 26.83157h.6875c.55273 0 1-.44727 1-1s-.44727-1-1-1h-.6875c-.55273 0-1 .44727-1 1S54.72438 26.83157 55.27711 26.83157zM43.5066 26.83157h8.20801c.55273 0 1-.44727 1-1s-.44727-1-1-1H43.5066c-.55273 0-1 .44727-1 1S42.95387 26.83157 43.5066 26.83157z"/><rect width="22.647" height="2" x="32.118" y="40.375" fill="#666"/></svg>