<svg xmlns="http://www.w3.org/2000/svg" enable-background="new 0 0 68 68" viewBox="0 0 68 68"><circle cx="33.996" cy="12.336" r="10.336" fill="#fe9967"/><path fill="#fe9967" d="M54.68239,35.27198c-2.30151-8.72904-9.95043-12.60069-19.05856-12.60069h-3.24767c-9.10813,0-16.757,3.87165-19.05852,12.60069C27.10378,40.80116,40.89211,40.79963,54.68239,35.27198z"/><path fill="#ef8759" d="M36.37319 22.39164c-.77002.17999-1.56006.27997-2.38.27997-5.70996 0-10.32995-4.63-10.32995-10.34003 0-5.69995 4.62-10.32996 10.32995-10.32996.81995 0 1.60999.09998 2.38.27997-4.57007 1.07001-7.95996 5.17004-7.95996 10.04999C28.41323 17.2216 31.80312 21.32163 36.37319 22.39164zM19.94326 35.27159c5.78992 2.32001 11.57996 3.67004 17.36987 4.03003-8 .52997-16-.82001-24-4.03003 2.31006-8.72998 9.95007-12.59998 19.06006-12.59998h3.25c.57007 0 1.13.02002 1.68994.04999C28.95327 23.17161 22.10317 27.09159 19.94326 35.27159z"/><path fill="#ffac88" d="M31.61318 22.39164c.77002.17999 1.56006.27997 2.38.27997 5.70996 0 10.32996-4.63 10.32996-10.34003 0-5.69995-4.62-10.32996-10.32996-10.32996-.81995 0-1.60999.09998-2.38.27997 4.57007 1.07001 7.95996 5.17004 7.95996 10.04999C39.57314 17.2216 36.18325 21.32163 31.61318 22.39164zM48.04311 35.27159c-5.78992 2.32001-11.57996 3.67004-17.36987 4.03003 8 .52997 16-.82001 24-4.03003-2.31006-8.72998-9.95007-12.59998-19.06006-12.59998h-3.25c-.57007 0-1.13.02002-1.68994.04999C39.0331 23.17161 45.8832 27.09159 48.04311 35.27159z"/><path fill="#e2e2e2" d="M9.48525,54.36976v9.93099c0,0.74896,0.7969,1.23154,1.45947,0.88235C19.51467,60.66658,27.32465,61.50059,34,66V37.37469c-6.92139-4.6525-15.06258-5.37694-24.00594-0.2949c-0.31339,0.17808-0.50881,0.51775-0.50881,0.8782v7.24231"/><path fill="#d3d3d3" d="M20.96328,33.6016v28.62c-3.19608,0.1844-6.54622,1.13199-10.02347,2.9646c-0.66136,0.34855-1.45664-0.13662-1.45664-0.8842v-26.346c0-0.36102,0.19631-0.70154,0.51032-0.87968C13.80998,34.91119,17.47821,33.80268,20.96328,33.6016z"/><path fill="#fe9967" d="M9.58426,54.36976H9.20441c-1.26246,0-2.28589-1.02343-2.28589-2.28588v-4.60093c0-1.26246,1.02343-2.28588,2.28589-2.28588h0.37986c1.26246,0,2.28589,1.02343,2.28589,2.28588v4.60093C11.87015,53.34633,10.84673,54.36976,9.58426,54.36976z"/><path fill="#e2e2e2" d="M58.51371,45.20031V37.958c0-0.36045-0.19542-0.70012-0.5088-0.8782c-8.94336-5.08204-17.08456-4.3576-24.00594,0.2949V66c6.67535-4.49941,14.48533-5.33342,23.05527-0.81689c0.66257,0.34919,1.45947-0.13339,1.45947-0.88235v-9.93099"/><path fill="#ededed" d="M47.03569,33.6016v28.62c3.19608,0.1844,6.54622,1.13199,10.02346,2.9646c0.66136,0.34855,1.45664-0.13662,1.45664-0.8842v-26.346c0-0.36102-0.19631-0.70154-0.51033-0.87968C54.18899,34.91119,50.52075,33.80268,47.03569,33.6016z"/><path fill="#fe9967" d="M58.41573,54.36976h0.37986c1.26246,0,2.28589-1.02343,2.28589-2.28588v-4.60093c0-1.26246-1.02343-2.28588-2.28589-2.28588h-0.37986c-1.26246,0-2.28588,1.02343-2.28588,2.28588v4.60093C56.12985,53.34633,57.15327,54.36976,58.41573,54.36976z"/><path fill="#fff" d="M51.08632 57.26042l-.20703-.05469c-.12793-.03613-.25684-.07129-.38379-.09766-.53613-.11523-1.07227.23242-1.18457.77246-.11426.54004.23242 1.07129.77246 1.18457.08594.01855.17285.04297.25977.06738.0918.02539.18359.05078.27441.07324.0791.01855.15723.02734.23535.02734.45117 0 .86133-.30762.97168-.76563C51.95351 57.93034 51.62343 57.3903 51.08632 57.26042zM47.12929 56.66374c-2.62109-.15723-5.18457.16211-7.61426.94141-.52539.16895-.81543.73145-.64648 1.25781.13574.42383.5293.69434.95215.69434.10059 0 .2041-.01563.30566-.04785 2.19141-.70313 4.50391-.98633 6.88574-.84961.53516.02148 1.02441-.38867 1.05664-.93945C48.10097 57.16862 47.68105 56.69596 47.12929 56.66374z"/></svg>