<svg xmlns="http://www.w3.org/2000/svg" enable-background="new 0 0 68 68" viewBox="0 0 68 68"><path fill="#d3d3d3" d="M50.80362 23.57224c0 2.12-1.46997 3.84003-3.27002 3.84003v-7.67004C49.33364 19.74222 50.80362 21.46225 50.80362 23.57224zM20.61355 19.74222v7.67004c-1.80994 0-3.2699-1.72003-3.2699-3.84003C17.34365 21.46225 18.80362 19.74222 20.61355 19.74222z"/><path fill="#fe9967" d="M62.39763,59.16983c0-6.55409-4.36251-12.31124-10.67614-14.08373c-3.6137-1.0168-7.05561-1.99921-8.33345-2.42517c-0.67609-0.22534-1.27307-0.95365-1.67629-1.51829l-7.54342,5.21444l-7.77694-5.21444c-0.40322,0.56464-1.11017,1.29295-1.78626,1.51829c-1.27098,0.42596-4.71289,1.40837-8.32658,2.42517C9.96492,46.8586,5.60237,52.61574,5.60237,59.16983v4.07485c0,1.66079,1.34634,3.00712,3.00712,3.00712h50.78101c1.66079,0,3.00712-1.34634,3.00712-3.00712V59.16983z"/><path fill="#ffac88" d="M24.60516,42.66089c-0.53162,0.17816-1.45691,0.45721-2.60181,0.79187v22.79901h3.7854V41.83832C25.43011,42.19714,25.01605,42.52393,24.60516,42.66089z"/><path fill="#ef8759" d="M24.34236,42.755c-1.18994,0.40002-2.29993,0.96002-3.31995,1.66003c-5.21008,2.47998-8.67004,8.02997-8.67004,14.26001v4.35999c0,1.77997,1.3501,3.21997,3.01001,3.21997h-6.75c-1.65991,0-3.01001-1.34998-3.01001-3.01001v-4.07996c0-6.55005,4.37012-12.31,10.68005-14.08002C19.66243,44.13501,22.89241,43.21503,24.34236,42.755z"/><path fill="#ffac88" d="M43.65764,42.755c1.18994,0.40002,2.29993,0.96002,3.31995,1.66003c5.21008,2.47998,8.67004,8.02997,8.67004,14.26001v4.35999c0,1.77997-1.3501,3.21997-3.01001,3.21997h6.75c1.65991,0,3.01001-1.34998,3.01001-3.01001v-4.07996c0-6.55005-4.37012-12.31-10.68005-14.08002C48.33757,44.13501,45.10759,43.21503,43.65764,42.755z"/><path fill="#ef8759" d="M34.16833 46.35708l-4.21822 3.47628-5.58541-7.08997c.08932-.03434.16488-.05497.24044-.08244.78321-.26107 1.36027-.82442 1.78626-1.51831L34.16833 46.35708zM43.91019 42.82583l-5.5236 7.00753-4.21826-3.47628 7.54342-5.21444c.41219.61829.95491 1.27787 1.67631 1.51831C43.5323 42.70905 43.71093 42.76402 43.91019 42.82583z"/><polygon fill="#d3d3d3" points="40.918 37.008 41.744 41.144 41.712 41.143 34.168 46.357 26.391 41.143 26.395 41.144 27.222 37.008"/><path fill="#e2e2e2" d="M47.52985,22.05499v6.40002c-0.73999,6.20001-7.03992,11.83002-13.46008,11.83002c-6.42993,0-12.71997-5.64001-13.45996-11.85004v-7.81c0.64001-6.66998,6.5-8.94995,6.5-8.94995s3.92004,4.19995,11.29004,3.90997C43.32977,15.40503,46.73993,19.44501,47.52985,22.05499z"/><path fill="#ededed" d="M47.52985,22.05499v6.40002c-0.73999,6.20001-7.03992,11.83002-13.46008,11.83002c-0.07983,0-0.1499,0.01001-0.21997,0.01996c4.95996-1.64996,8.82007-6.79999,9.42004-11.84998v-6.40002c-0.56995-1.87994-2.54993-4.96997-5.46008-6.45996c0.19006,0,0.39014,0,0.59009-0.01001C43.32977,15.40503,46.73993,19.44501,47.52985,22.05499z"/><path fill="#d3d3d3" d="M33.78986,40.27502C27.4599,40.125,21.33978,34.55499,20.6098,28.435v-7.81c0.64001-6.66998,6.5-8.94995,6.5-8.94995s0.77002,0.82996,2.28003,1.71997c-1.63,1.38-3.43994,3.69-3.78003,7.22998v7.81C26.14984,33.01501,29.44989,38.09503,33.78986,40.27502z"/><circle cx="39.073" cy="23.474" r="2" fill="#444"/><circle cx="29.069" cy="23.474" r="2" fill="#444"/><path fill="#444" d="M47.52985 15.20502v6.84998c-.78992-2.60999-4.20007-6.64996-9.13-6.46997-7.37.28998-11.29004-3.90997-11.29004-3.90997s-5.85999 2.27997-6.5 8.94995v-5.41998c0-7.42999 6.04004-13.46002 13.45996-13.46002C41.48993 1.745 47.52985 7.77502 47.52985 15.20502zM38.37543 33.12195c.39063-.39063.39063-1.02344 0-1.41406s-1.02344-.39063-1.41406 0c-.77148.77148-1.79883 1.19629-2.8916 1.19629s-2.12012-.4248-2.8916-1.19629c-.39063-.39063-1.02344-.39063-1.41406 0s-.39063 1.02344 0 1.41406c1.14844 1.14941 2.67773 1.78223 4.30566 1.78223S37.22699 34.27136 38.37543 33.12195z"/><path fill="#fff" d="M28.10785 60.75183h-.95801c-.55273 0-1 .44727-1 1s.44727 1 1 1h.95801c.55273 0 1-.44727 1-1S28.66058 60.75183 28.10785 60.75183zM40.68988 60.75183h-8.95703c-.55273 0-1 .44727-1 1s.44727 1 1 1h8.95703c.55273 0 1-.44727 1-1S41.24261 60.75183 40.68988 60.75183z"/><path fill="#ef8759" d="M16.81363 58.78184v7.46997h-2v-7.46997c0-.54999.44995-1 1-1C16.37356 57.78184 16.81363 58.23185 16.81363 58.78184zM53.18988 66.25181v-7.46997c0-.54999-.44995-1-1-1s-1 .45001-1 1v7.46997H53.18988z"/></svg>