<svg xmlns="http://www.w3.org/2000/svg" enable-background="new 0 0 68 68" viewBox="0 0 68 68"><path fill="#666" d="M28.40291,12.60216L13.59624,29.45488c-0.47445,0.53375-0.73144,1.22565-0.73144,1.9472v27.75508h5.93057V32.50912l13.37344-15.3503"/><path fill="#feeb75" d="M57.60886,20.24839c3.07055,3.07054,3.07055,8.04888,0,11.11942c-3.07054,3.07055-8.04887,3.07055-11.11942,0L57.60886,20.24839z"/><path fill="#fff3ab" d="M57.60508,31.36395c-0.03049,0.03049-0.05082,0.05076-0.08126,0.07109l-5.50394-5.59537l5.5852-5.59537C60.68198,23.32128,60.68198,28.29715,57.60508,31.36395z"/><path fill="#a7d08c" d="M34.83055,19.81638l-4.76443-4.76443c-3.10021-3.10021-3.10021-8.12666,0-11.22687l0.00001-0.00001c3.10021-3.10021,8.12665-3.10021,11.22687,0l4.76443,4.76443"/><path fill="#444" d="M41.19977,65.49991H6.11054v-3.18967c0-1.91199,1.54997-3.46196,3.46196-3.46196h28.16532c1.91198,0,3.46196,1.54997,3.46196,3.46196V65.49991z"/><path fill="#333" d="M23.92191,58.84827H9.57249c-1.91199,0-3.46191,1.54999-3.46191,3.46198v3.18963h17.81134V58.84827z"/><circle cx="16.455" cy="31.646" r="6.384" fill="#a7d08c"/><path fill="#9ac181" d="M18.11863,37.79749c-0.53003,0.15002-1.09003,0.23004-1.66003,0.23004c-3.52997,0-6.39002-2.86005-6.39002-6.38001c0-3.53003,2.86005-6.39001,6.39002-6.39001c0.57001,0,1.13,0.08002,1.66003,0.22998c-2.73004,0.71002-4.73004,3.20001-4.73004,6.16003C13.38859,34.59754,15.38859,37.08753,18.11863,37.79749z"/><path fill="#badda4" d="M22.83849,31.64752c0,3.51996-2.85999,6.38001-6.38,6.38001c-0.57001,0-1.13-0.08002-1.64996-0.23004c2.71997-0.71997,4.71997-3.19995,4.71997-6.14997s-2-5.44-4.71997-6.16003c0.51996-0.15997,1.07996-0.22998,1.64996-0.22998C19.9785,25.25751,22.83849,28.11749,22.83849,31.64752z"/><circle cx="16.455" cy="31.646" r="2.105" fill="#444"/><path fill="#fe9967" d="M34.20869,58.84828h-4.66842v-3.10943c0-0.31844,0.25815-0.57658,0.57658-0.57658h3.51525c0.31844,0,0.57658,0.25814,0.57658,0.57658V58.84828z"/><path fill="#a7d08c" d="M65.60609,12.23155c0.40262-0.40279,0.40081-1.07473-0.03134-1.44566c-7.37352-6.3289-19.57424-4.95335-26.5377,2.01011c-6.96334,6.96334-8.34073,19.17749-2.0123,26.552c0.37101,0.43233,1.04324,0.43399,1.44599,0.03106L65.60609,12.23155z"/><path fill="#badda4" d="M46.05857,8.58753L43.3986,11.2475l-5.02002-4.83997c-1.56-1.56-3.58997-2.33002-5.62-2.33002c-1.25,0-2.48999,0.28998-3.63,0.88c0.27002-0.40002,0.59003-0.78003,0.94-1.13c1.55005-1.54999,3.58002-2.32001,5.61005-2.32001c2.02997,0,4.06,0.77002,5.60999,2.32001L46.05857,8.58753z"/><path fill="#badda4" d="M65.57554,10.78585c0.4318,0.37102,0.43341,1.04266,0.03094,1.44531l-27.8748,27.88728c-0.01017-0.01016,0,0.01017,0,0l25.03204-25.0836c-6.62096-6.49911-17.87262-6.06245-25.27553-0.48742c0.48742-0.60927,1.00533-1.19827,1.55367-1.74662C46.00362,5.82918,58.20712,4.45466,65.57554,10.78585z"/><path fill="#9ac181" d="M34.82098,19.81745l2.65997-2.65997l-4.83997-5.02002c-1.56-1.56-2.33002-3.58997-2.33002-5.62c0-1.25,0.28998-2.48999,0.88-3.63c-0.40002,0.27002-0.78003,0.59003-1.13,0.94c-1.54999,1.55005-2.32001,3.58002-2.32001,5.61005c0,2.02997,0.77002,4.06,2.32001,5.60999L34.82098,19.81745z"/><path fill="#9ac181" d="M37.0247,39.34882c0.37111,0.43196,1.04303,0.43343,1.44563,0.03065l27.87445-27.88694c-0.01016-0.01017,0.01016,0,0,0L41.26817,36.5226c-6.49911-6.62096-6.06245-17.87262-0.48742-25.27553c-0.60927,0.48742-1.19827,1.00533-1.74662,1.55367C32.06261,19.76239,30.69346,31.97942,37.0247,39.34882z"/><path fill="#fff" d="M47.42475 13.48767c-.39767 0-.7755-.23503-.93814-.62576-.2152-.51766.03074-1.11268.5484-1.32787 3.1149-1.29316 6.5402-1.71166 9.81278-1.05516.55039.11008.9064.64559.79633 1.19499-.11008.55039-.64658.90938-1.19498.79633-2.88285-.57617-5.88965-.20032-8.63465.94012C47.68656 13.46288 47.55466 13.48767 47.42475 13.48767zM43.27552 16.01153c-.28957 0-.57717-.12297-.77749-.36197-.36197-.42841-.30643-1.06904.12297-1.43002.20627-.17454.4175-.3461.63468-.51072.44527-.33916 1.08293-.25288 1.42308.19338.33916.44626.25288 1.08293-.19338 1.42308-.18941.14479-.37486.29453-.55733.44725C43.73765 15.93318 43.50559 16.01153 43.27552 16.01153z"/><path fill="#666" d="M44.66108,66.50009H2.65229c-0.55273,0-1-0.44727-1-1s0.44727-1,1-1h42.00879c0.55273,0,1,0.44727,1,1S45.21381,66.50009,44.66108,66.50009z"/></svg>