<svg xmlns="http://www.w3.org/2000/svg" enable-background="new 0 0 68 68" viewBox="0 0 68 68"><path fill="#a7d08c" d="M43.97468 3.34587c.08002.55005-.29999 1.06-.83997 1.13-2.51001.37-4.23004 1.26001-5.10004 2.65002-.70996 1.13-.73999 2.39001-.64996 3.20001l-2.03003-.17004c-.06-1.12.08002-2.64996.98004-4.08997 1.20996-1.91998 3.39996-3.10999 6.50995-3.56C43.39473 2.41588 43.89473 2.80589 43.97468 3.34587zM9.541 51.89706c0 4.46997 3.62994 8.09998 8.09998 8.09998h45.06c1.52002 0 2.76001 1.23004 2.76001 2.76001 0 .76001-.31 1.45001-.81 1.95001-.5.48999-1.19.79999-1.95001.79999h-46.13c-7.21997 0-13.5-5.45001-14-12.64996C2.291 48.71706 3.87096 44.92702 6.52098 42.24703c2.46997-2.46997 5.88-3.97998 9.64001-3.97998h46.53998c1.52002 0 2.76001 1.22998 2.76001 2.76001v.01001c0 1.51996-1.23999 2.76001-2.76001 2.76001h-45.06C13.17094 43.79708 9.541 47.41708 9.541 51.89706z"/><path fill="#9ac181" d="M65.46098,62.75704c0,0.76001-0.31,1.45001-0.81,1.95001c-0.5,0.48999-1.19,0.79999-1.95001,0.79999h-46.13c-7.21997,0-13.5-5.45001-14-12.64996c-0.07001-1.03003-0.02002-2.05005,0.13-3.02002c1.04999,6.62,7.03998,11.5,13.87,11.5h46.13c0.69,0,1.32001-0.25,1.79999-0.66003C65.09099,61.17702,65.46098,61.91708,65.46098,62.75704z"/><path fill="#badda4" d="M65.46098,41.02706v0.01001c0,0.44-0.10999,0.85999-0.29004,1.22998H16.161c-3.76001,0-7.17004,1.51001-9.64001,3.97998c-2.01001,2.03003-3.40002,4.70001-3.83002,7.67004c-0.02002-0.14001-0.03998-0.27002-0.06-0.41003c-0.02002-0.21997-0.03998-0.42999-0.06-0.64996C2.291,48.71706,3.87096,44.92702,6.52098,42.24703c2.46997-2.46997,5.88-3.97998,9.64001-3.97998h46.53998C64.22099,38.26705,65.46098,39.49703,65.46098,41.02706z"/><path fill="#e2e2e2" d="M62.26628,43.79443v16.20114H17.64313c-4.47382,0-8.10056-3.62674-8.10056-8.10056v-0.00002c0-4.47382,3.62675-8.10056,8.10056-8.10056H62.26628z"/><path fill="#fe9967" d="M53.61351,17.87294c0,5.62903-4.55386,20.2077-10.18295,20.2077c-1.81251,0-3.52029-0.47371-4.99649-1.30452c-1.14483-0.64432-2.56589-0.64432-3.71072,0c-1.47619,0.83081-3.184,1.30452-4.99651,1.30452c-5.62903,0-10.19344-14.57867-10.19344-20.2077c0-5.6291,4.56441-10.19351,10.19344-10.19351c1.81251,0,3.52032,0.47371,4.99651,1.30452c1.14483,0.64432,2.5659,0.64432,3.71072,0c1.47619-0.83081,3.18398-1.30452,4.99649-1.30452C49.05965,7.67943,53.61351,12.24384,53.61351,17.87294z"/><path fill="#ef8759" d="M33.78099,37.23702c-1.23999,0.54004-2.61005,0.84003-4.04999,0.84003c-5.63,0-10.20001-14.58002-10.20001-20.20001c0-5.63,4.57001-10.20001,10.20001-10.20001c1.12,0,2.19995,0.18005,3.20996,0.52002c-4.06,1.34003-6.98999,5.16998-6.98999,9.67999C25.95097,22.68703,29.291,34.04708,33.78099,37.23702z"/><path fill="#ffac88" d="M53.61351,17.87704c0,5.62-4.56,20.20001-10.19,20.20001c-1.44,0-2.81-0.29999-4.04999-0.84003c4.48999-3.17999,7.81995-14.54999,7.81995-19.35999c0-4.51001-2.91998-8.33996-6.96997-9.67999c1-0.33997,2.08002-0.52002,3.20001-0.52002C49.05352,7.67703,53.61351,12.24703,53.61351,17.87704z"/><path fill="#d3d3d3" d="M18.14903 48.71664c0 .55273.44727 1 1 1h39.69629c.55273 0 1-.44727 1-1s-.44727-1-1-1H19.14903C18.5963 47.71664 18.14903 48.1639 18.14903 48.71664zM58.84532 54.05843H19.14903c-.55273 0-1 .44727-1 1s.44727 1 1 1h39.69629c.55273 0 1-.44727 1-1S59.39806 54.05843 58.84532 54.05843z"/><path fill="#fff" d="M44.09453 12.77328c2.44727.46191 4.22266 2.60645 4.22266 5.09961 0 .31738-.01953.65723-.0498 1.01074-.04785.5498.35938 1.03418.91016 1.08203.0293.00293.05762.00391.08691.00391.51367 0 .9502-.39258.99512-.91406.03613-.41211.05762-.81055.05762-1.18262 0-3.4541-2.46094-6.4248-5.85156-7.06445-.54102-.09863-1.06641.25488-1.16797.79688C43.19511 12.14828 43.55156 12.67074 44.09453 12.77328zM48.90703 21.43441c-.53711-.12793-1.07715.20215-1.20605.73926-.06252.26074-.12988.52441-.2002.78906-.1416.53418.17676 1.08203.70996 1.22363.08594.02246.17285.0332.25781.0332.44238 0 .84668-.2959.96582-.74316.07422-.28027.14551-.55957.21191-.83594C49.77519 22.10336 49.44414 21.56332 48.90703 21.43441z"/></svg>