<svg xmlns="http://www.w3.org/2000/svg" enable-background="new 0 0 68 68" viewBox="0 0 68 68"><path fill="#fe9967" d="M45.59233,58.11551l-11.02758,7.60237c-0.34184,0.23566-0.79374,0.23557-1.13549-0.00021l-11.01822-7.6021c-0.34495-0.238-0.5049-0.66584-0.40069-1.07176l7.36659-28.69437l-5.40002-8.25l6.28003-8.2301h7.48999l6.28003,8.2301l-5.40002,8.25l7.3664,28.6941C46.09758,57.44958,45.93748,57.87756,45.59233,58.11551z"/><path fill="#ef8759" d="M26.3369,55.58943l7.51001,10.28991c-0.06995-0.01001-0.15002-0.02991-0.21997-0.04993L33.567,65.79939l-11.16015-7.69006c-0.12988-0.08984-0.23999-0.21997-0.31995-0.35986c-0.10999-0.21008-0.14001-0.46997-0.07996-0.71997l7.37-28.68006l-5.40002-8.25l6.28003-8.2301h4l-6.28003,8.22009l5.3501,8.26001L26.3369,55.58943z"/><path fill="#ffac88" d="M45.91685,57.74946c-0.07996,0.13989-0.18994,0.27002-0.31995,0.35986l-11.16003,7.69006h-0.01001c-0.25,0.10999-0.53992,0.12-0.79993,0.03003l8.03992-10.23999l-6.98999-27.23999l5.3501-8.26001l-6.28003-8.22009h4l6.28003,8.2301l-5.40002,8.25l7.37,28.68006C46.05699,57.27949,46.02696,57.53938,45.91685,57.74946z"/><polygon fill="#666" points="50.039 2.105 34 14.428 17.961 2.105"/><path fill="#e2e2e2" d="M21.36039,25.67339l-6.74063-15.62501c-0.11319-0.26238-0.10873-0.56064,0.01226-0.81951l3.32921-7.12343L34,14.42802L23.00249,25.96719C22.508,26.48603,21.6443,26.3315,21.36039,25.67339z"/><path fill="#d3d3d3" d="M21.36039,25.67339l-6.74063-15.62501c-0.11319-0.26238-0.10873-0.56064,0.01226-0.81951l3.32921-7.12343l7.07233,21.73064l-2.03107,2.13111C22.508,26.48603,21.6443,26.3315,21.36039,25.67339z"/><path fill="#e2e2e2" d="M46.63961,25.67339l6.74063-15.62501c0.11319-0.26238,0.10873-0.56064-0.01226-0.81951l-3.3292-7.12343L34,14.42802l10.99752,11.53917C45.492,26.48603,46.3557,26.3315,46.63961,25.67339z"/><path fill="#ededed" d="M46.63961,25.67339l6.74063-15.62501c0.11319-0.26238,0.10873-0.56064-0.01226-0.81951l-3.3292-7.12343l-7.26677,21.52664l2.22551,2.33511C45.492,26.48603,46.3557,26.3315,46.63961,25.67339z"/><path fill="#fff" d="M39.53554 51.65599c-.4668 0-.88477-.32813-.97949-.80371l-.06641-.33203c-.1084-.54199.24316-1.06836.78418-1.17676.54688-.10938 1.06934.24316 1.17676.78418l.06641.33203c.1084.54199-.24316 1.06836-.78418 1.17676C39.6664 51.65013 39.59999 51.65599 39.53554 51.65599zM38.66347 47.81614c-.45801 0-.87109-.31641-.97461-.78125l-1.84375-8.23145c-.12109-.53906.21777-1.07422.75684-1.19434.54688-.12012 1.07422.21875 1.19434.75684l1.84375 8.23145c.12109.53906-.21777 1.07422-.75684 1.19434C38.80898 47.80833 38.73574 47.81614 38.66347 47.81614z"/></svg>