<svg xmlns="http://www.w3.org/2000/svg" enable-background="new 0 0 68 68" viewBox="0 0 68 68"><path fill="#a7d08c" d="M45.97335 41.51801h-23.9467c-2.24257 0-4.06053-1.81796-4.06053-4.06053v-3.71347c0-.88169.71475-1.59645 1.59645-1.59645h28.87486c.88169 0 1.59645.71476 1.59645 1.59645v3.71347C50.03388 39.70005 48.21592 41.51801 45.97335 41.51801zM22.41396 41.52357l2.94301 21.85605c.15548 1.11057 1.11057 1.9435 2.23225 1.9435h12.8271c1.12168 0 2.07677-.83293 2.22114-1.9435l2.95412-21.85605H22.41396z"/><path fill="#fe9967" d="M43.92574,32.15034H24.47961c-4.27567-3.75666-5.96377-9.79411-1.64363-15.38785c0.12215-0.14444,0.23318-0.28894,0.35539-0.44377c3.75739-4.03622,7.5693-8.74561,8.16137-12.75213c0.12552-0.84941,1.16282-1.20244,1.73057-0.55829c2.0781,2.35777,5.31351,7.36408,5.90036,16.09696c0,0,3.30958-0.88819,4.8461-4.4969c0.34331-0.8063,1.46592-0.84999,1.83173-0.05366C47.40952,18.35992,49.85987,26.22839,43.92574,32.15034z"/><path fill="#ef8759" d="M29.22666,32.15074h-4.75c-4.27002-3.76001-5.96002-9.79004-1.64001-15.39001c0.12-0.14001,0.22998-0.28998,0.34998-0.44c3.75856-4.03476,7.57314-8.74218,8.16492-12.74976c0.12665-0.85769,1.16723-1.2029,1.73981-0.55188c0.67125,0.76321,1.46214,1.80176,2.2453,3.15162c-1.41998,3.35004-4.42999,6.96002-7.40003,10.15002c-0.12,0.15002-0.22998,0.29999-0.34998,0.44C23.26664,22.3607,24.95664,28.39073,29.22666,32.15074z"/><path fill="#ffac88" d="M43.92615,32.15074h-4.75c4.73999-4.72003,4.13-10.69,2.79999-14.84003c0.69582-0.6703,1.37128-1.56067,1.86247-2.73356c0.3329-0.79492,1.45916-0.81007,1.81915-0.02705C47.40744,18.35594,49.86267,26.22881,43.92615,32.15074z"/><path fill="#feeb75" d="M40.27142,32.15034H27.73503c-0.64441-1.58199-0.51068-3.43515,0.85118-5.1979c0.06078-0.06779,0.10947-0.13559,0.17025-0.2147c1.55384-1.66987,3.12629-3.57585,3.73513-5.30681c0.27371-0.77816,1.30561-0.92181,1.7682-0.23882c0.91482,1.35069,1.9332,3.56619,2.15711,6.90161c0,0,1.09417-0.29519,1.89544-1.37991c0.48762-0.66012,1.50068-0.54416,1.76982,0.23114C40.57459,28.36349,40.93456,30.29576,40.27142,32.15034z"/><path fill="#9ac181" d="M27.89665,41.52074h-5.87c-2.23999,0-4.06-1.82001-4.06-4.06v-3.72003c0-0.88,0.71002-1.58997,1.59998-1.58997h5.87c-0.87994,0-1.59998,0.70996-1.59998,1.58997v3.72003C23.83665,39.70073,25.65666,41.52074,27.89665,41.52074z"/><path fill="#9ac181" d="M33.46666,65.32072h-5.88001c-1.12,0-2.07001-0.83002-2.22998-1.94l-2.94-21.85999h5.87l2.95001,21.85999C31.38664,64.49071,32.34666,65.32072,33.46666,65.32072z"/><path fill="#badda4" d="M50.03388 33.74071v3.72003c0 2.23999-1.82001 4.06-4.06 4.06h-5.87c2.23999 0 4.06-1.82001 4.06-4.06v-3.72003c0-.88-.72003-1.58997-1.60004-1.58997h5.88C49.32386 32.15074 50.03388 32.8607 50.03388 33.74071zM45.59159 41.52074l-2.95001 21.85999c-.14996 1.10999-1.09998 1.94-2.22998 1.94h-5.87c1.12 0 2.08002-.83002 2.21997-1.94l2.95001-21.85999H45.59159z"/><path fill="#fff" d="M39.119 56.27129c.04102.00488.08203.00684.12207.00684.49902 0 .92969-.37207.99219-.87891l.91504-7.52246c.06641-.54883-.32422-1.04688-.87207-1.11426-.55469-.06445-1.04688.3252-1.11426.87207l-.91504 7.52246C38.18052 55.70586 38.57115 56.2039 39.119 56.27129zM38.55552 60.07597c.04688.00684.09473.00977.14063.00977.49023 0 .91895-.36035.98926-.86035l.05078-.35938c.07715-.54688-.30371-1.05273-.85059-1.12988-.5459-.08301-1.05273.30371-1.12988.85059l-.05078.35938C37.62779 59.49297 38.00865 59.99883 38.55552 60.07597z"/></svg>