<svg xmlns="http://www.w3.org/2000/svg" enable-background="new 0 0 68 68" viewBox="0 0 68 68"><path fill="#a7d08c" d="M58.71925,65.71015H9.28406c-1.91411,0-3.46581-1.5517-3.46581-3.46581V12.29506c0-1.91411,1.55169-3.46581,3.46581-3.46581h49.43519c1.91411,0,3.46581,1.55169,3.46581,3.46581v49.94929C62.18506,64.15845,60.63337,65.71015,58.71925,65.71015z"/><path fill="#9ac181" d="M16.9649,65.71165H9.28491c-1.90997,0-3.46997-1.54993-3.46997-3.46997V12.29161c0-1.90991,1.56-3.45996,3.46997-3.45996h7.67999c-1.91992,0-3.46997,1.55005-3.46997,3.45996v49.95007C13.49493,64.16172,15.04498,65.71165,16.9649,65.71165z"/><path fill="#badda4" d="M25.5849 65.71165h-3.04993c-1.91003 0-3.46997-1.54993-3.46997-3.46997V12.29161c0-1.90991 1.55994-3.45996 3.46997-3.45996h3.04993c-1.91003 0-3.46997 1.55005-3.46997 3.45996v49.95007C22.11493 64.16172 23.67487 65.71165 25.5849 65.71165zM62.18506 12.29161v49.95007c0 1.92004-1.54993 3.46997-3.47009 3.46997h-7.67993c1.92004 0 3.46997-1.54993 3.46997-3.46997V12.29161c0-1.90991-1.54993-3.45996-3.46997-3.45996h7.67993C60.63513 8.83165 62.18506 10.38169 62.18506 12.29161z"/><path fill="#666" d="M26.23554,49.94329l4.76545-28.82119h6.00134l4.76545,28.82119c0.10247,0.61971-0.15514,1.24395-0.66482,1.61104l-6.13519,4.41883c-0.57703,0.4156-1.3552,0.4156-1.93224,0l-6.13518-4.41883C26.39068,51.18724,26.13308,50.563,26.23554,49.94329z"/><polygon fill="#666" points="41.679 11.829 37.002 21.122 31.001 21.122 26.324 11.829"/><path fill="#444" d="M34.31818,21.12217h-3.31714l-4.7655,28.82105c-0.10242,0.61975,0.15515,1.24402,0.66479,1.61108l6.13513,4.41882c0.37964,0.27332,0.84375,0.34875,1.28271,0.26257V21.12217z"/><polygon fill="#444" points="34.318 11.829 26.324 11.829 31.001 21.122 34.318 21.122"/><polygon fill="#444" points="47.196 2.288 34.002 12.426 20.807 2.288"/><path fill="#e2e2e2" d="M34.00494 12.42173l-6.97998 7.31995-2.13013 2.23999c-.37988.40002-1.03992.28003-1.25989-.22998L17.91486 8.48167l2.89014-6.19006L34.00494 12.42173zM44.36708 21.75284l5.72445-13.26946-2.89531-6.19503L34.00166 12.42572l9.10434 9.55275C43.48575 22.37693 44.14905 22.25825 44.36708 21.75284z"/><path fill="#d3d3d3" d="M27.02496,19.74168l-2.13013,2.23999c-0.37988,0.40002-1.03992,0.28003-1.25989-0.22998L17.91486,8.48167l2.89014-6.19006L27.02496,19.74168z"/><path fill="#ededed" d="M40.97835,19.74168l2.13013,2.23999c0.37988,0.40002,1.03992,0.28003,1.25989-0.22998l5.72009-13.27002l-2.89014-6.19006L40.97835,19.74168z"/><path fill="#fff" d="M57.07086 55.90001c-.00293 0-.00684 0-.00977 0-.55273-.00586-.99609-.45801-.99023-1.00977l.00879-.88574c.00586-.54883.45215-.99023 1-.99023.00293 0 .00684 0 .00977 0 .55273.00586.99609.45801.99023 1.00977l-.00879.88574C58.065 55.4586 57.61871 55.90001 57.07086 55.90001zM57.06989 51.45274c-.55078 0-.99805-.44531-1-.99707l-.02637-8.46875c-.00195-.55176.44434-1.00098.99707-1.00293.00098 0 .00195 0 .00293 0 .55078 0 .99805.44531 1 .99707l.02637 8.46875c.00195.55176-.44434 1.00098-.99707 1.00293C57.07184 51.45274 57.07086 51.45274 57.06989 51.45274z"/></svg>