<svg xmlns="http://www.w3.org/2000/svg" enable-background="new 0 0 68 68" viewBox="0 0 68 68"><path fill="#fdb682" d="M16.18809,63.63102l-11.8189-11.8189c-3.15865-3.15865-3.15865-8.27982,0-11.43847l26.97346-26.97346c0.83184-0.83184,2.18053-0.83184,3.01237,0l20.245,20.245c0.83184,0.83184,0.83184,2.18053,0,3.01237L27.62656,63.63102C24.46791,66.78967,19.34674,66.78967,16.18809,63.63102z"/><path fill="#e2e2e2" d="M65.32549,17.44425L50.55596,2.67472c-0.89859-0.89858-2.35548-0.89858-3.25406,0L35.46573,14.51089l18.02359,18.02359l11.83617-11.83617C66.22407,19.79973,66.22407,18.34284,65.32549,17.44425z"/><path fill="#fe9967" d="M16.18809,63.63102l-11.8189-11.8189c-3.15865-3.15865-3.15865-8.27982,0-11.43847l26.97346-26.97346c0.83184-0.83184,2.18053-0.83184,3.01237,0l20.245,20.245c0.83184,0.83184,0.83184,2.18053,0,3.01237L27.62656,63.63102C24.46791,66.78967,19.34674,66.78967,16.18809,63.63102z"/><path fill="#ef8759" d="M8.37452,55.81255l-3.99923-3.99923c-3.16506-3.16506-3.15761-8.28119,0.00009-11.43889l26.97374-26.97374c0.82654-0.82654,2.17462-0.83408,3.0087,0l3.99914,3.99914c-0.82663-0.82663-2.18216-0.82654-3.0087,0L8.37452,44.37357C5.21682,47.53126,5.21691,52.65494,8.37452,55.81255z"/><path fill="#d3d3d3" d="M54.56207,6.67593c-0.90117-0.90117-2.36089-0.90108-3.26197,0L39.46658,18.50945l-3.99914-3.99914L47.30096,2.67679c0.90108-0.90108,2.36079-0.90117,3.25442-0.00755L54.56207,6.67593z"/><path fill="#ffac88" d="M54.603,36.65458L27.62926,63.62831c-3.1577,3.1577-8.28137,3.15761-11.43907-0.00009l-3.99905-3.99905c3.15761,3.1576,8.28119,3.1576,11.43889-0.00009l26.97374-26.97374c0.82654-0.82654,0.82672-2.18198-0.00745-3.01615l4.00669,4.00669C55.42954,34.47242,55.42954,35.82804,54.603,36.65458z"/><path fill="#ededed" d="M65.32398,20.69982L53.49046,32.53334l-4.00669-4.00669l11.83352-11.83352c0.90108-0.90108,0.90118-2.3608,0.00755-3.25442l3.99915,3.99914C66.22506,18.33893,66.22506,19.79874,65.32398,20.69982z"/><rect width="7.129" height="4.249" x="43.908" y="10.93" fill="#666" transform="rotate(-45 47.472 13.055)"/><rect width="7.129" height="4.249" x="51.381" y="18.403" fill="#666" transform="rotate(-45 54.945 20.527)"/><rect width="2" height="32.891" x="38.521" y="12.034" fill="#666" transform="rotate(-45.001 39.52 28.48)"/><path fill="#fff" d="M13.16669 38.07999l-.38477.35938c-.40332.37695-.4248 1.00977-.04785 1.41309.19629.21094.46289.31738.73047.31738.24512 0 .49023-.08887.68262-.26953l.38477-.35938c.40332-.37695.4248-1.00977.04785-1.41309C14.20379 37.72355 13.56903 37.70206 13.16669 38.07999zM9.44012 46.4716c-.25391-.25488-.39355-.59277-.39258-.95313.00098-.3584.14258-.69531.39844-.94922l2.01563-1.99707c.3916-.38867.39453-1.02148.00586-1.41406-.3877-.3916-1.02051-.39551-1.41406-.00586l-2.01465 1.99609c-.63672.62988-.98828 1.46973-.99121 2.36426-.00293.89648.34473 1.73828.97852 2.37305l2.93945 2.93848c.19531.19531.45117.29297.70703.29297s.51172-.09766.70703-.29297c.39063-.39063.39063-1.02344 0-1.41406L9.44012 46.4716z"/></svg>