<svg xmlns="http://www.w3.org/2000/svg" enable-background="new 0 0 68 68" viewBox="0 0 68 68"><path fill="#a7d08c" d="M11.85498,43.90078v13.85999c0,1.47009,1.27002,2.67004,2.83002,2.67004h48.56842c1.53537,0,2.78003,1.24466,2.78003,2.78003v0.00989c0,1.53537-1.24466,2.78003-2.78003,2.78003H6.33502c-2.41348,0-4.37-1.95651-4.37-4.36999V40.03078c0-2.42004,1.95996-4.37,4.37-4.37h56.9184c1.53537,0,2.78003,1.24466,2.78003,2.78003v0c0,1.53537-1.24466,2.78003-2.78003,2.78003H14.685C13.125,41.22084,11.85498,42.41079,11.85498,43.90078z"/><path fill="#9ac181" d="M13.92499,41.3207H6.33502c-2.41003,0-4.37,1.95007-4.37,4.37012v-5.66003c0-2.42004,1.95996-4.37,4.37-4.37H63.255c1.52997,0,2.77997,1.23999,2.77997,2.78003c0,0.77002-0.31,1.46997-0.81995,1.96997c-0.5,0.5-1.19,0.81006-1.96002,0.81006H14.685C14.42499,41.22084,14.16498,41.25075,13.92499,41.3207z"/><path fill="#badda4" d="M54.93081 46.74071H6.33505c-2.41003 0-4.37 1.95007-4.37 4.37v2.81006c0-2.42004 1.95996-4.37 4.37-4.37h48.59576V46.74071zM66.03497 63.21071v.01001c0 1.54004-1.25 2.78003-2.77997 2.78003H6.33502c-2.41003 0-4.37-1.94995-4.37-4.36999v-5.66003c0 2.41003 1.95996 4.37 4.37 4.37h7.63c.22998.05994.46997.08997.71997.08997H63.255C64.78497 60.43068 66.03497 61.68068 66.03497 63.21071z"/><path fill="#e2e2e2" d="M62.86347,60.43081H14.685c-1.56,0-2.83002-1.19995-2.83002-2.67004V43.90078c0-1.48999,1.27002-2.67993,2.83002-2.67993h48.17847C58.55347,45.98085,57.57349,55.12075,62.86347,60.43081z"/><path fill="#d3d3d3" d="M59.875,46.79079h-45.19c-1.56,0-2.83002,1.19006-2.83002,2.68005v-5.57007c0-1.48999,1.27002-2.67993,2.83002-2.67993h48.17999C61.505,42.72084,60.47498,44.6708,59.875,46.79079z"/><path fill="#ededed" d="M62.86499,60.43081H14.685c-1.56,0-2.83002-1.19995-2.83002-2.67004v-5.56995c0,1.47009,1.27002,2.67004,2.83002,2.67004h45.03998C60.26501,56.91091,61.28497,58.84084,62.86499,60.43081z"/><path fill="#444" d="M39.09744,29.16078c1.0771,1.19678,2.40104,3.29862,2.65535,6.5H26.1872c0.25432-3.20138,1.57825-5.30322,2.64787-6.5"/><circle cx="33.968" cy="16.038" r="14.039" fill="#fe9967"/><path fill="#333" d="M33.375,29.16078c-1.07001,1.19995-2.39001,3.30005-2.65002,6.5H26.185c0.26001-3.19995,1.58002-5.30005,2.65002-6.5H33.375z"/><path fill="#ef8759" d="M36.51501,29.84072c-0.83002,0.16003-1.67999,0.23999-2.54999,0.23999c-7.75,0-14.04004-6.28992-14.04004-14.03992c0-7.76001,6.29004-14.04004,14.04004-14.04004c0.87,0,1.71997,0.07996,2.54999,0.23999c-6.54999,1.18005-11.5,6.91003-11.5,13.80005C25.01501,22.92079,29.96503,28.65077,36.51501,29.84072z"/><path fill="#666" d="M34.56169,29.16078c1.07001,1.19995,2.39001,3.30005,2.65002,6.5h4.53998c-0.26001-3.19995-1.58002-5.30005-2.65002-6.5H34.56169z"/><path fill="#ffac88" d="M31.42167,29.84072c0.83002,0.16003,1.67999,0.23999,2.54999,0.23999c7.75,0,14.04004-6.28992,14.04004-14.03992c0-7.76001-6.29004-14.04004-14.04004-14.04004c-0.87,0-1.71997,0.07996-2.54999,0.23999c6.54999,1.18005,11.5,6.91003,11.5,13.80005C42.92167,22.92079,37.97166,28.65077,31.42167,29.84072z"/><circle cx="33.968" cy="16.038" r="7.334" fill="#ededed"/><path fill="#d3d3d3" d="M33.935,8.70595c-4.03497,0.01831-7.30072,3.29321-7.30072,7.3324s3.26575,7.31409,7.30072,7.3324V8.70595z"/><path fill="#666" d="M18.97894 49.26577H54.56c.55273 0 1-.44727 1-1s-.44727-1-1-1H18.97894c-.55273 0-1 .44727-1 1S18.42621 49.26577 18.97894 49.26577zM54.56 52.38588H18.97894c-.55273 0-1 .44727-1 1s.44727 1 1 1H54.56c.55273 0 1-.44727 1-1S55.11273 52.38588 54.56 52.38588z"/><path fill="#fff" d="M34.9682 12.58657c0-.55273-.44727-1-1-1-2.58496 0-4.6875 2.10254-4.6875 4.6875 0 .55273.44727 1 1 1s1-.44727 1-1c0-1.48144 1.20605-2.6875 2.6875-2.6875C34.52094 13.58657 34.9682 13.1393 34.9682 12.58657zM6.59418 56.76235c-.00293 0-.00684 0-.00977 0-.54785 0-.99414.44141-1 .99023L5.57562 58.6393c-.00586.55176.4375 1.00391.99023 1.00977.00293 0 .00684 0 .00977 0 .54785 0 .99414-.44141 1-.99023l.00879-.88672C7.59027 57.22036 7.14691 56.76821 6.59418 56.76235zM6.57465 55.2018c.00098 0 .00195 0 .00293 0 .55273-.00195.99902-.45117.99707-1.00293l-.02539-8.46875c-.00195-.55176-.44922-.99707-1-.99707-.00098 0-.00195 0-.00293 0C5.99359 44.735 5.5473 45.18422 5.54926 45.73598l.02539 8.46875C5.5766 54.75649 6.02386 55.2018 6.57465 55.2018z"/></svg>