<svg xmlns="http://www.w3.org/2000/svg" enable-background="new 0 0 68 68" viewBox="0 0 68 68"><path fill="#fe9967" d="M26.46008,31.07001c0,0.82001,0.03003,1.63,0.08997,2.42999c-5.13989-0.35999-10.44995-1.65997-15.11987-3.82996c0.41992-10.69,5.58984-20.14001,13.44995-26.34003C27.77002,2.47003,30.83008,2,34,2c2.31006,0,4.56006,0.25,6.7301,0.72003C32.07007,9.15002,26.46008,19.46002,26.46008,31.07001z"/><path fill="#ffac88" d="M24.88013,3.33002C17.02002,9.53003,11.8501,18.98004,11.43018,29.67004c-3-1.40002-5.72009-3.16003-7.96008-5.28003C6.65015,14.29004,14.70007,6.36005,24.88013,3.33002z"/><path fill="#ef8759" d="M53.06006,8.34003c-0.92993,0.69-1.81995,1.42999-2.67993,2.21002c-0.12012,0.10999-0.25,0.21997-0.37012,0.33997c-2.16992,1.98004-4.08984,4.23004-5.69995,6.71002c-2.82996,4.35999-4.73999,9.37-5.40991,14.77002c-3.62012,1.09998-7.92004,1.44995-12.3501,1.12994c-0.05994-0.79999-0.08997-1.60999-0.08997-2.42999c0-11.60999,5.60999-21.91998,14.27002-28.34998C45.28003,3.69,49.46008,5.65002,53.06006,8.34003z"/><path fill="#efd96a" d="M44.63013,43.32001C43.96008,43.66003,43.29004,44,42.59009,44.30005c-11.58008,5.10999-29.93994,1.51996-40.15991-5.29004C2.17017,37.37006,2,35.71002,2,34c0-3.34998,0.52002-6.56995,1.47009-9.60999c2.23999,2.12,4.96008,3.88,7.96008,5.28003c4.66992,2.16998,9.97998,3.46997,15.11987,3.82996c4.43005,0.32001,8.72998-0.02997,12.3501-1.12994c-0.01001,0.04999-0.02002,0.08997-0.03003,0.13995C41.45007,35.83002,43.36011,39.49005,44.63013,43.32001z"/><path fill="#fff48b" d="M46.25,58.05005C35.49011,61.88,21,61.41003,10.9801,56.19c-4.45007-4.60999-7.5-10.56-8.54993-17.17999c10.21997,6.81,28.57983,10.40002,40.15991,5.29004c0.69995-0.30005,1.37-0.64001,2.04004-0.98004C46.20007,48.08002,46.71008,53.10004,46.25,58.05005z"/><path fill="#feeb75" d="M46.25,58.05005C35.49011,61.88,21,61.41003,10.9801,56.19c-4.45007-4.60999-7.5-10.56-8.54993-17.17999c10.21997,6.81,28.57983,10.40002,40.15991,5.29004c0.69995-0.30005,1.37-0.64001,2.04004-0.98004C46.20007,48.08002,46.71008,53.10004,46.25,58.05005z"/><path fill="#fff3ab" d="M46.25,58.05005c-0.17993,1.94-0.47998,4.01001-0.97998,5.90997C41.76001,65.28003,37.97009,66,34,66c-9.04993,0-17.19995-3.76996-23.0199-9.81C21,61.41003,35.49011,61.88,46.25,58.05005z"/><path fill="#badda4" d="M64.69006,43.06006c0.10999-1.5,0.08997-3.01001,0.05005-4.52002c-0.28003-9.04004-4.02002-17.88-10.80994-24.40002c-1.20007-1.15997-2.52002-2.25-3.92017-3.25c0.12012-0.12,0.25-0.22998,0.37012-0.33997c0.85999-0.78003,1.75-1.52002,2.67993-2.21002C60.90015,14.17004,66,23.48004,66,34C66,37.14001,65.55005,40.19,64.69006,43.06006z"/><path fill="#a7d08c" d="M64.69006,43.06006v0.02997c-1.65002,5.56-4.75989,10.47998-8.89001,14.33002c0.96997-3.44,1.54004-7.39001,1.54004-10.94c0-9.82001-3.72998-19.64001-11.19995-27.15002c-0.6001-0.59998-1.20996-1.16998-1.83008-1.72998c1.61011-2.47998,3.53003-4.72998,5.69995-6.71002c1.40015,1,2.72009,2.09003,3.92017,3.25C60.72009,20.66003,64.46008,29.5,64.74011,38.54004C64.78003,40.05005,64.80005,41.56006,64.69006,43.06006z"/><path fill="#9ac181" d="M57.34009,46.48004c0,3.54999-0.57007,7.5-1.54004,10.94c-3.02002,2.82001-6.58997,5.06-10.53003,6.53998c0.5-1.89996,0.80005-3.96997,0.97998-5.90997c0.46008-4.95001-0.04993-9.97003-1.61987-14.73004c-1.27002-3.82996-3.18005-7.48999-5.76001-10.81c0.01001-0.04999,0.02002-0.08997,0.03003-0.13995c0.66992-5.40002,2.57996-10.41003,5.40991-14.77002c0.62012,0.56,1.22998,1.13,1.83008,1.72998C53.61011,26.84003,57.34009,36.66003,57.34009,46.48004z"/><path fill="#fff" d="M30.24304 52.63009c-2.93555 0-7.13086-.35547-9.76074-.82715-.54297-.09766-.90527-.61719-.80762-1.16113.09766-.54297.62012-.9082 1.16113-.80762 2.5293.4541 6.57324.7959 9.40723.7959.55273 0 1 .44727 1 1S30.79578 52.63009 30.24304 52.63009zM16.71667 51.01291c-.07813 0-.15625-.00879-.23535-.02734-.19531-.04785-.38672-.10156-.57813-.15625-.13086-.03711-.2627-.07422-.39551-.1084-.53516-.1377-.85742-.68359-.71973-1.21777.13867-.53516.68945-.85645 1.21777-.71973.14941.03906.29688.08008.44434.12207.16504.04688.33105.09473.5.13477.53711.12988.86719.66992.73828 1.20703C17.57703 50.70529 17.16785 51.01291 16.71667 51.01291z"/></svg>