<svg xmlns="http://www.w3.org/2000/svg" enable-background="new 0 0 68 68" viewBox="0 0 68 68"><circle cx="45.495" cy="22.199" r="20.504" fill="#e2e2e2"/><path fill="#d3d3d3" d="M48.39433,42.49463c-0.94866,0.13929-1.91479,0.20888-2.89825,0.20888c-11.32333,0-20.50562-9.18219-20.50562-20.50551S34.17275,1.69237,45.49608,1.69237c1.15754,0,2.2977,0.09573,3.40306,0.28729c-9.94815,1.40115-17.60727,9.95681-17.60727,20.29664C31.29188,32.44209,38.6899,40.87578,48.39433,42.49463z"/><path fill="#ededed" d="M65.99821,22.27629c0,11.32333-9.18224,20.50551-20.50557,20.50551c-1.15759,0-2.29775-0.09562-3.40312-0.28718c9.94815-1.40126,17.60732-9.95692,17.60732-20.29664c0-10.1658-7.39802-18.59959-17.1025-20.21834c0.94871-0.13929,1.91479-0.20888,2.8983-0.20888C56.81598,1.77078,65.99821,10.95296,65.99821,22.27629z"/><path fill="#fe9967" d="M13.34697,66.30763h-0.00002c-6.26773,0-11.34873-5.08101-11.34873-11.34874V42.19279c0-3.89232,3.15535-7.04766,7.04766-7.04766h8.60216c3.89232,0,7.04766,3.15535,7.04766,7.04766V54.9589C24.6957,61.22663,19.6147,66.30763,13.34697,66.30763z"/><path fill="#ef8759" d="M15.13856,66.16064c-0.58713,0.09686-1.18028,0.14533-1.7916,0.14533c-6.27055,0-11.34874-5.07827-11.34874-11.34875V42.19211c0-3.89182,3.15345-7.04531,7.04531-7.04531h3.58317c-3.89186,0-7.04531,3.15348-7.04531,7.04531v12.76512C5.58138,60.61638,9.72142,65.3072,15.13856,66.16064z"/><path fill="#ffac88" d="M17.33897,65.60059c-4.32505-1.60035-7.40572-5.75779-7.40572-10.64336V42.19211c0-3.89182,3.15345-7.04531,7.04531-7.04531h-1.64631c-3.8919,0-7.04531,3.15348-7.04531,7.04531v12.76512c0,5.27392,3.59757,9.69151,8.47026,10.96654C16.93814,65.80193,17.13043,65.69206,17.33897,65.60059z"/><path fill="#ffac88" d="M24.6957,42.19211v12.76512c0,6.27048-5.08422,11.34875-11.34874,11.34875c-0.61133,0-1.20447-0.04847-1.79156-0.14533c5.4171-0.85345,9.55714-5.54426,9.55714-11.20341V42.19211c0-3.89182-3.15345-7.04531-7.04531-7.04531h3.57714C21.53623,35.1468,24.6957,38.30029,24.6957,42.19211z"/><path fill="#444" d="M13.34846 49.05091c-.00098 0-.00195 0-.00293 0-.55176-.00195-.99902-.4502-.99707-1.00293l.00977-5.55469c.00195-.55078.44922-.99707 1-.99707.00098 0 .00195 0 .00293 0 .55176.00195.99902.4502.99707 1.00293l-.00977 5.55469C14.34651 48.60462 13.89924 49.05091 13.34846 49.05091zM13.28751 40.15052c-.55273 0-1-.44727-1-1v-8.45508c0-.62402-.50781-1.13184-1.13184-1.13184h-.96973c-2.31152 0-4.19141-1.87988-4.19141-4.19141 0-1.125.43945-2.18066 1.2373-2.97266.79102-.78613 1.83887-1.21777 2.95313-1.21777.00879 0 .01855 0 .02832 0l14.59375.09473c.55176.00391.99707.4541.99316 1.00684-.00391.5498-.4502.99316-1 .99316-.00195 0-.00391 0-.00684 0l-14.59375-.09473c-.00488 0-.00977 0-.01465 0-.58301 0-1.12988.22559-1.54395.63672-.41699.41406-.64648.96582-.64648 1.55371 0 1.20801.9834 2.19141 2.19141 2.19141h.96973c1.72656 0 3.13184 1.40527 3.13184 3.13184v8.45508C14.28751 39.70325 13.84024 40.15052 13.28751 40.15052z"/><path fill="#666" d="M14.8683,39.96875v3.02991c0,0.83008-0.68005,1.5-1.51001,1.5H13.3484c-0.83008,0-1.51001-0.66992-1.51001-1.5v-3.02991c0-0.82996,0.67993-1.5,1.51001-1.5h0.00989C14.18825,38.46875,14.8683,39.1388,14.8683,39.96875z"/><path fill="#fff" d="M20.81603 54.05704c-.01563 0-.03125 0-.04688-.00098-.55176-.02539-.97852-.49414-.95313-1.04492l.01367-.22168c.00586-.09961.01367-.19922.01367-.2998 0-.55273.44727-1 1-1s1 .44727 1 1c0 .14551-.00879.28906-.01855.43262l-.01074.18066C21.78868 53.63907 21.3463 54.05704 20.81603 54.05704zM16.21935 62.62833c-.30664 0-.61035-.14063-.80566-.40625-.32813-.44531-.2334-1.07129.21094-1.39844 1.75098-1.29102 3.07617-3.13574 3.73047-5.19434.16797-.52637.73145-.81836 1.25586-.65039.52637.16699.81738.72949.65039 1.25586-.78125 2.45898-2.3623 4.66016-4.44922 6.19824C16.63341 62.56485 16.4254 62.62833 16.21935 62.62833z"/><rect width="22.697" height="2" x="2" y="47.049" fill="#444"/><path fill="#444" d="M65.00179,15.85877c-2.02002-1.95996-4.95996-3.56006-8.51001-4.65002c-1.08997-3.55994-2.69995-6.5-4.6499-8.51001c-2-0.65002-4.13013-1-6.3501-1c-2.20996,0-4.33997,0.34998-6.33008,1c-1.95996,2.01001-3.56982,4.95007-4.65991,8.51001c-3.55005,1.08997-6.48999,2.69006-8.51001,4.66003c-0.6499,1.98999-1,4.11999-1,6.32996c0,2.21008,0.3501,4.33997,1,6.32996c2.02002,1.96997,4.95996,3.57007,8.51001,4.66003c1.09009,3.55994,2.69995,6.5,4.65991,8.51001c1.99011,0.65002,4.12012,1,6.33008,1c2.21997,0,4.3501-0.34998,6.3501-1c1.94995-2.01001,3.55994-4.95007,4.6499-8.51001c3.55005-1.08997,6.48999-2.69006,8.51001-4.65002c0.65002-2,1-4.12988,1-6.33997C66.00179,19.98877,65.65181,17.85877,65.00179,15.85877z M25.10176,23.15882h7.85999c0.06006,2.71997,0.38013,5.28992,0.91003,7.65991C29.05183,29.06873,25.68172,26.2887,25.10176,23.15882z M32.96175,21.15882h-7.85999c0.63-3.1001,3.99011-5.84009,8.77002-7.58008C33.35176,15.92872,33.03181,18.46875,32.96175,21.15882z M44.49178,42.58875c-3.10999-0.59998-5.87-3.95996-7.60999-8.77002c2.34998,0.53003,4.91003,0.8501,7.60999,0.91003V42.58875z M44.49178,32.71875c-2.96997-0.07996-5.80005-0.5-8.33008-1.18005c-0.68994-2.54993-1.10986-5.38989-1.17993-8.37988h9.51001V32.71875z M44.49178,21.15882h-9.51001c0.08008-2.96008,0.48999-5.77002,1.17993-8.30005c2.53003-0.68005,5.36011-1.1001,8.33008-1.18005V21.15882z M44.49178,9.66883c-2.69995,0.05994-5.26001,0.37988-7.60999,0.90991c1.73999-4.81006,4.5-8.16992,7.60999-8.77002V9.66883z M46.49178,1.80872c3.12,0.6001,5.88,3.95996,7.62,8.77002c-2.34998-0.53003-4.91003-0.84998-7.62-0.90991V1.80872z M46.49178,42.58875v-7.85999c2.70996-0.05994,5.27002-0.38,7.62-0.91003C52.37178,38.62879,49.61177,41.98877,46.49178,42.58875z M54.83186,31.5387c-2.54004,0.68005-5.36011,1.1001-8.34009,1.18005v-9.55994h9.52002C55.94173,26.14881,55.5218,28.98877,54.83186,31.5387z M46.49178,21.15882v-9.4801c2.97998,0.07996,5.81006,0.5,8.34009,1.18005c0.68994,2.53003,1.09985,5.33996,1.17993,8.30005H46.49178z M65.88179,21.15882H58.0218c-0.06006-2.69006-0.38-5.2301-0.90002-7.58008C61.90181,15.31873,65.2618,18.05872,65.88179,21.15882z M57.12178,30.81873c0.53003-2.37,0.84998-4.93994,0.91003-7.65991h7.85999C65.31184,26.2887,61.94173,29.06873,57.12178,30.81873z"/></svg>