<svg xmlns="http://www.w3.org/2000/svg" enable-background="new 0 0 68 68" viewBox="0 0 68 68"><path fill="#feeb75" d="M61.98271,50.76641H6.0173V12.41496c0-2.1253,1.7229-3.8482,3.8482-3.8482h48.26902c2.1253,0,3.8482,1.7229,3.8482,3.8482V50.76641z"/><path fill="#efd96a" d="M17.35327,8.56586c-2.13,0-3.84997,1.71997-3.84997,3.84998v38.35004H6.0133V12.41584c0-2.13,1.72998-3.84998,3.84998-3.84998H17.35327z"/><path fill="#fff3ab" d="M61.98271,12.41584v38.35004h-7.48999V12.41584c0-2.13-1.71997-3.84998-3.84998-3.84998h7.48999C60.25273,8.56586,61.98271,10.28583,61.98271,12.41584z"/><rect width="29.558" height="43.633" x="19.221" y="7.319" fill="#444" transform="rotate(90 34 29.135)"/><rect width="6.8" height="29.56" x="12.183" y="14.356" fill="#333"/><rect width="6.8" height="29.56" x="49.013" y="14.356" fill="#666"/><path fill="#fe9967" d="M63.8021,50.76641H4.1979c-1.21387,0-2.1979,0.98403-2.1979,2.1979v4.27193c0,1.21387,0.98403,2.1979,2.1979,2.1979h59.6042c1.21387,0,2.1979-0.98403,2.1979-2.1979v-4.27193C66.00001,51.75044,65.01598,50.76641,63.8021,50.76641z"/><path fill="#ef8759" d="M1.99999,55.05249v2.0882c0,1.21387,0.98401,2.19794,2.19788,2.19794h59.60419c1.21386,0,2.19793-0.98407,2.19793-2.19794v-2.0882H1.99999z"/><path fill="#444" d="M38.10827,50.76641v-1.76422c0-0.94499,0.68998-1.71106,1.54111-1.71106h12.22013c0.85113,0,1.54111,0.76607,1.54111,1.71106v1.76422"/><path fill="#e2e2e2" d="M49.01648 19.99817H18.98327c-.55273 0-1 .44727-1 1s.44727 1 1 1h30.03321c.55273 0 1-.44727 1-1S49.56921 19.99817 49.01648 19.99817zM49.01648 27.52551H18.98327c-.55273 0-1 .44727-1 1s.44727 1 1 1h30.03321c.55273 0 1-.44727 1-1S49.56921 27.52551 49.01648 27.52551zM49.01648 35.05188H18.98327c-.55273 0-1 .44727-1 1s.44727 1 1 1h30.03321c.55273 0 1-.44727 1-1S49.56921 35.05188 49.01648 35.05188z"/></svg>