<svg xmlns="http://www.w3.org/2000/svg" enable-background="new 0 0 68 68" viewBox="0 0 68 68"><path fill="#e2e2e2" d="M58.83636,45.24917H9.16364c-2.20747,0-3.99698-1.78951-3.99698-3.99698V8.14282c0-2.20747,1.78951-3.99697,3.99698-3.99697h49.67271c2.20747,0,3.99697,1.78951,3.99697,3.99697v33.10938C62.83333,43.45966,61.04383,45.24917,58.83636,45.24917z"/><path fill="#ededed" d="M62.83002,8.14001V41.25c0,2.20996-1.79004,4-3.98999,4h-7.82001c2.20996,0,4-1.79004,4-4V8.14001c0-2.20001-1.79004-3.99005-4-3.99005h7.82001C61.03998,4.14996,62.83002,5.94,62.83002,8.14001z"/><path fill="#d3d3d3" d="M5.34964,8.14001V41.25c0,2.20996,1.79004,4,3.98999,4h7.82001c-2.20996,0-4-1.79004-4-4V8.14001c0-2.20001,1.79004-3.99005,4-3.99005H9.33963C7.13968,4.14996,5.34964,5.94,5.34964,8.14001z"/><rect width="45.49" height="29.887" x="11.255" y="9.754" fill="#fe9967"/><rect width="45.5" height="9.75" x="11.25" y="9.75" fill="#ffac88"/><rect width="45.5" height="9.526" x="11.25" y="30.115" fill="#ef8759"/><path fill="#444" d="M46.78743,51.05235H21.21257c-0.55228,0-1-0.44772-1-1v-4.80318h27.57486v4.80318C47.78743,50.60464,47.33971,51.05235,46.78743,51.05235z"/><path fill="#333" d="M47.78998,45.25v4.79999c0,0.55228-0.44772,1-1,1h-3.83997V45.25H47.78998z"/><path fill="#666" d="M25.05254,45.25v5.79999h-3.83997c-0.55228,0-1-0.44772-1-1V45.25H25.05254z"/><path fill="#a7d08c" d="M47.6576,62.37471l-6.18586-11.32237h-6.30951l6.7098,12.28127c0.17533,0.32093,0.51187,0.52055,0.87757,0.52055h4.03043C47.53939,63.85416,48.02168,63.0411,47.6576,62.37471z"/><path fill="#badda4" d="M46.78252,63.84998h-1.45805l-7-12.79999h3.1447l6.19073,11.32018C48.02433,63.03656,47.54206,63.84998,46.78252,63.84998z"/><path fill="#a7d08c" d="M20.3424,62.37471l6.18586-11.32237h6.30951l-6.7098,12.28127c-0.17534,0.32093-0.51187,0.52055-0.87757,0.52055h-4.03043C20.46061,63.85416,19.97832,63.0411,20.3424,62.37471z"/><path fill="#badda4" d="M21.21748,63.84998h1.45806l7-12.79999h-3.1447l-6.19073,11.32018C19.97567,63.03656,20.45794,63.84998,21.21748,63.84998z"/><path fill="#fff" d="M15.99596 14.93732h9.44141c.55273 0 1-.44775 1-1s-.44727-1-1-1h-9.44141c-.55273 0-1 .44775-1 1S15.44323 14.93732 15.99596 14.93732zM29.32897 14.93732h.83301c.55273 0 1-.44775 1-1s-.44727-1-1-1h-.83301c-.55273 0-1 .44775-1 1S28.77624 14.93732 29.32897 14.93732z"/></svg>