<svg xmlns="http://www.w3.org/2000/svg" enable-background="new 0 0 68 68" viewBox="0 0 68 68"><path fill="#333" d="M50.35565,14.2644L50.35565,14.2644c-0.41422,0-0.75-0.33579-0.75-0.75v-2.93457h1.5v2.93457C51.10565,13.92861,50.76986,14.2644,50.35565,14.2644z"/><path fill="#444" d="M31.82334,2.52404l-18.7562,6.21628c-0.6507,0.21566-0.6507,1.17964,0,1.3953l18.7562,6.21628c0.60988,0.20213,1.26451,0.20213,1.87438,0l18.7562-6.21628c0.6507-0.21566,0.6507-1.17964,0-1.3953l-18.7562-6.21628C33.08784,2.32192,32.43321,2.32192,31.82334,2.52404z"/><path fill="#666" d="M43.966,12.93006l1.39008,10.83918c-8.39819-1.52481-16.79539-1.52691-25.19111,0l1.39598-10.87647C29.11003,9.75981,36.58041,9.69649,43.966,12.93006z"/><path fill="#fe9967" d="M45.51956,38.47817v-9.48195c0.86246-0.31089,1.6447-0.64183,2.35673-1.00286c6.68121-3.33718,6.70887-8.52386,6.05626-11.47443c-0.17452-0.78904-1.16808-1.04868-1.70958-0.44883c-0.93751,1.03852-2.77302,2.14005-6.34237,2.14535c-0.45129,0-0.94269-0.02006-1.46418-0.06017c-8.87534-0.66189-11.40256,4.25214-11.40256,4.25214s-2.51719-4.91403-11.39253-4.25214c-0.52149,0.04011-1.01289,0.06017-1.47421,0.06017c-3.56849-0.00529-5.40397-1.10629-6.34169-2.14459c-0.54177-0.59988-1.53537-0.34005-1.70968,0.44924c-0.6522,2.95333-0.62328,8.14566,6.0657,11.4833c0.70201,0.351,1.48424,0.68195,2.3467,0.99283v9.48195"/><path fill="#fe9967" d="M24.70291,64.44075h16.62933c11.08637-9.29691,6.03127-26.17957,6.03127-26.17957c-8.62833-7.97869-18.19229-7.97869-28.69185,0C18.67165,38.26118,13.61642,55.14384,24.70291,64.44075z"/><path fill="#ef8759" d="M31.15264,64.44315h-6.45122c-11.08866-9.2954-6.02866-26.18616-6.02866-26.18616c6.43059-4.88477,12.51082-6.78094,18.24058-5.67831c-3.79246,0.69051-7.71876,2.58668-11.78949,5.67831C25.12385,38.25699,20.06397,55.14775,31.15264,64.44315z"/><path fill="#ffac88" d="M41.33649,64.44315h-6.45121c11.08867-9.2954,6.02866-26.18616,6.02866-26.18616c-3.33895-3.09163-6.8222-4.9878-10.44973-5.67831c5.9874-1.10262,11.61425,0.79354,16.90095,5.67831C47.36515,38.25699,52.41484,55.14775,41.33649,64.44315z"/><path fill="#e2e2e2" d="M45.28403,62.25529c-0.72911-5.64467-3.30841-15.23979-12.26639-21.56967C24.05929,47.0155,21.48,56.61062,20.75107,62.25529H45.28403z"/><path fill="#d3d3d3" d="M33.16333,40.7966c-0.05042-0.03612-0.09496-0.07516-0.14557-0.1111c-8.95858,6.33-11.53765,15.9251-12.26657,21.56981h12.41214V40.7966z"/><path fill="#444" d="M36.1718,37.91625h0.01001c0.01001,1.29004-0.37,3.70996-3.16003,5.42004c-2.73999-1.68005-3.16992-4.03992-3.16992-5.33997v-0.08008c-0.02002-1.29004,0.36987-3.69995,3.15991-5.41992c2.73999,1.67993,3.17004,4.04004,3.17004,5.33997C36.18181,37.86633,36.1718,37.88622,36.1718,37.91625z"/><circle cx="42.556" cy="31.147" r="9.538" fill="#feeb75"/><circle cx="42.556" cy="31.147" r="5.38" fill="#d0d2c7"/><circle cx="42.556" cy="31.147" r="5.38" fill="#d0d2c7"/><circle cx="23.479" cy="31.147" r="9.538" fill="#feeb75"/><circle cx="23.479" cy="31.147" r="5.38" fill="#d0d2c7"/><circle cx="23.479" cy="31.147" r="5.38" fill="#666"/><circle cx="44.248" cy="29.488" r=".945" fill="#fff"/><circle cx="42.556" cy="31.147" r="5.38" fill="#666"/><circle cx="42.57" cy="31.135" r="2.069" fill="#333"/><path fill="#a7d08c" d="M11.77847,58.81889h40.31545v5.62426H11.77847c-0.55229,0-1-0.44772-1-1v-3.62426C10.77847,59.26661,11.22619,58.81889,11.77847,58.81889z"/><path fill="#fe9967" d="M16.1707,58.81884h-4.39221c-0.55237,0-1,0.44775-1,1v3.62427c0,0.55225,0.44763,1,1,1h4.39221V58.81884z"/><rect width="2" height="5.624" x="15.302" y="58.819" fill="#444"/><path fill="#feeb75" d="M56.94108,62.07624l-4.84924,2.37004v-5.63l4.8486,2.36122C57.31493,61.35986,57.31531,61.89334,56.94108,62.07624z"/><path fill="#444" d="M56.94182 62.07629l-1.88.92004v-2.72998l1.88.90991C57.31181 61.35632 57.31181 61.89623 56.94182 62.07629zM26.80661 56.65771L26.80661 56.65771c1.13898 0 2.06229.92332 2.06229 2.06229v4.84526c0 1.13897-.92332 2.06229-2.06229 2.06229h0c-1.13897 0-2.06229-.92332-2.06229-2.06229V58.72C24.74432 57.58103 25.66764 56.65771 26.80661 56.65771zM39.22218 56.65771L39.22218 56.65771c1.13898 0 2.06229.92332 2.06229 2.06229v4.84526c0 1.13897-.92332 2.06229-2.06229 2.06229h0c-1.13897 0-2.06229-.92332-2.06229-2.06229V58.72C37.15989 57.58103 38.0832 56.65771 39.22218 56.65771z"/><circle cx="23.465" cy="31.135" r="2.069" fill="#333"/><path fill="#ededed" d="M45.19182 29.48632c0 .52002-.42004.94995-.94006.94995-.53003 0-.94995-.42993-.94995-.94995s.41992-.93994.94995-.93994C44.77177 28.54638 45.19182 28.9663 45.19182 29.48632zM22.73174 29.48632c0 .52002-.41992.94995-.93994.94995-.53003 0-.94995-.42993-.94995-.94995s.41992-.93994.94995-.93994C22.31181 28.54638 22.73174 28.9663 22.73174 29.48632z"/></svg>